<svg width="254" height="36" viewBox="0 0 254 36" fill="none" xmlns="http://www.w3.org/2000/svg">
<g filter="url(#filter0_d_16_69)">
<rect x="4" width="246" height="28" rx="10" fill="#004080"/>
<rect x="4.5" y="0.5" width="245" height="27" rx="9.5" stroke="#FFD700"/>
</g>
<g filter="url(#filter1_d_16_69)">
<rect x="4" width="246" height="28" rx="10" fill="url(#paint0_linear_16_69)"/>
<rect x="4.5" y="0.5" width="245" height="27" rx="9.5" stroke="#FFD700"/>
</g>
<g filter="url(#filter2_d_16_69)">
<mask id="path-5-outside-1_16_69" maskUnits="userSpaceOnUse" x="99" y="8" width="60" height="14" fill="black">
<rect fill="white" x="99" y="8" width="60" height="14"/>
<path d="M103.987 20.1392C103.331 20.1392 102.746 20.0265 102.232 19.8011C101.722 19.5758 101.316 19.2625 101.014 18.8615C100.716 18.4571 100.554 17.9882 100.527 17.4545H101.78C101.806 17.7827 101.919 18.0661 102.118 18.3047C102.317 18.54 102.577 18.7223 102.899 18.8516C103.22 18.9808 103.576 19.0455 103.967 19.0455C104.405 19.0455 104.793 18.9692 105.131 18.8168C105.469 18.6643 105.734 18.4522 105.926 18.1804C106.118 17.9086 106.215 17.5938 106.215 17.2358C106.215 16.8613 106.122 16.5315 105.936 16.2464C105.751 15.9581 105.479 15.7327 105.121 15.5703C104.763 15.4079 104.325 15.3267 103.808 15.3267H102.993V14.233H103.808C104.213 14.233 104.567 14.16 104.872 14.0142C105.181 13.8684 105.421 13.6629 105.593 13.3977C105.769 13.1326 105.857 12.821 105.857 12.4631C105.857 12.1184 105.78 11.8184 105.628 11.5632C105.475 11.308 105.26 11.1091 104.982 10.9666C104.707 10.8241 104.382 10.7528 104.007 10.7528C103.656 10.7528 103.324 10.8175 103.013 10.9467C102.705 11.0727 102.453 11.2566 102.257 11.4986C102.062 11.7372 101.956 12.0256 101.939 12.3636H100.746C100.766 11.83 100.926 11.3627 101.228 10.9616C101.53 10.5573 101.924 10.2424 102.411 10.017C102.902 9.79167 103.44 9.67898 104.027 9.67898C104.657 9.67898 105.197 9.80658 105.648 10.0618C106.099 10.3137 106.445 10.6468 106.687 11.0611C106.929 11.4754 107.05 11.9228 107.05 12.4034C107.05 12.9768 106.899 13.4657 106.597 13.87C106.299 14.2744 105.893 14.5545 105.379 14.7102V14.7898C106.022 14.8958 106.524 15.1693 106.886 15.6101C107.247 16.0476 107.428 16.5895 107.428 17.2358C107.428 17.7893 107.277 18.2865 106.975 18.7273C106.677 19.1648 106.269 19.5095 105.752 19.7614C105.235 20.0133 104.647 20.1392 103.987 20.1392ZM110.407 20.0795C110.162 20.0795 109.951 19.9917 109.775 19.8161C109.6 19.6404 109.512 19.4299 109.512 19.1847C109.512 18.9394 109.6 18.7289 109.775 18.5533C109.951 18.3776 110.162 18.2898 110.407 18.2898C110.652 18.2898 110.863 18.3776 111.038 18.5533C111.214 18.7289 111.302 18.9394 111.302 19.1847C111.302 19.3471 111.26 19.4962 111.177 19.6321C111.098 19.768 110.99 19.8774 110.854 19.9602C110.722 20.0398 110.573 20.0795 110.407 20.0795ZM118.233 20V9.81818H121.673C122.469 9.81818 123.122 9.95407 123.632 10.2259C124.143 10.4943 124.52 10.8639 124.766 11.3345C125.011 11.8052 125.134 12.3404 125.134 12.9403C125.134 13.5402 125.011 14.0722 124.766 14.5362C124.52 15.0002 124.144 15.3648 123.637 15.63C123.13 15.8918 122.482 16.0227 121.693 16.0227H118.909V14.9091H121.653C122.197 14.9091 122.634 14.8295 122.966 14.6705C123.301 14.5114 123.543 14.286 123.692 13.9943C123.844 13.6993 123.92 13.348 123.92 12.9403C123.92 12.5327 123.844 12.1764 123.692 11.8714C123.539 11.5665 123.296 11.3312 122.961 11.1655C122.626 10.9964 122.184 10.9119 121.634 10.9119H119.466V20H118.233ZM123.026 15.4261L125.531 20H124.099L121.634 15.4261H123.026ZM130.149 20.1591C129.413 20.1591 128.778 19.9967 128.244 19.6719C127.714 19.3438 127.305 18.8864 127.017 18.2997C126.731 17.7098 126.589 17.0237 126.589 16.2415C126.589 15.4593 126.731 14.7699 127.017 14.1733C127.305 13.5734 127.706 13.1061 128.22 12.7713C128.737 12.4332 129.34 12.2642 130.029 12.2642C130.427 12.2642 130.82 12.3305 131.208 12.4631C131.595 12.5956 131.948 12.8111 132.267 13.1094C132.585 13.4044 132.838 13.7955 133.027 14.2827C133.216 14.7699 133.311 15.3698 133.311 16.0824V16.5795H127.424V15.5653H132.117C132.117 15.1345 132.031 14.75 131.859 14.4119C131.69 14.0739 131.448 13.8071 131.133 13.6115C130.821 13.416 130.454 13.3182 130.029 13.3182C129.562 13.3182 129.158 13.4342 128.816 13.6662C128.478 13.8949 128.218 14.1932 128.036 14.5611C127.853 14.929 127.762 15.3234 127.762 15.7443V16.4205C127.762 16.9972 127.862 17.486 128.061 17.8871C128.263 18.2848 128.543 18.5881 128.901 18.7969C129.259 19.0024 129.675 19.1051 130.149 19.1051C130.457 19.1051 130.735 19.062 130.984 18.9759C131.236 18.8864 131.453 18.7538 131.635 18.5781C131.817 18.3991 131.958 18.1771 132.058 17.9119L133.191 18.2301C133.072 18.6146 132.871 18.9527 132.59 19.2443C132.308 19.5327 131.96 19.758 131.546 19.9205C131.131 20.0795 130.666 20.1591 130.149 20.1591ZM140.504 14.0739L139.45 14.3722C139.384 14.1965 139.286 14.0258 139.157 13.8601C139.031 13.6911 138.859 13.5518 138.64 13.4425C138.421 13.3331 138.141 13.2784 137.8 13.2784C137.333 13.2784 136.943 13.3861 136.632 13.6016C136.323 13.8137 136.169 14.0838 136.169 14.4119C136.169 14.7036 136.275 14.9339 136.487 15.103C136.7 15.272 137.031 15.4129 137.482 15.5256L138.615 15.804C139.298 15.9697 139.807 16.2232 140.142 16.5646C140.476 16.9027 140.644 17.3385 140.644 17.8722C140.644 18.3097 140.518 18.7008 140.266 19.0455C140.017 19.3902 139.669 19.6619 139.222 19.8608C138.774 20.0597 138.254 20.1591 137.661 20.1591C136.882 20.1591 136.237 19.9901 135.727 19.652C135.216 19.3139 134.893 18.8201 134.757 18.1705L135.871 17.892C135.977 18.303 136.177 18.6113 136.472 18.8168C136.771 19.0223 137.16 19.125 137.641 19.125C138.188 19.125 138.622 19.009 138.943 18.777C139.268 18.5417 139.431 18.2599 139.431 17.9318C139.431 17.6667 139.338 17.4446 139.152 17.2656C138.967 17.0833 138.682 16.9474 138.297 16.858L137.024 16.5597C136.325 16.3939 135.811 16.1371 135.483 15.7891C135.158 15.4377 134.996 14.9986 134.996 14.4716C134.996 14.0407 135.117 13.6596 135.359 13.3281C135.604 12.9967 135.937 12.7365 136.358 12.5476C136.782 12.3587 137.263 12.2642 137.8 12.2642C138.556 12.2642 139.149 12.4299 139.58 12.7614C140.014 13.0928 140.322 13.5303 140.504 14.0739ZM147.222 16.8778V12.3636H148.396V20H147.222V18.7074H147.143C146.964 19.0952 146.685 19.425 146.308 19.6967C145.93 19.9652 145.452 20.0994 144.876 20.0994C144.398 20.0994 143.974 19.995 143.603 19.7862C143.232 19.5741 142.94 19.2559 142.728 18.8317C142.516 18.4041 142.41 17.8655 142.41 17.2159V12.3636H143.583V17.1364C143.583 17.6932 143.739 18.1373 144.05 18.4688C144.365 18.8002 144.766 18.9659 145.254 18.9659C145.545 18.9659 145.842 18.8913 146.143 18.7422C146.448 18.593 146.704 18.3643 146.909 18.0561C147.118 17.7479 147.222 17.3551 147.222 16.8778ZM151.718 9.81818V20H150.545V9.81818H151.718ZM157.188 12.3636V13.358H153.23V12.3636H157.188ZM154.384 10.5341H155.557V17.8125C155.557 18.1439 155.605 18.3925 155.701 18.5582C155.801 18.7206 155.927 18.83 156.079 18.8864C156.235 18.9394 156.399 18.9659 156.571 18.9659C156.701 18.9659 156.807 18.9593 156.89 18.946C156.972 18.9295 157.039 18.9162 157.088 18.9062L157.327 19.9602C157.248 19.9901 157.136 20.0199 156.994 20.0497C156.851 20.0829 156.671 20.0994 156.452 20.0994C156.121 20.0994 155.796 20.0282 155.478 19.8857C155.163 19.7431 154.901 19.526 154.692 19.2344C154.487 18.9427 154.384 18.5748 154.384 18.1307V10.5341Z"/>
</mask>
<path d="M103.987 20.1392C103.331 20.1392 102.746 20.0265 102.232 19.8011C101.722 19.5758 101.316 19.2625 101.014 18.8615C100.716 18.4571 100.554 17.9882 100.527 17.4545H101.78C101.806 17.7827 101.919 18.0661 102.118 18.3047C102.317 18.54 102.577 18.7223 102.899 18.8516C103.22 18.9808 103.576 19.0455 103.967 19.0455C104.405 19.0455 104.793 18.9692 105.131 18.8168C105.469 18.6643 105.734 18.4522 105.926 18.1804C106.118 17.9086 106.215 17.5938 106.215 17.2358C106.215 16.8613 106.122 16.5315 105.936 16.2464C105.751 15.9581 105.479 15.7327 105.121 15.5703C104.763 15.4079 104.325 15.3267 103.808 15.3267H102.993V14.233H103.808C104.213 14.233 104.567 14.16 104.872 14.0142C105.181 13.8684 105.421 13.6629 105.593 13.3977C105.769 13.1326 105.857 12.821 105.857 12.4631C105.857 12.1184 105.78 11.8184 105.628 11.5632C105.475 11.308 105.26 11.1091 104.982 10.9666C104.707 10.8241 104.382 10.7528 104.007 10.7528C103.656 10.7528 103.324 10.8175 103.013 10.9467C102.705 11.0727 102.453 11.2566 102.257 11.4986C102.062 11.7372 101.956 12.0256 101.939 12.3636H100.746C100.766 11.83 100.926 11.3627 101.228 10.9616C101.53 10.5573 101.924 10.2424 102.411 10.017C102.902 9.79167 103.44 9.67898 104.027 9.67898C104.657 9.67898 105.197 9.80658 105.648 10.0618C106.099 10.3137 106.445 10.6468 106.687 11.0611C106.929 11.4754 107.05 11.9228 107.05 12.4034C107.05 12.9768 106.899 13.4657 106.597 13.87C106.299 14.2744 105.893 14.5545 105.379 14.7102V14.7898C106.022 14.8958 106.524 15.1693 106.886 15.6101C107.247 16.0476 107.428 16.5895 107.428 17.2358C107.428 17.7893 107.277 18.2865 106.975 18.7273C106.677 19.1648 106.269 19.5095 105.752 19.7614C105.235 20.0133 104.647 20.1392 103.987 20.1392ZM110.407 20.0795C110.162 20.0795 109.951 19.9917 109.775 19.8161C109.6 19.6404 109.512 19.4299 109.512 19.1847C109.512 18.9394 109.6 18.7289 109.775 18.5533C109.951 18.3776 110.162 18.2898 110.407 18.2898C110.652 18.2898 110.863 18.3776 111.038 18.5533C111.214 18.7289 111.302 18.9394 111.302 19.1847C111.302 19.3471 111.26 19.4962 111.177 19.6321C111.098 19.768 110.99 19.8774 110.854 19.9602C110.722 20.0398 110.573 20.0795 110.407 20.0795ZM118.233 20V9.81818H121.673C122.469 9.81818 123.122 9.95407 123.632 10.2259C124.143 10.4943 124.52 10.8639 124.766 11.3345C125.011 11.8052 125.134 12.3404 125.134 12.9403C125.134 13.5402 125.011 14.0722 124.766 14.5362C124.52 15.0002 124.144 15.3648 123.637 15.63C123.13 15.8918 122.482 16.0227 121.693 16.0227H118.909V14.9091H121.653C122.197 14.9091 122.634 14.8295 122.966 14.6705C123.301 14.5114 123.543 14.286 123.692 13.9943C123.844 13.6993 123.92 13.348 123.92 12.9403C123.92 12.5327 123.844 12.1764 123.692 11.8714C123.539 11.5665 123.296 11.3312 122.961 11.1655C122.626 10.9964 122.184 10.9119 121.634 10.9119H119.466V20H118.233ZM123.026 15.4261L125.531 20H124.099L121.634 15.4261H123.026ZM130.149 20.1591C129.413 20.1591 128.778 19.9967 128.244 19.6719C127.714 19.3438 127.305 18.8864 127.017 18.2997C126.731 17.7098 126.589 17.0237 126.589 16.2415C126.589 15.4593 126.731 14.7699 127.017 14.1733C127.305 13.5734 127.706 13.1061 128.22 12.7713C128.737 12.4332 129.34 12.2642 130.029 12.2642C130.427 12.2642 130.82 12.3305 131.208 12.4631C131.595 12.5956 131.948 12.8111 132.267 13.1094C132.585 13.4044 132.838 13.7955 133.027 14.2827C133.216 14.7699 133.311 15.3698 133.311 16.0824V16.5795H127.424V15.5653H132.117C132.117 15.1345 132.031 14.75 131.859 14.4119C131.69 14.0739 131.448 13.8071 131.133 13.6115C130.821 13.416 130.454 13.3182 130.029 13.3182C129.562 13.3182 129.158 13.4342 128.816 13.6662C128.478 13.8949 128.218 14.1932 128.036 14.5611C127.853 14.929 127.762 15.3234 127.762 15.7443V16.4205C127.762 16.9972 127.862 17.486 128.061 17.8871C128.263 18.2848 128.543 18.5881 128.901 18.7969C129.259 19.0024 129.675 19.1051 130.149 19.1051C130.457 19.1051 130.735 19.062 130.984 18.9759C131.236 18.8864 131.453 18.7538 131.635 18.5781C131.817 18.3991 131.958 18.1771 132.058 17.9119L133.191 18.2301C133.072 18.6146 132.871 18.9527 132.59 19.2443C132.308 19.5327 131.96 19.758 131.546 19.9205C131.131 20.0795 130.666 20.1591 130.149 20.1591ZM140.504 14.0739L139.45 14.3722C139.384 14.1965 139.286 14.0258 139.157 13.8601C139.031 13.6911 138.859 13.5518 138.64 13.4425C138.421 13.3331 138.141 13.2784 137.8 13.2784C137.333 13.2784 136.943 13.3861 136.632 13.6016C136.323 13.8137 136.169 14.0838 136.169 14.4119C136.169 14.7036 136.275 14.9339 136.487 15.103C136.7 15.272 137.031 15.4129 137.482 15.5256L138.615 15.804C139.298 15.9697 139.807 16.2232 140.142 16.5646C140.476 16.9027 140.644 17.3385 140.644 17.8722C140.644 18.3097 140.518 18.7008 140.266 19.0455C140.017 19.3902 139.669 19.6619 139.222 19.8608C138.774 20.0597 138.254 20.1591 137.661 20.1591C136.882 20.1591 136.237 19.9901 135.727 19.652C135.216 19.3139 134.893 18.8201 134.757 18.1705L135.871 17.892C135.977 18.303 136.177 18.6113 136.472 18.8168C136.771 19.0223 137.16 19.125 137.641 19.125C138.188 19.125 138.622 19.009 138.943 18.777C139.268 18.5417 139.431 18.2599 139.431 17.9318C139.431 17.6667 139.338 17.4446 139.152 17.2656C138.967 17.0833 138.682 16.9474 138.297 16.858L137.024 16.5597C136.325 16.3939 135.811 16.1371 135.483 15.7891C135.158 15.4377 134.996 14.9986 134.996 14.4716C134.996 14.0407 135.117 13.6596 135.359 13.3281C135.604 12.9967 135.937 12.7365 136.358 12.5476C136.782 12.3587 137.263 12.2642 137.8 12.2642C138.556 12.2642 139.149 12.4299 139.58 12.7614C140.014 13.0928 140.322 13.5303 140.504 14.0739ZM147.222 16.8778V12.3636H148.396V20H147.222V18.7074H147.143C146.964 19.0952 146.685 19.425 146.308 19.6967C145.93 19.9652 145.452 20.0994 144.876 20.0994C144.398 20.0994 143.974 19.995 143.603 19.7862C143.232 19.5741 142.94 19.2559 142.728 18.8317C142.516 18.4041 142.41 17.8655 142.41 17.2159V12.3636H143.583V17.1364C143.583 17.6932 143.739 18.1373 144.05 18.4688C144.365 18.8002 144.766 18.9659 145.254 18.9659C145.545 18.9659 145.842 18.8913 146.143 18.7422C146.448 18.593 146.704 18.3643 146.909 18.0561C147.118 17.7479 147.222 17.3551 147.222 16.8778ZM151.718 9.81818V20H150.545V9.81818H151.718ZM157.188 12.3636V13.358H153.23V12.3636H157.188ZM154.384 10.5341H155.557V17.8125C155.557 18.1439 155.605 18.3925 155.701 18.5582C155.801 18.7206 155.927 18.83 156.079 18.8864C156.235 18.9394 156.399 18.9659 156.571 18.9659C156.701 18.9659 156.807 18.9593 156.89 18.946C156.972 18.9295 157.039 18.9162 157.088 18.9062L157.327 19.9602C157.248 19.9901 157.136 20.0199 156.994 20.0497C156.851 20.0829 156.671 20.0994 156.452 20.0994C156.121 20.0994 155.796 20.0282 155.478 19.8857C155.163 19.7431 154.901 19.526 154.692 19.2344C154.487 18.9427 154.384 18.5748 154.384 18.1307V10.5341Z" fill="#F5F5F5"/>
<path d="M102.232 19.8011L101.828 20.7159L101.831 20.7169L102.232 19.8011ZM101.014 18.8615L100.21 19.4552L100.215 19.4626L101.014 18.8615ZM100.527 17.4545V16.4545H99.4762L99.5283 17.5042L100.527 17.4545ZM101.78 17.4545L102.777 17.374L102.702 16.4545H101.78V17.4545ZM102.118 18.3047L101.35 18.9449L101.354 18.9501L102.118 18.3047ZM102.899 18.8516L102.526 19.7794L102.899 18.8516ZM105.926 18.1804L105.11 17.6029L105.926 18.1804ZM105.936 16.2464L105.095 16.7877L105.098 16.7921L105.936 16.2464ZM105.121 15.5703L104.708 16.481L105.121 15.5703ZM102.993 15.3267H101.993V16.3267H102.993V15.3267ZM102.993 14.233V13.233H101.993V14.233H102.993ZM104.872 14.0142L104.445 13.1103L104.441 13.1121L104.872 14.0142ZM105.593 13.3977L104.759 12.8454L104.755 12.8527L105.593 13.3977ZM104.982 10.9666L104.522 11.8545L104.526 11.8568L104.982 10.9666ZM103.013 10.9467L103.391 11.8725L103.396 11.8704L103.013 10.9467ZM102.257 11.4986L103.031 12.1324L103.035 12.1272L102.257 11.4986ZM101.939 12.3636V13.3636H102.891L102.938 12.4126L101.939 12.3636ZM100.746 12.3636L99.7465 12.3264L99.7079 13.3636H100.746V12.3636ZM101.228 10.9616L102.027 11.5627L102.03 11.5595L101.228 10.9616ZM102.411 10.017L101.994 9.10837L101.991 9.10945L102.411 10.017ZM105.648 10.0618L105.155 10.932L105.16 10.9347L105.648 10.0618ZM106.687 11.0611L105.823 11.5654V11.5654L106.687 11.0611ZM106.597 13.87L105.796 13.2721L105.793 13.2764L106.597 13.87ZM105.379 14.7102L105.089 13.7533L104.379 13.9685V14.7102H105.379ZM105.379 14.7898H104.379V15.6383L105.217 15.7764L105.379 14.7898ZM106.886 15.6101L106.112 16.244L106.115 16.2468L106.886 15.6101ZM106.975 18.7273L106.15 18.1626L106.149 18.1639L106.975 18.7273ZM105.752 19.7614L106.19 20.6604L105.752 19.7614ZM103.987 19.1392C103.446 19.1392 103.002 19.0466 102.634 18.8854L101.831 20.7169C102.491 21.0065 103.216 21.1392 103.987 21.1392V19.1392ZM102.636 18.8863C102.264 18.7221 102.001 18.51 101.814 18.2604L100.215 19.4626C100.631 20.0151 101.179 20.4294 101.828 20.7159L102.636 18.8863ZM101.819 18.2679C101.645 18.032 101.543 17.7551 101.526 17.4049L99.5283 17.5042C99.564 18.2212 99.787 18.8823 100.21 19.4552L101.819 18.2679ZM100.527 18.4545H101.78V16.4545H100.527V18.4545ZM100.783 17.5351C100.825 18.0559 101.011 18.538 101.35 18.9449L102.886 17.6645C102.828 17.5941 102.788 17.5095 102.777 17.374L100.783 17.5351ZM101.354 18.9501C101.671 19.3249 102.072 19.597 102.526 19.7794L103.272 17.9237C103.082 17.8476 102.963 17.7551 102.882 17.6592L101.354 18.9501ZM102.526 19.7794C102.98 19.9621 103.465 20.0455 103.967 20.0455V18.0455C103.688 18.0455 103.46 17.9996 103.272 17.9237L102.526 19.7794ZM103.967 20.0455C104.522 20.0455 105.053 19.9486 105.542 19.7283L104.72 17.9052C104.532 17.9898 104.288 18.0455 103.967 18.0455V20.0455ZM105.542 19.7283C106.023 19.5112 106.436 19.1913 106.743 18.7579L105.11 17.6029C105.032 17.7131 104.914 17.8174 104.72 17.9052L105.542 19.7283ZM106.743 18.7579C107.063 18.3043 107.215 17.7842 107.215 17.2358H105.215C105.215 17.4033 105.173 17.513 105.11 17.6029L106.743 18.7579ZM107.215 17.2358C107.215 16.6879 107.076 16.1644 106.774 15.7008L105.098 16.7921C105.167 16.8986 105.215 17.0347 105.215 17.2358H107.215ZM106.777 15.7052C106.473 15.2325 106.041 14.8896 105.534 14.6597L104.708 16.481C104.917 16.5758 105.028 16.6837 105.095 16.7877L106.777 15.7052ZM105.534 14.6597C105.012 14.4229 104.425 14.3267 103.808 14.3267V16.3267C104.226 16.3267 104.514 16.3929 104.708 16.481L105.534 14.6597ZM103.808 14.3267H102.993V16.3267H103.808V14.3267ZM103.993 15.3267V14.233H101.993V15.3267H103.993ZM102.993 15.233H103.808V13.233H102.993V15.233ZM103.808 15.233C104.333 15.233 104.84 15.138 105.304 14.9163L104.441 13.1121C104.294 13.1821 104.092 13.233 103.808 13.233V15.233ZM105.3 14.9181C105.762 14.6995 106.15 14.3754 106.432 13.9427L104.755 12.8527C104.691 12.9503 104.599 13.0373 104.445 13.1103L105.3 14.9181ZM106.427 13.95C106.724 13.5011 106.857 12.992 106.857 12.4631H104.857C104.857 12.6501 104.813 12.7641 104.759 12.8454L106.427 13.95ZM106.857 12.4631C106.857 11.967 106.745 11.4839 106.486 11.0504L104.769 12.0761C104.815 12.1529 104.857 12.2697 104.857 12.4631H106.857ZM106.486 11.0504C106.233 10.6255 105.874 10.2998 105.437 10.0765L104.526 11.8568C104.646 11.9185 104.718 11.9905 104.769 12.0761L106.486 11.0504ZM105.442 10.0787C104.998 9.84869 104.509 9.75284 104.007 9.75284V11.7528C104.255 11.7528 104.415 11.7995 104.522 11.8545L105.442 10.0787ZM104.007 9.75284C103.53 9.75284 103.068 9.84132 102.63 10.0231L103.396 11.8704C103.581 11.7936 103.782 11.7528 104.007 11.7528V9.75284ZM102.635 10.021C102.182 10.2061 101.788 10.4877 101.479 10.87L103.035 12.1272C103.117 12.0255 103.228 11.9392 103.391 11.8724L102.635 10.021ZM101.484 10.8648C101.139 11.2854 100.966 11.7845 100.94 12.3147L102.938 12.4126C102.945 12.2667 102.984 12.1891 103.031 12.1324L101.484 10.8648ZM101.939 11.3636H100.746V13.3636H101.939V11.3636ZM101.745 12.4009C101.758 12.0574 101.856 11.7899 102.027 11.5627L100.429 10.3606C99.9965 10.9355 99.7735 11.6026 99.7465 12.3264L101.745 12.4009ZM102.03 11.5595C102.225 11.2971 102.485 11.0848 102.831 10.9246L101.991 9.10945C101.363 9.40007 100.834 9.81745 100.427 10.3638L102.03 11.5595ZM102.829 10.9257C103.177 10.7656 103.572 10.679 104.027 10.679V8.67898C103.309 8.67898 102.626 8.81775 101.994 9.10837L102.829 10.9257ZM104.027 10.679C104.521 10.679 104.884 10.7784 105.155 10.932L106.141 9.19158C105.51 8.83473 104.792 8.67898 104.027 8.67898V10.679ZM105.16 10.9347C105.467 11.1064 105.678 11.317 105.823 11.5654L107.55 10.5568C107.212 9.97651 106.73 9.52099 106.136 9.18885L105.16 10.9347ZM105.823 11.5654C105.976 11.8264 106.05 12.0997 106.05 12.4034H108.05C108.05 11.7459 107.882 11.1244 107.55 10.5568L105.823 11.5654ZM106.05 12.4034C106.05 12.7921 105.951 13.0636 105.796 13.2721L107.399 14.4679C107.847 13.8677 108.05 13.1615 108.05 12.4034H106.05ZM105.793 13.2764C105.631 13.4952 105.412 13.6555 105.089 13.7533L105.67 15.6672C106.374 15.4535 106.967 15.0536 107.402 14.4637L105.793 13.2764ZM104.379 14.7102V14.7898H106.379V14.7102H104.379ZM105.217 15.7764C105.657 15.849 105.927 16.0179 106.112 16.244L107.659 14.9762C107.122 14.3207 106.388 13.9427 105.542 13.8031L105.217 15.7764ZM106.115 16.2468C106.308 16.4804 106.428 16.7877 106.428 17.2358H108.428C108.428 16.3913 108.186 15.6148 107.657 14.9734L106.115 16.2468ZM106.428 17.2358C106.428 17.5955 106.333 17.8944 106.15 18.1626L107.801 19.292C108.22 18.6785 108.428 17.9831 108.428 17.2358H106.428ZM106.149 18.1639C105.957 18.4454 105.689 18.6799 105.314 18.8624L106.19 20.6604C106.85 20.339 107.397 19.8841 107.801 19.2906L106.149 18.1639ZM105.314 18.8624C104.952 19.0387 104.517 19.1392 103.987 19.1392V21.1392C104.776 21.1392 105.518 20.9878 106.19 20.6604L105.314 18.8624ZM109.775 19.8161L110.483 19.1089L109.775 19.8161ZM111.038 18.5533L111.745 17.8462L111.038 18.5533ZM111.177 19.6321L110.324 19.1115L110.319 19.1192L110.314 19.1269L111.177 19.6321ZM110.854 19.9602L111.369 20.8177L111.375 20.814L110.854 19.9602ZM110.407 19.0795C110.405 19.0795 110.41 19.0794 110.419 19.0811C110.428 19.0829 110.439 19.086 110.45 19.0908C110.476 19.1015 110.486 19.1128 110.483 19.1089L109.068 20.5232C109.429 20.8836 109.893 21.0795 110.407 21.0795V19.0795ZM110.483 19.1089C110.479 19.1051 110.49 19.1158 110.501 19.1413C110.506 19.1529 110.509 19.1638 110.51 19.1728C110.512 19.1817 110.512 19.1861 110.512 19.1847H108.512C108.512 19.699 108.708 20.1627 109.068 20.5232L110.483 19.1089ZM110.512 19.1847C110.512 19.1833 110.512 19.1877 110.51 19.1965C110.509 19.2055 110.506 19.2164 110.501 19.228C110.49 19.2535 110.479 19.2643 110.483 19.2604L109.068 17.8462C108.708 18.2066 108.512 18.6704 108.512 19.1847H110.512ZM110.483 19.2604C110.486 19.2565 110.476 19.2679 110.45 19.2785C110.439 19.2833 110.428 19.2864 110.419 19.2882C110.41 19.2899 110.405 19.2898 110.407 19.2898V17.2898C109.893 17.2898 109.429 17.4857 109.068 17.8462L110.483 19.2604ZM110.407 19.2898C110.408 19.2898 110.404 19.2899 110.395 19.2882C110.386 19.2864 110.375 19.2833 110.364 19.2785C110.338 19.2679 110.327 19.2565 110.331 19.2604L111.745 17.8462C111.385 17.4857 110.921 17.2898 110.407 17.2898V19.2898ZM110.331 19.2604C110.335 19.2643 110.324 19.2535 110.313 19.228C110.308 19.2164 110.305 19.2055 110.303 19.1965C110.302 19.1877 110.302 19.1833 110.302 19.1847H112.302C112.302 18.6704 112.106 18.2066 111.745 17.8462L110.331 19.2604ZM110.302 19.1847C110.302 19.1799 110.303 19.1674 110.307 19.1507C110.312 19.1338 110.318 19.1202 110.324 19.1115L112.031 20.1527C112.212 19.8567 112.302 19.5268 112.302 19.1847H110.302ZM110.314 19.1269C110.315 19.1252 110.319 19.1202 110.325 19.1144C110.33 19.1086 110.334 19.1061 110.334 19.1064L111.375 20.814C111.65 20.646 111.876 20.4175 112.04 20.1373L110.314 19.1269ZM110.34 19.1027C110.354 19.0945 110.37 19.0877 110.385 19.0835C110.401 19.0794 110.409 19.0795 110.407 19.0795V21.0795C110.74 21.0795 111.07 20.9972 111.369 20.8177L110.34 19.1027ZM118.233 20H117.233V21H118.233V20ZM118.233 9.81818V8.81818H117.233V9.81818H118.233ZM123.632 10.2259L123.162 11.1085L123.167 11.1109L123.632 10.2259ZM124.766 11.3345L123.879 11.7967L123.879 11.7967L124.766 11.3345ZM124.766 14.5362L123.882 14.0689V14.0689L124.766 14.5362ZM123.637 15.63L124.096 16.5185L124.1 16.5161L123.637 15.63ZM118.909 16.0227H117.909V17.0227H118.909V16.0227ZM118.909 14.9091V13.9091H117.909V14.9091H118.909ZM122.966 14.6705L122.537 13.7673L122.533 13.7689L122.966 14.6705ZM123.692 13.9943L122.803 13.5352L122.801 13.539L123.692 13.9943ZM123.692 11.8714L124.586 11.4242L123.692 11.8714ZM122.961 11.1655L122.51 12.0582L122.517 12.0617L122.961 11.1655ZM119.466 10.9119V9.91193H118.466V10.9119H119.466ZM119.466 20V21H120.466V20H119.466ZM123.026 15.4261L123.903 14.9457L123.618 14.4261H123.026V15.4261ZM125.531 20V21H127.219L126.408 19.5195L125.531 20ZM124.099 20L123.219 20.4746L123.502 21H124.099V20ZM121.634 15.4261V14.4261H119.958L120.753 15.9007L121.634 15.4261ZM119.233 20V9.81818H117.233V20H119.233ZM118.233 10.8182H121.673V8.81818H118.233V10.8182ZM121.673 10.8182C122.363 10.8182 122.84 10.9372 123.162 11.1085L124.102 9.34318C123.403 8.9709 122.574 8.81818 121.673 8.81818V10.8182ZM123.167 11.1109C123.513 11.2932 123.736 11.5223 123.879 11.7967L125.652 10.8724C125.305 10.2054 124.772 9.69544 124.098 9.34081L123.167 11.1109ZM123.879 11.7967C124.041 12.1069 124.134 12.4801 124.134 12.9403H126.134C126.134 12.2007 125.981 11.5034 125.652 10.8724L123.879 11.7967ZM124.134 12.9403C124.134 13.4009 124.04 13.7683 123.882 14.0689L125.65 15.0035C125.981 14.3761 126.134 13.6796 126.134 12.9403H124.134ZM123.882 14.0689C123.739 14.3377 123.518 14.5636 123.174 14.7438L124.1 16.5161C124.77 16.1661 125.301 15.6628 125.65 15.0035L123.882 14.0689ZM123.178 14.7414C122.857 14.9075 122.38 15.0227 121.693 15.0227V17.0227C122.584 17.0227 123.403 16.8761 124.096 16.5185L123.178 14.7414ZM121.693 15.0227H118.909V17.0227H121.693V15.0227ZM119.909 16.0227V14.9091H117.909V16.0227H119.909ZM118.909 15.9091H121.653V13.9091H118.909V15.9091ZM121.653 15.9091C122.281 15.9091 122.883 15.8194 123.399 15.572L122.533 13.7689C122.386 13.8397 122.113 13.9091 121.653 13.9091V15.9091ZM123.395 15.5736C123.901 15.3331 124.32 14.9627 124.582 14.4496L122.801 13.539C122.765 13.6093 122.7 13.6896 122.537 13.7673L123.395 15.5736ZM124.58 14.4535C124.821 13.9878 124.92 13.4719 124.92 12.9403H122.92C122.92 13.2241 122.868 13.4109 122.803 13.5352L124.58 14.4535ZM124.92 12.9403C124.92 12.4075 124.82 11.8927 124.586 11.4242L122.797 12.3187C122.868 12.4601 122.92 12.6578 122.92 12.9403H124.92ZM124.586 11.4242C124.327 10.9057 123.915 10.5218 123.405 10.2693L122.517 12.0617C122.677 12.1406 122.752 12.2273 122.797 12.3187L124.586 11.4242ZM123.412 10.2728C122.887 10.008 122.273 9.91193 121.634 9.91193V11.9119C122.095 11.9119 122.365 11.9849 122.51 12.0581L123.412 10.2728ZM121.634 9.91193H119.466V11.9119H121.634V9.91193ZM118.466 10.9119V20H120.466V10.9119H118.466ZM119.466 19H118.233V21H119.466V19ZM122.149 15.9066L124.654 20.4805L126.408 19.5195L123.903 14.9457L122.149 15.9066ZM125.531 19H124.099V21H125.531V19ZM124.98 19.5254L122.514 14.9516L120.753 15.9007L123.219 20.4746L124.98 19.5254ZM121.634 16.4261H123.026V14.4261H121.634V16.4261ZM128.244 19.6719L127.718 20.5223L127.725 20.5261L128.244 19.6719ZM127.017 18.2997L126.116 18.7348L126.119 18.7408L127.017 18.2997ZM127.017 14.1733L126.115 13.7401L126.114 13.7422L127.017 14.1733ZM128.22 12.7713L128.766 13.6091L128.767 13.6083L128.22 12.7713ZM131.208 12.4631L131.531 11.5168L131.531 11.5168L131.208 12.4631ZM132.267 13.1094L131.583 13.8389L131.587 13.8427L132.267 13.1094ZM133.027 14.2827L133.96 13.9211L133.96 13.9211L133.027 14.2827ZM133.311 16.5795V17.5795H134.311V16.5795H133.311ZM127.424 16.5795H126.424V17.5795H127.424V16.5795ZM127.424 15.5653V14.5653H126.424V15.5653H127.424ZM132.117 15.5653V16.5653H133.117V15.5653H132.117ZM131.859 14.4119L130.964 14.8592L130.968 14.8661L131.859 14.4119ZM131.133 13.6115L130.601 14.4585L130.605 14.461L131.133 13.6115ZM128.816 13.6662L129.377 14.4945L129.378 14.4933L128.816 13.6662ZM128.036 14.5611L127.14 14.1171L127.14 14.1171L128.036 14.5611ZM128.061 17.8871L127.165 18.3313L127.169 18.3402L128.061 17.8871ZM128.901 18.7969L128.397 19.6607L128.403 19.6641L128.901 18.7969ZM130.984 18.9759L131.311 19.9207L131.319 19.9182L130.984 18.9759ZM131.635 18.5781L132.329 19.2982L132.336 19.2917L131.635 18.5781ZM132.058 17.9119L132.328 16.9491L131.444 16.701L131.121 17.5608L132.058 17.9119ZM133.191 18.2301L134.146 18.5265L134.451 17.5451L133.461 17.2673L133.191 18.2301ZM132.59 19.2443L133.305 19.9432L133.309 19.9391L132.59 19.2443ZM131.546 19.9205L131.904 20.854L131.911 20.8515L131.546 19.9205ZM130.149 19.1591C129.563 19.1591 129.115 19.0313 128.764 18.8177L127.725 20.5261C128.441 20.9621 129.262 21.1591 130.149 21.1591V19.1591ZM128.771 18.8215C128.408 18.5971 128.124 18.2852 127.914 17.8586L126.119 18.7408C126.486 19.4875 127.02 20.0904 127.718 20.5223L128.771 18.8215ZM127.917 17.8647C127.709 17.4342 127.589 16.9019 127.589 16.2415H125.589C125.589 17.1455 125.754 17.9853 126.116 18.7347L127.917 17.8647ZM127.589 16.2415C127.589 15.5814 127.709 15.0439 127.919 14.6044L126.114 13.7422C125.754 14.4958 125.589 15.3372 125.589 16.2415H127.589ZM127.918 14.6065C128.134 14.1568 128.418 13.8356 128.766 13.6091L127.674 11.9335C126.994 12.3766 126.476 12.9899 126.115 13.7401L127.918 14.6065ZM128.767 13.6083C129.103 13.3887 129.511 13.2642 130.029 13.2642V11.2642C129.169 11.2642 128.371 11.4778 127.672 11.9343L128.767 13.6083ZM130.029 13.2642C130.314 13.2642 130.597 13.3112 130.884 13.4093L131.531 11.5168C131.042 11.3498 130.54 11.2642 130.029 11.2642V13.2642ZM130.884 13.4093C131.129 13.4931 131.361 13.6312 131.583 13.8389L132.95 12.3798C132.536 11.9909 132.061 11.6982 131.531 11.5168L130.884 13.4093ZM131.587 13.8427C131.773 14.0156 131.95 14.2699 132.095 14.6442L133.96 13.9211C133.727 13.321 133.396 12.7932 132.946 12.376L131.587 13.8427ZM132.095 14.6442C132.226 14.9825 132.311 15.4514 132.311 16.0824H134.311C134.311 15.2882 134.206 14.5572 133.96 13.9211L132.095 14.6442ZM132.311 16.0824V16.5795H134.311V16.0824H132.311ZM133.311 15.5795H127.424V17.5795H133.311V15.5795ZM128.424 16.5795V15.5653H126.424V16.5795H128.424ZM127.424 16.5653H132.117V14.5653H127.424V16.5653ZM133.117 15.5653C133.117 14.9981 133.003 14.4545 132.75 13.9577L130.968 14.8661C131.059 15.0455 131.117 15.2708 131.117 15.5653H133.117ZM132.753 13.9647C132.503 13.4647 132.136 13.0572 131.661 12.762L130.605 14.461C130.76 14.557 130.876 14.6831 130.964 14.8591L132.753 13.9647ZM131.665 12.7645C131.171 12.4544 130.612 12.3182 130.029 12.3182V14.3182C130.295 14.3182 130.472 14.3775 130.601 14.4585L131.665 12.7645ZM130.029 12.3182C129.389 12.3182 128.783 12.4799 128.254 12.8391L129.378 14.4933C129.533 14.3884 129.735 14.3182 130.029 14.3182V12.3182ZM128.256 12.8379C127.774 13.1641 127.398 13.5952 127.14 14.1171L128.932 15.0051C129.038 14.7912 129.183 14.6257 129.377 14.4945L128.256 12.8379ZM127.14 14.1171C126.887 14.6266 126.762 15.1734 126.762 15.7443H128.762C128.762 15.4734 128.82 15.2314 128.932 15.0051L127.14 14.1171ZM126.762 15.7443V16.4205H128.762V15.7443H126.762ZM126.762 16.4205C126.762 17.1083 126.88 17.7583 127.165 18.3313L128.956 17.4428C128.843 17.2138 128.762 16.886 128.762 16.4205H126.762ZM127.169 18.3402C127.451 18.8955 127.86 19.3476 128.397 19.6607L129.405 17.9331C129.225 17.8286 129.074 17.6741 128.952 17.4339L127.169 18.3402ZM128.403 19.6641C128.934 19.9688 129.526 20.1051 130.149 20.1051V18.1051C129.823 18.1051 129.584 18.0359 129.399 17.9296L128.403 19.6641ZM130.149 20.1051C130.55 20.1051 130.941 20.049 131.311 19.9207L130.656 18.031C130.529 18.075 130.364 18.1051 130.149 18.1051V20.1051ZM131.319 19.9182C131.697 19.7837 132.039 19.5781 132.329 19.2982L130.941 17.858C130.867 17.9294 130.774 17.989 130.649 18.0336L131.319 19.9182ZM132.336 19.2917C132.633 18.9999 132.849 18.6498 132.994 18.2631L131.121 17.5608C131.068 17.7043 131.002 17.7984 130.935 17.8646L132.336 19.2917ZM131.787 18.8747L132.921 19.1929L133.461 17.2673L132.328 16.9491L131.787 18.8747ZM132.236 17.9337C132.164 18.1677 132.044 18.3696 131.87 18.5496L133.309 19.9391C133.698 19.5357 133.98 19.0615 134.146 18.5265L132.236 17.9337ZM131.874 18.5455C131.702 18.7224 131.477 18.8733 131.181 18.9894L131.911 20.8515C132.443 20.6428 132.914 20.3429 133.305 19.9432L131.874 18.5455ZM131.187 18.9869C130.904 19.0955 130.563 19.1591 130.149 19.1591V21.1591C130.768 21.1591 131.358 21.0636 131.904 20.854L131.187 18.9869ZM140.504 14.0739L140.777 15.0361L141.786 14.7504L141.453 13.7559L140.504 14.0739ZM139.45 14.3722L138.515 14.7252L138.839 15.5845L139.723 15.3344L139.45 14.3722ZM139.157 13.8601L138.355 14.4576L138.362 14.4664L138.369 14.4751L139.157 13.8601ZM138.64 13.4425L139.087 12.548V12.548L138.64 13.4425ZM136.632 13.6016L137.198 14.4253L137.2 14.4241L136.632 13.6016ZM136.487 15.103L135.864 15.885L136.487 15.103ZM137.482 15.5256L137.239 16.4957L137.243 16.4967L137.482 15.5256ZM138.615 15.804L138.377 16.7751L138.379 16.7758L138.615 15.804ZM140.142 16.5646L139.427 17.2648L139.431 17.2682L140.142 16.5646ZM140.266 19.0455L139.458 18.4554L139.455 18.4605L140.266 19.0455ZM135.727 19.652L136.279 18.8183L135.727 19.652ZM134.757 18.1705L134.515 17.2003L133.582 17.4336L133.778 18.3752L134.757 18.1705ZM135.871 17.892L136.839 17.6422L136.591 16.6812L135.628 16.9219L135.871 17.892ZM136.472 18.8168L135.901 19.6373L135.905 19.6403L136.472 18.8168ZM138.943 18.777L139.529 19.5879L139.53 19.5868L138.943 18.777ZM139.152 17.2656L138.451 17.9791L138.458 17.9855L139.152 17.2656ZM138.297 16.858L138.069 17.8316L138.07 17.8319L138.297 16.858ZM137.024 16.5597L136.794 17.5327L136.796 17.5333L137.024 16.5597ZM135.483 15.7891L134.749 16.4679L134.756 16.4751L135.483 15.7891ZM135.359 13.3281L134.555 12.7333L134.551 12.7385L135.359 13.3281ZM136.358 12.5476L135.951 11.6341L135.949 11.6353L136.358 12.5476ZM139.58 12.7614L138.97 13.554L138.973 13.5562L139.58 12.7614ZM140.232 13.1117L139.178 13.41L139.723 15.3344L140.777 15.0361L140.232 13.1117ZM140.386 14.0191C140.28 13.7387 140.13 13.4808 139.946 13.2451L138.369 14.4751C138.443 14.5708 138.488 14.6543 138.515 14.7252L140.386 14.0191ZM139.959 13.2626C139.726 12.9496 139.423 12.7161 139.087 12.548L138.193 14.3369C138.294 14.3876 138.337 14.4325 138.355 14.4576L139.959 13.2626ZM139.087 12.548C138.686 12.3473 138.239 12.2784 137.8 12.2784V14.2784C138.044 14.2784 138.157 14.3189 138.193 14.3369L139.087 12.548ZM137.8 12.2784C137.177 12.2784 136.577 12.4235 136.063 12.7791L137.2 14.4241C137.309 14.3488 137.488 14.2784 137.8 14.2784V12.2784ZM136.065 12.7778C135.529 13.1461 135.169 13.7045 135.169 14.4119H137.169C137.169 14.4088 137.169 14.4146 137.166 14.4262C137.163 14.4381 137.159 14.4496 137.153 14.4588C137.148 14.4676 137.146 14.469 137.151 14.4636C137.157 14.4578 137.171 14.4444 137.198 14.4253L136.065 12.7778ZM135.169 14.4119C135.169 14.9817 135.394 15.5104 135.864 15.885L137.111 14.3209C137.113 14.3226 137.12 14.3292 137.13 14.3416C137.14 14.3542 137.15 14.3692 137.157 14.3852C137.173 14.4195 137.169 14.435 137.169 14.4119H135.169ZM135.864 15.885C136.241 16.1854 136.735 16.3696 137.239 16.4957L137.724 14.5554C137.327 14.4561 137.158 14.3586 137.111 14.3209L135.864 15.885ZM137.243 16.4967L138.377 16.7751L138.854 14.8328L137.72 14.5544L137.243 16.4967ZM138.379 16.7758C138.961 16.9168 139.271 17.1055 139.428 17.2648L140.856 15.8645C140.342 15.341 139.635 15.0226 138.851 14.8322L138.379 16.7758ZM139.431 17.2682C139.557 17.3956 139.644 17.5671 139.644 17.8722H141.644C141.644 17.11 141.395 16.4098 140.852 15.861L139.431 17.2682ZM139.644 17.8722C139.644 18.1032 139.582 18.2865 139.458 18.4554L141.073 19.6355C141.454 19.115 141.644 18.5161 141.644 17.8722H139.644ZM139.455 18.4605C139.325 18.6411 139.126 18.8089 138.816 18.947L139.628 20.7746C140.212 20.515 140.71 20.1392 141.077 19.6304L139.455 18.4605ZM138.816 18.947C138.52 19.0783 138.143 19.1591 137.661 19.1591V21.1591C138.365 21.1591 139.029 21.041 139.628 20.7746L138.816 18.947ZM137.661 19.1591C137.025 19.1591 136.586 19.0218 136.279 18.8183L135.175 20.4857C135.888 20.9583 136.739 21.1591 137.661 21.1591V19.1591ZM136.279 18.8183C136.007 18.6385 135.823 18.3815 135.736 17.9657L133.778 18.3752C133.963 19.2586 134.425 19.9894 135.175 20.4857L136.279 18.8183ZM135 19.1406L136.113 18.8622L135.628 16.9219L134.515 17.2003L135 19.1406ZM134.903 18.1419C135.057 18.7404 135.375 19.2712 135.901 19.6373L137.044 17.9962C136.98 17.9513 136.897 17.8656 136.839 17.6422L134.903 18.1419ZM135.905 19.6403C136.417 19.9929 137.023 20.125 137.641 20.125V18.125C137.298 18.125 137.125 18.0517 137.04 17.9933L135.905 19.6403ZM137.641 20.125C138.32 20.125 138.983 19.9817 139.529 19.5879L138.358 17.9661C138.261 18.0363 138.055 18.125 137.641 18.125V20.125ZM139.53 19.5868C140.05 19.2104 140.431 18.6531 140.431 17.9318H138.431C138.431 17.9304 138.431 17.9229 138.434 17.9119C138.437 17.9008 138.441 17.893 138.442 17.8898C138.446 17.8837 138.431 17.9133 138.357 17.9672L139.53 19.5868ZM140.431 17.9318C140.431 17.4038 140.234 16.9192 139.846 16.5458L138.458 17.9855C138.46 17.9872 138.457 17.9849 138.453 17.9782C138.448 17.9713 138.443 17.9624 138.438 17.952C138.434 17.9417 138.432 17.9332 138.431 17.9281C138.43 17.9233 138.431 17.924 138.431 17.9318H140.431ZM139.853 16.5522C139.485 16.191 139.001 15.9952 138.524 15.884L138.07 17.8319C138.209 17.8642 138.305 17.8993 138.369 17.9297C138.432 17.9598 138.453 17.9801 138.451 17.9791L139.853 16.5522ZM138.525 15.8843L137.253 15.586L136.796 17.5333L138.069 17.8316L138.525 15.8843ZM137.255 15.5866C136.656 15.4447 136.353 15.2542 136.211 15.1031L134.756 16.4751C135.269 17.02 135.994 17.3431 136.794 17.5327L137.255 15.5866ZM136.217 15.1102C136.081 14.963 135.996 14.7746 135.996 14.4716H133.996C133.996 15.2225 134.235 15.9124 134.749 16.4679L136.217 15.1102ZM135.996 14.4716C135.996 14.2414 136.056 14.0691 136.167 13.9177L134.551 12.7385C134.178 13.25 133.996 13.8401 133.996 14.4716H135.996ZM136.163 13.923C136.294 13.7453 136.484 13.5871 136.768 13.4599L135.949 11.6353C135.39 11.8859 134.914 12.2481 134.555 12.7333L136.163 13.923ZM136.765 13.4611C137.043 13.3374 137.381 13.2642 137.8 13.2642V11.2642C137.145 11.2642 136.522 11.3799 135.951 11.6341L136.765 13.4611ZM137.8 13.2642C138.419 13.2642 138.771 13.4007 138.97 13.554L140.189 11.9687C139.527 11.4591 138.692 11.2642 137.8 11.2642V13.2642ZM138.973 13.5562C139.24 13.7602 139.434 14.0278 139.556 14.3918L141.453 13.7559C141.21 13.0328 140.788 12.4254 140.186 11.9665L138.973 13.5562ZM147.222 12.3636V11.3636H146.222V12.3636H147.222ZM148.396 12.3636H149.396V11.3636H148.396V12.3636ZM148.396 20V21H149.396V20H148.396ZM147.222 20H146.222V21H147.222V20ZM147.222 18.7074H148.222V17.7074H147.222V18.7074ZM147.143 18.7074V17.7074H146.503L146.235 18.2883L147.143 18.7074ZM146.308 19.6967L146.887 20.5119L146.891 20.5085L146.308 19.6967ZM143.603 19.7862L143.107 20.6545L143.113 20.6578L143.603 19.7862ZM142.728 18.8317L141.832 19.2761L141.834 19.2789L142.728 18.8317ZM142.41 12.3636V11.3636H141.41V12.3636H142.41ZM143.583 12.3636H144.583V11.3636H143.583V12.3636ZM144.05 18.4688L143.322 19.1537L143.325 19.1575L144.05 18.4688ZM146.143 18.7422L145.704 17.8439L145.7 17.8458L146.143 18.7422ZM146.909 18.0561L146.081 17.4952L146.077 17.5014L146.909 18.0561ZM148.222 16.8778V12.3636H146.222V16.8778H148.222ZM147.222 13.3636H148.396V11.3636H147.222V13.3636ZM147.396 12.3636V20H149.396V12.3636H147.396ZM148.396 19H147.222V21H148.396V19ZM148.222 20V18.7074H146.222V20H148.222ZM147.222 17.7074H147.143V19.7074H147.222V17.7074ZM146.235 18.2883C146.135 18.5056 145.974 18.7046 145.724 18.8849L146.891 20.5085C147.396 20.1453 147.793 19.6848 148.051 19.1264L146.235 18.2883ZM145.728 18.8816C145.557 19.0032 145.296 19.0994 144.876 19.0994V21.0994C145.609 21.0994 146.302 20.9272 146.887 20.5119L145.728 18.8816ZM144.876 19.0994C144.549 19.0994 144.297 19.0295 144.093 18.9146L143.113 20.6578C143.651 20.9606 144.248 21.0994 144.876 21.0994V19.0994ZM144.099 18.918C143.918 18.8144 143.756 18.6522 143.622 18.3845L141.834 19.2789C142.124 19.8596 142.546 20.3338 143.107 20.6545L144.099 18.918ZM143.624 18.3872C143.5 18.1384 143.41 17.7642 143.41 17.2159H141.41C141.41 17.9669 141.531 18.6698 141.832 19.2761L143.624 18.3872ZM143.41 17.2159V12.3636H141.41V17.2159H143.41ZM142.41 13.3636H143.583V11.3636H142.41V13.3636ZM142.583 12.3636V17.1364H144.583V12.3636H142.583ZM142.583 17.1364C142.583 17.8876 142.799 18.5972 143.322 19.1537L144.779 17.7838C144.679 17.6774 144.583 17.4988 144.583 17.1364H142.583ZM143.325 19.1575C143.843 19.7018 144.512 19.9659 145.254 19.9659V17.9659C145.02 17.9659 144.888 17.8986 144.775 17.78L143.325 19.1575ZM145.254 19.9659C145.721 19.9659 146.168 19.8454 146.587 19.6386L145.7 17.8458C145.515 17.9373 145.369 17.9659 145.254 17.9659V19.9659ZM146.583 19.6405C147.061 19.4066 147.447 19.0524 147.741 18.6108L146.077 17.5014C145.96 17.6762 145.836 17.7795 145.704 17.8439L146.583 19.6405ZM147.737 18.617C148.086 18.1021 148.222 17.499 148.222 16.8778H146.222C146.222 17.2113 146.15 17.3936 146.081 17.4953L147.737 18.617ZM151.718 9.81818H152.718V8.81818H151.718V9.81818ZM151.718 20V21H152.718V20H151.718ZM150.545 20H149.545V21H150.545V20ZM150.545 9.81818V8.81818H149.545V9.81818H150.545ZM150.718 9.81818V20H152.718V9.81818H150.718ZM151.718 19H150.545V21H151.718V19ZM151.545 20V9.81818H149.545V20H151.545ZM150.545 10.8182H151.718V8.81818H150.545V10.8182ZM157.188 12.3636H158.188V11.3636H157.188V12.3636ZM157.188 13.358V14.358H158.188V13.358H157.188ZM153.23 13.358H152.23V14.358H153.23V13.358ZM153.23 12.3636V11.3636H152.23V12.3636H153.23ZM154.384 10.5341V9.53409H153.384V10.5341H154.384ZM155.557 10.5341H156.557V9.53409H155.557V10.5341ZM155.701 18.5582L154.836 19.06L154.842 19.0702L154.848 19.0804L155.701 18.5582ZM156.079 18.8864L155.733 19.8244L155.745 19.8288L155.757 19.833L156.079 18.8864ZM156.89 18.946L157.048 19.9335L157.067 19.9304L157.086 19.9266L156.89 18.946ZM157.088 18.9062L158.064 18.6854L157.848 17.7344L156.892 17.9257L157.088 18.9062ZM157.327 19.9602L157.678 20.8966L158.495 20.5902L158.302 19.7394L157.327 19.9602ZM156.994 20.0497L156.789 19.0709L156.778 19.0732L156.767 19.0757L156.994 20.0497ZM155.478 19.8857L155.065 20.7967L155.069 20.7983L155.478 19.8857ZM154.692 19.2344L153.875 19.8103L153.879 19.8165L154.692 19.2344ZM156.188 12.3636V13.358H158.188V12.3636H156.188ZM157.188 12.358H153.23V14.358H157.188V12.358ZM154.23 13.358V12.3636H152.23V13.358H154.23ZM153.23 13.3636H157.188V11.3636H153.23V13.3636ZM154.384 11.5341H155.557V9.53409H154.384V11.5341ZM154.557 10.5341V17.8125H156.557V10.5341H154.557ZM154.557 17.8125C154.557 18.2078 154.609 18.6676 154.836 19.06L156.566 18.0565C156.589 18.0958 156.584 18.1054 156.575 18.0577C156.566 18.0117 156.557 17.9328 156.557 17.8125H154.557ZM154.848 19.0804C155.044 19.4001 155.335 19.6773 155.733 19.8244L156.426 17.9484C156.466 17.9631 156.5 17.9847 156.526 18.007C156.55 18.0282 156.558 18.0422 156.554 18.0361L154.848 19.0804ZM155.757 19.833C156.021 19.923 156.295 19.9659 156.571 19.9659V17.9659C156.503 17.9659 156.449 17.9558 156.401 17.9397L155.757 19.833ZM156.571 19.9659C156.729 19.9659 156.892 19.9583 157.048 19.9335L156.732 17.9586C156.721 17.9603 156.673 17.9659 156.571 17.9659V19.9659ZM157.086 19.9266C157.169 19.91 157.235 19.8968 157.285 19.8868L156.892 17.9257C156.843 17.9356 156.776 17.9489 156.693 17.9654L157.086 19.9266ZM156.113 19.1271L156.352 20.1811L158.302 19.7394L158.064 18.6854L156.113 19.1271ZM156.976 19.0239C156.976 19.0239 156.972 19.0254 156.963 19.0283C156.954 19.0311 156.941 19.0348 156.925 19.0392C156.891 19.0482 156.847 19.0589 156.789 19.0709L157.199 21.0285C157.361 20.9945 157.529 20.9524 157.678 20.8966L156.976 19.0239ZM156.767 19.0757C156.726 19.0853 156.628 19.0994 156.452 19.0994V21.0994C156.713 21.0994 156.977 21.0804 157.22 21.0237L156.767 19.0757ZM156.452 19.0994C156.269 19.0994 156.083 19.061 155.886 18.973L155.069 20.7983C155.509 20.9953 155.972 21.0994 156.452 21.0994V19.0994ZM155.89 18.9746C155.742 18.9074 155.616 18.8066 155.505 18.6523L153.879 19.8165C154.186 20.2455 154.584 20.5788 155.065 20.7967L155.89 18.9746ZM155.51 18.6584C155.449 18.5727 155.384 18.4195 155.384 18.1307H153.384C153.384 18.7301 153.524 19.3127 153.875 19.8103L155.51 18.6584ZM155.384 18.1307V10.5341H153.384V18.1307H155.384Z" fill="black" mask="url(#path-5-outside-1_16_69)"/>
</g>
<defs>
<filter id="filter0_d_16_69" x="0" y="0" width="254" height="36" filterUnits="userSpaceOnUse" color-interpolation-filters="sRGB">
<feFlood flood-opacity="0" result="BackgroundImageFix"/>
<feColorMatrix in="SourceAlpha" type="matrix" values="0 0 0 0 0 0 0 0 0 0 0 0 0 0 0 0 0 0 127 0" result="hardAlpha"/>
<feOffset dy="4"/>
<feGaussianBlur stdDeviation="2"/>
<feComposite in2="hardAlpha" operator="out"/>
<feColorMatrix type="matrix" values="0 0 0 0 0 0 0 0 0 0 0 0 0 0 0 0 0 0 0.25 0"/>
<feBlend mode="normal" in2="BackgroundImageFix" result="effect1_dropShadow_16_69"/>
<feBlend mode="normal" in="SourceGraphic" in2="effect1_dropShadow_16_69" result="shape"/>
</filter>
<filter id="filter1_d_16_69" x="0" y="0" width="254" height="36" filterUnits="userSpaceOnUse" color-interpolation-filters="sRGB">
<feFlood flood-opacity="0" result="BackgroundImageFix"/>
<feColorMatrix in="SourceAlpha" type="matrix" values="0 0 0 0 0 0 0 0 0 0 0 0 0 0 0 0 0 0 127 0" result="hardAlpha"/>
<feOffset dy="4"/>
<feGaussianBlur stdDeviation="2"/>
<feComposite in2="hardAlpha" operator="out"/>
<feColorMatrix type="matrix" values="0 0 0 0 0 0 0 0 0 0 0 0 0 0 0 0 0 0 0.25 0"/>
<feBlend mode="normal" in2="BackgroundImageFix" result="effect1_dropShadow_16_69"/>
<feBlend mode="normal" in="SourceGraphic" in2="effect1_dropShadow_16_69" result="shape"/>
</filter>
<filter id="filter2_d_16_69" x="95.4762" y="8.67899" width="67.0188" height="20.4801" filterUnits="userSpaceOnUse" color-interpolation-filters="sRGB">
<feFlood flood-opacity="0" result="BackgroundImageFix"/>
<feColorMatrix in="SourceAlpha" type="matrix" values="0 0 0 0 0 0 0 0 0 0 0 0 0 0 0 0 0 0 127 0" result="hardAlpha"/>
<feOffset dy="4"/>
<feGaussianBlur stdDeviation="2"/>
<feComposite in2="hardAlpha" operator="out"/>
<feColorMatrix type="matrix" values="0 0 0 0 0 0 0 0 0 0 0 0 0 0 0 0 0 0 0.25 0"/>
<feBlend mode="normal" in2="BackgroundImageFix" result="effect1_dropShadow_16_69"/>
<feBlend mode="normal" in="SourceGraphic" in2="effect1_dropShadow_16_69" result="shape"/>
</filter>
<linearGradient id="paint0_linear_16_69" x1="4" y1="14" x2="250" y2="14" gradientUnits="userSpaceOnUse">
<stop stop-color="#004080"/>
<stop offset="1" stop-color="#5013EA"/>
</linearGradient>
</defs>
</svg>
