<svg width="254" height="36" viewBox="0 0 254 36" fill="none" xmlns="http://www.w3.org/2000/svg">
<g filter="url(#filter0_d_15_59)">
<rect x="4" width="246" height="28" rx="10" fill="url(#paint0_linear_15_59)"/>
<rect x="4.5" y="0.5" width="245" height="27" rx="9.5" stroke="#FFD700"/>
</g>
<g filter="url(#filter1_d_15_59)">
<mask id="path-3-outside-1_15_59" maskUnits="userSpaceOnUse" x="74" y="7" width="110" height="16" fill="black">
<rect fill="white" x="74" y="7" width="110" height="16"/>
<path d="M79.3197 8.81818V19H78.0868V10.1108H78.0271L75.5413 11.7614V10.5085L78.0868 8.81818H79.3197ZM84.4069 19.0795C84.1616 19.0795 83.9512 18.9917 83.7755 18.8161C83.5998 18.6404 83.512 18.4299 83.512 18.1847C83.512 17.9394 83.5998 17.7289 83.7755 17.5533C83.9512 17.3776 84.1616 17.2898 84.4069 17.2898C84.6522 17.2898 84.8626 17.3776 85.0383 17.5533C85.2139 17.7289 85.3018 17.9394 85.3018 18.1847C85.3018 18.3471 85.2603 18.4962 85.1775 18.6321C85.0979 18.768 84.9902 18.8774 84.8543 18.9602C84.7218 19.0398 84.5726 19.0795 84.4069 19.0795ZM97.8011 11.3636C97.7415 10.8598 97.4995 10.4688 97.0753 10.1903C96.651 9.91193 96.1307 9.77273 95.5142 9.77273C95.0634 9.77273 94.669 9.84564 94.331 9.99148C93.9962 10.1373 93.7344 10.3378 93.5455 10.593C93.3598 10.8482 93.267 11.1383 93.267 11.4631C93.267 11.7348 93.3317 11.9685 93.4609 12.1641C93.5935 12.3563 93.7625 12.517 93.968 12.6463C94.1735 12.7723 94.389 12.8767 94.6143 12.9595C94.8397 13.0391 95.0469 13.1037 95.2358 13.1534L96.2699 13.4318C96.535 13.5014 96.83 13.5975 97.1548 13.7202C97.483 13.8428 97.7962 14.0102 98.0945 14.2223C98.3961 14.4311 98.6446 14.6996 98.8402 15.0277C99.0357 15.3558 99.1335 15.7585 99.1335 16.2358C99.1335 16.786 98.9893 17.2831 98.701 17.7273C98.416 18.1714 97.9983 18.5244 97.4482 18.7862C96.9013 19.0481 96.2367 19.179 95.4545 19.179C94.7254 19.179 94.094 19.0613 93.5604 18.826C93.0301 18.5907 92.6125 18.2625 92.3075 17.8416C92.0059 17.4207 91.8352 16.9318 91.7955 16.375H93.0682C93.1013 16.7595 93.2306 17.0777 93.456 17.3295C93.6847 17.5781 93.973 17.7637 94.321 17.8864C94.6723 18.0057 95.0502 18.0653 95.4545 18.0653C95.9252 18.0653 96.3478 17.9891 96.7223 17.8366C97.0968 17.6809 97.3935 17.4654 97.6122 17.1903C97.831 16.9119 97.9403 16.5871 97.9403 16.2159C97.9403 15.8778 97.8459 15.6027 97.657 15.3906C97.468 15.1785 97.2195 15.0062 96.9112 14.8736C96.603 14.741 96.2699 14.625 95.9119 14.5256L94.6591 14.1676C93.8636 13.9389 93.2339 13.6125 92.7699 13.1882C92.3059 12.764 92.0739 12.2088 92.0739 11.5227C92.0739 10.9527 92.228 10.4555 92.5362 10.0312C92.8478 9.60369 93.2654 9.27225 93.7891 9.03693C94.3161 8.7983 94.9044 8.67898 95.554 8.67898C96.2102 8.67898 96.7936 8.79664 97.304 9.03196C97.8144 9.26397 98.2188 9.58215 98.517 9.98651C98.8187 10.3909 98.9777 10.8499 98.9943 11.3636H97.8011ZM104.203 19.1591C103.468 19.1591 102.833 18.9967 102.299 18.6719C101.769 18.3438 101.36 17.8864 101.071 17.2997C100.786 16.7098 100.644 16.0237 100.644 15.2415C100.644 14.4593 100.786 13.7699 101.071 13.1733C101.36 12.5734 101.761 12.1061 102.274 11.7713C102.791 11.4332 103.395 11.2642 104.084 11.2642C104.482 11.2642 104.874 11.3305 105.262 11.4631C105.65 11.5956 106.003 11.8111 106.321 12.1094C106.639 12.4044 106.893 12.7955 107.082 13.2827C107.271 13.7699 107.365 14.3698 107.365 15.0824V15.5795H101.479V14.5653H106.172C106.172 14.1345 106.086 13.75 105.914 13.4119C105.744 13.0739 105.503 12.8071 105.188 12.6115C104.876 12.416 104.508 12.3182 104.084 12.3182C103.617 12.3182 103.212 12.4342 102.871 12.6662C102.533 12.8949 102.273 13.1932 102.09 13.5611C101.908 13.929 101.817 14.3234 101.817 14.7443V15.4205C101.817 15.9972 101.916 16.486 102.115 16.8871C102.317 17.2848 102.597 17.5881 102.955 17.7969C103.313 18.0024 103.729 18.1051 104.203 18.1051C104.512 18.1051 104.79 18.062 105.039 17.9759C105.29 17.8864 105.508 17.7538 105.69 17.5781C105.872 17.3991 106.013 17.1771 106.112 16.9119L107.246 17.2301C107.127 17.6146 106.926 17.9527 106.644 18.2443C106.363 18.5327 106.015 18.758 105.6 18.9205C105.186 19.0795 104.72 19.1591 104.203 19.1591ZM110.323 8.81818V19H109.15V8.81818H110.323ZM115.674 19.1591C114.938 19.1591 114.304 18.9967 113.77 18.6719C113.24 18.3438 112.83 17.8864 112.542 17.2997C112.257 16.7098 112.114 16.0237 112.114 15.2415C112.114 14.4593 112.257 13.7699 112.542 13.1733C112.83 12.5734 113.231 12.1061 113.745 11.7713C114.262 11.4332 114.865 11.2642 115.555 11.2642C115.952 11.2642 116.345 11.3305 116.733 11.4631C117.121 11.5956 117.474 11.8111 117.792 12.1094C118.11 12.4044 118.364 12.7955 118.553 13.2827C118.741 13.7699 118.836 14.3698 118.836 15.0824V15.5795H112.95V14.5653H117.643C117.643 14.1345 117.557 13.75 117.384 13.4119C117.215 13.0739 116.973 12.8071 116.658 12.6115C116.347 12.416 115.979 12.3182 115.555 12.3182C115.087 12.3182 114.683 12.4342 114.342 12.6662C114.004 12.8949 113.743 13.1932 113.561 13.5611C113.379 13.929 113.288 14.3234 113.288 14.7443V15.4205C113.288 15.9972 113.387 16.486 113.586 16.8871C113.788 17.2848 114.068 17.5881 114.426 17.7969C114.784 18.0024 115.2 18.1051 115.674 18.1051C115.982 18.1051 116.261 18.062 116.509 17.9759C116.761 17.8864 116.978 17.7538 117.161 17.5781C117.343 17.3991 117.484 17.1771 117.583 16.9119L118.717 17.2301C118.597 17.6146 118.397 17.9527 118.115 18.2443C117.833 18.5327 117.485 18.758 117.071 18.9205C116.657 19.0795 116.191 19.1591 115.674 19.1591ZM123.723 19.1591C123.007 19.1591 122.391 18.9901 121.874 18.652C121.357 18.3139 120.959 17.8482 120.68 17.255C120.402 16.6617 120.263 15.9839 120.263 15.2216C120.263 14.446 120.405 13.7616 120.69 13.1683C120.979 12.5717 121.38 12.1061 121.893 11.7713C122.411 11.4332 123.014 11.2642 123.703 11.2642C124.24 11.2642 124.724 11.3636 125.155 11.5625C125.586 11.7614 125.939 12.0398 126.214 12.3977C126.489 12.7557 126.66 13.1733 126.726 13.6506H125.553C125.463 13.3026 125.264 12.9943 124.956 12.7259C124.651 12.4541 124.24 12.3182 123.723 12.3182C123.266 12.3182 122.865 12.4375 122.52 12.6761C122.179 12.9115 121.912 13.2446 121.719 13.6754C121.531 14.103 121.436 14.6051 121.436 15.1818C121.436 15.7718 121.529 16.2855 121.714 16.723C121.903 17.1605 122.169 17.5002 122.51 17.7422C122.855 17.9841 123.259 18.1051 123.723 18.1051C124.028 18.1051 124.305 18.0521 124.553 17.946C124.802 17.84 125.012 17.6875 125.185 17.4886C125.357 17.2898 125.48 17.0511 125.553 16.7727H126.726C126.66 17.2235 126.496 17.6295 126.234 17.9908C125.975 18.3487 125.632 18.6338 125.205 18.8459C124.78 19.0547 124.286 19.1591 123.723 19.1591ZM131.762 11.3636V12.358H127.805V11.3636H131.762ZM128.958 9.53409H130.131V16.8125C130.131 17.1439 130.179 17.3925 130.276 17.5582C130.375 17.7206 130.501 17.83 130.653 17.8864C130.809 17.9394 130.973 17.9659 131.146 17.9659C131.275 17.9659 131.381 17.9593 131.464 17.946C131.547 17.9295 131.613 17.9162 131.663 17.9062L131.901 18.9602C131.822 18.9901 131.711 19.0199 131.568 19.0497C131.426 19.0829 131.245 19.0994 131.026 19.0994C130.695 19.0994 130.37 19.0282 130.052 18.8857C129.737 18.7431 129.475 18.526 129.266 18.2344C129.061 17.9427 128.958 17.5748 128.958 17.1307V9.53409ZM139.712 19.179C139.228 19.179 138.789 19.0878 138.394 18.9055C138 18.7199 137.687 18.4531 137.455 18.1051C137.223 17.7538 137.107 17.3295 137.107 16.8324C137.107 16.3949 137.193 16.0402 137.365 15.7685C137.537 15.4934 137.768 15.2779 138.056 15.1222C138.344 14.9664 138.663 14.8504 139.011 14.7741C139.362 14.6946 139.715 14.6316 140.07 14.5852C140.534 14.5256 140.91 14.4808 141.198 14.451C141.49 14.4179 141.702 14.3632 141.835 14.2869C141.97 14.2107 142.038 14.0781 142.038 13.8892V13.8494C142.038 13.3589 141.904 12.9777 141.636 12.706C141.371 12.4342 140.968 12.2983 140.428 12.2983C139.867 12.2983 139.428 12.4209 139.11 12.6662C138.792 12.9115 138.568 13.1733 138.439 13.4517L137.325 13.054C137.524 12.59 137.789 12.2287 138.121 11.9702C138.455 11.7083 138.82 11.526 139.214 11.4233C139.612 11.3172 140.003 11.2642 140.388 11.2642C140.633 11.2642 140.915 11.294 141.233 11.3537C141.554 11.41 141.864 11.5277 142.163 11.7067C142.464 11.8857 142.714 12.1558 142.913 12.517C143.112 12.8783 143.212 13.3622 143.212 13.9688V19H142.038V17.9659H141.979C141.899 18.1316 141.767 18.3089 141.581 18.4979C141.395 18.6868 141.148 18.8475 140.84 18.9801C140.532 19.1127 140.156 19.179 139.712 19.179ZM139.891 18.125C140.355 18.125 140.746 18.0339 141.064 17.8516C141.385 17.6693 141.627 17.4339 141.79 17.1456C141.955 16.8572 142.038 16.554 142.038 16.2358V15.1619C141.989 15.2216 141.879 15.2763 141.71 15.326C141.545 15.3724 141.352 15.4138 141.134 15.4503C140.918 15.4834 140.708 15.5133 140.502 15.5398C140.3 15.563 140.136 15.5829 140.01 15.5994C139.705 15.6392 139.42 15.7038 139.155 15.7933C138.893 15.8795 138.681 16.0104 138.518 16.1861C138.359 16.3584 138.28 16.5937 138.28 16.892C138.28 17.2997 138.431 17.608 138.732 17.8168C139.037 18.0223 139.423 18.125 139.891 18.125ZM154.7 13.0739L153.646 13.3722C153.579 13.1965 153.482 13.0258 153.352 12.8601C153.227 12.6911 153.054 12.5518 152.835 12.4425C152.617 12.3331 152.337 12.2784 151.995 12.2784C151.528 12.2784 151.138 12.3861 150.827 12.6016C150.519 12.8137 150.365 13.0838 150.365 13.4119C150.365 13.7036 150.471 13.9339 150.683 14.103C150.895 14.272 151.226 14.4129 151.677 14.5256L152.811 14.804C153.493 14.9697 154.002 15.2232 154.337 15.5646C154.672 15.9027 154.839 16.3385 154.839 16.8722C154.839 17.3097 154.713 17.7008 154.461 18.0455C154.213 18.3902 153.865 18.6619 153.417 18.8608C152.97 19.0597 152.449 19.1591 151.856 19.1591C151.077 19.1591 150.432 18.9901 149.922 18.652C149.412 18.3139 149.088 17.8201 148.953 17.1705L150.066 16.892C150.172 17.303 150.373 17.6113 150.668 17.8168C150.966 18.0223 151.356 18.125 151.836 18.125C152.383 18.125 152.817 18.009 153.139 17.777C153.463 17.5417 153.626 17.2599 153.626 16.9318C153.626 16.6667 153.533 16.4446 153.347 16.2656C153.162 16.0833 152.877 15.9474 152.492 15.858L151.22 15.5597C150.52 15.3939 150.007 15.1371 149.678 14.7891C149.354 14.4377 149.191 13.9986 149.191 13.4716C149.191 13.0407 149.312 12.6596 149.554 12.3281C149.799 11.9967 150.133 11.7365 150.553 11.5476C150.978 11.3587 151.458 11.2642 151.995 11.2642C152.751 11.2642 153.344 11.4299 153.775 11.7614C154.209 12.0928 154.517 12.5303 154.7 13.0739ZM156.605 21.8636V11.3636H157.739V12.5767H157.878C157.964 12.4441 158.083 12.2751 158.236 12.0696C158.392 11.8608 158.614 11.6752 158.902 11.5128C159.194 11.3471 159.588 11.2642 160.085 11.2642C160.728 11.2642 161.295 11.425 161.786 11.7464C162.276 12.0679 162.659 12.5237 162.934 13.1136C163.209 13.7036 163.347 14.3996 163.347 15.2017C163.347 16.0104 163.209 16.7114 162.934 17.3047C162.659 17.8946 162.278 18.352 161.79 18.6768C161.303 18.9983 160.741 19.1591 160.105 19.1591C159.615 19.1591 159.222 19.0779 158.927 18.9155C158.632 18.7498 158.405 18.5625 158.246 18.3537C158.087 18.1416 157.964 17.9659 157.878 17.8267H157.778V21.8636H156.605ZM157.759 15.1818C157.759 15.7585 157.843 16.2673 158.012 16.7081C158.181 17.1456 158.428 17.4886 158.753 17.7372C159.078 17.9825 159.475 18.1051 159.946 18.1051C160.437 18.1051 160.846 17.9759 161.174 17.7173C161.505 17.4555 161.754 17.1042 161.92 16.6634C162.089 16.2192 162.173 15.7254 162.173 15.1818C162.173 14.6449 162.09 14.161 161.925 13.7301C161.762 13.2959 161.515 12.9529 161.184 12.701C160.856 12.4458 160.443 12.3182 159.946 12.3182C159.469 12.3182 159.068 12.4392 158.743 12.6811C158.418 12.9197 158.173 13.2545 158.007 13.6854C157.841 14.1129 157.759 14.6117 157.759 15.1818ZM168.239 19.1591C167.549 19.1591 166.944 18.995 166.424 18.6669C165.907 18.3388 165.503 17.8797 165.211 17.2898C164.923 16.6998 164.778 16.0104 164.778 15.2216C164.778 14.4261 164.923 13.7318 165.211 13.1385C165.503 12.5452 165.907 12.0845 166.424 11.7564C166.944 11.4283 167.549 11.2642 168.239 11.2642C168.928 11.2642 169.531 11.4283 170.048 11.7564C170.569 12.0845 170.973 12.5452 171.261 13.1385C171.553 13.7318 171.699 14.4261 171.699 15.2216C171.699 16.0104 171.553 16.6998 171.261 17.2898C170.973 17.8797 170.569 18.3388 170.048 18.6669C169.531 18.995 168.928 19.1591 168.239 19.1591ZM168.239 18.1051C168.762 18.1051 169.193 17.9709 169.531 17.7024C169.869 17.4339 170.12 17.081 170.282 16.6435C170.444 16.206 170.526 15.732 170.526 15.2216C170.526 14.7112 170.444 14.2356 170.282 13.7947C170.12 13.3539 169.869 12.9976 169.531 12.7259C169.193 12.4541 168.762 12.3182 168.239 12.3182C167.715 12.3182 167.284 12.4541 166.946 12.7259C166.608 12.9976 166.358 13.3539 166.195 13.7947C166.033 14.2356 165.952 14.7112 165.952 15.2216C165.952 15.732 166.033 16.206 166.195 16.6435C166.358 17.081 166.608 17.4339 166.946 17.7024C167.284 17.9709 167.715 18.1051 168.239 18.1051ZM173.49 19V11.3636H174.623V12.517H174.703C174.842 12.1392 175.094 11.8326 175.459 11.5973C175.823 11.362 176.234 11.2443 176.692 11.2443C176.778 11.2443 176.885 11.246 177.015 11.2493C177.144 11.2526 177.242 11.2576 177.308 11.2642V12.4574C177.268 12.4474 177.177 12.4325 177.035 12.4126C176.895 12.3894 176.748 12.3778 176.592 12.3778C176.221 12.3778 175.89 12.4557 175.598 12.6115C175.309 12.764 175.081 12.9761 174.912 13.2479C174.746 13.5163 174.663 13.8229 174.663 14.1676V19H173.49ZM182.498 11.3636V12.358H178.541V11.3636H182.498ZM179.694 9.53409H180.868V16.8125C180.868 17.1439 180.916 17.3925 181.012 17.5582C181.111 17.7206 181.237 17.83 181.39 17.8864C181.546 17.9394 181.71 17.9659 181.882 17.9659C182.011 17.9659 182.117 17.9593 182.2 17.946C182.283 17.9295 182.349 17.9162 182.399 17.9062L182.638 18.9602C182.558 18.9901 182.447 19.0199 182.305 19.0497C182.162 19.0829 181.981 19.0994 181.763 19.0994C181.431 19.0994 181.106 19.0282 180.788 18.8857C180.473 18.7431 180.211 18.526 180.003 18.2344C179.797 17.9427 179.694 17.5748 179.694 17.1307V9.53409Z"/>
</mask>
<path d="M79.3197 8.81818V19H78.0868V10.1108H78.0271L75.5413 11.7614V10.5085L78.0868 8.81818H79.3197ZM84.4069 19.0795C84.1616 19.0795 83.9512 18.9917 83.7755 18.8161C83.5998 18.6404 83.512 18.4299 83.512 18.1847C83.512 17.9394 83.5998 17.7289 83.7755 17.5533C83.9512 17.3776 84.1616 17.2898 84.4069 17.2898C84.6522 17.2898 84.8626 17.3776 85.0383 17.5533C85.2139 17.7289 85.3018 17.9394 85.3018 18.1847C85.3018 18.3471 85.2603 18.4962 85.1775 18.6321C85.0979 18.768 84.9902 18.8774 84.8543 18.9602C84.7218 19.0398 84.5726 19.0795 84.4069 19.0795ZM97.8011 11.3636C97.7415 10.8598 97.4995 10.4688 97.0753 10.1903C96.651 9.91193 96.1307 9.77273 95.5142 9.77273C95.0634 9.77273 94.669 9.84564 94.331 9.99148C93.9962 10.1373 93.7344 10.3378 93.5455 10.593C93.3598 10.8482 93.267 11.1383 93.267 11.4631C93.267 11.7348 93.3317 11.9685 93.4609 12.1641C93.5935 12.3563 93.7625 12.517 93.968 12.6463C94.1735 12.7723 94.389 12.8767 94.6143 12.9595C94.8397 13.0391 95.0469 13.1037 95.2358 13.1534L96.2699 13.4318C96.535 13.5014 96.83 13.5975 97.1548 13.7202C97.483 13.8428 97.7962 14.0102 98.0945 14.2223C98.3961 14.4311 98.6446 14.6996 98.8402 15.0277C99.0357 15.3558 99.1335 15.7585 99.1335 16.2358C99.1335 16.786 98.9893 17.2831 98.701 17.7273C98.416 18.1714 97.9983 18.5244 97.4482 18.7862C96.9013 19.0481 96.2367 19.179 95.4545 19.179C94.7254 19.179 94.094 19.0613 93.5604 18.826C93.0301 18.5907 92.6125 18.2625 92.3075 17.8416C92.0059 17.4207 91.8352 16.9318 91.7955 16.375H93.0682C93.1013 16.7595 93.2306 17.0777 93.456 17.3295C93.6847 17.5781 93.973 17.7637 94.321 17.8864C94.6723 18.0057 95.0502 18.0653 95.4545 18.0653C95.9252 18.0653 96.3478 17.9891 96.7223 17.8366C97.0968 17.6809 97.3935 17.4654 97.6122 17.1903C97.831 16.9119 97.9403 16.5871 97.9403 16.2159C97.9403 15.8778 97.8459 15.6027 97.657 15.3906C97.468 15.1785 97.2195 15.0062 96.9112 14.8736C96.603 14.741 96.2699 14.625 95.9119 14.5256L94.6591 14.1676C93.8636 13.9389 93.2339 13.6125 92.7699 13.1882C92.3059 12.764 92.0739 12.2088 92.0739 11.5227C92.0739 10.9527 92.228 10.4555 92.5362 10.0312C92.8478 9.60369 93.2654 9.27225 93.7891 9.03693C94.3161 8.7983 94.9044 8.67898 95.554 8.67898C96.2102 8.67898 96.7936 8.79664 97.304 9.03196C97.8144 9.26397 98.2188 9.58215 98.517 9.98651C98.8187 10.3909 98.9777 10.8499 98.9943 11.3636H97.8011ZM104.203 19.1591C103.468 19.1591 102.833 18.9967 102.299 18.6719C101.769 18.3438 101.36 17.8864 101.071 17.2997C100.786 16.7098 100.644 16.0237 100.644 15.2415C100.644 14.4593 100.786 13.7699 101.071 13.1733C101.36 12.5734 101.761 12.1061 102.274 11.7713C102.791 11.4332 103.395 11.2642 104.084 11.2642C104.482 11.2642 104.874 11.3305 105.262 11.4631C105.65 11.5956 106.003 11.8111 106.321 12.1094C106.639 12.4044 106.893 12.7955 107.082 13.2827C107.271 13.7699 107.365 14.3698 107.365 15.0824V15.5795H101.479V14.5653H106.172C106.172 14.1345 106.086 13.75 105.914 13.4119C105.744 13.0739 105.503 12.8071 105.188 12.6115C104.876 12.416 104.508 12.3182 104.084 12.3182C103.617 12.3182 103.212 12.4342 102.871 12.6662C102.533 12.8949 102.273 13.1932 102.09 13.5611C101.908 13.929 101.817 14.3234 101.817 14.7443V15.4205C101.817 15.9972 101.916 16.486 102.115 16.8871C102.317 17.2848 102.597 17.5881 102.955 17.7969C103.313 18.0024 103.729 18.1051 104.203 18.1051C104.512 18.1051 104.79 18.062 105.039 17.9759C105.29 17.8864 105.508 17.7538 105.69 17.5781C105.872 17.3991 106.013 17.1771 106.112 16.9119L107.246 17.2301C107.127 17.6146 106.926 17.9527 106.644 18.2443C106.363 18.5327 106.015 18.758 105.6 18.9205C105.186 19.0795 104.72 19.1591 104.203 19.1591ZM110.323 8.81818V19H109.15V8.81818H110.323ZM115.674 19.1591C114.938 19.1591 114.304 18.9967 113.77 18.6719C113.24 18.3438 112.83 17.8864 112.542 17.2997C112.257 16.7098 112.114 16.0237 112.114 15.2415C112.114 14.4593 112.257 13.7699 112.542 13.1733C112.83 12.5734 113.231 12.1061 113.745 11.7713C114.262 11.4332 114.865 11.2642 115.555 11.2642C115.952 11.2642 116.345 11.3305 116.733 11.4631C117.121 11.5956 117.474 11.8111 117.792 12.1094C118.11 12.4044 118.364 12.7955 118.553 13.2827C118.741 13.7699 118.836 14.3698 118.836 15.0824V15.5795H112.95V14.5653H117.643C117.643 14.1345 117.557 13.75 117.384 13.4119C117.215 13.0739 116.973 12.8071 116.658 12.6115C116.347 12.416 115.979 12.3182 115.555 12.3182C115.087 12.3182 114.683 12.4342 114.342 12.6662C114.004 12.8949 113.743 13.1932 113.561 13.5611C113.379 13.929 113.288 14.3234 113.288 14.7443V15.4205C113.288 15.9972 113.387 16.486 113.586 16.8871C113.788 17.2848 114.068 17.5881 114.426 17.7969C114.784 18.0024 115.2 18.1051 115.674 18.1051C115.982 18.1051 116.261 18.062 116.509 17.9759C116.761 17.8864 116.978 17.7538 117.161 17.5781C117.343 17.3991 117.484 17.1771 117.583 16.9119L118.717 17.2301C118.597 17.6146 118.397 17.9527 118.115 18.2443C117.833 18.5327 117.485 18.758 117.071 18.9205C116.657 19.0795 116.191 19.1591 115.674 19.1591ZM123.723 19.1591C123.007 19.1591 122.391 18.9901 121.874 18.652C121.357 18.3139 120.959 17.8482 120.68 17.255C120.402 16.6617 120.263 15.9839 120.263 15.2216C120.263 14.446 120.405 13.7616 120.69 13.1683C120.979 12.5717 121.38 12.1061 121.893 11.7713C122.411 11.4332 123.014 11.2642 123.703 11.2642C124.24 11.2642 124.724 11.3636 125.155 11.5625C125.586 11.7614 125.939 12.0398 126.214 12.3977C126.489 12.7557 126.66 13.1733 126.726 13.6506H125.553C125.463 13.3026 125.264 12.9943 124.956 12.7259C124.651 12.4541 124.24 12.3182 123.723 12.3182C123.266 12.3182 122.865 12.4375 122.52 12.6761C122.179 12.9115 121.912 13.2446 121.719 13.6754C121.531 14.103 121.436 14.6051 121.436 15.1818C121.436 15.7718 121.529 16.2855 121.714 16.723C121.903 17.1605 122.169 17.5002 122.51 17.7422C122.855 17.9841 123.259 18.1051 123.723 18.1051C124.028 18.1051 124.305 18.0521 124.553 17.946C124.802 17.84 125.012 17.6875 125.185 17.4886C125.357 17.2898 125.48 17.0511 125.553 16.7727H126.726C126.66 17.2235 126.496 17.6295 126.234 17.9908C125.975 18.3487 125.632 18.6338 125.205 18.8459C124.78 19.0547 124.286 19.1591 123.723 19.1591ZM131.762 11.3636V12.358H127.805V11.3636H131.762ZM128.958 9.53409H130.131V16.8125C130.131 17.1439 130.179 17.3925 130.276 17.5582C130.375 17.7206 130.501 17.83 130.653 17.8864C130.809 17.9394 130.973 17.9659 131.146 17.9659C131.275 17.9659 131.381 17.9593 131.464 17.946C131.547 17.9295 131.613 17.9162 131.663 17.9062L131.901 18.9602C131.822 18.9901 131.711 19.0199 131.568 19.0497C131.426 19.0829 131.245 19.0994 131.026 19.0994C130.695 19.0994 130.37 19.0282 130.052 18.8857C129.737 18.7431 129.475 18.526 129.266 18.2344C129.061 17.9427 128.958 17.5748 128.958 17.1307V9.53409ZM139.712 19.179C139.228 19.179 138.789 19.0878 138.394 18.9055C138 18.7199 137.687 18.4531 137.455 18.1051C137.223 17.7538 137.107 17.3295 137.107 16.8324C137.107 16.3949 137.193 16.0402 137.365 15.7685C137.537 15.4934 137.768 15.2779 138.056 15.1222C138.344 14.9664 138.663 14.8504 139.011 14.7741C139.362 14.6946 139.715 14.6316 140.07 14.5852C140.534 14.5256 140.91 14.4808 141.198 14.451C141.49 14.4179 141.702 14.3632 141.835 14.2869C141.97 14.2107 142.038 14.0781 142.038 13.8892V13.8494C142.038 13.3589 141.904 12.9777 141.636 12.706C141.371 12.4342 140.968 12.2983 140.428 12.2983C139.867 12.2983 139.428 12.4209 139.11 12.6662C138.792 12.9115 138.568 13.1733 138.439 13.4517L137.325 13.054C137.524 12.59 137.789 12.2287 138.121 11.9702C138.455 11.7083 138.82 11.526 139.214 11.4233C139.612 11.3172 140.003 11.2642 140.388 11.2642C140.633 11.2642 140.915 11.294 141.233 11.3537C141.554 11.41 141.864 11.5277 142.163 11.7067C142.464 11.8857 142.714 12.1558 142.913 12.517C143.112 12.8783 143.212 13.3622 143.212 13.9688V19H142.038V17.9659H141.979C141.899 18.1316 141.767 18.3089 141.581 18.4979C141.395 18.6868 141.148 18.8475 140.84 18.9801C140.532 19.1127 140.156 19.179 139.712 19.179ZM139.891 18.125C140.355 18.125 140.746 18.0339 141.064 17.8516C141.385 17.6693 141.627 17.4339 141.79 17.1456C141.955 16.8572 142.038 16.554 142.038 16.2358V15.1619C141.989 15.2216 141.879 15.2763 141.71 15.326C141.545 15.3724 141.352 15.4138 141.134 15.4503C140.918 15.4834 140.708 15.5133 140.502 15.5398C140.3 15.563 140.136 15.5829 140.01 15.5994C139.705 15.6392 139.42 15.7038 139.155 15.7933C138.893 15.8795 138.681 16.0104 138.518 16.1861C138.359 16.3584 138.28 16.5937 138.28 16.892C138.28 17.2997 138.431 17.608 138.732 17.8168C139.037 18.0223 139.423 18.125 139.891 18.125ZM154.7 13.0739L153.646 13.3722C153.579 13.1965 153.482 13.0258 153.352 12.8601C153.227 12.6911 153.054 12.5518 152.835 12.4425C152.617 12.3331 152.337 12.2784 151.995 12.2784C151.528 12.2784 151.138 12.3861 150.827 12.6016C150.519 12.8137 150.365 13.0838 150.365 13.4119C150.365 13.7036 150.471 13.9339 150.683 14.103C150.895 14.272 151.226 14.4129 151.677 14.5256L152.811 14.804C153.493 14.9697 154.002 15.2232 154.337 15.5646C154.672 15.9027 154.839 16.3385 154.839 16.8722C154.839 17.3097 154.713 17.7008 154.461 18.0455C154.213 18.3902 153.865 18.6619 153.417 18.8608C152.97 19.0597 152.449 19.1591 151.856 19.1591C151.077 19.1591 150.432 18.9901 149.922 18.652C149.412 18.3139 149.088 17.8201 148.953 17.1705L150.066 16.892C150.172 17.303 150.373 17.6113 150.668 17.8168C150.966 18.0223 151.356 18.125 151.836 18.125C152.383 18.125 152.817 18.009 153.139 17.777C153.463 17.5417 153.626 17.2599 153.626 16.9318C153.626 16.6667 153.533 16.4446 153.347 16.2656C153.162 16.0833 152.877 15.9474 152.492 15.858L151.22 15.5597C150.52 15.3939 150.007 15.1371 149.678 14.7891C149.354 14.4377 149.191 13.9986 149.191 13.4716C149.191 13.0407 149.312 12.6596 149.554 12.3281C149.799 11.9967 150.133 11.7365 150.553 11.5476C150.978 11.3587 151.458 11.2642 151.995 11.2642C152.751 11.2642 153.344 11.4299 153.775 11.7614C154.209 12.0928 154.517 12.5303 154.7 13.0739ZM156.605 21.8636V11.3636H157.739V12.5767H157.878C157.964 12.4441 158.083 12.2751 158.236 12.0696C158.392 11.8608 158.614 11.6752 158.902 11.5128C159.194 11.3471 159.588 11.2642 160.085 11.2642C160.728 11.2642 161.295 11.425 161.786 11.7464C162.276 12.0679 162.659 12.5237 162.934 13.1136C163.209 13.7036 163.347 14.3996 163.347 15.2017C163.347 16.0104 163.209 16.7114 162.934 17.3047C162.659 17.8946 162.278 18.352 161.79 18.6768C161.303 18.9983 160.741 19.1591 160.105 19.1591C159.615 19.1591 159.222 19.0779 158.927 18.9155C158.632 18.7498 158.405 18.5625 158.246 18.3537C158.087 18.1416 157.964 17.9659 157.878 17.8267H157.778V21.8636H156.605ZM157.759 15.1818C157.759 15.7585 157.843 16.2673 158.012 16.7081C158.181 17.1456 158.428 17.4886 158.753 17.7372C159.078 17.9825 159.475 18.1051 159.946 18.1051C160.437 18.1051 160.846 17.9759 161.174 17.7173C161.505 17.4555 161.754 17.1042 161.92 16.6634C162.089 16.2192 162.173 15.7254 162.173 15.1818C162.173 14.6449 162.09 14.161 161.925 13.7301C161.762 13.2959 161.515 12.9529 161.184 12.701C160.856 12.4458 160.443 12.3182 159.946 12.3182C159.469 12.3182 159.068 12.4392 158.743 12.6811C158.418 12.9197 158.173 13.2545 158.007 13.6854C157.841 14.1129 157.759 14.6117 157.759 15.1818ZM168.239 19.1591C167.549 19.1591 166.944 18.995 166.424 18.6669C165.907 18.3388 165.503 17.8797 165.211 17.2898C164.923 16.6998 164.778 16.0104 164.778 15.2216C164.778 14.4261 164.923 13.7318 165.211 13.1385C165.503 12.5452 165.907 12.0845 166.424 11.7564C166.944 11.4283 167.549 11.2642 168.239 11.2642C168.928 11.2642 169.531 11.4283 170.048 11.7564C170.569 12.0845 170.973 12.5452 171.261 13.1385C171.553 13.7318 171.699 14.4261 171.699 15.2216C171.699 16.0104 171.553 16.6998 171.261 17.2898C170.973 17.8797 170.569 18.3388 170.048 18.6669C169.531 18.995 168.928 19.1591 168.239 19.1591ZM168.239 18.1051C168.762 18.1051 169.193 17.9709 169.531 17.7024C169.869 17.4339 170.12 17.081 170.282 16.6435C170.444 16.206 170.526 15.732 170.526 15.2216C170.526 14.7112 170.444 14.2356 170.282 13.7947C170.12 13.3539 169.869 12.9976 169.531 12.7259C169.193 12.4541 168.762 12.3182 168.239 12.3182C167.715 12.3182 167.284 12.4541 166.946 12.7259C166.608 12.9976 166.358 13.3539 166.195 13.7947C166.033 14.2356 165.952 14.7112 165.952 15.2216C165.952 15.732 166.033 16.206 166.195 16.6435C166.358 17.081 166.608 17.4339 166.946 17.7024C167.284 17.9709 167.715 18.1051 168.239 18.1051ZM173.49 19V11.3636H174.623V12.517H174.703C174.842 12.1392 175.094 11.8326 175.459 11.5973C175.823 11.362 176.234 11.2443 176.692 11.2443C176.778 11.2443 176.885 11.246 177.015 11.2493C177.144 11.2526 177.242 11.2576 177.308 11.2642V12.4574C177.268 12.4474 177.177 12.4325 177.035 12.4126C176.895 12.3894 176.748 12.3778 176.592 12.3778C176.221 12.3778 175.89 12.4557 175.598 12.6115C175.309 12.764 175.081 12.9761 174.912 13.2479C174.746 13.5163 174.663 13.8229 174.663 14.1676V19H173.49ZM182.498 11.3636V12.358H178.541V11.3636H182.498ZM179.694 9.53409H180.868V16.8125C180.868 17.1439 180.916 17.3925 181.012 17.5582C181.111 17.7206 181.237 17.83 181.39 17.8864C181.546 17.9394 181.71 17.9659 181.882 17.9659C182.011 17.9659 182.117 17.9593 182.2 17.946C182.283 17.9295 182.349 17.9162 182.399 17.9062L182.638 18.9602C182.558 18.9901 182.447 19.0199 182.305 19.0497C182.162 19.0829 181.981 19.0994 181.763 19.0994C181.431 19.0994 181.106 19.0282 180.788 18.8857C180.473 18.7431 180.211 18.526 180.003 18.2344C179.797 17.9427 179.694 17.5748 179.694 17.1307V9.53409Z" fill="white"/>
<path d="M79.3197 8.81818H80.3197V7.81818H79.3197V8.81818ZM79.3197 19V20H80.3197V19H79.3197ZM78.0868 19H77.0868V20H78.0868V19ZM78.0868 10.1108H79.0868V9.1108H78.0868V10.1108ZM78.0271 10.1108V9.1108H77.7253L77.4739 9.27772L78.0271 10.1108ZM75.5413 11.7614H74.5413V13.6257L76.0945 12.5944L75.5413 11.7614ZM75.5413 10.5085L74.9881 9.67547L74.5413 9.97218V10.5085H75.5413ZM78.0868 8.81818V7.81818H77.785L77.5336 7.98513L78.0868 8.81818ZM78.3197 8.81818V19H80.3197V8.81818H78.3197ZM79.3197 18H78.0868V20H79.3197V18ZM79.0868 19V10.1108H77.0868V19H79.0868ZM78.0868 9.1108H78.0271V11.1108H78.0868V9.1108ZM77.4739 9.27772L74.9881 10.9283L76.0945 12.5944L78.5803 10.9439L77.4739 9.27772ZM76.5413 11.7614V10.5085H74.5413V11.7614H76.5413ZM76.0945 11.3416L78.64 9.65123L77.5336 7.98513L74.9881 9.67547L76.0945 11.3416ZM78.0868 9.81818H79.3197V7.81818H78.0868V9.81818ZM83.7755 18.8161L84.4826 18.1089L83.7755 18.8161ZM85.0383 17.5533L85.7454 16.8462L85.0383 17.5533ZM85.1775 18.6321L84.3237 18.1115L84.319 18.1192L84.3145 18.1269L85.1775 18.6321ZM84.8543 18.9602L85.3688 19.8177L85.3749 19.814L84.8543 18.9602ZM84.4069 18.0795C84.4055 18.0795 84.4099 18.0794 84.4187 18.0811C84.4277 18.0829 84.4386 18.086 84.4502 18.0908C84.4757 18.1015 84.4865 18.1128 84.4826 18.1089L83.0684 19.5232C83.4289 19.8836 83.8926 20.0795 84.4069 20.0795V18.0795ZM84.4826 18.1089C84.4787 18.1051 84.4901 18.1158 84.5007 18.1413C84.5056 18.1529 84.5087 18.1638 84.5104 18.1728C84.5121 18.1817 84.512 18.1861 84.512 18.1847H82.512C82.512 18.699 82.7079 19.1627 83.0684 19.5232L84.4826 18.1089ZM84.512 18.1847C84.512 18.1833 84.5121 18.1877 84.5104 18.1965C84.5087 18.2055 84.5056 18.2164 84.5007 18.228C84.4901 18.2535 84.4787 18.2643 84.4826 18.2604L83.0684 16.8462C82.7079 17.2066 82.512 17.6704 82.512 18.1847H84.512ZM84.4826 18.2604C84.4865 18.2565 84.4757 18.2679 84.4502 18.2785C84.4386 18.2833 84.4277 18.2864 84.4187 18.2882C84.4099 18.2899 84.4055 18.2898 84.4069 18.2898V16.2898C83.8926 16.2898 83.4289 16.4857 83.0684 16.8462L84.4826 18.2604ZM84.4069 18.2898C84.4083 18.2898 84.4039 18.2899 84.3951 18.2882C84.3861 18.2864 84.3751 18.2833 84.3636 18.2785C84.3381 18.2679 84.3273 18.2565 84.3312 18.2604L85.7454 16.8462C85.3849 16.4857 84.9212 16.2898 84.4069 16.2898V18.2898ZM84.3312 18.2604C84.3351 18.2643 84.3237 18.2535 84.313 18.228C84.3082 18.2164 84.3051 18.2055 84.3034 18.1965C84.3017 18.1877 84.3018 18.1833 84.3018 18.1847H86.3018C86.3018 17.6704 86.1059 17.2066 85.7454 16.8462L84.3312 18.2604ZM84.3018 18.1847C84.3018 18.1799 84.3025 18.1674 84.3072 18.1507C84.3119 18.1338 84.3184 18.1202 84.3237 18.1115L86.0313 19.1527C86.2118 18.8567 86.3018 18.5268 86.3018 18.1847H84.3018ZM84.3145 18.1269C84.3155 18.1252 84.3188 18.1202 84.3246 18.1144C84.3303 18.1086 84.3343 18.1061 84.3337 18.1064L85.3749 19.814C85.6504 19.646 85.8765 19.4175 86.0405 19.1373L84.3145 18.1269ZM84.3398 18.1027C84.3535 18.0945 84.3695 18.0877 84.3854 18.0835C84.4008 18.0794 84.4091 18.0795 84.4069 18.0795V20.0795C84.7403 20.0795 85.0696 19.9972 85.3688 19.8177L84.3398 18.1027ZM97.8011 11.3636L96.8081 11.4812L96.9126 12.3636H97.8011V11.3636ZM97.0753 10.1903L96.5266 11.0264H96.5266L97.0753 10.1903ZM94.331 9.99148L93.9349 9.07326L93.9316 9.0747L94.331 9.99148ZM93.5455 10.593L92.7417 9.99804L92.7367 10.0049L93.5455 10.593ZM93.4609 12.1641L92.6267 12.7155L92.6321 12.7237L92.6377 12.7318L93.4609 12.1641ZM93.968 12.6463L93.4356 13.4928L93.4455 13.4989L93.968 12.6463ZM94.6143 12.9595L94.2693 13.8982L94.2815 13.9025L94.6143 12.9595ZM95.2358 13.1534L95.4958 12.1878L95.4903 12.1863L95.2358 13.1534ZM96.2699 13.4318L96.0099 14.3975L96.016 14.399L96.2699 13.4318ZM97.1548 13.7202L96.8016 14.6557L96.8047 14.6569L97.1548 13.7202ZM98.0945 14.2223L97.5149 15.0373L97.5252 15.0445L98.0945 14.2223ZM98.8402 15.0277L99.6992 14.5158L99.6992 14.5158L98.8402 15.0277ZM98.701 17.7273L97.8623 17.1827L97.8594 17.1872L98.701 17.7273ZM97.4482 18.7862L97.0184 17.8833L97.0163 17.8843L97.4482 18.7862ZM93.5604 18.826L93.1548 19.74L93.1569 19.741L93.5604 18.826ZM92.3075 17.8416L91.4946 18.4241L91.4977 18.4283L92.3075 17.8416ZM91.7955 16.375V15.375H90.7215L90.798 16.4462L91.7955 16.375ZM93.0682 16.375L94.0645 16.2891L93.9857 15.375H93.0682V16.375ZM93.456 17.3295L92.7107 17.9964L92.72 18.0066L93.456 17.3295ZM94.321 17.8864L93.9887 18.8296L93.9994 18.8332L94.321 17.8864ZM96.7223 17.8366L97.0993 18.7629L97.1063 18.76L96.7223 17.8366ZM97.6122 17.1903L98.3949 17.8127L98.3985 17.8082L97.6122 17.1903ZM97.657 15.3906L98.4037 14.7255H98.4037L97.657 15.3906ZM96.9112 14.8736L96.5161 15.7922L96.5161 15.7922L96.9112 14.8736ZM95.9119 14.5256L95.6372 15.4871L95.6443 15.4891L95.9119 14.5256ZM94.6591 14.1676L94.3828 15.1287L94.3844 15.1291L94.6591 14.1676ZM92.7699 13.1882L92.0951 13.9262L92.7699 13.1882ZM92.5362 10.0312L91.728 9.44233L91.7272 9.44345L92.5362 10.0312ZM93.7891 9.03693L94.1989 9.94907L94.2016 9.94789L93.7891 9.03693ZM97.304 9.03196L96.8853 9.9401L96.8902 9.94233L97.304 9.03196ZM98.517 9.98651L97.7123 10.5802L97.7155 10.5844L98.517 9.98651ZM98.9943 11.3636V12.3636H100.027L99.9938 11.3314L98.9943 11.3636ZM98.7942 11.246C98.6998 10.4488 98.2951 9.79474 97.6239 9.35429L96.5266 11.0264C96.704 11.1428 96.7832 11.2709 96.8081 11.4812L98.7942 11.246ZM97.6239 9.35429C97.0046 8.94787 96.2834 8.77273 95.5142 8.77273V10.7727C95.978 10.7727 96.2975 10.876 96.5266 11.0264L97.6239 9.35429ZM95.5142 8.77273C94.957 8.77273 94.4227 8.86282 93.9349 9.07327L94.7271 10.9097C94.9153 10.8285 95.1699 10.7727 95.5142 10.7727V8.77273ZM93.9316 9.0747C93.4606 9.27988 93.0497 9.58204 92.7417 9.99806L94.3492 11.188C94.4191 11.0936 94.5318 10.9947 94.7304 10.9083L93.9316 9.0747ZM92.7367 10.0049C92.423 10.4363 92.267 10.9335 92.267 11.4631H94.267C94.267 11.343 94.2967 11.2602 94.3542 11.1812L92.7367 10.0049ZM92.267 11.4631C92.267 11.8989 92.3729 12.3315 92.6267 12.7155L94.2952 11.6126C94.2904 11.6055 94.267 11.5708 94.267 11.4631H92.267ZM92.6377 12.7318C92.8504 13.0401 93.1199 13.2942 93.4356 13.4928L94.5005 11.7998C94.4052 11.7399 94.3367 11.6725 94.2841 11.5963L92.6377 12.7318ZM93.4455 13.4989C93.7069 13.6592 93.9818 13.7924 94.2693 13.8981L94.9594 12.0209C94.7961 11.9609 94.6401 11.8853 94.4906 11.7937L93.4455 13.4989ZM94.2815 13.9025C94.5272 13.9892 94.7609 14.0625 94.9813 14.1205L95.4903 12.1863C95.3328 12.1449 95.1522 12.0889 94.9472 12.0165L94.2815 13.9025ZM94.9758 14.119L96.0099 14.3974L96.5299 12.4662L95.4958 12.1878L94.9758 14.119ZM96.016 14.399C96.24 14.4579 96.5012 14.5423 96.8016 14.6557L97.508 12.7846C97.1588 12.6528 96.83 12.545 96.5238 12.4646L96.016 14.399ZM96.8047 14.6569C97.0478 14.7477 97.2843 14.8733 97.5149 15.0373L98.674 13.4073C98.308 13.1471 97.9181 12.9379 97.5049 12.7835L96.8047 14.6569ZM97.5252 15.0445C97.7043 15.1684 97.8558 15.3293 97.9812 15.5396L99.6992 14.5158C99.4335 14.0699 99.0879 13.6938 98.6637 13.4001L97.5252 15.0445ZM97.9812 15.5396C98.064 15.6787 98.1335 15.8942 98.1335 16.2358H100.134C100.134 15.6228 100.007 15.033 99.6992 14.5158L97.9812 15.5396ZM98.1335 16.2358C98.1335 16.6007 98.0411 16.9073 97.8623 17.1827L99.5397 18.2718C99.9376 17.659 100.134 16.9713 100.134 16.2358H98.1335ZM97.8594 17.1872C97.6899 17.4512 97.4267 17.6889 97.0184 17.8833L97.8779 19.6892C98.57 19.3598 99.142 18.8916 99.5426 18.2674L97.8594 17.1872ZM97.0163 17.8843C96.6375 18.0657 96.1291 18.179 95.4545 18.179V20.179C96.3444 20.179 97.1651 20.0305 97.88 19.6882L97.0163 17.8843ZM95.4545 18.179C94.8306 18.179 94.3428 18.0781 93.9639 17.911L93.1569 19.741C93.8452 20.0445 94.6201 20.179 95.4545 20.179V18.179ZM93.966 17.9119C93.5778 17.7397 93.3071 17.5169 93.1174 17.255L91.4977 18.4283C91.9178 19.0082 92.4824 19.4417 93.1548 19.74L93.966 17.9119ZM93.1204 17.2592C92.9347 17.0001 92.8206 16.6913 92.7929 16.3038L90.798 16.4462C90.8499 17.1723 91.0771 17.8413 91.4947 18.4241L93.1204 17.2592ZM91.7955 17.375H93.0682V15.375H91.7955V17.375ZM92.0719 16.4609C92.1209 17.0291 92.321 17.5608 92.7107 17.9963L94.2012 16.6628C94.1402 16.5946 94.0818 16.4898 94.0645 16.2891L92.0719 16.4609ZM92.72 18.0066C93.0695 18.3864 93.501 18.6577 93.9887 18.8295L94.6534 16.9432C94.4451 16.8698 94.2998 16.7698 94.1919 16.6525L92.72 18.0066ZM93.9994 18.8332C94.4632 18.9908 94.9506 19.0653 95.4545 19.0653V17.0653C95.1498 17.0653 94.8815 17.0206 94.6426 16.9395L93.9994 18.8332ZM95.4545 19.0653C96.0336 19.0653 96.5871 18.9714 97.0993 18.7628L96.3453 16.9104C96.1084 17.0069 95.8168 17.0653 95.4545 17.0653V19.0653ZM97.1063 18.76C97.6128 18.5493 98.0556 18.2394 98.3949 17.8127L96.8295 16.5679C96.7313 16.6915 96.5809 16.8124 96.3383 16.9133L97.1063 18.76ZM98.3985 17.8082C98.7628 17.3446 98.9403 16.7995 98.9403 16.2159H96.9403C96.9403 16.3747 96.8992 16.4793 96.8259 16.5725L98.3985 17.8082ZM98.9403 16.2159C98.9403 15.6818 98.7857 15.1545 98.4037 14.7255L96.9102 16.0557C96.9142 16.0603 96.9185 16.0657 96.9237 16.0808C96.9297 16.0984 96.9403 16.1398 96.9403 16.2159H98.9403ZM98.4037 14.7255C98.1015 14.3862 97.7248 14.1349 97.3063 13.9549L96.5161 15.7922C96.7141 15.8774 96.8346 15.9708 96.9102 16.0557L98.4037 14.7255ZM97.3063 13.9549C96.9525 13.8028 96.5764 13.6723 96.1796 13.562L95.6443 15.4891C95.9633 15.5777 96.2534 15.6792 96.5161 15.7922L97.3063 13.9549ZM96.1867 13.564L94.9338 13.2061L94.3844 15.1291L95.6372 15.4871L96.1867 13.564ZM94.9354 13.2065C94.2432 13.0075 93.7647 12.7428 93.4447 12.4502L92.0951 13.9262C92.7031 14.4821 93.4841 14.8703 94.3828 15.1287L94.9354 13.2065ZM93.4447 12.4502C93.2081 12.2339 93.0739 11.9567 93.0739 11.5227H91.0739C91.0739 12.4609 91.4037 13.2941 92.0951 13.9262L93.4447 12.4502ZM93.0739 11.5227C93.0739 11.1444 93.1721 10.8574 93.3452 10.619L91.7272 9.44345C91.2839 10.0536 91.0739 10.7609 91.0739 11.5227H93.0739ZM93.3444 10.6202C93.5449 10.345 93.82 10.1194 94.1989 9.94907L93.3792 8.12479C92.7108 8.42513 92.1506 8.86239 91.728 9.44233L93.3444 10.6202ZM94.2016 9.94789C94.5839 9.77477 95.0291 9.67898 95.554 9.67898V7.67898C94.7796 7.67898 94.0482 7.82182 93.3766 8.12598L94.2016 9.94789ZM95.554 9.67898C96.0897 9.67898 96.5264 9.77462 96.8853 9.94009L97.7227 8.12383C97.0607 7.81866 96.3307 7.67898 95.554 7.67898V9.67898ZM96.8902 9.94233C97.2638 10.1121 97.5265 10.3283 97.7123 10.5802L99.3218 9.39286C98.911 8.836 98.365 8.4158 97.7178 8.12159L96.8902 9.94233ZM97.7155 10.5844C97.8924 10.8216 97.9847 11.0824 97.9948 11.3959L99.9938 11.3314C99.9708 10.6174 99.7449 9.96013 99.3186 9.38861L97.7155 10.5844ZM98.9943 10.3636H97.8011V12.3636H98.9943V10.3636ZM102.299 18.6719L101.773 19.5223L101.779 19.5261L102.299 18.6719ZM101.071 17.2997L100.171 17.7348L100.174 17.7408L101.071 17.2997ZM101.071 13.1733L100.17 12.7401L100.169 12.7422L101.071 13.1733ZM102.274 11.7713L102.82 12.6091L102.822 12.6083L102.274 11.7713ZM105.262 11.4631L105.586 10.5168L105.586 10.5168L105.262 11.4631ZM106.321 12.1094L105.637 12.8389L105.641 12.8427L106.321 12.1094ZM107.082 13.2827L108.014 12.9211L108.014 12.9211L107.082 13.2827ZM107.365 15.5795V16.5795H108.365V15.5795H107.365ZM101.479 15.5795H100.479V16.5795H101.479V15.5795ZM101.479 14.5653V13.5653H100.479V14.5653H101.479ZM106.172 14.5653V15.5653H107.172V14.5653H106.172ZM105.914 13.4119L105.019 13.8592L105.023 13.8661L105.914 13.4119ZM105.188 12.6115L104.656 13.4585L104.66 13.461L105.188 12.6115ZM102.871 12.6662L103.431 13.4945L103.433 13.4933L102.871 12.6662ZM102.09 13.5611L101.194 13.1171L101.194 13.1171L102.09 13.5611ZM102.115 16.8871L101.219 17.3313L101.224 17.3402L102.115 16.8871ZM102.955 17.7969L102.452 18.6607L102.458 18.6641L102.955 17.7969ZM105.039 17.9759L105.366 18.9207L105.373 18.9182L105.039 17.9759ZM105.69 17.5781L106.384 18.2982L106.39 18.2917L105.69 17.5781ZM106.112 16.9119L106.383 15.9491L105.499 15.701L105.176 16.5608L106.112 16.9119ZM107.246 17.2301L108.201 17.5265L108.506 16.5451L107.516 16.2673L107.246 17.2301ZM106.644 18.2443L107.36 18.9432L107.364 18.9391L106.644 18.2443ZM105.6 18.9205L105.959 19.854L105.965 19.8515L105.6 18.9205ZM104.203 18.1591C103.618 18.1591 103.17 18.0313 102.819 17.8177L101.779 19.5261C102.495 19.9621 103.317 20.1591 104.203 20.1591V18.1591ZM102.825 17.8215C102.463 17.5971 102.178 17.2852 101.969 16.8586L100.174 17.7408C100.541 18.4875 101.075 19.0904 101.773 19.5223L102.825 17.8215ZM101.972 16.8647C101.764 16.4342 101.644 15.9019 101.644 15.2415H99.6436C99.6436 16.1455 99.8087 16.9853 100.171 17.7347L101.972 16.8647ZM101.644 15.2415C101.644 14.5814 101.764 14.0439 101.974 13.6044L100.169 12.7422C99.8088 13.4958 99.6436 14.3372 99.6436 15.2415H101.644ZM101.972 13.6065C102.189 13.1568 102.473 12.8356 102.82 12.6091L101.728 10.9335C101.048 11.3766 100.53 11.9899 100.17 12.7401L101.972 13.6065ZM102.822 12.6083C103.157 12.3887 103.566 12.2642 104.084 12.2642V10.2642C103.224 10.2642 102.425 10.4778 101.727 10.9343L102.822 12.6083ZM104.084 12.2642C104.368 12.2642 104.652 12.3112 104.939 12.4093L105.586 10.5168C105.097 10.3498 104.595 10.2642 104.084 10.2642V12.2642ZM104.939 12.4093C105.184 12.4931 105.416 12.6312 105.637 12.8389L107.005 11.3798C106.59 10.9909 106.116 10.6982 105.586 10.5168L104.939 12.4093ZM105.641 12.8427C105.828 13.0156 106.004 13.2699 106.149 13.6442L108.014 12.9211C107.781 12.321 107.451 11.7932 107.001 11.376L105.641 12.8427ZM106.149 13.6442C106.281 13.9825 106.365 14.4514 106.365 15.0824H108.365C108.365 14.2882 108.261 13.5572 108.014 12.9211L106.149 13.6442ZM106.365 15.0824V15.5795H108.365V15.0824H106.365ZM107.365 14.5795H101.479V16.5795H107.365V14.5795ZM102.479 15.5795V14.5653H100.479V15.5795H102.479ZM101.479 15.5653H106.172V13.5653H101.479V15.5653ZM107.172 14.5653C107.172 13.9981 107.058 13.4545 106.804 12.9577L105.023 13.8661C105.114 14.0455 105.172 14.2708 105.172 14.5653H107.172ZM106.808 12.9647C106.558 12.4647 106.191 12.0572 105.715 11.762L104.66 13.461C104.815 13.557 104.931 13.6831 105.019 13.8591L106.808 12.9647ZM105.719 11.7645C105.225 11.4544 104.667 11.3182 104.084 11.3182V13.3182C104.35 13.3182 104.527 13.3775 104.656 13.4585L105.719 11.7645ZM104.084 11.3182C103.444 11.3182 102.837 11.4799 102.309 11.8391L103.433 13.4933C103.587 13.3884 103.79 13.3182 104.084 13.3182V11.3182ZM102.311 11.8379C101.828 12.1641 101.453 12.5952 101.194 13.1171L102.986 14.0051C103.092 13.7912 103.237 13.6257 103.431 13.4945L102.311 11.8379ZM101.194 13.1171C100.942 13.6266 100.817 14.1734 100.817 14.7443H102.817C102.817 14.4734 102.874 14.2314 102.986 14.0051L101.194 13.1171ZM100.817 14.7443V15.4205H102.817V14.7443H100.817ZM100.817 15.4205C100.817 16.1083 100.935 16.7583 101.219 17.3313L103.011 16.4428C102.898 16.2138 102.817 15.886 102.817 15.4205H100.817ZM101.224 17.3402C101.506 17.8955 101.915 18.3476 102.452 18.6607L103.459 16.9331C103.28 16.8286 103.129 16.6741 103.007 16.4339L101.224 17.3402ZM102.458 18.6641C102.988 18.9688 103.581 19.1051 104.203 19.1051V17.1051C103.878 17.1051 103.638 17.0359 103.453 16.9296L102.458 18.6641ZM104.203 19.1051C104.604 19.1051 104.996 19.049 105.366 18.9207L104.711 17.031C104.584 17.075 104.419 17.1051 104.203 17.1051V19.1051ZM105.373 18.9182C105.752 18.7837 106.093 18.5781 106.384 18.2982L104.996 16.858C104.922 16.9294 104.829 16.989 104.704 17.0336L105.373 18.9182ZM106.39 18.2917C106.688 17.9999 106.904 17.6498 107.049 17.2631L105.176 16.5608C105.122 16.7043 105.057 16.7984 104.989 16.8646L106.39 18.2917ZM105.842 17.8747L106.976 18.1929L107.516 16.2673L106.383 15.9491L105.842 17.8747ZM106.291 16.9337C106.218 17.1677 106.099 17.3696 105.925 17.5496L107.364 18.9391C107.753 18.5357 108.035 18.0615 108.201 17.5265L106.291 16.9337ZM105.929 17.5455C105.756 17.7224 105.532 17.8733 105.235 17.9894L105.965 19.8515C106.498 19.6428 106.969 19.3429 107.36 18.9432L105.929 17.5455ZM105.242 17.9869C104.959 18.0955 104.618 18.1591 104.203 18.1591V20.1591C104.823 20.1591 105.413 20.0636 105.959 19.854L105.242 17.9869ZM110.323 8.81818H111.323V7.81818H110.323V8.81818ZM110.323 19V20H111.323V19H110.323ZM109.15 19H108.15V20H109.15V19ZM109.15 8.81818V7.81818H108.15V8.81818H109.15ZM109.323 8.81818V19H111.323V8.81818H109.323ZM110.323 18H109.15V20H110.323V18ZM110.15 19V8.81818H108.15V19H110.15ZM109.15 9.81818H110.323V7.81818H109.15V9.81818ZM113.77 18.6719L113.244 19.5223L113.25 19.5261L113.77 18.6719ZM112.542 17.2997L111.641 17.7348L111.644 17.7408L112.542 17.2997ZM112.542 13.1733L111.641 12.7401L111.64 12.7422L112.542 13.1733ZM113.745 11.7713L114.291 12.6091L114.292 12.6083L113.745 11.7713ZM116.733 11.4631L117.056 10.5168L117.056 10.5168L116.733 11.4631ZM117.792 12.1094L117.108 12.8389L117.112 12.8427L117.792 12.1094ZM118.553 13.2827L119.485 12.9211L119.485 12.9211L118.553 13.2827ZM118.836 15.5795V16.5795H119.836V15.5795H118.836ZM112.95 15.5795H111.95V16.5795H112.95V15.5795ZM112.95 14.5653V13.5653H111.95V14.5653H112.95ZM117.643 14.5653V15.5653H118.643V14.5653H117.643ZM117.384 13.4119L116.49 13.8592L116.493 13.8661L117.384 13.4119ZM116.658 12.6115L116.127 13.4585L116.131 13.461L116.658 12.6115ZM114.342 12.6662L114.902 13.4945L114.904 13.4933L114.342 12.6662ZM113.561 13.5611L112.665 13.1171V13.1171L113.561 13.5611ZM113.586 16.8871L112.69 17.3313L112.694 17.3402L113.586 16.8871ZM114.426 17.7969L113.922 18.6607L113.928 18.6641L114.426 17.7969ZM116.509 17.9759L116.837 18.9207L116.844 18.9182L116.509 17.9759ZM117.161 17.5781L117.854 18.2982L117.861 18.2917L117.161 17.5781ZM117.583 16.9119L117.853 15.9491L116.969 15.701L116.647 16.5608L117.583 16.9119ZM118.717 17.2301L119.672 17.5265L119.976 16.5451L118.987 16.2673L118.717 17.2301ZM118.115 18.2443L118.83 18.9432L118.834 18.9391L118.115 18.2443ZM117.071 18.9205L117.43 19.854L117.436 19.8515L117.071 18.9205ZM115.674 18.1591C115.089 18.1591 114.641 18.0313 114.29 17.8177L113.25 19.5261C113.966 19.9621 114.788 20.1591 115.674 20.1591V18.1591ZM114.296 17.8215C113.933 17.5971 113.649 17.2852 113.439 16.8586L111.644 17.7408C112.011 18.4875 112.546 19.0904 113.244 19.5223L114.296 17.8215ZM113.442 16.8647C113.234 16.4342 113.114 15.9019 113.114 15.2415H111.114C111.114 16.1455 111.279 16.9853 111.641 17.7347L113.442 16.8647ZM113.114 15.2415C113.114 14.5814 113.234 14.0439 113.444 13.6044L111.64 12.7422C111.28 13.4958 111.114 14.3372 111.114 15.2415H113.114ZM113.443 13.6065C113.659 13.1568 113.943 12.8356 114.291 12.6091L113.199 10.9335C112.519 11.3766 112.001 11.9899 111.641 12.7401L113.443 13.6065ZM114.292 12.6083C114.628 12.3887 115.036 12.2642 115.555 12.2642V10.2642C114.694 10.2642 113.896 10.4778 113.198 10.9343L114.292 12.6083ZM115.555 12.2642C115.839 12.2642 116.123 12.3112 116.409 12.4093L117.056 10.5168C116.568 10.3498 116.066 10.2642 115.555 10.2642V12.2642ZM116.409 12.4093C116.655 12.4931 116.886 12.6312 117.108 12.8389L118.476 11.3798C118.061 10.9909 117.587 10.6982 117.056 10.5168L116.409 12.4093ZM117.112 12.8427C117.298 13.0156 117.475 13.2699 117.62 13.6442L119.485 12.9211C119.252 12.321 118.922 11.7932 118.472 11.376L117.112 12.8427ZM117.62 13.6442C117.751 13.9825 117.836 14.4514 117.836 15.0824H119.836C119.836 14.2882 119.732 13.5572 119.485 12.9211L117.62 13.6442ZM117.836 15.0824V15.5795H119.836V15.0824H117.836ZM118.836 14.5795H112.95V16.5795H118.836V14.5795ZM113.95 15.5795V14.5653H111.95V15.5795H113.95ZM112.95 15.5653H117.643V13.5653H112.95V15.5653ZM118.643 14.5653C118.643 13.9981 118.528 13.4545 118.275 12.9577L116.493 13.8661C116.585 14.0455 116.643 14.2708 116.643 14.5653H118.643ZM118.279 12.9647C118.029 12.4647 117.661 12.0572 117.186 11.762L116.131 13.461C116.285 13.557 116.402 13.6831 116.49 13.8591L118.279 12.9647ZM117.19 11.7645C116.696 11.4544 116.138 11.3182 115.555 11.3182V13.3182C115.82 13.3182 115.998 13.3775 116.127 13.4585L117.19 11.7645ZM115.555 11.3182C114.914 11.3182 114.308 11.4799 113.78 11.8391L114.904 13.4933C115.058 13.3884 115.26 13.3182 115.555 13.3182V11.3182ZM113.781 11.8379C113.299 12.1641 112.924 12.5952 112.665 13.1171L114.457 14.0051C114.563 13.7912 114.708 13.6257 114.902 13.4945L113.781 11.8379ZM112.665 13.1171C112.413 13.6266 112.288 14.1734 112.288 14.7443H114.288C114.288 14.4734 114.345 14.2314 114.457 14.0051L112.665 13.1171ZM112.288 14.7443V15.4205H114.288V14.7443H112.288ZM112.288 15.4205C112.288 16.1083 112.406 16.7583 112.69 17.3313L114.482 16.4428C114.368 16.2138 114.288 15.886 114.288 15.4205H112.288ZM112.694 17.3402C112.977 17.8955 113.386 18.3476 113.922 18.6607L114.93 16.9331C114.751 16.8286 114.599 16.6741 114.477 16.4339L112.694 17.3402ZM113.928 18.6641C114.459 18.9688 115.052 19.1051 115.674 19.1051V17.1051C115.348 17.1051 115.109 17.0359 114.924 16.9296L113.928 18.6641ZM115.674 19.1051C116.075 19.1051 116.467 19.049 116.837 18.9207L116.182 17.031C116.055 17.075 115.889 17.1051 115.674 17.1051V19.1051ZM116.844 18.9182C117.222 18.7837 117.564 18.5781 117.854 18.2982L116.467 16.858C116.393 16.9294 116.3 16.989 116.174 17.0336L116.844 18.9182ZM117.861 18.2917C118.158 17.9999 118.374 17.6498 118.519 17.2631L116.647 16.5608C116.593 16.7043 116.527 16.7984 116.46 16.8646L117.861 18.2917ZM117.313 17.8747L118.446 18.1929L118.987 16.2673L117.853 15.9491L117.313 17.8747ZM117.762 16.9337C117.689 17.1677 117.57 17.3696 117.396 17.5496L118.834 18.9391C119.224 18.5357 119.506 18.0615 119.672 17.5265L117.762 16.9337ZM117.4 17.5455C117.227 17.7224 117.002 17.8733 116.706 17.9894L117.436 19.8515C117.968 19.6428 118.44 19.3429 118.83 18.9432L117.4 17.5455ZM116.713 17.9869C116.43 18.0955 116.088 18.1591 115.674 18.1591V20.1591C116.294 20.1591 116.884 20.0636 117.43 19.854L116.713 17.9869ZM121.874 18.652L121.326 19.489L121.874 18.652ZM120.69 13.1683L119.79 12.7332L119.789 12.7353L120.69 13.1683ZM121.893 11.7713L122.439 12.6091L122.441 12.6083L121.893 11.7713ZM126.214 12.3977L127.007 11.7884V11.7884L126.214 12.3977ZM126.726 13.6506V14.6506H127.874L127.716 13.513L126.726 13.6506ZM125.553 13.6506L124.584 13.8996L124.777 14.6506H125.553V13.6506ZM124.956 12.7259L124.291 13.4724L124.299 13.4799L124.956 12.7259ZM122.52 12.6761L123.087 13.4995L123.089 13.4983L122.52 12.6761ZM121.719 13.6754L120.806 13.268L120.805 13.2713L121.719 13.6754ZM121.714 16.723L120.794 17.1136L120.796 17.1194L121.714 16.723ZM122.51 17.7422L121.932 18.5581L121.935 18.5607L122.51 17.7422ZM124.553 17.946L124.161 17.0262L124.553 17.946ZM125.185 17.4886L125.94 18.1436L125.185 17.4886ZM125.553 16.7727V15.7727H124.781L124.585 16.5194L125.553 16.7727ZM126.726 16.7727L127.715 16.9182L127.884 15.7727H126.726V16.7727ZM126.234 17.9908L125.424 17.4039L125.423 17.4053L126.234 17.9908ZM125.205 18.8459L125.646 19.7431L125.649 19.7417L125.205 18.8459ZM123.723 18.1591C123.17 18.1591 122.751 18.0306 122.421 17.815L121.326 19.489C122.031 19.9495 122.844 20.1591 123.723 20.1591V18.1591ZM122.421 17.815C122.069 17.5847 121.79 17.2662 121.586 16.8301L119.775 17.6798C120.127 18.4303 120.644 19.0431 121.326 19.489L122.421 17.815ZM121.586 16.8301C121.379 16.3898 121.263 15.8609 121.263 15.2216H119.263C119.263 16.1069 119.425 16.9336 119.775 17.6798L121.586 16.8301ZM121.263 15.2216C121.263 14.5694 121.382 14.0375 121.592 13.6014L119.789 12.7353C119.428 13.4857 119.263 14.3226 119.263 15.2216H121.263ZM121.591 13.6035C121.806 13.1572 122.091 12.8365 122.439 12.6091L121.348 10.9335C120.669 11.3757 120.151 11.9863 119.79 12.7332L121.591 13.6035ZM122.441 12.6083C122.777 12.3887 123.185 12.2642 123.703 12.2642V10.2642C122.843 10.2642 122.044 10.4778 121.346 10.9343L122.441 12.6083ZM123.703 12.2642C124.114 12.2642 124.453 12.3397 124.736 12.4705L125.574 10.6545C124.995 10.3875 124.366 10.2642 123.703 10.2642V12.2642ZM124.736 12.4705C125.027 12.6051 125.249 12.7841 125.421 13.0071L127.007 11.7884C126.628 11.2955 126.144 10.9176 125.574 10.6545L124.736 12.4705ZM125.421 13.0071C125.583 13.2183 125.691 13.4706 125.735 13.7881L127.716 13.513C127.628 12.876 127.395 12.2931 127.007 11.7884L125.421 13.0071ZM126.726 12.6506H125.553V14.6506H126.726V12.6506ZM126.521 13.4015C126.374 12.8313 126.052 12.3542 125.613 11.9718L124.299 13.4799C124.477 13.6344 124.552 13.7738 124.584 13.8996L126.521 13.4015ZM125.621 11.9793C125.088 11.5044 124.418 11.3182 123.723 11.3182V13.3182C124.062 13.3182 124.214 13.4038 124.291 13.4724L125.621 11.9793ZM123.723 11.3182C123.082 11.3182 122.478 11.489 121.951 11.8539L123.089 13.4983C123.251 13.386 123.45 13.3182 123.723 13.3182V11.3182ZM121.952 11.8528C121.44 12.2061 121.063 12.693 120.806 13.268L122.633 14.0829C122.761 13.7961 122.917 13.6168 123.087 13.4995L121.952 11.8528ZM120.805 13.2713C120.548 13.8522 120.436 14.4976 120.436 15.1818H122.436C122.436 14.7126 122.513 14.3537 122.634 14.0796L120.805 13.2713ZM120.436 15.1818C120.436 15.8746 120.545 16.5266 120.794 17.1136L122.635 16.3325C122.513 16.0444 122.436 15.669 122.436 15.1818H120.436ZM120.796 17.1194C121.048 17.7014 121.421 18.196 121.932 18.5581L123.088 16.9263C122.916 16.8045 122.759 16.6196 122.633 16.3266L120.796 17.1194ZM121.935 18.5607C122.466 18.9328 123.075 19.1051 123.723 19.1051V17.1051C123.443 17.1051 123.244 17.0355 123.084 16.9237L121.935 18.5607ZM123.723 19.1051C124.146 19.1051 124.558 19.0312 124.946 18.8658L124.161 17.0262C124.051 17.073 123.91 17.1051 123.723 17.1051V19.1051ZM124.946 18.8658C125.33 18.7018 125.666 18.4603 125.94 18.1436L124.429 16.8337C124.359 16.9147 124.274 16.9781 124.161 17.0262L124.946 18.8658ZM125.94 18.1436C126.222 17.8183 126.412 17.4387 126.52 17.0261L124.585 16.5194C124.547 16.6636 124.492 16.7612 124.429 16.8337L125.94 18.1436ZM125.553 17.7727H126.726V15.7727H125.553V17.7727ZM125.736 16.6272C125.693 16.922 125.589 17.176 125.424 17.4039L127.043 18.5776C127.402 18.083 127.626 17.5249 127.715 16.9182L125.736 16.6272ZM125.423 17.4053C125.267 17.6211 125.054 17.8041 124.76 17.9501L125.649 19.7417C126.21 19.4634 126.683 19.0764 127.044 18.5763L125.423 17.4053ZM124.763 17.9487C124.5 18.0781 124.162 18.1591 123.723 18.1591V20.1591C124.411 20.1591 125.061 20.0313 125.646 19.7431L124.763 17.9487ZM131.762 11.3636H132.762V10.3636H131.762V11.3636ZM131.762 12.358V13.358H132.762V12.358H131.762ZM127.805 12.358H126.805V13.358H127.805V12.358ZM127.805 11.3636V10.3636H126.805V11.3636H127.805ZM128.958 9.53409V8.53409H127.958V9.53409H128.958ZM130.131 9.53409H131.131V8.53409H130.131V9.53409ZM130.276 17.5582L129.411 18.06L129.417 18.0702L129.423 18.0804L130.276 17.5582ZM130.653 17.8864L130.307 18.8244L130.319 18.8288L130.331 18.833L130.653 17.8864ZM131.464 17.946L131.622 18.9335L131.641 18.9304L131.66 18.9266L131.464 17.946ZM131.663 17.9062L132.638 17.6854L132.423 16.7344L131.467 16.9257L131.663 17.9062ZM131.901 18.9602L132.252 19.8966L133.069 19.5902L132.877 18.7394L131.901 18.9602ZM131.568 19.0497L131.363 18.0709L131.352 18.0732L131.342 18.0757L131.568 19.0497ZM130.052 18.8857L129.639 19.7967L129.643 19.7983L130.052 18.8857ZM129.266 18.2344L128.449 18.8103L128.453 18.8165L129.266 18.2344ZM130.762 11.3636V12.358H132.762V11.3636H130.762ZM131.762 11.358H127.805V13.358H131.762V11.358ZM128.805 12.358V11.3636H126.805V12.358H128.805ZM127.805 12.3636H131.762V10.3636H127.805V12.3636ZM128.958 10.5341H130.131V8.53409H128.958V10.5341ZM129.131 9.53409V16.8125H131.131V9.53409H129.131ZM129.131 16.8125C129.131 17.2078 129.183 17.6676 129.411 18.06L131.141 17.0565C131.163 17.0958 131.158 17.1054 131.149 17.0577C131.14 17.0117 131.131 16.9328 131.131 16.8125H129.131ZM129.423 18.0804C129.618 18.4001 129.909 18.6773 130.307 18.8244L131 16.9484C131.04 16.9631 131.075 16.9847 131.1 17.007C131.125 17.0282 131.132 17.0422 131.128 17.0361L129.423 18.0804ZM130.331 18.833C130.596 18.923 130.869 18.9659 131.146 18.9659V16.9659C131.078 16.9659 131.023 16.9558 130.976 16.9397L130.331 18.833ZM131.146 18.9659C131.303 18.9659 131.467 18.9583 131.622 18.9335L131.306 16.9586C131.295 16.9603 131.247 16.9659 131.146 16.9659V18.9659ZM131.66 18.9266C131.743 18.91 131.809 18.8968 131.859 18.8868L131.467 16.9257C131.417 16.9356 131.351 16.9489 131.268 16.9654L131.66 18.9266ZM130.687 18.1271L130.926 19.1811L132.877 18.7394L132.638 17.6854L130.687 18.1271ZM131.55 18.0239C131.55 18.0239 131.546 18.0254 131.537 18.0283C131.528 18.0311 131.515 18.0348 131.499 18.0392C131.465 18.0482 131.421 18.0589 131.363 18.0709L131.773 20.0285C131.936 19.9945 132.103 19.9524 132.252 19.8966L131.55 18.0239ZM131.342 18.0757C131.3 18.0853 131.202 18.0994 131.026 18.0994V20.0994C131.288 20.0994 131.551 20.0804 131.795 20.0237L131.342 18.0757ZM131.026 18.0994C130.843 18.0994 130.657 18.061 130.461 17.973L129.643 19.7983C130.083 19.9953 130.547 20.0994 131.026 20.0994V18.0994ZM130.464 17.9746C130.316 17.9074 130.19 17.8066 130.079 17.6523L128.453 18.8165C128.76 19.2455 129.158 19.5788 129.639 19.7967L130.464 17.9746ZM130.084 17.6584C130.023 17.5727 129.958 17.4195 129.958 17.1307H127.958C127.958 17.7301 128.098 18.3127 128.449 18.8103L130.084 17.6584ZM129.958 17.1307V9.53409H127.958V17.1307H129.958ZM138.394 18.9055L137.968 19.8104L137.975 19.8133L138.394 18.9055ZM137.455 18.1051L136.62 18.6562L136.622 18.6598L137.455 18.1051ZM137.365 15.7685L138.21 16.304L138.212 16.2994L137.365 15.7685ZM138.056 15.1222L137.581 14.2423L138.056 15.1222ZM139.011 14.7741L139.225 15.751L139.231 15.7495L139.011 14.7741ZM140.07 14.5852L139.942 13.5934L139.94 13.5937L140.07 14.5852ZM141.198 14.451L141.301 15.4457L141.311 15.4446L141.198 14.451ZM141.835 14.2869L141.345 13.4147L141.336 13.42L141.835 14.2869ZM141.636 12.706L140.92 13.4043L140.924 13.4087L141.636 12.706ZM139.11 12.6662L139.721 13.4582L139.11 12.6662ZM138.439 13.4517L138.103 14.3934L138.962 14.7003L139.346 13.8728L138.439 13.4517ZM137.325 13.054L136.406 12.6601L135.987 13.6379L136.989 13.9957L137.325 13.054ZM138.121 11.9702L138.736 12.7587L138.737 12.7578L138.121 11.9702ZM139.214 11.4233L139.467 12.391L139.472 12.3895L139.214 11.4233ZM141.233 11.3537L141.049 12.3366L141.06 12.3387L141.233 11.3537ZM142.163 11.7067L141.648 12.5642L141.652 12.5667L142.163 11.7067ZM142.913 12.517L142.037 12.9993V12.9993L142.913 12.517ZM143.212 19V20H144.212V19H143.212ZM142.038 19H141.038V20H142.038V19ZM142.038 17.9659H143.038V16.9659H142.038V17.9659ZM141.979 17.9659V16.9659H141.349L141.077 17.5332L141.979 17.9659ZM141.581 18.4979L142.294 19.1987V19.1987L141.581 18.4979ZM140.84 18.9801L140.445 18.0615L140.84 18.9801ZM141.064 17.8516L140.571 16.9817L140.567 16.9839L141.064 17.8516ZM141.79 17.1456L140.923 16.6473L140.918 16.6549L141.79 17.1456ZM142.038 15.1619H143.038V12.3999L141.27 14.5217L142.038 15.1619ZM141.71 15.326L141.98 16.289L141.992 16.2854L141.71 15.326ZM141.134 15.4503L141.286 16.4387L141.298 16.4367L141.134 15.4503ZM140.502 15.5398L140.616 16.5334L140.63 16.5316L140.502 15.5398ZM140.01 15.5994L140.139 16.591L140.14 16.5909L140.01 15.5994ZM139.155 15.7933L139.467 16.7432L139.475 16.7408L139.155 15.7933ZM138.518 16.1861L137.784 15.5072L137.784 15.5078L138.518 16.1861ZM138.732 17.8168L138.163 18.639L138.173 18.646L138.732 17.8168ZM139.712 18.179C139.356 18.179 139.062 18.1127 138.814 17.9978L137.975 19.8133C138.515 20.0629 139.099 20.179 139.712 20.179V18.179ZM138.82 18.0007C138.583 17.8892 138.413 17.7404 138.287 17.5504L136.622 18.6598C136.96 19.1659 137.416 19.5506 137.968 19.8104L138.82 18.0007ZM138.289 17.5541C138.183 17.394 138.107 17.1697 138.107 16.8324H136.107C136.107 17.4894 136.262 18.1136 136.62 18.6562L138.289 17.5541ZM138.107 16.8324C138.107 16.5185 138.169 16.3678 138.21 16.304L136.521 15.2329C136.216 15.7127 136.107 16.2713 136.107 16.8324H138.107ZM138.212 16.2994C138.292 16.1723 138.394 16.0764 138.531 16.002L137.581 14.2423C137.142 14.4795 136.783 14.8145 136.518 15.2375L138.212 16.2994ZM138.531 16.002C138.731 15.8943 138.96 15.809 139.225 15.751L138.797 13.7973C138.365 13.8918 137.958 14.0385 137.581 14.2423L138.531 16.002ZM139.231 15.7495C139.553 15.6767 139.876 15.6191 140.199 15.5768L139.94 13.5937C139.554 13.6441 139.171 13.7125 138.79 13.7988L139.231 15.7495ZM140.197 15.5771C140.657 15.5179 141.024 15.4743 141.301 15.4457L141.095 13.4563C140.795 13.4873 140.41 13.5332 139.942 13.5934L140.197 15.5771ZM141.311 15.4446C141.637 15.4076 142.017 15.3355 142.333 15.1538L141.336 13.42C141.373 13.3986 141.379 13.4031 141.326 13.4168C141.277 13.4294 141.199 13.4444 141.085 13.4574L141.311 15.4446ZM142.324 15.1591C142.847 14.8655 143.038 14.3489 143.038 13.8892H141.038C141.038 13.8665 141.042 13.7819 141.097 13.6742C141.157 13.5571 141.25 13.4683 141.345 13.4148L142.324 15.1591ZM143.038 13.8892V13.8494H141.038V13.8892H143.038ZM143.038 13.8494C143.038 13.1739 142.849 12.5112 142.347 12.0032L140.924 13.4087C140.959 13.4443 141.038 13.5439 141.038 13.8494H143.038ZM142.351 12.0076C141.83 11.4736 141.122 11.2983 140.428 11.2983V13.2983C140.814 13.2983 140.911 13.3948 140.92 13.4043L142.351 12.0076ZM140.428 11.2983C139.732 11.2983 139.05 11.4499 138.5 11.8742L139.721 13.4582C139.806 13.392 140.003 13.2983 140.428 13.2983V11.2983ZM138.5 11.8742C138.092 12.1883 137.746 12.5686 137.532 13.0306L139.346 13.8728C139.39 13.778 139.492 13.6346 139.721 13.4582L138.5 11.8742ZM138.775 12.51L137.662 12.1122L136.989 13.9957L138.103 14.3934L138.775 12.51ZM138.244 13.4479C138.39 13.1079 138.562 12.8945 138.736 12.7587L137.506 11.1817C137.017 11.5629 136.658 12.072 136.406 12.6601L138.244 13.4479ZM138.737 12.7578C138.969 12.5766 139.21 12.4578 139.467 12.391L138.962 10.4556C138.43 10.5943 137.942 10.8401 137.505 11.1825L138.737 12.7578ZM139.472 12.3895C139.792 12.3043 140.096 12.2642 140.388 12.2642V10.2642C139.91 10.2642 139.433 10.3302 138.957 10.4571L139.472 12.3895ZM140.388 12.2642C140.555 12.2642 140.773 12.2849 141.049 12.3366L141.417 10.3708C141.056 10.3031 140.711 10.2642 140.388 10.2642V12.2642ZM141.06 12.3387C141.253 12.3725 141.448 12.4441 141.648 12.5642L142.677 10.8492C142.281 10.6113 141.856 10.4476 141.406 10.3687L141.06 12.3387ZM141.652 12.5667C141.775 12.6397 141.909 12.7666 142.037 12.9993L143.789 12.0348C143.52 11.545 143.153 11.1316 142.673 10.8467L141.652 12.5667ZM142.037 12.9993C142.125 13.1594 142.212 13.4571 142.212 13.9688H144.212C144.212 13.2674 144.099 12.5972 143.789 12.0348L142.037 12.9993ZM142.212 13.9688V19H144.212V13.9688H142.212ZM143.212 18H142.038V20H143.212V18ZM143.038 19V17.9659H141.038V19H143.038ZM142.038 16.9659H141.979V18.9659H142.038V16.9659ZM141.077 17.5332C141.061 17.5666 141.007 17.655 140.868 17.797L142.294 19.1987C142.526 18.9629 142.737 18.6967 142.88 18.3986L141.077 17.5332ZM140.868 17.797C140.794 17.8723 140.665 17.967 140.445 18.0615L141.235 19.8987C141.632 19.7281 141.997 19.5013 142.294 19.1987L140.868 17.797ZM140.445 18.0615C140.295 18.126 140.062 18.179 139.712 18.179V20.179C140.25 20.179 140.769 20.0994 141.235 19.8987L140.445 18.0615ZM139.891 19.125C140.484 19.125 141.056 19.0084 141.561 18.7192L140.567 16.9839C140.435 17.0593 140.226 17.125 139.891 17.125V19.125ZM141.557 18.7215C142.018 18.4602 142.399 18.1011 142.661 17.6363L140.918 16.6549C140.855 16.7668 140.753 16.8783 140.571 16.9817L141.557 18.7215ZM142.657 17.6439C142.906 17.2111 143.038 16.7369 143.038 16.2358H141.038C141.038 16.3711 141.005 16.5034 140.923 16.6473L142.657 17.6439ZM143.038 16.2358V15.1619H141.038V16.2358H143.038ZM141.27 14.5217C141.324 14.4575 141.375 14.4165 141.406 14.3937C141.439 14.3705 141.463 14.3578 141.472 14.3533C141.488 14.3454 141.478 14.3519 141.428 14.3666L141.992 16.2854C142.111 16.2504 142.241 16.2047 142.366 16.1421C142.481 16.0847 142.657 15.9813 142.807 15.8021L141.27 14.5217ZM141.441 14.363C141.318 14.3974 141.162 14.4318 140.969 14.4639L141.298 16.4367C141.543 16.3959 141.771 16.3474 141.98 16.289L141.441 14.363ZM140.981 14.4619C140.774 14.4939 140.571 14.5226 140.374 14.548L140.63 16.5316C140.844 16.5039 141.063 16.473 141.286 16.4387L140.981 14.4619ZM140.388 14.5463C140.183 14.5698 140.013 14.5904 139.879 14.608L140.14 16.5909C140.259 16.5753 140.417 16.5561 140.616 16.5333L140.388 14.5463ZM139.881 14.6078C139.517 14.6552 139.168 14.7335 138.835 14.8458L139.475 16.7408C139.672 16.6741 139.893 16.6232 140.139 16.591L139.881 14.6078ZM138.842 14.8434C138.444 14.9745 138.078 15.189 137.784 15.5072L139.253 16.8649C139.283 16.8318 139.342 16.7845 139.467 16.7432L138.842 14.8434ZM137.784 15.5078C137.411 15.9111 137.28 16.4132 137.28 16.892H139.28C139.28 16.8306 139.288 16.8082 139.287 16.8121C139.286 16.8143 139.283 16.8217 139.277 16.8323C139.271 16.8431 139.263 16.8542 139.253 16.8644L137.784 15.5078ZM137.28 16.892C137.28 17.5852 137.558 18.2203 138.163 18.639L139.301 16.9946C139.289 16.986 139.286 16.9817 139.287 16.983C139.288 16.9846 139.29 16.9874 139.291 16.9895C139.294 16.9956 139.28 16.9719 139.28 16.892H137.28ZM138.173 18.646C138.683 18.9895 139.278 19.125 139.891 19.125V17.125C139.569 17.125 139.391 17.055 139.291 16.9875L138.173 18.646ZM154.7 13.0739L154.972 14.0361L155.981 13.7504L155.648 12.7559L154.7 13.0739ZM153.646 13.3722L152.71 13.7252L153.034 14.5845L153.918 14.3344L153.646 13.3722ZM153.352 12.8601L152.551 13.4576L152.557 13.4664L152.564 13.4751L153.352 12.8601ZM152.835 12.4425L153.283 11.548V11.548L152.835 12.4425ZM150.827 12.6016L151.394 13.4253L151.396 13.4241L150.827 12.6016ZM150.683 14.103L150.06 14.885L150.683 14.103ZM151.677 14.5256L151.434 15.4957L151.438 15.4967L151.677 14.5256ZM152.811 14.804L152.572 15.7751L152.575 15.7758L152.811 14.804ZM154.337 15.5646L153.623 16.2648L153.626 16.2682L154.337 15.5646ZM154.461 18.0455L153.654 17.4554L153.65 17.4605L154.461 18.0455ZM149.922 18.652L150.474 17.8183L149.922 18.652ZM148.953 17.1705L148.71 16.2003L147.777 16.4336L147.974 17.3752L148.953 17.1705ZM150.066 16.892L151.035 16.6422L150.787 15.6812L149.824 15.9219L150.066 16.892ZM150.668 17.8168L150.096 18.6373L150.1 18.6403L150.668 17.8168ZM153.139 17.777L153.724 18.5879L153.725 18.5868L153.139 17.777ZM153.347 16.2656L152.647 16.9791L152.653 16.9855L153.347 16.2656ZM152.492 15.858L152.264 16.8316L152.266 16.8319L152.492 15.858ZM151.22 15.5597L150.989 16.5327L150.991 16.5333L151.22 15.5597ZM149.678 14.7891L148.944 15.4679L148.951 15.4751L149.678 14.7891ZM149.554 12.3281L148.75 11.7333L148.746 11.7385L149.554 12.3281ZM150.553 11.5476L150.147 10.6341L150.144 10.6353L150.553 11.5476ZM153.775 11.7614L153.165 12.554L153.168 12.5562L153.775 11.7614ZM154.427 12.1117L153.373 12.41L153.918 14.3344L154.972 14.0361L154.427 12.1117ZM154.581 13.0191C154.476 12.7387 154.325 12.4808 154.141 12.2451L152.564 13.4751C152.639 13.5708 152.683 13.6543 152.71 13.7252L154.581 13.0191ZM154.154 12.2626C153.921 11.9496 153.619 11.7161 153.283 11.548L152.388 13.3369C152.49 13.3876 152.532 13.4325 152.551 13.4576L154.154 12.2626ZM153.283 11.548C152.881 11.3473 152.434 11.2784 151.995 11.2784V13.2784C152.239 13.2784 152.352 13.3189 152.388 13.3369L153.283 11.548ZM151.995 11.2784C151.373 11.2784 150.772 11.4235 150.258 11.7791L151.396 13.4241C151.505 13.3488 151.683 13.2784 151.995 13.2784V11.2784ZM150.26 11.7778C149.725 12.1461 149.365 12.7045 149.365 13.4119H151.365C151.365 13.4088 151.365 13.4146 151.362 13.4262C151.359 13.4381 151.354 13.4496 151.349 13.4588C151.344 13.4676 151.341 13.469 151.346 13.4636C151.352 13.4578 151.366 13.4444 151.394 13.4253L150.26 11.7778ZM149.365 13.4119C149.365 13.9817 149.589 14.5104 150.06 14.885L151.306 13.3209C151.308 13.3226 151.316 13.3292 151.326 13.3416C151.336 13.3542 151.345 13.3692 151.352 13.3852C151.368 13.4195 151.365 13.435 151.365 13.4119H149.365ZM150.06 14.885C150.436 15.1854 150.93 15.3696 151.434 15.4957L151.92 13.5554C151.522 13.4561 151.353 13.3586 151.306 13.3209L150.06 14.885ZM151.438 15.4967L152.572 15.7751L153.049 13.8328L151.916 13.5544L151.438 15.4967ZM152.575 15.7758C153.156 15.9168 153.467 16.1055 153.623 16.2648L155.051 14.8645C154.538 14.341 153.831 14.0226 153.046 13.8322L152.575 15.7758ZM153.626 16.2682C153.752 16.3956 153.839 16.5671 153.839 16.8722H155.839C155.839 16.11 155.591 15.4098 155.047 14.861L153.626 16.2682ZM153.839 16.8722C153.839 17.1032 153.777 17.2865 153.654 17.4554L155.269 18.6355C155.649 18.115 155.839 17.5161 155.839 16.8722H153.839ZM153.65 17.4605C153.52 17.6411 153.322 17.8089 153.011 17.947L153.823 19.7746C154.407 19.515 154.905 19.1392 155.272 18.6304L153.65 17.4605ZM153.011 17.947C152.715 18.0783 152.338 18.1591 151.856 18.1591V20.1591C152.56 20.1591 153.224 20.041 153.823 19.7746L153.011 17.947ZM151.856 18.1591C151.22 18.1591 150.782 18.0218 150.474 17.8183L149.37 19.4857C150.083 19.9583 150.934 20.1591 151.856 20.1591V18.1591ZM150.474 17.8183C150.203 17.6385 150.018 17.3815 149.931 16.9657L147.974 17.3752C148.159 18.2586 148.62 18.9894 149.37 19.4857L150.474 17.8183ZM149.195 18.1406L150.309 17.8622L149.824 15.9219L148.71 16.2003L149.195 18.1406ZM149.098 17.1419C149.252 17.7404 149.571 18.2712 150.096 18.6373L151.239 16.9962C151.175 16.9513 151.092 16.8656 151.035 16.6422L149.098 17.1419ZM150.1 18.6403C150.612 18.9929 151.218 19.125 151.836 19.125V17.125C151.493 17.125 151.32 17.0517 151.235 16.9933L150.1 18.6403ZM151.836 19.125C152.515 19.125 153.178 18.9817 153.724 18.5879L152.553 16.9661C152.456 17.0363 152.251 17.125 151.836 17.125V19.125ZM153.725 18.5868C154.245 18.2104 154.626 17.6531 154.626 16.9318H152.626C152.626 16.9304 152.626 16.9229 152.629 16.9119C152.632 16.9008 152.636 16.893 152.638 16.8898C152.641 16.8837 152.626 16.9133 152.552 16.9672L153.725 18.5868ZM154.626 16.9318C154.626 16.4038 154.429 15.9192 154.042 15.5458L152.653 16.9855C152.655 16.9872 152.652 16.9849 152.648 16.9782C152.643 16.9713 152.638 16.9624 152.634 16.952C152.629 16.9417 152.627 16.9332 152.626 16.9281C152.625 16.9233 152.626 16.924 152.626 16.9318H154.626ZM154.048 15.5522C153.68 15.191 153.197 14.9952 152.719 14.884L152.266 16.8319C152.404 16.8642 152.501 16.8993 152.564 16.9297C152.627 16.9598 152.648 16.9801 152.647 16.9791L154.048 15.5522ZM152.721 14.8843L151.448 14.586L150.991 16.5333L152.264 16.8316L152.721 14.8843ZM151.45 14.5866C150.852 14.4447 150.549 14.2542 150.406 14.1031L148.951 15.4751C149.465 16.02 150.189 16.3431 150.989 16.5327L151.45 14.5866ZM150.413 14.1102C150.277 13.963 150.191 13.7746 150.191 13.4716H148.191C148.191 14.2225 148.431 14.9124 148.944 15.4679L150.413 14.1102ZM150.191 13.4716C150.191 13.2414 150.251 13.0691 150.362 12.9177L148.746 11.7385C148.373 12.25 148.191 12.8401 148.191 13.4716H150.191ZM150.358 12.923C150.49 12.7453 150.68 12.5871 150.963 12.4599L150.144 10.6353C149.586 10.8859 149.109 11.2481 148.75 11.7333L150.358 12.923ZM150.96 12.4611C151.238 12.3374 151.577 12.2642 151.995 12.2642V10.2642C151.34 10.2642 150.717 10.3799 150.147 10.6341L150.96 12.4611ZM151.995 12.2642C152.615 12.2642 152.966 12.4007 153.165 12.554L154.385 10.9687C153.722 10.4591 152.887 10.2642 151.995 10.2642V12.2642ZM153.168 12.5562C153.435 12.7602 153.63 13.0278 153.752 13.3918L155.648 12.7559C155.405 12.0328 154.983 11.4254 154.382 10.9665L153.168 12.5562ZM156.605 21.8636H155.605V22.8636H156.605V21.8636ZM156.605 11.3636V10.3636H155.605V11.3636H156.605ZM157.739 11.3636H158.739V10.3636H157.739V11.3636ZM157.739 12.5767H156.739V13.5767H157.739V12.5767ZM157.878 12.5767V13.5767H158.421L158.716 13.1217L157.878 12.5767ZM158.236 12.0696L157.434 11.4716L157.433 11.4738L158.236 12.0696ZM158.902 11.5128L159.393 12.3841L159.396 12.3822L158.902 11.5128ZM161.786 11.7464L162.334 10.9101V10.9101L161.786 11.7464ZM162.934 13.1136L163.84 12.691V12.691L162.934 13.1136ZM162.934 17.3047L163.84 17.7273L163.841 17.7254L162.934 17.3047ZM161.79 18.6768L162.341 19.5115L162.345 19.5089L161.79 18.6768ZM158.927 18.9155L158.437 19.7874L158.445 19.7915L158.927 18.9155ZM158.246 18.3537L157.446 18.9537L157.45 18.9597L158.246 18.3537ZM157.878 17.8267L158.728 17.3004L158.435 16.8267H157.878V17.8267ZM157.778 17.8267V16.8267H156.778V17.8267H157.778ZM157.778 21.8636V22.8636H158.778V21.8636H157.778ZM158.012 16.7081L157.078 17.0661L157.079 17.0685L158.012 16.7081ZM158.753 17.7372L158.145 18.5314L158.15 18.5353L158.753 17.7372ZM161.174 17.7173L161.793 18.5028L161.794 18.502L161.174 17.7173ZM161.92 16.6634L160.985 16.3076L160.984 16.3115L161.92 16.6634ZM161.925 13.7301L160.988 14.0805L160.991 14.0891L161.925 13.7301ZM161.184 12.701L160.57 13.4904L160.579 13.4972L161.184 12.701ZM158.743 12.6811L159.335 13.487L159.34 13.4831L158.743 12.6811ZM158.007 13.6854L158.94 14.0468L158.94 14.0443L158.007 13.6854ZM157.605 21.8636V11.3636H155.605V21.8636H157.605ZM156.605 12.3636H157.739V10.3636H156.605V12.3636ZM156.739 11.3636V12.5767H158.739V11.3636H156.739ZM157.739 13.5767H157.878V11.5767H157.739V13.5767ZM158.716 13.1217C158.787 13.0136 158.892 12.8631 159.039 12.6654L157.433 11.4738C157.274 11.6871 157.142 11.8746 157.039 12.0317L158.716 13.1217ZM159.037 12.6676C159.09 12.5964 159.194 12.4959 159.393 12.3841L158.411 10.6415C158.033 10.8545 157.693 11.1252 157.434 11.4716L159.037 12.6676ZM159.396 12.3822C159.482 12.3336 159.684 12.2642 160.085 12.2642V10.2642C159.492 10.2642 158.906 10.3605 158.408 10.6433L159.396 12.3822ZM160.085 12.2642C160.553 12.2642 160.925 12.3783 161.237 12.5828L162.334 10.9101C161.665 10.4716 160.903 10.2642 160.085 10.2642V12.2642ZM161.237 12.5828C161.556 12.7914 161.822 13.0957 162.028 13.5362L163.84 12.691C163.495 11.9516 162.996 11.3445 162.334 10.9101L161.237 12.5828ZM162.028 13.5362C162.228 13.9668 162.347 14.5125 162.347 15.2017H164.347C164.347 14.2867 164.19 13.4404 163.84 12.691L162.028 13.5362ZM162.347 15.2017C162.347 15.8987 162.228 16.4499 162.027 16.884L163.841 17.7254C164.19 16.9729 164.347 16.1222 164.347 15.2017H162.347ZM162.028 16.8821C161.821 17.325 161.554 17.6327 161.236 17.8448L162.345 19.5089C163.002 19.0713 163.497 18.4643 163.84 17.7273L162.028 16.8821ZM161.24 17.8422C160.931 18.0461 160.564 18.1591 160.105 18.1591V20.1591C160.919 20.1591 161.676 19.9506 162.341 19.5115L161.24 17.8422ZM160.105 18.1591C159.711 18.1591 159.504 18.0918 159.409 18.0395L158.445 19.7915C158.939 20.064 159.518 20.1591 160.105 20.1591V18.1591ZM159.417 18.0436C159.208 17.9262 159.097 17.8215 159.041 17.7477L157.45 18.9597C157.712 19.3035 158.056 19.5733 158.437 19.7873L159.417 18.0436ZM159.046 17.7537C158.895 17.5528 158.792 17.4037 158.728 17.3004L157.028 18.3531C157.136 18.5281 157.278 18.7304 157.446 18.9537L159.046 17.7537ZM157.878 16.8267H157.778V18.8267H157.878V16.8267ZM156.778 17.8267V21.8636H158.778V17.8267H156.778ZM157.778 20.8636H156.605V22.8636H157.778V20.8636ZM156.759 15.1818C156.759 15.8546 156.857 16.4888 157.078 17.0661L158.946 16.3501C158.829 16.0457 158.759 15.6624 158.759 15.1818H156.759ZM157.079 17.0685C157.305 17.652 157.654 18.1552 158.145 18.5313L159.361 16.9431C159.202 16.822 159.057 16.6392 158.945 16.3477L157.079 17.0685ZM158.15 18.5353C158.675 18.9314 159.293 19.1051 159.946 19.1051V17.1051C159.657 17.1051 159.48 17.0335 159.355 16.9392L158.15 18.5353ZM159.946 19.1051C160.62 19.1051 161.259 18.9236 161.793 18.5028L160.555 16.9318C160.433 17.0281 160.253 17.1051 159.946 17.1051V19.1051ZM161.794 18.502C162.284 18.1147 162.634 17.6063 162.856 17.0152L160.984 16.3115C160.874 16.602 160.727 16.7962 160.554 16.9326L161.794 18.502ZM162.854 17.0191C163.072 16.4462 163.173 15.8297 163.173 15.1818H161.173C161.173 15.6211 161.105 15.9922 160.985 16.3076L162.854 17.0191ZM163.173 15.1818C163.173 14.5418 163.074 13.9336 162.858 13.3711L160.991 14.0891C161.106 14.3884 161.173 14.7479 161.173 15.1818H163.173ZM162.861 13.3798C162.641 12.7894 162.288 12.2837 161.789 11.9048L160.579 13.4972C160.743 13.622 160.884 13.8025 160.988 14.0805L162.861 13.3798ZM161.798 11.9116C161.262 11.4946 160.62 11.3182 159.946 11.3182V13.3182C160.266 13.3182 160.45 13.397 160.57 13.4903L161.798 11.9116ZM159.946 11.3182C159.293 11.3182 158.672 11.4868 158.146 11.8791L159.34 13.4831C159.463 13.3915 159.644 13.3182 159.946 13.3182V11.3182ZM158.151 11.8752C157.65 12.2429 157.298 12.7436 157.074 13.3264L158.94 14.0443C159.048 13.7654 159.186 13.5966 159.335 13.487L158.151 11.8752ZM157.075 13.324C156.855 13.891 156.759 14.5171 156.759 15.1818H158.759C158.759 14.7064 158.828 14.3348 158.94 14.0468L157.075 13.324ZM166.424 18.6669L165.888 19.5112L165.891 19.5128L166.424 18.6669ZM165.211 17.2898L164.312 17.7289L164.315 17.733L165.211 17.2898ZM165.211 13.1385L164.314 12.6973L164.312 12.7014L165.211 13.1385ZM166.424 11.7564L165.891 10.9105L165.888 10.9121L166.424 11.7564ZM170.048 11.7564L169.512 12.6007L169.515 12.6023L170.048 11.7564ZM171.261 13.1385L170.362 13.5756L170.364 13.5797L171.261 13.1385ZM171.261 17.2898L170.365 16.8466L170.363 16.8507L171.261 17.2898ZM170.048 18.6669L169.515 17.821L169.512 17.8226L170.048 18.6669ZM169.531 17.7024L168.909 16.9193L169.531 17.7024ZM170.282 16.6435L171.219 16.9915L170.282 16.6435ZM170.282 13.7947L171.22 13.449L170.282 13.7947ZM169.531 12.7259L170.158 11.9465V11.9465L169.531 12.7259ZM166.946 12.7259L166.319 11.9465L166.946 12.7259ZM166.195 13.7947L165.257 13.449H165.257L166.195 13.7947ZM166.195 16.6435L165.258 16.9915L166.195 16.6435ZM166.946 17.7024L167.568 16.9193L166.946 17.7024ZM168.239 18.1591C167.715 18.1591 167.299 18.0366 166.957 17.821L165.891 19.5128C166.589 19.9534 167.384 20.1591 168.239 20.1591V18.1591ZM166.96 17.8226C166.609 17.6 166.324 17.2851 166.107 16.8466L164.315 17.733C164.681 18.4744 165.205 19.0776 165.888 19.5112L166.96 17.8226ZM166.109 16.8507C165.9 16.4222 165.778 15.8885 165.778 15.2216H163.778C163.778 16.1324 163.945 16.9774 164.313 17.7289L166.109 16.8507ZM165.778 15.2216C165.778 14.5468 165.9 14.0075 166.11 13.5756L164.312 12.7014C163.945 13.456 163.778 14.3054 163.778 15.2216H165.778ZM166.108 13.5797C166.326 13.1379 166.61 12.8224 166.96 12.6007L165.888 10.9121C165.203 11.3466 164.68 11.9526 164.314 12.6973L166.108 13.5797ZM166.957 12.6023C167.299 12.3867 167.715 12.2642 168.239 12.2642V10.2642C167.384 10.2642 166.589 10.4699 165.891 10.9105L166.957 12.6023ZM168.239 12.2642C168.763 12.2642 169.175 12.3867 169.512 12.6007L170.584 10.9121C169.887 10.4699 169.093 10.2642 168.239 10.2642V12.2642ZM169.515 12.6023C169.866 12.8237 170.149 13.1374 170.362 13.5756L172.161 12.7014C171.797 11.953 171.271 11.3453 170.582 10.9105L169.515 12.6023ZM170.364 13.5797C170.576 14.0105 170.699 14.5484 170.699 15.2216H172.699C172.699 14.3039 172.53 13.453 172.159 12.6973L170.364 13.5797ZM170.699 15.2216C170.699 15.8869 170.576 16.4192 170.365 16.8466L172.158 17.733C172.53 16.9805 172.699 16.1339 172.699 15.2216H170.699ZM170.363 16.8507C170.15 17.2855 169.867 17.5987 169.515 17.821L170.582 19.5128C171.27 19.0789 171.796 18.474 172.16 17.7289L170.363 16.8507ZM169.512 17.8226C169.175 18.0366 168.763 18.1591 168.239 18.1591V20.1591C169.093 20.1591 169.887 19.9534 170.584 19.5112L169.512 17.8226ZM168.239 19.1051C168.938 19.1051 169.603 18.9225 170.153 18.4855L168.909 16.9193C168.783 17.0193 168.586 17.1051 168.239 17.1051V19.1051ZM170.153 18.4855C170.646 18.0944 170.999 17.5857 171.219 16.9915L169.344 16.2955C169.24 16.5762 169.093 16.7735 168.909 16.9193L170.153 18.4855ZM171.219 16.9915C171.427 16.4326 171.526 15.8397 171.526 15.2216H169.526C169.526 15.6244 169.462 15.9793 169.344 16.2955L171.219 16.9915ZM171.526 15.2216C171.526 14.6034 171.427 14.0098 171.22 13.449L169.344 14.1404C169.462 14.4614 169.526 14.8189 169.526 15.2216H171.526ZM171.22 13.449C171.001 12.8527 170.649 12.3413 170.158 11.9465L168.905 13.5052C169.09 13.654 169.239 13.8552 169.344 14.1404L171.22 13.449ZM170.158 11.9465C169.607 11.504 168.941 11.3182 168.239 11.3182V13.3182C168.583 13.3182 168.779 13.4041 168.905 13.5052L170.158 11.9465ZM168.239 11.3182C167.536 11.3182 166.87 11.504 166.319 11.9465L167.573 13.5052C167.698 13.4041 167.894 13.3182 168.239 13.3182V11.3182ZM166.319 11.9465C165.828 12.3413 165.477 12.8527 165.257 13.449L167.134 14.1404C167.239 13.8552 167.388 13.654 167.573 13.5052L166.319 11.9465ZM165.257 13.449C165.05 14.0098 164.952 14.6034 164.952 15.2216H166.952C166.952 14.8189 167.015 14.4614 167.134 14.1404L165.257 13.449ZM164.952 15.2216C164.952 15.8397 165.05 16.4326 165.258 16.9915L167.133 16.2955C167.015 15.9793 166.952 15.6244 166.952 15.2216H164.952ZM165.258 16.9915C165.478 17.5857 165.832 18.0944 166.324 18.4855L167.568 16.9193C167.384 16.7735 167.237 16.5762 167.133 16.2955L165.258 16.9915ZM166.324 18.4855C166.874 18.9225 167.539 19.1051 168.239 19.1051V17.1051C167.891 17.1051 167.694 17.0193 167.568 16.9193L166.324 18.4855ZM173.49 19H172.49V20H173.49V19ZM173.49 11.3636V10.3636H172.49V11.3636H173.49ZM174.623 11.3636H175.623V10.3636H174.623V11.3636ZM174.623 12.517H173.623V13.517H174.623V12.517ZM174.703 12.517V13.517H175.4L175.641 12.8628L174.703 12.517ZM175.459 11.5973L174.916 10.7571V10.7571L175.459 11.5973ZM177.308 11.2642H178.308V10.3592L177.408 10.2692L177.308 11.2642ZM177.308 12.4574L177.066 13.4275L178.308 13.7382V12.4574H177.308ZM177.035 12.4126L176.87 13.399L176.883 13.4012L176.896 13.403L177.035 12.4126ZM175.598 12.6115L176.065 13.4955L176.069 13.4936L175.598 12.6115ZM174.912 13.2479L174.063 12.7197L174.061 12.7226L174.912 13.2479ZM174.663 19V20H175.663V19H174.663ZM174.49 19V11.3636H172.49V19H174.49ZM173.49 12.3636H174.623V10.3636H173.49V12.3636ZM173.623 11.3636V12.517H175.623V11.3636H173.623ZM174.623 13.517H174.703V11.517H174.623V13.517ZM175.641 12.8628C175.7 12.7045 175.803 12.565 176.001 12.4375L174.916 10.7571C174.385 11.1003 173.985 11.574 173.765 12.1713L175.641 12.8628ZM176.001 12.4375C176.195 12.3123 176.416 12.2443 176.692 12.2443V10.2443C176.053 10.2443 175.451 10.4117 174.916 10.7571L176.001 12.4375ZM176.692 12.2443C176.766 12.2443 176.865 12.2458 176.989 12.249L177.04 10.2496C176.906 10.2462 176.789 10.2443 176.692 10.2443V12.2443ZM176.989 12.249C177.112 12.2521 177.18 12.2564 177.209 12.2592L177.408 10.2692C177.304 10.2588 177.176 10.2531 177.04 10.2496L176.989 12.249ZM176.308 11.2642V12.4574H178.308V11.2642H176.308ZM177.551 11.4872C177.449 11.4618 177.3 11.44 177.173 11.4222L176.896 13.403C176.964 13.4124 177.014 13.4199 177.048 13.4256C177.066 13.4285 177.077 13.4304 177.082 13.4314C177.09 13.4329 177.082 13.4316 177.066 13.4275L177.551 11.4872ZM177.199 11.4262C177 11.3931 176.797 11.3778 176.592 11.3778V13.3778C176.698 13.3778 176.791 13.3858 176.87 13.399L177.199 11.4262ZM176.592 11.3778C176.077 11.3778 175.58 11.4871 175.127 11.7294L176.069 13.4936C176.199 13.4243 176.365 13.3778 176.592 13.3778V11.3778ZM175.13 11.7275C174.689 11.961 174.327 12.2946 174.063 12.7197L175.761 13.776C175.835 13.6575 175.93 13.5669 176.065 13.4955L175.13 11.7275ZM174.061 12.7226C173.789 13.1634 173.663 13.6552 173.663 14.1676H175.663C175.663 13.9907 175.703 13.8693 175.763 13.7731L174.061 12.7226ZM173.663 14.1676V19H175.663V14.1676H173.663ZM174.663 18H173.49V20H174.663V18ZM182.498 11.3636H183.498V10.3636H182.498V11.3636ZM182.498 12.358V13.358H183.498V12.358H182.498ZM178.541 12.358H177.541V13.358H178.541V12.358ZM178.541 11.3636V10.3636H177.541V11.3636H178.541ZM179.694 9.53409V8.53409H178.694V9.53409H179.694ZM180.868 9.53409H181.868V8.53409H180.868V9.53409ZM181.012 17.5582L180.147 18.06L180.153 18.0702L180.159 18.0804L181.012 17.5582ZM181.39 17.8864L181.043 18.8244L181.055 18.8288L181.067 18.833L181.39 17.8864ZM182.2 17.946L182.358 18.9335L182.377 18.9304L182.396 18.9266L182.2 17.946ZM182.399 17.9062L183.374 17.6854L183.159 16.7344L182.203 16.9257L182.399 17.9062ZM182.638 18.9602L182.989 19.8966L183.806 19.5902L183.613 18.7394L182.638 18.9602ZM182.305 19.0497L182.1 18.0709L182.089 18.0732L182.078 18.0757L182.305 19.0497ZM180.788 18.8857L180.376 19.7967L180.379 19.7983L180.788 18.8857ZM180.003 18.2344L179.185 18.8103L179.19 18.8165L180.003 18.2344ZM181.498 11.3636V12.358H183.498V11.3636H181.498ZM182.498 11.358H178.541V13.358H182.498V11.358ZM179.541 12.358V11.3636H177.541V12.358H179.541ZM178.541 12.3636H182.498V10.3636H178.541V12.3636ZM179.694 10.5341H180.868V8.53409H179.694V10.5341ZM179.868 9.53409V16.8125H181.868V9.53409H179.868ZM179.868 16.8125C179.868 17.2078 179.919 17.6676 180.147 18.06L181.877 17.0565C181.9 17.0958 181.895 17.1054 181.886 17.0577C181.877 17.0117 181.868 16.9328 181.868 16.8125H179.868ZM180.159 18.0804C180.355 18.4001 180.645 18.6773 181.043 18.8244L181.736 16.9484C181.776 16.9631 181.811 16.9847 181.837 17.007C181.861 17.0282 181.868 17.0422 181.865 17.0361L180.159 18.0804ZM181.067 18.833C181.332 18.923 181.605 18.9659 181.882 18.9659V16.9659C181.814 16.9659 181.759 16.9558 181.712 16.9397L181.067 18.833ZM181.882 18.9659C182.039 18.9659 182.203 18.9583 182.358 18.9335L182.042 16.9586C182.031 16.9603 181.983 16.9659 181.882 16.9659V18.9659ZM182.396 18.9266C182.479 18.91 182.545 18.8968 182.595 18.8868L182.203 16.9257C182.153 16.9356 182.087 16.9489 182.004 16.9654L182.396 18.9266ZM181.424 18.1271L181.662 19.1811L183.613 18.7394L183.374 17.6854L181.424 18.1271ZM182.286 18.0239C182.287 18.0239 182.282 18.0254 182.273 18.0283C182.264 18.0311 182.252 18.0348 182.235 18.0392C182.202 18.0482 182.157 18.0589 182.1 18.0709L182.509 20.0285C182.672 19.9945 182.84 19.9524 182.989 19.8966L182.286 18.0239ZM182.078 18.0757C182.037 18.0853 181.939 18.0994 181.763 18.0994V20.0994C182.024 20.0994 182.287 20.0804 182.531 20.0237L182.078 18.0757ZM181.763 18.0994C181.579 18.0994 181.393 18.061 181.197 17.973L180.379 19.7983C180.819 19.9953 181.283 20.0994 181.763 20.0994V18.0994ZM181.201 17.9746C181.052 17.9074 180.926 17.8066 180.816 17.6523L179.19 18.8165C179.497 19.2455 179.895 19.5788 180.376 19.7967L181.201 17.9746ZM180.82 17.6584C180.76 17.5727 180.694 17.4195 180.694 17.1307H178.694C178.694 17.7301 178.835 18.3127 179.185 18.8103L180.82 17.6584ZM180.694 17.1307V9.53409H178.694V17.1307H180.694Z" fill="black" mask="url(#path-3-outside-1_15_59)"/>
</g>
<defs>
<filter id="filter0_d_15_59" x="0" y="0" width="254" height="36" filterUnits="userSpaceOnUse" color-interpolation-filters="sRGB">
<feFlood flood-opacity="0" result="BackgroundImageFix"/>
<feColorMatrix in="SourceAlpha" type="matrix" values="0 0 0 0 0 0 0 0 0 0 0 0 0 0 0 0 0 0 127 0" result="hardAlpha"/>
<feOffset dy="4"/>
<feGaussianBlur stdDeviation="2"/>
<feComposite in2="hardAlpha" operator="out"/>
<feColorMatrix type="matrix" values="0 0 0 0 0 0 0 0 0 0 0 0 0 0 0 0 0 0 0.25 0"/>
<feBlend mode="normal" in2="BackgroundImageFix" result="effect1_dropShadow_15_59"/>
<feBlend mode="normal" in="SourceGraphic" in2="effect1_dropShadow_15_59" result="shape"/>
</filter>
<filter id="filter1_d_15_59" x="70.5413" y="7.67898" width="117.264" height="23.1847" filterUnits="userSpaceOnUse" color-interpolation-filters="sRGB">
<feFlood flood-opacity="0" result="BackgroundImageFix"/>
<feColorMatrix in="SourceAlpha" type="matrix" values="0 0 0 0 0 0 0 0 0 0 0 0 0 0 0 0 0 0 127 0" result="hardAlpha"/>
<feOffset dy="4"/>
<feGaussianBlur stdDeviation="2"/>
<feComposite in2="hardAlpha" operator="out"/>
<feColorMatrix type="matrix" values="0 0 0 0 0 0 0 0 0 0 0 0 0 0 0 0 0 0 0.25 0"/>
<feBlend mode="normal" in2="BackgroundImageFix" result="effect1_dropShadow_15_59"/>
<feBlend mode="normal" in="SourceGraphic" in2="effect1_dropShadow_15_59" result="shape"/>
</filter>
<linearGradient id="paint0_linear_15_59" x1="4" y1="14" x2="250" y2="14" gradientUnits="userSpaceOnUse">
<stop stop-color="#004080"/>
<stop offset="1" stop-color="#5013EA"/>
</linearGradient>
</defs>
</svg>
