<svg width="245" height="59" viewBox="0 0 245 59" fill="none" xmlns="http://www.w3.org/2000/svg">
<g filter="url(#filter0_d_8_23)">
<rect x="4.5" y="0.5" width="236" height="50" rx="14.5" fill="url(#paint0_linear_8_23)" stroke="black"/>
<g filter="url(#filter1_d_8_23)">
<mask id="path-2-outside-1_8_23" maskUnits="userSpaceOnUse" x="24" y="15" width="193" height="26" fill="black">
<rect fill="white" x="24" y="15" width="193" height="26"/>
<path d="M40.1591 22H38.0455C37.9205 21.392 37.7017 20.858 37.3892 20.3977C37.0824 19.9375 36.7074 19.5511 36.2642 19.2386C35.8267 18.9205 35.3409 18.6818 34.8068 18.5227C34.2727 18.3636 33.7159 18.2841 33.1364 18.2841C32.0795 18.2841 31.1222 18.5511 30.2642 19.0852C29.4119 19.6193 28.733 20.4062 28.2273 21.446C27.7273 22.4858 27.4773 23.7614 27.4773 25.2727C27.4773 26.7841 27.7273 28.0597 28.2273 29.0994C28.733 30.1392 29.4119 30.9261 30.2642 31.4602C31.1222 31.9943 32.0795 32.2614 33.1364 32.2614C33.7159 32.2614 34.2727 32.1818 34.8068 32.0227C35.3409 31.8636 35.8267 31.6278 36.2642 31.3153C36.7074 30.9972 37.0824 30.608 37.3892 30.1477C37.7017 29.6818 37.9205 29.1477 38.0455 28.5455H40.1591C40 29.4375 39.7102 30.2358 39.2898 30.9403C38.8693 31.6449 38.3466 32.2443 37.7216 32.7386C37.0966 33.2273 36.3949 33.5994 35.6165 33.8551C34.8438 34.1108 34.017 34.2386 33.1364 34.2386C31.6477 34.2386 30.3239 33.875 29.1648 33.1477C28.0057 32.4205 27.0938 31.3864 26.429 30.0455C25.7642 28.7045 25.4318 27.1136 25.4318 25.2727C25.4318 23.4318 25.7642 21.8409 26.429 20.5C27.0938 19.1591 28.0057 18.125 29.1648 17.3977C30.3239 16.6705 31.6477 16.3068 33.1364 16.3068C34.017 16.3068 34.8438 16.4347 35.6165 16.6903C36.3949 16.946 37.0966 17.321 37.7216 17.8153C38.3466 18.304 38.8693 18.9006 39.2898 19.6051C39.7102 20.304 40 21.1023 40.1591 22ZM45.3132 26.125V34H43.3018V16.5455H45.3132V22.9545H45.4837C45.7905 22.2784 46.2507 21.7415 46.8643 21.3438C47.4837 20.9403 48.3075 20.7386 49.3359 20.7386C50.228 20.7386 51.0092 20.9176 51.6797 21.2756C52.3501 21.6278 52.87 22.1705 53.2393 22.9034C53.6143 23.6307 53.8018 24.5568 53.8018 25.6818V34H51.7905V25.8182C51.7905 24.7784 51.5206 23.9744 50.9808 23.4062C50.4467 22.8324 49.7053 22.5455 48.7564 22.5455C48.0973 22.5455 47.5064 22.6847 46.9837 22.9631C46.4666 23.2415 46.0575 23.6477 45.7564 24.1818C45.4609 24.7159 45.3132 25.3636 45.3132 26.125ZM61.3338 34.3068C60.5043 34.3068 59.7514 34.1506 59.0753 33.8381C58.3991 33.5199 57.8622 33.0625 57.4645 32.4659C57.0668 31.8636 56.8679 31.1364 56.8679 30.2841C56.8679 29.5341 57.0156 28.9261 57.3111 28.4602C57.6065 27.9886 58.0014 27.6193 58.4957 27.3523C58.9901 27.0852 59.5355 26.8864 60.1321 26.7557C60.7344 26.6193 61.3395 26.5114 61.9474 26.4318C62.7429 26.3295 63.3878 26.2528 63.8821 26.2017C64.3821 26.1449 64.7457 26.0511 64.973 25.9205C65.206 25.7898 65.3224 25.5625 65.3224 25.2386V25.1705C65.3224 24.3295 65.0923 23.6761 64.6321 23.2102C64.1776 22.7443 63.4872 22.5114 62.5611 22.5114C61.6009 22.5114 60.848 22.7216 60.3026 23.142C59.7571 23.5625 59.3736 24.0114 59.152 24.4886L57.2429 23.8068C57.5838 23.0114 58.0384 22.392 58.6065 21.9489C59.1804 21.5 59.8054 21.1875 60.4815 21.0114C61.1634 20.8295 61.8338 20.7386 62.4929 20.7386C62.9134 20.7386 63.3963 20.7898 63.9418 20.892C64.4929 20.9886 65.0241 21.1903 65.5355 21.4972C66.0526 21.804 66.4815 22.267 66.8224 22.8864C67.1634 23.5057 67.3338 24.3352 67.3338 25.375V34H65.3224V32.2273H65.2202C65.0838 32.5114 64.8565 32.8153 64.5384 33.1392C64.2202 33.4631 63.7969 33.7386 63.2685 33.9659C62.7401 34.1932 62.0952 34.3068 61.3338 34.3068ZM61.6406 32.5C62.4361 32.5 63.1065 32.3438 63.652 32.0312C64.2031 31.7188 64.6179 31.3153 64.8963 30.821C65.1804 30.3267 65.3224 29.8068 65.3224 29.2614V27.4205C65.2372 27.5227 65.0497 27.6165 64.7599 27.7017C64.4759 27.7812 64.1463 27.8523 63.7713 27.9148C63.402 27.9716 63.0412 28.0227 62.6889 28.0682C62.3423 28.108 62.0611 28.142 61.8452 28.1705C61.3224 28.2386 60.8338 28.3494 60.3793 28.5028C59.9304 28.6506 59.5668 28.875 59.2884 29.1761C59.0156 29.4716 58.8793 29.875 58.8793 30.3864C58.8793 31.0852 59.1378 31.6136 59.6548 31.9716C60.1776 32.3239 60.8395 32.5 61.6406 32.5ZM73.0163 16.5455V34H71.005V16.5455H73.0163ZM78.7116 16.5455V34H76.7003V16.5455H78.7116ZM87.8842 34.2727C86.6229 34.2727 85.5348 33.9943 84.62 33.4375C83.7109 32.875 83.0092 32.0909 82.5149 31.0852C82.0263 30.0739 81.782 28.8977 81.782 27.5568C81.782 26.2159 82.0263 25.0341 82.5149 24.0114C83.0092 22.983 83.6967 22.1818 84.5774 21.608C85.4638 21.0284 86.4979 20.7386 87.6797 20.7386C88.3615 20.7386 89.0348 20.8523 89.6996 21.0795C90.3643 21.3068 90.9695 21.6761 91.5149 22.1875C92.0604 22.6932 92.495 23.3636 92.8189 24.1989C93.1428 25.0341 93.3047 26.0625 93.3047 27.2841V28.1364H83.2138V26.3977H91.2592C91.2592 25.6591 91.1115 25 90.8161 24.4205C90.5263 23.8409 90.1115 23.3835 89.5717 23.0483C89.0376 22.7131 88.407 22.5455 87.6797 22.5455C86.8786 22.5455 86.1854 22.7443 85.6001 23.142C85.0206 23.5341 84.5746 24.0455 84.2621 24.6761C83.9496 25.3068 83.7933 25.983 83.7933 26.7045V27.8636C83.7933 28.8523 83.9638 29.6903 84.3047 30.3778C84.6513 31.0597 85.1314 31.5795 85.745 31.9375C86.3587 32.2898 87.0717 32.4659 87.8842 32.4659C88.4126 32.4659 88.8899 32.392 89.3161 32.2443C89.7479 32.0909 90.12 31.8636 90.4325 31.5625C90.745 31.2557 90.9865 30.875 91.157 30.4205L93.1001 30.9659C92.8956 31.625 92.5518 32.2045 92.0689 32.7045C91.5859 33.1989 90.9893 33.5852 90.2791 33.8636C89.5689 34.1364 88.7706 34.2727 87.8842 34.2727ZM98.3757 26.125V34H96.3643V20.9091H98.3075V22.9545H98.478C98.7848 22.2898 99.2507 21.7557 99.8757 21.3523C100.501 20.9432 101.308 20.7386 102.296 20.7386C103.183 20.7386 103.958 20.9205 104.623 21.2841C105.288 21.642 105.805 22.1875 106.174 22.9205C106.543 23.6477 106.728 24.5682 106.728 25.6818V34H104.717V25.8182C104.717 24.7898 104.45 23.9886 103.915 23.4148C103.381 22.8352 102.648 22.5455 101.717 22.5455C101.075 22.5455 100.501 22.6847 99.995 22.9631C99.495 23.2415 99.1001 23.6477 98.8104 24.1818C98.5206 24.7159 98.3757 25.3636 98.3757 26.125ZM115.688 39.1818C114.716 39.1818 113.881 39.0568 113.182 38.8068C112.483 38.5625 111.901 38.2386 111.435 37.8352C110.974 37.4375 110.608 37.0114 110.335 36.5568L111.938 35.4318C112.119 35.6705 112.349 35.9432 112.628 36.25C112.906 36.5625 113.287 36.8324 113.77 37.0597C114.259 37.2926 114.898 37.4091 115.688 37.4091C116.744 37.4091 117.616 37.1534 118.304 36.642C118.991 36.1307 119.335 35.3295 119.335 34.2386V31.5795H119.165C119.017 31.8182 118.807 32.1136 118.534 32.4659C118.267 32.8125 117.881 33.1222 117.375 33.3949C116.875 33.6619 116.199 33.7955 115.347 33.7955C114.29 33.7955 113.341 33.5455 112.5 33.0455C111.665 32.5455 111.003 31.8182 110.514 30.8636C110.031 29.9091 109.79 28.75 109.79 27.3864C109.79 26.0455 110.026 24.8778 110.497 23.8835C110.969 22.8835 111.625 22.1108 112.466 21.5653C113.307 21.0142 114.278 20.7386 115.381 20.7386C116.233 20.7386 116.909 20.8807 117.409 21.1648C117.915 21.4432 118.301 21.7614 118.568 22.1193C118.841 22.4716 119.051 22.7614 119.199 22.9886H119.403V20.9091H121.347V34.375C121.347 35.5 121.091 36.4148 120.58 37.1193C120.074 37.8295 119.392 38.3494 118.534 38.679C117.682 39.0142 116.733 39.1818 115.688 39.1818ZM115.619 31.9886C116.426 31.9886 117.108 31.804 117.665 31.4347C118.222 31.0653 118.645 30.5341 118.935 29.8409C119.224 29.1477 119.369 28.3182 119.369 27.3523C119.369 26.4091 119.227 25.5767 118.943 24.8551C118.659 24.1335 118.239 23.5682 117.682 23.1591C117.125 22.75 116.438 22.5455 115.619 22.5455C114.767 22.5455 114.057 22.7614 113.489 23.1932C112.926 23.625 112.503 24.2045 112.219 24.9318C111.94 25.6591 111.801 26.4659 111.801 27.3523C111.801 28.2614 111.943 29.0653 112.227 29.7642C112.517 30.4574 112.943 31.0028 113.506 31.4006C114.074 31.7926 114.778 31.9886 115.619 31.9886ZM130.517 34.2727C129.256 34.2727 128.168 33.9943 127.253 33.4375C126.344 32.875 125.642 32.0909 125.148 31.0852C124.659 30.0739 124.415 28.8977 124.415 27.5568C124.415 26.2159 124.659 25.0341 125.148 24.0114C125.642 22.983 126.33 22.1818 127.21 21.608C128.097 21.0284 129.131 20.7386 130.312 20.7386C130.994 20.7386 131.668 20.8523 132.332 21.0795C132.997 21.3068 133.602 21.6761 134.148 22.1875C134.693 22.6932 135.128 23.3636 135.452 24.1989C135.776 25.0341 135.938 26.0625 135.938 27.2841V28.1364H125.847V26.3977H133.892C133.892 25.6591 133.744 25 133.449 24.4205C133.159 23.8409 132.744 23.3835 132.205 23.0483C131.67 22.7131 131.04 22.5455 130.312 22.5455C129.511 22.5455 128.818 22.7443 128.233 23.142C127.653 23.5341 127.207 24.0455 126.895 24.6761C126.582 25.3068 126.426 25.983 126.426 26.7045V27.8636C126.426 28.8523 126.597 29.6903 126.938 30.3778C127.284 31.0597 127.764 31.5795 128.378 31.9375C128.991 32.2898 129.705 32.4659 130.517 32.4659C131.045 32.4659 131.523 32.392 131.949 32.2443C132.381 32.0909 132.753 31.8636 133.065 31.5625C133.378 31.2557 133.619 30.875 133.79 30.4205L135.733 30.9659C135.528 31.625 135.185 32.2045 134.702 32.7045C134.219 33.1989 133.622 33.5852 132.912 33.8636C132.202 34.1364 131.403 34.2727 130.517 34.2727ZM146.736 34H144.52L150.929 16.5455H153.111L159.52 34H157.304L152.088 19.3068H151.952L146.736 34ZM147.554 27.1818H156.486V29.0568H147.554V27.1818ZM161.966 34V20.9091H163.909V22.8864H164.045C164.284 22.2386 164.716 21.7131 165.341 21.3097C165.966 20.9062 166.67 20.7045 167.455 20.7045C167.602 20.7045 167.787 20.7074 168.009 20.7131C168.23 20.7187 168.398 20.7273 168.511 20.7386V22.7841C168.443 22.767 168.287 22.7415 168.043 22.7074C167.804 22.6676 167.551 22.6477 167.284 22.6477C166.648 22.6477 166.08 22.7812 165.58 23.0483C165.085 23.3097 164.693 23.6733 164.403 24.1392C164.119 24.5994 163.977 25.125 163.977 25.7159V34H161.966ZM170.896 34V20.9091H172.839V22.8864H172.975C173.214 22.2386 173.646 21.7131 174.271 21.3097C174.896 20.9062 175.6 20.7045 176.384 20.7045C176.532 20.7045 176.717 20.7074 176.938 20.7131C177.16 20.7187 177.327 20.7273 177.441 20.7386V22.7841C177.373 22.767 177.217 22.7415 176.972 22.7074C176.734 22.6676 176.481 22.6477 176.214 22.6477C175.577 22.6477 175.009 22.7812 174.509 23.0483C174.015 23.3097 173.623 23.6733 173.333 24.1392C173.049 24.5994 172.907 25.125 172.907 25.7159V34H170.896ZM183.678 34.3068C182.848 34.3068 182.095 34.1506 181.419 33.8381C180.743 33.5199 180.206 33.0625 179.808 32.4659C179.411 31.8636 179.212 31.1364 179.212 30.2841C179.212 29.5341 179.359 28.9261 179.655 28.4602C179.95 27.9886 180.345 27.6193 180.839 27.3523C181.334 27.0852 181.879 26.8864 182.476 26.7557C183.078 26.6193 183.683 26.5114 184.291 26.4318C185.087 26.3295 185.732 26.2528 186.226 26.2017C186.726 26.1449 187.089 26.0511 187.317 25.9205C187.55 25.7898 187.666 25.5625 187.666 25.2386V25.1705C187.666 24.3295 187.436 23.6761 186.976 23.2102C186.521 22.7443 185.831 22.5114 184.905 22.5114C183.945 22.5114 183.192 22.7216 182.646 23.142C182.101 23.5625 181.717 24.0114 181.496 24.4886L179.587 23.8068C179.928 23.0114 180.382 22.392 180.95 21.9489C181.524 21.5 182.149 21.1875 182.825 21.0114C183.507 20.8295 184.178 20.7386 184.837 20.7386C185.257 20.7386 185.74 20.7898 186.286 20.892C186.837 20.9886 187.368 21.1903 187.879 21.4972C188.396 21.804 188.825 22.267 189.166 22.8864C189.507 23.5057 189.678 24.3352 189.678 25.375V34H187.666V32.2273H187.564C187.428 32.5114 187.2 32.8153 186.882 33.1392C186.564 33.4631 186.141 33.7386 185.612 33.9659C185.084 34.1932 184.439 34.3068 183.678 34.3068ZM183.984 32.5C184.78 32.5 185.45 32.3438 185.996 32.0312C186.547 31.7188 186.962 31.3153 187.24 30.821C187.524 30.3267 187.666 29.8068 187.666 29.2614V27.4205C187.581 27.5227 187.393 27.6165 187.104 27.7017C186.82 27.7812 186.49 27.8523 186.115 27.9148C185.746 27.9716 185.385 28.0227 185.033 28.0682C184.686 28.108 184.405 28.142 184.189 28.1705C183.666 28.2386 183.178 28.3494 182.723 28.5028C182.274 28.6506 181.911 28.875 181.632 29.1761C181.359 29.4716 181.223 29.875 181.223 30.3864C181.223 31.0852 181.482 31.6136 181.999 31.9716C182.521 32.3239 183.183 32.5 183.984 32.5ZM194.175 38.9091C193.835 38.9091 193.531 38.8807 193.263 38.8239C192.996 38.7727 192.812 38.7216 192.71 38.6705L193.221 36.8977C193.71 37.0227 194.141 37.0682 194.516 37.0341C194.891 37 195.224 36.8324 195.513 36.5312C195.809 36.2358 196.079 35.7557 196.323 35.0909L196.698 34.0682L191.857 20.9091H194.039L197.653 31.3409H197.789L201.403 20.9091H203.585L198.028 35.9091C197.778 36.5852 197.468 37.1449 197.099 37.5881C196.729 38.0369 196.3 38.3693 195.812 38.5852C195.329 38.8011 194.783 38.9091 194.175 38.9091ZM215.512 23.8409L213.705 24.3523C213.592 24.0511 213.424 23.7585 213.202 23.4744C212.987 23.1847 212.691 22.946 212.316 22.7585C211.941 22.571 211.461 22.4773 210.876 22.4773C210.075 22.4773 209.407 22.6619 208.873 23.0312C208.344 23.3949 208.08 23.858 208.08 24.4205C208.08 24.9205 208.262 25.3153 208.626 25.6051C208.989 25.8949 209.558 26.1364 210.33 26.3295L212.273 26.8068C213.444 27.0909 214.316 27.5256 214.89 28.1108C215.464 28.6903 215.751 29.4375 215.751 30.3523C215.751 31.1023 215.535 31.7727 215.103 32.3636C214.677 32.9545 214.08 33.4205 213.313 33.7614C212.546 34.1023 211.654 34.2727 210.637 34.2727C209.302 34.2727 208.197 33.983 207.322 33.4034C206.447 32.8239 205.893 31.9773 205.66 30.8636L207.569 30.3864C207.751 31.0909 208.094 31.6193 208.6 31.9716C209.112 32.3239 209.779 32.5 210.603 32.5C211.54 32.5 212.285 32.3011 212.836 31.9034C213.393 31.5 213.671 31.017 213.671 30.4545C213.671 30 213.512 29.6193 213.194 29.3125C212.876 29 212.387 28.767 211.728 28.6136L209.546 28.1023C208.347 27.8182 207.467 27.3778 206.904 26.7812C206.347 26.179 206.069 25.4261 206.069 24.5227C206.069 23.7841 206.276 23.1307 206.691 22.5625C207.112 21.9943 207.683 21.5483 208.404 21.2244C209.131 20.9006 209.955 20.7386 210.876 20.7386C212.171 20.7386 213.188 21.0227 213.927 21.5909C214.671 22.1591 215.2 22.9091 215.512 23.8409Z"/>
</mask>
<path d="M40.1591 22H38.0455C37.9205 21.392 37.7017 20.858 37.3892 20.3977C37.0824 19.9375 36.7074 19.5511 36.2642 19.2386C35.8267 18.9205 35.3409 18.6818 34.8068 18.5227C34.2727 18.3636 33.7159 18.2841 33.1364 18.2841C32.0795 18.2841 31.1222 18.5511 30.2642 19.0852C29.4119 19.6193 28.733 20.4062 28.2273 21.446C27.7273 22.4858 27.4773 23.7614 27.4773 25.2727C27.4773 26.7841 27.7273 28.0597 28.2273 29.0994C28.733 30.1392 29.4119 30.9261 30.2642 31.4602C31.1222 31.9943 32.0795 32.2614 33.1364 32.2614C33.7159 32.2614 34.2727 32.1818 34.8068 32.0227C35.3409 31.8636 35.8267 31.6278 36.2642 31.3153C36.7074 30.9972 37.0824 30.608 37.3892 30.1477C37.7017 29.6818 37.9205 29.1477 38.0455 28.5455H40.1591C40 29.4375 39.7102 30.2358 39.2898 30.9403C38.8693 31.6449 38.3466 32.2443 37.7216 32.7386C37.0966 33.2273 36.3949 33.5994 35.6165 33.8551C34.8438 34.1108 34.017 34.2386 33.1364 34.2386C31.6477 34.2386 30.3239 33.875 29.1648 33.1477C28.0057 32.4205 27.0938 31.3864 26.429 30.0455C25.7642 28.7045 25.4318 27.1136 25.4318 25.2727C25.4318 23.4318 25.7642 21.8409 26.429 20.5C27.0938 19.1591 28.0057 18.125 29.1648 17.3977C30.3239 16.6705 31.6477 16.3068 33.1364 16.3068C34.017 16.3068 34.8438 16.4347 35.6165 16.6903C36.3949 16.946 37.0966 17.321 37.7216 17.8153C38.3466 18.304 38.8693 18.9006 39.2898 19.6051C39.7102 20.304 40 21.1023 40.1591 22ZM45.3132 26.125V34H43.3018V16.5455H45.3132V22.9545H45.4837C45.7905 22.2784 46.2507 21.7415 46.8643 21.3438C47.4837 20.9403 48.3075 20.7386 49.3359 20.7386C50.228 20.7386 51.0092 20.9176 51.6797 21.2756C52.3501 21.6278 52.87 22.1705 53.2393 22.9034C53.6143 23.6307 53.8018 24.5568 53.8018 25.6818V34H51.7905V25.8182C51.7905 24.7784 51.5206 23.9744 50.9808 23.4062C50.4467 22.8324 49.7053 22.5455 48.7564 22.5455C48.0973 22.5455 47.5064 22.6847 46.9837 22.9631C46.4666 23.2415 46.0575 23.6477 45.7564 24.1818C45.4609 24.7159 45.3132 25.3636 45.3132 26.125ZM61.3338 34.3068C60.5043 34.3068 59.7514 34.1506 59.0753 33.8381C58.3991 33.5199 57.8622 33.0625 57.4645 32.4659C57.0668 31.8636 56.8679 31.1364 56.8679 30.2841C56.8679 29.5341 57.0156 28.9261 57.3111 28.4602C57.6065 27.9886 58.0014 27.6193 58.4957 27.3523C58.9901 27.0852 59.5355 26.8864 60.1321 26.7557C60.7344 26.6193 61.3395 26.5114 61.9474 26.4318C62.7429 26.3295 63.3878 26.2528 63.8821 26.2017C64.3821 26.1449 64.7457 26.0511 64.973 25.9205C65.206 25.7898 65.3224 25.5625 65.3224 25.2386V25.1705C65.3224 24.3295 65.0923 23.6761 64.6321 23.2102C64.1776 22.7443 63.4872 22.5114 62.5611 22.5114C61.6009 22.5114 60.848 22.7216 60.3026 23.142C59.7571 23.5625 59.3736 24.0114 59.152 24.4886L57.2429 23.8068C57.5838 23.0114 58.0384 22.392 58.6065 21.9489C59.1804 21.5 59.8054 21.1875 60.4815 21.0114C61.1634 20.8295 61.8338 20.7386 62.4929 20.7386C62.9134 20.7386 63.3963 20.7898 63.9418 20.892C64.4929 20.9886 65.0241 21.1903 65.5355 21.4972C66.0526 21.804 66.4815 22.267 66.8224 22.8864C67.1634 23.5057 67.3338 24.3352 67.3338 25.375V34H65.3224V32.2273H65.2202C65.0838 32.5114 64.8565 32.8153 64.5384 33.1392C64.2202 33.4631 63.7969 33.7386 63.2685 33.9659C62.7401 34.1932 62.0952 34.3068 61.3338 34.3068ZM61.6406 32.5C62.4361 32.5 63.1065 32.3438 63.652 32.0312C64.2031 31.7188 64.6179 31.3153 64.8963 30.821C65.1804 30.3267 65.3224 29.8068 65.3224 29.2614V27.4205C65.2372 27.5227 65.0497 27.6165 64.7599 27.7017C64.4759 27.7812 64.1463 27.8523 63.7713 27.9148C63.402 27.9716 63.0412 28.0227 62.6889 28.0682C62.3423 28.108 62.0611 28.142 61.8452 28.1705C61.3224 28.2386 60.8338 28.3494 60.3793 28.5028C59.9304 28.6506 59.5668 28.875 59.2884 29.1761C59.0156 29.4716 58.8793 29.875 58.8793 30.3864C58.8793 31.0852 59.1378 31.6136 59.6548 31.9716C60.1776 32.3239 60.8395 32.5 61.6406 32.5ZM73.0163 16.5455V34H71.005V16.5455H73.0163ZM78.7116 16.5455V34H76.7003V16.5455H78.7116ZM87.8842 34.2727C86.6229 34.2727 85.5348 33.9943 84.62 33.4375C83.7109 32.875 83.0092 32.0909 82.5149 31.0852C82.0263 30.0739 81.782 28.8977 81.782 27.5568C81.782 26.2159 82.0263 25.0341 82.5149 24.0114C83.0092 22.983 83.6967 22.1818 84.5774 21.608C85.4638 21.0284 86.4979 20.7386 87.6797 20.7386C88.3615 20.7386 89.0348 20.8523 89.6996 21.0795C90.3643 21.3068 90.9695 21.6761 91.5149 22.1875C92.0604 22.6932 92.495 23.3636 92.8189 24.1989C93.1428 25.0341 93.3047 26.0625 93.3047 27.2841V28.1364H83.2138V26.3977H91.2592C91.2592 25.6591 91.1115 25 90.8161 24.4205C90.5263 23.8409 90.1115 23.3835 89.5717 23.0483C89.0376 22.7131 88.407 22.5455 87.6797 22.5455C86.8786 22.5455 86.1854 22.7443 85.6001 23.142C85.0206 23.5341 84.5746 24.0455 84.2621 24.6761C83.9496 25.3068 83.7933 25.983 83.7933 26.7045V27.8636C83.7933 28.8523 83.9638 29.6903 84.3047 30.3778C84.6513 31.0597 85.1314 31.5795 85.745 31.9375C86.3587 32.2898 87.0717 32.4659 87.8842 32.4659C88.4126 32.4659 88.8899 32.392 89.3161 32.2443C89.7479 32.0909 90.12 31.8636 90.4325 31.5625C90.745 31.2557 90.9865 30.875 91.157 30.4205L93.1001 30.9659C92.8956 31.625 92.5518 32.2045 92.0689 32.7045C91.5859 33.1989 90.9893 33.5852 90.2791 33.8636C89.5689 34.1364 88.7706 34.2727 87.8842 34.2727ZM98.3757 26.125V34H96.3643V20.9091H98.3075V22.9545H98.478C98.7848 22.2898 99.2507 21.7557 99.8757 21.3523C100.501 20.9432 101.308 20.7386 102.296 20.7386C103.183 20.7386 103.958 20.9205 104.623 21.2841C105.288 21.642 105.805 22.1875 106.174 22.9205C106.543 23.6477 106.728 24.5682 106.728 25.6818V34H104.717V25.8182C104.717 24.7898 104.45 23.9886 103.915 23.4148C103.381 22.8352 102.648 22.5455 101.717 22.5455C101.075 22.5455 100.501 22.6847 99.995 22.9631C99.495 23.2415 99.1001 23.6477 98.8104 24.1818C98.5206 24.7159 98.3757 25.3636 98.3757 26.125ZM115.688 39.1818C114.716 39.1818 113.881 39.0568 113.182 38.8068C112.483 38.5625 111.901 38.2386 111.435 37.8352C110.974 37.4375 110.608 37.0114 110.335 36.5568L111.938 35.4318C112.119 35.6705 112.349 35.9432 112.628 36.25C112.906 36.5625 113.287 36.8324 113.77 37.0597C114.259 37.2926 114.898 37.4091 115.688 37.4091C116.744 37.4091 117.616 37.1534 118.304 36.642C118.991 36.1307 119.335 35.3295 119.335 34.2386V31.5795H119.165C119.017 31.8182 118.807 32.1136 118.534 32.4659C118.267 32.8125 117.881 33.1222 117.375 33.3949C116.875 33.6619 116.199 33.7955 115.347 33.7955C114.29 33.7955 113.341 33.5455 112.5 33.0455C111.665 32.5455 111.003 31.8182 110.514 30.8636C110.031 29.9091 109.79 28.75 109.79 27.3864C109.79 26.0455 110.026 24.8778 110.497 23.8835C110.969 22.8835 111.625 22.1108 112.466 21.5653C113.307 21.0142 114.278 20.7386 115.381 20.7386C116.233 20.7386 116.909 20.8807 117.409 21.1648C117.915 21.4432 118.301 21.7614 118.568 22.1193C118.841 22.4716 119.051 22.7614 119.199 22.9886H119.403V20.9091H121.347V34.375C121.347 35.5 121.091 36.4148 120.58 37.1193C120.074 37.8295 119.392 38.3494 118.534 38.679C117.682 39.0142 116.733 39.1818 115.688 39.1818ZM115.619 31.9886C116.426 31.9886 117.108 31.804 117.665 31.4347C118.222 31.0653 118.645 30.5341 118.935 29.8409C119.224 29.1477 119.369 28.3182 119.369 27.3523C119.369 26.4091 119.227 25.5767 118.943 24.8551C118.659 24.1335 118.239 23.5682 117.682 23.1591C117.125 22.75 116.438 22.5455 115.619 22.5455C114.767 22.5455 114.057 22.7614 113.489 23.1932C112.926 23.625 112.503 24.2045 112.219 24.9318C111.94 25.6591 111.801 26.4659 111.801 27.3523C111.801 28.2614 111.943 29.0653 112.227 29.7642C112.517 30.4574 112.943 31.0028 113.506 31.4006C114.074 31.7926 114.778 31.9886 115.619 31.9886ZM130.517 34.2727C129.256 34.2727 128.168 33.9943 127.253 33.4375C126.344 32.875 125.642 32.0909 125.148 31.0852C124.659 30.0739 124.415 28.8977 124.415 27.5568C124.415 26.2159 124.659 25.0341 125.148 24.0114C125.642 22.983 126.33 22.1818 127.21 21.608C128.097 21.0284 129.131 20.7386 130.312 20.7386C130.994 20.7386 131.668 20.8523 132.332 21.0795C132.997 21.3068 133.602 21.6761 134.148 22.1875C134.693 22.6932 135.128 23.3636 135.452 24.1989C135.776 25.0341 135.938 26.0625 135.938 27.2841V28.1364H125.847V26.3977H133.892C133.892 25.6591 133.744 25 133.449 24.4205C133.159 23.8409 132.744 23.3835 132.205 23.0483C131.67 22.7131 131.04 22.5455 130.312 22.5455C129.511 22.5455 128.818 22.7443 128.233 23.142C127.653 23.5341 127.207 24.0455 126.895 24.6761C126.582 25.3068 126.426 25.983 126.426 26.7045V27.8636C126.426 28.8523 126.597 29.6903 126.938 30.3778C127.284 31.0597 127.764 31.5795 128.378 31.9375C128.991 32.2898 129.705 32.4659 130.517 32.4659C131.045 32.4659 131.523 32.392 131.949 32.2443C132.381 32.0909 132.753 31.8636 133.065 31.5625C133.378 31.2557 133.619 30.875 133.79 30.4205L135.733 30.9659C135.528 31.625 135.185 32.2045 134.702 32.7045C134.219 33.1989 133.622 33.5852 132.912 33.8636C132.202 34.1364 131.403 34.2727 130.517 34.2727ZM146.736 34H144.52L150.929 16.5455H153.111L159.52 34H157.304L152.088 19.3068H151.952L146.736 34ZM147.554 27.1818H156.486V29.0568H147.554V27.1818ZM161.966 34V20.9091H163.909V22.8864H164.045C164.284 22.2386 164.716 21.7131 165.341 21.3097C165.966 20.9062 166.67 20.7045 167.455 20.7045C167.602 20.7045 167.787 20.7074 168.009 20.7131C168.23 20.7187 168.398 20.7273 168.511 20.7386V22.7841C168.443 22.767 168.287 22.7415 168.043 22.7074C167.804 22.6676 167.551 22.6477 167.284 22.6477C166.648 22.6477 166.08 22.7812 165.58 23.0483C165.085 23.3097 164.693 23.6733 164.403 24.1392C164.119 24.5994 163.977 25.125 163.977 25.7159V34H161.966ZM170.896 34V20.9091H172.839V22.8864H172.975C173.214 22.2386 173.646 21.7131 174.271 21.3097C174.896 20.9062 175.6 20.7045 176.384 20.7045C176.532 20.7045 176.717 20.7074 176.938 20.7131C177.16 20.7187 177.327 20.7273 177.441 20.7386V22.7841C177.373 22.767 177.217 22.7415 176.972 22.7074C176.734 22.6676 176.481 22.6477 176.214 22.6477C175.577 22.6477 175.009 22.7812 174.509 23.0483C174.015 23.3097 173.623 23.6733 173.333 24.1392C173.049 24.5994 172.907 25.125 172.907 25.7159V34H170.896ZM183.678 34.3068C182.848 34.3068 182.095 34.1506 181.419 33.8381C180.743 33.5199 180.206 33.0625 179.808 32.4659C179.411 31.8636 179.212 31.1364 179.212 30.2841C179.212 29.5341 179.359 28.9261 179.655 28.4602C179.95 27.9886 180.345 27.6193 180.839 27.3523C181.334 27.0852 181.879 26.8864 182.476 26.7557C183.078 26.6193 183.683 26.5114 184.291 26.4318C185.087 26.3295 185.732 26.2528 186.226 26.2017C186.726 26.1449 187.089 26.0511 187.317 25.9205C187.55 25.7898 187.666 25.5625 187.666 25.2386V25.1705C187.666 24.3295 187.436 23.6761 186.976 23.2102C186.521 22.7443 185.831 22.5114 184.905 22.5114C183.945 22.5114 183.192 22.7216 182.646 23.142C182.101 23.5625 181.717 24.0114 181.496 24.4886L179.587 23.8068C179.928 23.0114 180.382 22.392 180.95 21.9489C181.524 21.5 182.149 21.1875 182.825 21.0114C183.507 20.8295 184.178 20.7386 184.837 20.7386C185.257 20.7386 185.74 20.7898 186.286 20.892C186.837 20.9886 187.368 21.1903 187.879 21.4972C188.396 21.804 188.825 22.267 189.166 22.8864C189.507 23.5057 189.678 24.3352 189.678 25.375V34H187.666V32.2273H187.564C187.428 32.5114 187.2 32.8153 186.882 33.1392C186.564 33.4631 186.141 33.7386 185.612 33.9659C185.084 34.1932 184.439 34.3068 183.678 34.3068ZM183.984 32.5C184.78 32.5 185.45 32.3438 185.996 32.0312C186.547 31.7188 186.962 31.3153 187.24 30.821C187.524 30.3267 187.666 29.8068 187.666 29.2614V27.4205C187.581 27.5227 187.393 27.6165 187.104 27.7017C186.82 27.7812 186.49 27.8523 186.115 27.9148C185.746 27.9716 185.385 28.0227 185.033 28.0682C184.686 28.108 184.405 28.142 184.189 28.1705C183.666 28.2386 183.178 28.3494 182.723 28.5028C182.274 28.6506 181.911 28.875 181.632 29.1761C181.359 29.4716 181.223 29.875 181.223 30.3864C181.223 31.0852 181.482 31.6136 181.999 31.9716C182.521 32.3239 183.183 32.5 183.984 32.5ZM194.175 38.9091C193.835 38.9091 193.531 38.8807 193.263 38.8239C192.996 38.7727 192.812 38.7216 192.71 38.6705L193.221 36.8977C193.71 37.0227 194.141 37.0682 194.516 37.0341C194.891 37 195.224 36.8324 195.513 36.5312C195.809 36.2358 196.079 35.7557 196.323 35.0909L196.698 34.0682L191.857 20.9091H194.039L197.653 31.3409H197.789L201.403 20.9091H203.585L198.028 35.9091C197.778 36.5852 197.468 37.1449 197.099 37.5881C196.729 38.0369 196.3 38.3693 195.812 38.5852C195.329 38.8011 194.783 38.9091 194.175 38.9091ZM215.512 23.8409L213.705 24.3523C213.592 24.0511 213.424 23.7585 213.202 23.4744C212.987 23.1847 212.691 22.946 212.316 22.7585C211.941 22.571 211.461 22.4773 210.876 22.4773C210.075 22.4773 209.407 22.6619 208.873 23.0312C208.344 23.3949 208.08 23.858 208.08 24.4205C208.08 24.9205 208.262 25.3153 208.626 25.6051C208.989 25.8949 209.558 26.1364 210.33 26.3295L212.273 26.8068C213.444 27.0909 214.316 27.5256 214.89 28.1108C215.464 28.6903 215.751 29.4375 215.751 30.3523C215.751 31.1023 215.535 31.7727 215.103 32.3636C214.677 32.9545 214.08 33.4205 213.313 33.7614C212.546 34.1023 211.654 34.2727 210.637 34.2727C209.302 34.2727 208.197 33.983 207.322 33.4034C206.447 32.8239 205.893 31.9773 205.66 30.8636L207.569 30.3864C207.751 31.0909 208.094 31.6193 208.6 31.9716C209.112 32.3239 209.779 32.5 210.603 32.5C211.54 32.5 212.285 32.3011 212.836 31.9034C213.393 31.5 213.671 31.017 213.671 30.4545C213.671 30 213.512 29.6193 213.194 29.3125C212.876 29 212.387 28.767 211.728 28.6136L209.546 28.1023C208.347 27.8182 207.467 27.3778 206.904 26.7812C206.347 26.179 206.069 25.4261 206.069 24.5227C206.069 23.7841 206.276 23.1307 206.691 22.5625C207.112 21.9943 207.683 21.5483 208.404 21.2244C209.131 20.9006 209.955 20.7386 210.876 20.7386C212.171 20.7386 213.188 21.0227 213.927 21.5909C214.671 22.1591 215.2 22.9091 215.512 23.8409Z" fill="url(#paint1_linear_8_23)"/>
<path d="M40.1591 22V23H41.3519L41.1437 21.8255L40.1591 22ZM38.0455 22L37.0659 22.2014L37.2301 23H38.0455V22ZM37.3892 20.3977L36.5571 20.9524L36.5619 20.9595L37.3892 20.3977ZM36.2642 19.2386L35.676 20.0474L35.682 20.0517L35.6879 20.0559L36.2642 19.2386ZM34.8068 18.5227L34.5213 19.4811L34.5213 19.4811L34.8068 18.5227ZM30.2642 19.0852L29.7357 18.2363L29.7332 18.2379L30.2642 19.0852ZM28.2273 21.446L27.328 21.0087L27.3261 21.0127L28.2273 21.446ZM28.2273 29.0994L27.326 29.5328L27.328 29.5368L28.2273 29.0994ZM30.2642 31.4602L29.7332 32.3076L29.7357 32.3092L30.2642 31.4602ZM34.8068 32.0227L34.5213 31.0643L34.5213 31.0643L34.8068 32.0227ZM36.2642 31.3153L36.8454 32.1291L36.8474 32.1277L36.2642 31.3153ZM37.3892 30.1477L36.5587 29.5907L36.5572 29.593L37.3892 30.1477ZM38.0455 28.5455V27.5455H37.2317L37.0663 28.3422L38.0455 28.5455ZM40.1591 28.5455L41.1436 28.721L41.3532 27.5455H40.1591V28.5455ZM39.2898 30.9403L38.4311 30.4279L38.4311 30.4279L39.2898 30.9403ZM37.7216 32.7386L38.3375 33.5265L38.3419 33.523L37.7216 32.7386ZM35.6165 33.8551L35.3044 32.9051L35.3023 32.9057L35.6165 33.8551ZM29.1648 33.1477L28.6333 33.9948L28.6333 33.9948L29.1648 33.1477ZM26.429 30.0455L27.3249 29.6013L27.3249 29.6013L26.429 30.0455ZM35.6165 16.6903L35.3023 17.6397L35.3044 17.6404L35.6165 16.6903ZM37.7216 17.8153L37.1012 18.5997L37.1057 18.6031L37.7216 17.8153ZM39.2898 19.6051L38.4311 20.1176L38.4329 20.1206L39.2898 19.6051ZM40.1591 21H38.0455V23H40.1591V21ZM39.025 21.7986C38.8765 21.0766 38.6111 20.4171 38.2165 19.836L36.5619 20.9595C36.7923 21.2988 36.9644 21.7075 37.0659 22.2014L39.025 21.7986ZM38.2213 19.843C37.8475 19.2824 37.3864 18.8063 36.8405 18.4214L35.6879 20.0559C36.0284 20.2959 36.3173 20.5926 36.5572 20.9524L38.2213 19.843ZM36.8524 18.4299C36.3204 18.043 35.7317 17.7548 35.0923 17.5643L34.5213 19.4811C34.9501 19.6088 35.333 19.7979 35.676 20.0474L36.8524 18.4299ZM35.0923 17.5643C34.4619 17.3766 33.8087 17.2841 33.1364 17.2841V19.2841C33.6231 19.2841 34.0835 19.3507 34.5213 19.4811L35.0923 17.5643ZM33.1364 17.2841C31.9017 17.2841 30.7597 17.5988 29.7357 18.2363L30.7927 19.9342C31.4846 19.5034 32.2574 19.2841 33.1364 19.2841V17.2841ZM29.7332 18.2379C28.6996 18.8856 27.9031 19.8262 27.328 21.0087L29.1266 21.8834C29.5628 20.9863 30.1243 20.353 30.7952 19.9326L29.7332 18.2379ZM27.3261 21.0127C26.7441 22.2228 26.4773 23.6559 26.4773 25.2727H28.4773C28.4773 23.8668 28.7104 22.7488 29.1285 21.8794L27.3261 21.0127ZM26.4773 25.2727C26.4773 26.8895 26.7441 28.3227 27.3261 29.5328L29.1285 28.6661C28.7104 27.7967 28.4773 26.6787 28.4773 25.2727H26.4773ZM27.328 29.5368C27.9031 30.7193 28.6996 31.6598 29.7332 32.3076L30.7952 30.6129C30.1243 30.1924 29.5628 29.5591 29.1266 28.6621L27.328 29.5368ZM29.7357 32.3092C30.7597 32.9466 31.9017 33.2614 33.1364 33.2614V31.2614C32.2574 31.2614 31.4846 31.042 30.7927 30.6113L29.7357 32.3092ZM33.1364 33.2614C33.8087 33.2614 34.4619 33.1689 35.0923 32.9811L34.5213 31.0643C34.0835 31.1947 33.6231 31.2614 33.1364 31.2614V33.2614ZM35.0923 32.9811C35.7284 32.7916 36.3148 32.5081 36.8454 32.1291L35.683 30.5016C35.3386 30.7475 34.9534 30.9356 34.5213 31.0643L35.0923 32.9811ZM36.8474 32.1277C37.3897 31.7383 37.8486 31.2614 38.2213 30.7024L36.5572 29.593C36.3162 29.9545 36.025 30.256 35.681 30.503L36.8474 32.1277ZM38.2197 30.7048C38.6108 30.1217 38.8759 29.4651 39.0246 28.7487L37.0663 28.3422C36.965 28.8303 36.7926 29.2419 36.5587 29.5907L38.2197 30.7048ZM38.0455 29.5455H40.1591V27.5455H38.0455V29.5455ZM39.1746 28.3699C39.0345 29.1554 38.7834 29.8374 38.4311 30.4279L40.1485 31.4528C40.637 30.6342 40.9655 29.7196 41.1436 28.721L39.1746 28.3699ZM38.4311 30.4279C38.071 31.0312 37.6281 31.5376 37.1013 31.9543L38.3419 33.523C39.0651 32.951 39.6676 32.2586 40.1485 31.4528L38.4311 30.4279ZM37.1057 31.9508C36.5748 32.3659 35.9766 32.6843 35.3044 32.9051L35.9285 34.8052C36.8132 34.5146 37.6184 34.0887 38.3375 33.5264L37.1057 31.9508ZM35.3023 32.9057C34.6389 33.1252 33.919 33.2386 33.1364 33.2386V35.2386C34.115 35.2386 35.0486 35.0963 35.9306 34.8045L35.3023 32.9057ZM33.1364 33.2386C31.8186 33.2386 30.6822 32.9193 29.6963 32.3007L28.6333 33.9948C29.9656 34.8307 31.4769 35.2386 33.1364 35.2386V33.2386ZM29.6963 32.3007C28.708 31.6806 27.9157 30.7929 27.3249 29.6013L25.533 30.4896C26.2718 31.9799 27.3034 33.1603 28.6333 33.9948L29.6963 32.3007ZM27.3249 29.6013C26.7425 28.4265 26.4318 26.9943 26.4318 25.2727H24.4318C24.4318 27.2329 24.7859 28.9825 25.533 30.4896L27.3249 29.6013ZM26.4318 25.2727C26.4318 23.5511 26.7425 22.1189 27.3249 20.9442L25.533 20.0558C24.7859 21.5629 24.4318 23.3125 24.4318 25.2727H26.4318ZM27.3249 20.9442C27.9157 19.7526 28.708 18.8649 29.6963 18.2448L28.6333 16.5507C27.3034 17.3851 26.2718 18.5656 25.533 20.0558L27.3249 20.9442ZM29.6963 18.2448C30.6822 17.6262 31.8186 17.3068 33.1364 17.3068V15.3068C31.4769 15.3068 29.9656 15.7147 28.6333 16.5507L29.6963 18.2448ZM33.1364 17.3068C33.919 17.3068 34.6389 17.4202 35.3023 17.6397L35.9306 15.741C35.0486 15.4491 34.115 15.3068 33.1364 15.3068V17.3068ZM35.3044 17.6404C35.9743 17.8604 36.5711 18.1804 37.1013 18.5997L38.3419 17.031C37.6221 16.4617 36.8155 16.0316 35.9285 15.7403L35.3044 17.6404ZM37.1057 18.6031C37.6301 19.0132 38.0717 19.5153 38.4311 20.1176L40.1485 19.0927C39.667 18.2858 39.0631 17.5948 38.3375 17.0275L37.1057 18.6031ZM38.4329 20.1206C38.7832 20.703 39.0342 21.3832 39.1744 22.1745L41.1437 21.8255C40.9658 20.8214 40.6372 19.905 40.1467 19.0896L38.4329 20.1206ZM45.3132 34V35H46.3132V34H45.3132ZM43.3018 34H42.3018V35H43.3018V34ZM43.3018 16.5455V15.5455H42.3018V16.5455H43.3018ZM45.3132 16.5455H46.3132V15.5455H45.3132V16.5455ZM45.3132 22.9545H44.3132V23.9545H45.3132V22.9545ZM45.4837 22.9545V23.9545H46.128L46.3943 23.3678L45.4837 22.9545ZM46.8643 21.3438L47.4082 22.1829L47.4101 22.1817L46.8643 21.3438ZM51.6797 21.2756L51.2087 22.1577L51.2146 22.1608L51.6797 21.2756ZM53.2393 22.9034L52.3463 23.3534L52.3505 23.3617L53.2393 22.9034ZM53.8018 34V35H54.8018V34H53.8018ZM51.7905 34H50.7905V35H51.7905V34ZM50.9808 23.4062L50.2488 24.0876L50.2558 24.095L50.9808 23.4062ZM46.9837 22.9631L46.5136 22.0804L46.5096 22.0826L46.9837 22.9631ZM45.7564 24.1818L44.8853 23.6907L44.8814 23.6978L45.7564 24.1818ZM44.3132 26.125V34H46.3132V26.125H44.3132ZM45.3132 33H43.3018V35H45.3132V33ZM44.3018 34V16.5455H42.3018V34H44.3018ZM43.3018 17.5455H45.3132V15.5455H43.3018V17.5455ZM44.3132 16.5455V22.9545H46.3132V16.5455H44.3132ZM45.3132 23.9545H45.4837V21.9545H45.3132V23.9545ZM46.3943 23.3678C46.6234 22.8629 46.9576 22.475 47.4082 22.1829L46.3205 20.5046C45.5438 21.008 44.9576 21.6939 44.573 22.5413L46.3943 23.3678ZM47.4101 22.1817C47.8151 21.9179 48.4283 21.7386 49.3359 21.7386V19.7386C48.1868 19.7386 47.1522 19.9628 46.3185 20.5058L47.4101 22.1817ZM49.3359 21.7386C50.0923 21.7386 50.7065 21.8896 51.2087 22.1577L52.1507 20.3934C51.312 19.9457 50.3637 19.7386 49.3359 19.7386V21.7386ZM51.2146 22.1608C51.6849 22.4079 52.0625 22.7902 52.3463 23.3534L54.1324 22.4534C53.6775 21.5508 53.0154 20.8478 52.1448 20.3903L51.2146 22.1608ZM52.3505 23.3617C52.6303 23.9043 52.8018 24.6596 52.8018 25.6818H54.8018C54.8018 24.454 54.5984 23.3571 54.1282 22.4451L52.3505 23.3617ZM52.8018 25.6818V34H54.8018V25.6818H52.8018ZM53.8018 33H51.7905V35H53.8018V33ZM52.7905 34V25.8182H50.7905V34H52.7905ZM52.7905 25.8182C52.7905 24.6081 52.4736 23.5257 51.7058 22.7175L50.2558 24.095C50.5676 24.4231 50.7905 24.9487 50.7905 25.8182H52.7905ZM51.7128 22.725C50.9505 21.9059 49.9199 21.5455 48.7564 21.5455V23.5455C49.4907 23.5455 49.943 23.7589 50.2488 24.0875L51.7128 22.725ZM48.7564 21.5455C47.9522 21.5455 47.1968 21.7166 46.5136 22.0804L47.4538 23.8457C47.816 23.6527 48.2424 23.5455 48.7564 23.5455V21.5455ZM46.5096 22.0826C45.8185 22.4547 45.275 22.9995 44.8853 23.6907L46.6275 24.673C46.8401 24.2959 47.1147 24.0282 47.4578 23.8435L46.5096 22.0826ZM44.8814 23.6978C44.486 24.4124 44.3132 25.2356 44.3132 26.125H46.3132C46.3132 25.4917 46.4358 25.0195 46.6314 24.6659L44.8814 23.6978ZM59.0753 33.8381L58.6495 34.7429L58.6557 34.7458L59.0753 33.8381ZM57.4645 32.4659L56.63 33.017L56.6324 33.0206L57.4645 32.4659ZM57.3111 28.4602L58.1556 28.9958L58.1585 28.9911L57.3111 28.4602ZM60.1321 26.7557L60.3461 27.7325L60.3529 27.731L60.1321 26.7557ZM61.9474 26.4318L61.8199 25.44L61.8177 25.4403L61.9474 26.4318ZM63.8821 26.2017L63.985 27.1964L63.995 27.1953L63.8821 26.2017ZM64.973 25.9205L64.4837 25.0483L64.4745 25.0535L64.973 25.9205ZM64.6321 23.2102L63.9163 23.9086L63.9207 23.913L64.6321 23.2102ZM60.3026 23.142L60.9131 23.9341L60.9131 23.9341L60.3026 23.142ZM59.152 24.4886L58.8157 25.4304L59.6748 25.7372L60.059 24.9097L59.152 24.4886ZM57.2429 23.8068L56.3238 23.4129L55.9047 24.3907L56.9066 24.7486L57.2429 23.8068ZM58.6065 21.9489L59.2216 22.7374L59.2226 22.7365L58.6065 21.9489ZM60.4815 21.0114L60.7336 21.9791L60.7392 21.9776L60.4815 21.0114ZM63.9418 20.892L63.7575 21.875L63.7691 21.877L63.9418 20.892ZM65.5355 21.4972L65.021 22.3547L65.0252 22.3571L65.5355 21.4972ZM66.8224 22.8864L65.9464 23.3686L65.9464 23.3686L66.8224 22.8864ZM67.3338 34V35H68.3338V34H67.3338ZM65.3224 34H64.3224V35H65.3224V34ZM65.3224 32.2273H66.3224V31.2273H65.3224V32.2273ZM65.2202 32.2273V31.2273H64.5909L64.3186 31.7945L65.2202 32.2273ZM64.5384 33.1392L65.2517 33.84L65.2517 33.84L64.5384 33.1392ZM63.2685 33.9659L62.8734 33.0473L63.2685 33.9659ZM63.652 32.0312L63.1587 31.1613L63.1549 31.1636L63.652 32.0312ZM64.8963 30.821L64.0293 30.3227L64.025 30.3303L64.8963 30.821ZM65.3224 27.4205H66.3224V24.6584L64.5542 26.7803L65.3224 27.4205ZM64.7599 27.7017L65.0296 28.6647L65.0421 28.6611L64.7599 27.7017ZM63.7713 27.9148L63.9234 28.9032L63.9357 28.9012L63.7713 27.9148ZM62.6889 28.0682L62.8029 29.0618L62.8169 29.06L62.6889 28.0682ZM61.8452 28.1705L61.9745 29.1621L61.9756 29.1619L61.8452 28.1705ZM60.3793 28.5028L60.6919 29.4527L60.699 29.4503L60.3793 28.5028ZM59.2884 29.1761L58.5541 28.4973L58.5535 28.4979L59.2884 29.1761ZM59.6548 31.9716L59.0856 32.7938L59.096 32.8009L59.6548 31.9716ZM61.3338 33.3068C60.6326 33.3068 60.0252 33.1755 59.4948 32.9303L58.6557 34.7458C59.4777 35.1257 60.376 35.3068 61.3338 35.3068V33.3068ZM59.5011 32.9332C58.9824 32.6892 58.5889 32.3497 58.2965 31.9112L56.6324 33.0206C57.1355 33.7753 57.8159 34.3506 58.6495 34.7429L59.5011 32.9332ZM58.299 31.9148C58.0275 31.5038 57.8679 30.9765 57.8679 30.2841H55.8679C55.8679 31.2962 56.106 32.2235 56.63 33.017L58.299 31.9148ZM57.8679 30.2841C57.8679 29.6577 57.9921 29.2537 58.1556 28.9958L56.4666 27.9247C56.0392 28.5986 55.8679 29.4105 55.8679 30.2841H57.8679ZM58.1585 28.9911C58.3612 28.6675 58.6273 28.4178 58.971 28.2321L58.0204 26.4725C57.3755 26.8208 56.8518 27.3097 56.4637 27.9293L58.1585 28.9911ZM58.971 28.2321C59.3764 28.0131 59.8328 27.8449 60.3461 27.7325L59.9181 25.7788C59.2382 25.9278 58.6037 26.1573 58.0204 26.4725L58.971 28.2321ZM60.3529 27.731C60.9253 27.6014 61.5 27.4989 62.0772 27.4234L61.8177 25.4403C61.1789 25.5238 60.5434 25.6372 59.9113 25.7804L60.3529 27.731ZM62.075 27.4237C62.8665 27.3219 63.5023 27.2463 63.985 27.1964L63.7792 25.207C63.2733 25.2594 62.6193 25.3372 61.8199 25.44L62.075 27.4237ZM63.995 27.1953C64.5289 27.1346 65.0609 27.0234 65.4715 26.7874L64.4745 25.0535C64.4306 25.0788 64.2353 25.1551 63.7692 25.2081L63.995 27.1953ZM65.4623 26.7926C66.0827 26.4445 66.3224 25.8333 66.3224 25.2386H64.3224C64.3224 25.2834 64.3143 25.2562 64.3452 25.1959C64.3607 25.1655 64.3826 25.1342 64.4103 25.1058C64.4378 25.0777 64.4643 25.0592 64.4838 25.0483L65.4623 26.7926ZM66.3224 25.2386V25.1705H64.3224V25.2386H66.3224ZM66.3224 25.1705C66.3224 24.1445 66.0371 23.2096 65.3435 22.5075L63.9207 23.913C64.1476 24.1427 64.3224 24.5146 64.3224 25.1705H66.3224ZM65.3479 22.5119C64.6375 21.7837 63.6413 21.5114 62.5611 21.5114V23.5114C63.3331 23.5114 63.7176 23.7049 63.9163 23.9086L65.3479 22.5119ZM62.5611 21.5114C61.4654 21.5114 60.4698 21.7505 59.692 22.35L60.9131 23.9341C61.2262 23.6927 61.7364 23.5114 62.5611 23.5114V21.5114ZM59.692 22.35C59.0573 22.8393 58.5518 23.4067 58.245 24.0675L60.059 24.9097C60.1953 24.6161 60.4569 24.2857 60.9131 23.9341L59.692 22.35ZM59.4883 23.5469L57.5792 22.8651L56.9066 24.7486L58.8157 25.4304L59.4883 23.5469ZM58.162 24.2007C58.4498 23.5293 58.8107 23.0578 59.2216 22.7374L57.9915 21.1604C57.266 21.7263 56.7178 22.4934 56.3238 23.4129L58.162 24.2007ZM59.2226 22.7365C59.6935 22.3683 60.1955 22.1192 60.7336 21.9791L60.2294 20.0437C59.4153 20.2558 58.6673 20.6317 57.9904 21.1612L59.2226 22.7365ZM60.7392 21.9776C61.3429 21.8166 61.9267 21.7386 62.4929 21.7386V19.7386C61.7409 19.7386 60.9838 19.8425 60.2239 20.0451L60.7392 21.9776ZM62.4929 21.7386C62.8355 21.7386 63.2548 21.7807 63.7575 21.8749L64.126 19.9092C63.5379 19.7989 62.9912 19.7386 62.4929 19.7386V21.7386ZM63.7691 21.877C64.1917 21.9511 64.6078 22.1067 65.021 22.3547L66.05 20.6397C65.4405 20.2739 64.7941 20.0262 64.1144 19.9071L63.7691 21.877ZM65.0252 22.3571C65.3637 22.558 65.6763 22.8778 65.9464 23.3686L67.6985 22.4041C67.2868 21.6563 66.7414 21.0499 66.0458 20.6372L65.0252 22.3571ZM65.9464 23.3686C66.1766 23.7868 66.3338 24.4301 66.3338 25.375H68.3338C68.3338 24.2404 68.1501 23.2246 67.6985 22.4041L65.9464 23.3686ZM66.3338 25.375V34H68.3338V25.375H66.3338ZM67.3338 33H65.3224V35H67.3338V33ZM66.3224 34V32.2273H64.3224V34H66.3224ZM65.3224 31.2273H65.2202V33.2273H65.3224V31.2273ZM64.3186 31.7945C64.2458 31.9463 64.0971 32.1614 63.825 32.4384L65.2517 33.84C65.616 33.4692 65.9218 33.0764 66.1217 32.66L64.3186 31.7945ZM63.825 32.4384C63.6185 32.6486 63.3131 32.8581 62.8734 33.0473L63.6636 34.8845C64.2806 34.6192 64.8218 34.2776 65.2517 33.84L63.825 32.4384ZM62.8734 33.0473C62.5031 33.2065 62.0011 33.3068 61.3338 33.3068V35.3068C62.1893 35.3068 62.977 35.1798 63.6636 34.8845L62.8734 33.0473ZM61.6406 33.5C62.565 33.5 63.4172 33.3183 64.1491 32.8989L63.1549 31.1636C62.7959 31.3692 62.3072 31.5 61.6406 31.5V33.5ZM64.1452 32.9011C64.8356 32.5097 65.3899 31.9824 65.7676 31.3118L64.025 30.3303C63.8459 30.6482 63.5707 30.9278 63.1588 31.1614L64.1452 32.9011ZM65.7633 31.3193C66.1304 30.6805 66.3224 29.9897 66.3224 29.2614H64.3224C64.3224 29.6239 64.2304 29.9729 64.0293 30.3227L65.7633 31.3193ZM66.3224 29.2614V27.4205H64.3224V29.2614H66.3224ZM64.5542 26.7803C64.5989 26.7267 64.6382 26.6961 64.6557 26.6835C64.6739 26.6705 64.6811 26.6678 64.6707 26.673C64.6609 26.6779 64.6406 26.6872 64.607 26.6999C64.5737 26.7123 64.5311 26.7267 64.4778 26.7423L65.0421 28.6611C65.2213 28.6084 65.4009 28.544 65.5651 28.4619C65.7191 28.3849 65.9236 28.2611 66.0907 28.0606L64.5542 26.7803ZM64.4903 26.7387C64.2491 26.8063 63.956 26.8702 63.6069 26.9284L63.9357 28.9012C64.3366 28.8343 64.7027 28.7562 65.0296 28.6647L64.4903 26.7387ZM63.6192 26.9264C63.2575 26.982 62.9048 27.032 62.5609 27.0764L62.8169 29.06C63.1776 29.0134 63.5464 28.9611 63.9234 28.9031L63.6192 26.9264ZM62.5749 27.0747C62.2257 27.1148 61.9383 27.1496 61.7147 27.179L61.9756 29.1619C62.1838 29.1345 62.459 29.1011 62.8029 29.0617L62.5749 27.0747ZM61.7158 27.1789C61.1346 27.2547 60.5816 27.3791 60.0595 27.5553L60.699 29.4503C61.086 29.3197 61.5103 29.2226 61.9745 29.1621L61.7158 27.1789ZM60.0666 27.553C59.4813 27.7456 58.9643 28.0536 58.5541 28.4973L60.0226 29.855C60.1693 29.6964 60.3795 29.5555 60.6919 29.4527L60.0666 27.553ZM58.5535 28.4979C58.0677 29.0242 57.8793 29.6945 57.8793 30.3864H59.8793C59.8793 30.0555 59.9636 29.9189 60.0232 29.8544L58.5535 28.4979ZM57.8793 30.3864C57.8793 31.3707 58.2655 32.226 59.0856 32.7938L60.224 31.1494C60.0101 31.0013 59.8793 30.7997 59.8793 30.3864H57.8793ZM59.096 32.8009C59.8234 33.2911 60.6942 33.5 61.6406 33.5V31.5C60.9848 31.5 60.5317 31.3566 60.2137 31.1423L59.096 32.8009ZM73.0163 16.5455H74.0163V15.5455H73.0163V16.5455ZM73.0163 34V35H74.0163V34H73.0163ZM71.005 34H70.005V35H71.005V34ZM71.005 16.5455V15.5455H70.005V16.5455H71.005ZM72.0163 16.5455V34H74.0163V16.5455H72.0163ZM73.0163 33H71.005V35H73.0163V33ZM72.005 34V16.5455H70.005V34H72.005ZM71.005 17.5455H73.0163V15.5455H71.005V17.5455ZM78.7116 16.5455H79.7116V15.5455H78.7116V16.5455ZM78.7116 34V35H79.7116V34H78.7116ZM76.7003 34H75.7003V35H76.7003V34ZM76.7003 16.5455V15.5455H75.7003V16.5455H76.7003ZM77.7116 16.5455V34H79.7116V16.5455H77.7116ZM78.7116 33H76.7003V35H78.7116V33ZM77.7003 34V16.5455H75.7003V34H77.7003ZM76.7003 17.5455H78.7116V15.5455H76.7003V17.5455ZM84.62 33.4375L84.0938 34.2879L84.1001 34.2917L84.62 33.4375ZM82.5149 31.0852L81.6145 31.5203L81.6175 31.5263L82.5149 31.0852ZM82.5149 24.0114L81.6136 23.5781L81.6126 23.5803L82.5149 24.0114ZM84.5774 21.608L85.1234 22.4458L85.1247 22.4449L84.5774 21.608ZM89.6996 21.0795L90.0231 20.1333L90.0231 20.1333L89.6996 21.0795ZM91.5149 22.1875L90.831 22.917L90.8351 22.9208L91.5149 22.1875ZM92.8189 24.1989L93.7513 23.8373L93.7513 23.8373L92.8189 24.1989ZM93.3047 28.1364V29.1364H94.3047V28.1364H93.3047ZM83.2138 28.1364H82.2138V29.1364H83.2138V28.1364ZM83.2138 26.3977V25.3977H82.2138V26.3977H83.2138ZM91.2592 26.3977V27.3977H92.2592V26.3977H91.2592ZM90.8161 24.4205L89.9216 24.8677L89.9251 24.8746L90.8161 24.4205ZM89.5717 23.0483L89.0401 23.8953L89.0441 23.8978L89.5717 23.0483ZM85.6001 23.142L86.1605 23.9703L86.1622 23.9691L85.6001 23.142ZM84.2621 24.6761L83.366 24.2322L83.366 24.2322L84.2621 24.6761ZM84.3047 30.3778L83.4087 30.8221L83.4133 30.831L84.3047 30.3778ZM85.745 31.9375L85.2411 32.8013L85.2472 32.8048L85.745 31.9375ZM89.3161 32.2443L89.6436 33.1892L89.6508 33.1866L89.3161 32.2443ZM90.4325 31.5625L91.1265 32.2826L91.1331 32.2761L90.4325 31.5625ZM91.157 30.4205L91.4272 29.4577L90.5431 29.2095L90.2206 30.0693L91.157 30.4205ZM93.1001 30.9659L94.0552 31.2623L94.3598 30.2808L93.3704 30.0031L93.1001 30.9659ZM92.0689 32.7045L92.7842 33.4034L92.7882 33.3993L92.0689 32.7045ZM90.2791 33.8636L90.6376 34.7972L90.6441 34.7947L90.2791 33.8636ZM87.8842 33.2727C86.7733 33.2727 85.8721 33.0289 85.14 32.5833L84.1001 34.2917C85.1975 34.9597 86.4725 35.2727 87.8842 35.2727V33.2727ZM85.1462 32.5871C84.4047 32.1283 83.828 31.4897 83.4124 30.6441L81.6175 31.5263C82.1905 32.6921 83.0171 33.6217 84.0939 34.2879L85.1462 32.5871ZM83.4153 30.6502C83.0037 29.7983 82.782 28.7759 82.782 27.5568H80.782C80.782 29.0195 81.0488 30.3494 81.6145 31.5203L83.4153 30.6502ZM82.782 27.5568C82.782 26.338 83.0036 25.3081 83.4172 24.4425L81.6126 23.5803C81.0489 24.7601 80.782 26.0938 80.782 27.5568H82.782ZM83.4162 24.4446C83.8383 23.5664 84.4089 22.9113 85.1234 22.4458L84.0315 20.7701C82.9846 21.4523 82.1802 22.3995 81.6136 23.5781L83.4162 24.4446ZM85.1247 22.4449C85.8298 21.9838 86.6689 21.7386 87.6797 21.7386V19.7386C86.3268 19.7386 85.0977 20.073 84.0302 20.771L85.1247 22.4449ZM87.6797 21.7386C88.2481 21.7386 88.8122 21.833 89.3761 22.0258L90.0231 20.1333C89.2574 19.8715 88.4749 19.7386 87.6797 19.7386V21.7386ZM89.3761 22.0258C89.8982 22.2043 90.3822 22.4963 90.831 22.917L92.1989 21.458C91.5567 20.856 90.8305 20.4094 90.0231 20.1333L89.3761 22.0258ZM90.8351 22.9208C91.2488 23.3044 91.6065 23.8381 91.8865 24.5604L93.7513 23.8373C93.3836 22.8892 92.872 22.082 92.1948 21.4542L90.8351 22.9208ZM91.8865 24.5604C92.1527 25.2467 92.3047 26.1441 92.3047 27.2841H94.3047C94.3047 25.9809 94.1328 24.8214 93.7513 23.8373L91.8865 24.5604ZM92.3047 27.2841V28.1364H94.3047V27.2841H92.3047ZM93.3047 27.1364H83.2138V29.1364H93.3047V27.1364ZM84.2138 28.1364V26.3977H82.2138V28.1364H84.2138ZM83.2138 27.3977H91.2592V25.3977H83.2138V27.3977ZM92.2592 26.3977C92.2592 25.5228 92.0833 24.7045 91.707 23.9663L89.9251 24.8746C90.1397 25.2955 90.2592 25.7954 90.2592 26.3977H92.2592ZM91.7105 23.9732C91.3397 23.2317 90.7995 22.6336 90.0993 22.1988L89.0441 23.8978C89.4235 24.1334 89.7129 24.4501 89.9216 24.8677L91.7105 23.9732ZM90.1034 22.2013C89.3867 21.7515 88.5656 21.5455 87.6797 21.5455V23.5455C88.2483 23.5455 88.6885 23.6746 89.0401 23.8953L90.1034 22.2013ZM87.6797 21.5455C86.7055 21.5455 85.8104 21.7901 85.0381 22.315L86.1622 23.9691C86.5603 23.6986 87.0516 23.5455 87.6797 23.5455V21.5455ZM85.0398 22.3138C84.3161 22.8033 83.7548 23.4475 83.366 24.2322L85.1581 25.1201C85.3943 24.6434 85.7251 24.2649 86.1605 23.9703L85.0398 22.3138ZM83.366 24.2322C82.9834 25.0044 82.7933 25.8329 82.7933 26.7045H84.7933C84.7933 26.133 84.9158 25.6092 85.1581 25.1201L83.366 24.2322ZM82.7933 26.7045V27.8636H84.7933V26.7045H82.7933ZM82.7933 27.8636C82.7933 28.9634 82.9826 29.9626 83.4088 30.8221L85.2006 29.9336C84.945 29.4181 84.7933 28.7411 84.7933 27.8636H82.7933ZM83.4133 30.831C83.8399 31.6704 84.4488 32.3391 85.2412 32.8013L86.2489 31.0737C85.814 30.82 85.4626 30.449 85.1961 29.9247L83.4133 30.831ZM85.2472 32.8048C86.0336 33.2562 86.9233 33.4659 87.8842 33.4659V31.4659C87.2202 31.4659 86.6838 31.3233 86.2429 31.0702L85.2472 32.8048ZM87.8842 33.4659C88.5054 33.4659 89.0958 33.3791 89.6436 33.1892L88.9885 31.2995C88.684 31.405 88.3199 31.4659 87.8842 31.4659V33.4659ZM89.6508 33.1866C90.2091 32.9883 90.7057 32.688 91.1264 32.2826L89.7386 30.8424C89.5344 31.0393 89.2866 31.1936 88.9813 31.302L89.6508 33.1866ZM91.1331 32.2761C91.5605 31.8564 91.8772 31.3477 92.0933 30.7716L90.2206 30.0693C90.0958 30.4023 89.9296 30.6549 89.7319 30.8489L91.1331 32.2761ZM90.8867 31.3832L92.8299 31.9287L93.3704 30.0031L91.4272 29.4577L90.8867 31.3832ZM92.1451 30.6695C91.9872 31.1781 91.7247 31.6215 91.3496 32.0098L92.7882 33.3993C93.379 32.7876 93.8039 32.0719 94.0552 31.2623L92.1451 30.6695ZM91.3536 32.0057C90.9795 32.3886 90.5063 32.7005 89.9142 32.9326L90.6441 34.7947C91.4724 34.47 92.1923 34.0091 92.7842 33.4034L91.3536 32.0057ZM89.9206 32.9301C89.342 33.1523 88.6679 33.2727 87.8842 33.2727V35.2727C88.8733 35.2727 89.7958 35.1204 90.6376 34.7972L89.9206 32.9301ZM98.3757 34V35H99.3757V34H98.3757ZM96.3643 34H95.3643V35H96.3643V34ZM96.3643 20.9091V19.9091H95.3643V20.9091H96.3643ZM98.3075 20.9091H99.3075V19.9091H98.3075V20.9091ZM98.3075 22.9545H97.3075V23.9545H98.3075V22.9545ZM98.478 22.9545V23.9545H99.1178L99.3859 23.3736L98.478 22.9545ZM99.8757 21.3523L100.418 22.1925L100.423 22.189L99.8757 21.3523ZM104.623 21.2841L104.143 22.1614L104.149 22.1646L104.623 21.2841ZM106.174 22.9205L105.281 23.3704L105.282 23.3732L106.174 22.9205ZM106.728 34V35H107.728V34H106.728ZM104.717 34H103.717V35H104.717V34ZM103.915 23.4148L103.18 24.0925L103.183 24.0961L103.915 23.4148ZM99.995 22.9631L99.5127 22.087L99.5085 22.0894L99.995 22.9631ZM98.8104 24.1818L97.9314 23.7049L97.9314 23.7049L98.8104 24.1818ZM97.3757 26.125V34H99.3757V26.125H97.3757ZM98.3757 33H96.3643V35H98.3757V33ZM97.3643 34V20.9091H95.3643V34H97.3643ZM96.3643 21.9091H98.3075V19.9091H96.3643V21.9091ZM97.3075 20.9091V22.9545H99.3075V20.9091H97.3075ZM98.3075 23.9545H98.478V21.9545H98.3075V23.9545ZM99.3859 23.3736C99.6119 22.8839 99.9497 22.4948 100.418 22.1925L99.3334 20.5121C98.5518 21.0166 97.9577 21.6956 97.57 22.5355L99.3859 23.3736ZM100.423 22.189C100.841 21.9158 101.44 21.7386 102.296 21.7386V19.7386C101.175 19.7386 100.161 19.9705 99.3281 20.5156L100.423 22.189ZM102.296 21.7386C103.043 21.7386 103.649 21.891 104.143 22.1614L105.103 20.4068C104.268 19.95 103.322 19.7386 102.296 19.7386V21.7386ZM104.149 22.1646C104.617 22.4168 104.995 22.8038 105.281 23.3704L107.067 22.4705C106.614 21.5712 105.958 20.8673 105.097 20.4036L104.149 22.1646ZM105.282 23.3732C105.559 23.9185 105.728 24.671 105.728 25.6818H107.728C107.728 24.4654 107.527 23.3769 107.066 22.4677L105.282 23.3732ZM105.728 25.6818V34H107.728V25.6818H105.728ZM106.728 33H104.717V35H106.728V33ZM105.717 34V25.8182H103.717V34H105.717ZM105.717 25.8182C105.717 24.618 105.402 23.5442 104.648 22.7335L103.183 24.0961C103.497 24.433 103.717 24.9615 103.717 25.8182H105.717ZM104.651 22.7371C103.893 21.9146 102.872 21.5455 101.717 21.5455V23.5455C102.425 23.5455 102.87 23.7559 103.18 24.0925L104.651 22.7371ZM101.717 21.5455C100.925 21.5455 100.182 21.7185 99.5127 22.0871L100.477 23.8391C100.819 23.6508 101.224 23.5455 101.717 23.5455V21.5455ZM99.5085 22.0894C98.8323 22.4659 98.3058 23.0148 97.9314 23.7049L99.6893 24.6587C99.8944 24.2807 100.158 24.017 100.482 23.8368L99.5085 22.0894ZM97.9314 23.7049C97.5446 24.4179 97.3757 25.2385 97.3757 26.125H99.3757C99.3757 25.4888 99.4966 25.0139 99.6893 24.6587L97.9314 23.7049ZM113.182 38.8068L113.519 37.8652L113.512 37.8628L113.182 38.8068ZM111.435 37.8352L112.089 37.0792L112.089 37.0786L111.435 37.8352ZM110.335 36.5568L109.761 35.7384L108.999 36.2732L109.478 37.0713L110.335 36.5568ZM111.938 35.4318L112.733 34.8258L112.15 34.0607L111.363 34.6134L111.938 35.4318ZM112.628 36.25L113.375 35.5848L113.368 35.578L112.628 36.25ZM113.77 37.0597L114.2 36.157L114.196 36.1548L113.77 37.0597ZM118.304 36.642L118.901 37.4444L118.901 37.4444L118.304 36.642ZM119.335 31.5795H120.335V30.5795H119.335V31.5795ZM119.165 31.5795V30.5795H118.608L118.315 31.0532L119.165 31.5795ZM118.534 32.4659L117.743 31.8537L117.742 31.8556L118.534 32.4659ZM117.375 33.3949L117.846 34.277L117.85 34.275L117.375 33.3949ZM112.5 33.0455L111.986 33.9035L111.989 33.905L112.5 33.0455ZM110.514 30.8636L109.622 31.3151L109.624 31.3193L110.514 30.8636ZM110.497 23.8835L111.401 24.3121L111.402 24.3101L110.497 23.8835ZM112.466 21.5653L113.01 22.4043L113.014 22.4017L112.466 21.5653ZM117.409 21.1648L116.915 22.0343L116.927 22.0408L117.409 21.1648ZM118.568 22.1193L117.767 22.7173L117.772 22.7244L117.777 22.7315L118.568 22.1193ZM119.199 22.9886L118.36 23.5336L118.656 23.9886H119.199V22.9886ZM119.403 22.9886V23.9886H120.403V22.9886H119.403ZM119.403 20.9091V19.9091H118.403V20.9091H119.403ZM121.347 20.9091H122.347V19.9091H121.347V20.9091ZM120.58 37.1193L119.77 36.5319L119.765 36.5393L120.58 37.1193ZM118.534 38.679L118.176 37.7454L118.168 37.7484L118.534 38.679ZM117.665 31.4347L117.112 30.6013L117.112 30.6013L117.665 31.4347ZM118.935 29.8409L119.857 30.2266L119.857 30.2266L118.935 29.8409ZM118.943 24.8551L119.874 24.4888L119.874 24.4888L118.943 24.8551ZM117.682 23.1591L117.09 23.965L117.09 23.965L117.682 23.1591ZM113.489 23.1932L112.884 22.397L112.88 22.4L113.489 23.1932ZM112.219 24.9318L111.287 24.568L111.285 24.5743L112.219 24.9318ZM112.227 29.7642L111.301 30.1408L111.305 30.1499L112.227 29.7642ZM113.506 31.4006L112.928 32.2171L112.938 32.2236L113.506 31.4006ZM115.688 38.1818C114.797 38.1818 114.082 38.0667 113.519 37.8652L112.845 39.7484C113.68 40.0469 114.635 40.1818 115.688 40.1818V38.1818ZM113.512 37.8628C112.909 37.652 112.443 37.3853 112.089 37.0792L110.78 38.5912C111.358 39.092 112.057 39.473 112.852 39.7508L113.512 37.8628ZM112.089 37.0786C111.697 36.7402 111.403 36.3936 111.193 36.0423L109.478 37.0713C109.812 37.6292 110.252 38.1348 110.781 38.5918L112.089 37.0786ZM110.91 37.3752L112.512 36.2502L111.363 34.6134L109.761 35.7384L110.91 37.3752ZM111.142 36.0379C111.346 36.306 111.596 36.6013 111.887 36.922L113.368 35.578C113.103 35.285 112.892 35.0349 112.733 34.8258L111.142 36.0379ZM111.881 36.9152C112.27 37.352 112.771 37.695 113.344 37.9645L114.196 36.1548C113.802 35.9698 113.542 35.773 113.375 35.5848L111.881 36.9152ZM113.34 37.9623C114.01 38.2819 114.812 38.4091 115.688 38.4091V36.4091C114.984 36.4091 114.507 36.3034 114.2 36.157L113.34 37.9623ZM115.688 38.4091C116.908 38.4091 118.004 38.1116 118.901 37.4444L117.707 35.8397C117.229 36.1952 116.58 36.4091 115.688 36.4091V38.4091ZM118.901 37.4444C119.91 36.6939 120.335 35.5504 120.335 34.2386H118.335C118.335 35.1087 118.073 35.5674 117.707 35.8397L118.901 37.4444ZM120.335 34.2386V31.5795H118.335V34.2386H120.335ZM119.335 30.5795H119.165V32.5795H119.335V30.5795ZM118.315 31.0532C118.193 31.2503 118.006 31.5151 117.743 31.8537L119.325 33.0781C119.608 32.7122 119.842 32.3861 120.015 32.1059L118.315 31.0532ZM117.742 31.8556C117.583 32.0619 117.319 32.2887 116.9 32.5147L117.85 34.275C118.442 33.9556 118.951 33.5631 119.326 33.0762L117.742 31.8556ZM116.904 32.5128C116.604 32.6731 116.111 32.7955 115.347 32.7955V34.7955C116.287 34.7955 117.146 34.6507 117.846 34.277L116.904 32.5128ZM115.347 32.7955C114.455 32.7955 113.685 32.5866 113.011 32.1859L111.989 33.905C112.997 34.5043 114.125 34.7955 115.347 34.7955V32.7955ZM113.014 32.1874C112.355 31.7933 111.817 31.2133 111.404 30.408L109.624 31.3193C110.189 32.4231 110.974 33.2976 111.986 33.9035L113.014 32.1874ZM111.406 30.4122C111.011 29.6307 110.79 28.635 110.79 27.3864H108.79C108.79 28.865 109.051 30.1875 109.622 31.3151L111.406 30.4122ZM110.79 27.3864C110.79 26.1619 111.005 25.1464 111.401 24.3121L109.594 23.455C109.046 24.6093 108.79 25.929 108.79 27.3864H110.79ZM111.402 24.3101C111.802 23.4605 112.341 22.8382 113.01 22.4043L111.922 20.7264C110.909 21.3834 110.135 22.3066 109.593 23.457L111.402 24.3101ZM113.014 22.4017C113.676 21.9676 114.454 21.7386 115.381 21.7386V19.7386C114.103 19.7386 112.937 20.0609 111.918 20.729L113.014 22.4017ZM115.381 21.7386C116.137 21.7386 116.621 21.8672 116.915 22.0342L117.903 20.2953C117.197 19.8941 116.329 19.7386 115.381 19.7386V21.7386ZM116.927 22.0408C117.343 22.2697 117.606 22.502 117.767 22.7173L119.37 21.5214C118.996 21.0207 118.487 20.6167 117.891 20.2888L116.927 22.0408ZM117.777 22.7315C118.043 23.0739 118.234 23.3393 118.36 23.5336L120.037 22.4436C119.868 22.1835 119.639 21.8693 119.359 21.5071L117.777 22.7315ZM119.199 23.9886H119.403V21.9886H119.199V23.9886ZM120.403 22.9886V20.9091H118.403V22.9886H120.403ZM119.403 21.9091H121.347V19.9091H119.403V21.9091ZM120.347 20.9091V34.375H122.347V20.9091H120.347ZM120.347 34.375C120.347 35.3507 120.126 36.0421 119.77 36.5319L121.389 37.7067C122.056 36.7875 122.347 35.6493 122.347 34.375H120.347ZM119.765 36.5393C119.38 37.0806 118.86 37.4824 118.176 37.7455L118.893 39.6125C119.924 39.2165 120.768 38.5785 121.394 37.6993L119.765 36.5393ZM118.168 37.7484C117.448 38.0317 116.625 38.1818 115.688 38.1818V40.1818C116.841 40.1818 117.916 39.9967 118.9 39.6096L118.168 37.7484ZM115.619 32.9886C116.581 32.9886 117.466 32.7668 118.218 32.268L117.112 30.6013C116.75 30.8412 116.271 30.9886 115.619 30.9886V32.9886ZM118.218 32.268C118.959 31.7761 119.501 31.0788 119.857 30.2266L118.012 29.4552C117.789 29.9894 117.484 30.3546 117.112 30.6013L118.218 32.268ZM119.857 30.2266C120.21 29.3818 120.369 28.4144 120.369 27.3523H118.369C118.369 28.222 118.238 28.9137 118.012 29.4552L119.857 30.2266ZM120.369 27.3523C120.369 26.31 120.212 25.3493 119.874 24.4888L118.013 25.2214C118.242 25.8041 118.369 26.5081 118.369 27.3523H120.369ZM119.874 24.4888C119.529 23.6138 119.001 22.8873 118.274 22.3532L117.09 23.965C117.476 24.2491 117.789 24.6532 118.013 25.2214L119.874 24.4888ZM118.274 22.3532C117.515 21.796 116.61 21.5455 115.619 21.5455V23.5455C116.265 23.5455 116.735 23.704 117.09 23.965L118.274 22.3532ZM115.619 21.5455C114.592 21.5455 113.658 21.8087 112.884 22.397L114.094 23.9893C114.456 23.714 114.942 23.5455 115.619 23.5455V21.5455ZM112.88 22.4C112.158 22.9538 111.631 23.6885 111.287 24.568L113.15 25.2957C113.375 24.7206 113.694 24.2962 114.098 23.9864L112.88 22.4ZM111.285 24.5743C110.957 25.4304 110.801 26.3604 110.801 27.3523H112.801C112.801 26.5714 112.924 25.8878 113.153 25.2893L111.285 24.5743ZM110.801 27.3523C110.801 28.3646 110.959 29.3005 111.301 30.1408L113.154 29.3876C112.927 28.8302 112.801 28.1581 112.801 27.3523H110.801ZM111.305 30.1499C111.66 31 112.199 31.7012 112.928 32.2171L114.083 30.5841C113.688 30.3044 113.374 29.9148 113.15 29.3785L111.305 30.1499ZM112.938 32.2236C113.706 32.754 114.62 32.9886 115.619 32.9886V30.9886C114.936 30.9886 114.441 30.8312 114.074 30.5775L112.938 32.2236ZM127.253 33.4375L126.727 34.2879L126.733 34.2917L127.253 33.4375ZM125.148 31.0852L124.247 31.5203L124.25 31.5263L125.148 31.0852ZM125.148 24.0114L124.246 23.5781L124.245 23.5803L125.148 24.0114ZM127.21 21.608L127.756 22.4458L127.757 22.4449L127.21 21.608ZM132.332 21.0795L132.656 20.1333L132.656 20.1333L132.332 21.0795ZM134.148 22.1875L133.464 22.917L133.468 22.9208L134.148 22.1875ZM135.452 24.1989L136.384 23.8373L136.384 23.8373L135.452 24.1989ZM135.938 28.1364V29.1364H136.938V28.1364H135.938ZM125.847 28.1364H124.847V29.1364H125.847V28.1364ZM125.847 26.3977V25.3977H124.847V26.3977H125.847ZM133.892 26.3977V27.3977H134.892V26.3977H133.892ZM133.449 24.4205L132.554 24.8677L132.558 24.8746L133.449 24.4205ZM132.205 23.0483L131.673 23.8953L131.677 23.8978L132.205 23.0483ZM128.233 23.142L128.793 23.9703L128.795 23.9691L128.233 23.142ZM126.895 24.6761L125.999 24.2322L125.999 24.2322L126.895 24.6761ZM126.938 30.3778L126.042 30.8221L126.046 30.831L126.938 30.3778ZM128.378 31.9375L127.874 32.8013L127.88 32.8048L128.378 31.9375ZM131.949 32.2443L132.276 33.1892L132.284 33.1866L131.949 32.2443ZM133.065 31.5625L133.759 32.2826L133.766 32.2761L133.065 31.5625ZM133.79 30.4205L134.06 29.4577L133.176 29.2095L132.853 30.0693L133.79 30.4205ZM135.733 30.9659L136.688 31.2623L136.993 30.2808L136.003 30.0031L135.733 30.9659ZM134.702 32.7045L135.417 33.4034L135.421 33.3993L134.702 32.7045ZM132.912 33.8636L133.27 34.7972L133.277 34.7947L132.912 33.8636ZM130.517 33.2727C129.406 33.2727 128.505 33.0289 127.773 32.5833L126.733 34.2917C127.83 34.9597 129.105 35.2727 130.517 35.2727V33.2727ZM127.779 32.5871C127.038 32.1283 126.461 31.4897 126.045 30.6441L124.25 31.5263C124.823 32.6921 125.65 33.6217 126.727 34.2879L127.779 32.5871ZM126.048 30.6502C125.637 29.7983 125.415 28.7759 125.415 27.5568H123.415C123.415 29.0195 123.682 30.3494 124.247 31.5203L126.048 30.6502ZM125.415 27.5568C125.415 26.338 125.636 25.3081 126.05 24.4425L124.245 23.5803C123.682 24.7601 123.415 26.0938 123.415 27.5568H125.415ZM126.049 24.4446C126.471 23.5664 127.042 22.9113 127.756 22.4458L126.664 20.7701C125.617 21.4523 124.813 22.3995 124.246 23.5781L126.049 24.4446ZM127.757 22.4449C128.463 21.9838 129.302 21.7386 130.312 21.7386V19.7386C128.96 19.7386 127.731 20.073 126.663 20.771L127.757 22.4449ZM130.312 21.7386C130.881 21.7386 131.445 21.833 132.009 22.0258L132.656 20.1333C131.89 19.8715 131.108 19.7386 130.312 19.7386V21.7386ZM132.009 22.0258C132.531 22.2043 133.015 22.4963 133.464 22.917L134.832 21.458C134.19 20.856 133.463 20.4094 132.656 20.1333L132.009 22.0258ZM133.468 22.9208C133.882 23.3044 134.239 23.8381 134.519 24.5604L136.384 23.8373C136.016 22.8892 135.505 22.082 134.828 21.4542L133.468 22.9208ZM134.519 24.5604C134.785 25.2467 134.938 26.1441 134.938 27.2841H136.938C136.938 25.9809 136.766 24.8214 136.384 23.8373L134.519 24.5604ZM134.938 27.2841V28.1364H136.938V27.2841H134.938ZM135.938 27.1364H125.847V29.1364H135.938V27.1364ZM126.847 28.1364V26.3977H124.847V28.1364H126.847ZM125.847 27.3977H133.892V25.3977H125.847V27.3977ZM134.892 26.3977C134.892 25.5228 134.716 24.7045 134.34 23.9663L132.558 24.8746C132.773 25.2955 132.892 25.7954 132.892 26.3977H134.892ZM134.343 23.9732C133.973 23.2317 133.432 22.6336 132.732 22.1988L131.677 23.8978C132.056 24.1334 132.346 24.4501 132.554 24.8677L134.343 23.9732ZM132.736 22.2013C132.02 21.7515 131.198 21.5455 130.312 21.5455V23.5455C130.881 23.5455 131.321 23.6746 131.673 23.8953L132.736 22.2013ZM130.312 21.5455C129.338 21.5455 128.443 21.7901 127.671 22.315L128.795 23.9691C129.193 23.6986 129.684 23.5455 130.312 23.5455V21.5455ZM127.673 22.3138C126.949 22.8033 126.388 23.4475 125.999 24.2322L127.791 25.1201C128.027 24.6434 128.358 24.2649 128.793 23.9703L127.673 22.3138ZM125.999 24.2322C125.616 25.0044 125.426 25.8329 125.426 26.7045H127.426C127.426 26.133 127.549 25.6092 127.791 25.1201L125.999 24.2322ZM125.426 26.7045V27.8636H127.426V26.7045H125.426ZM125.426 27.8636C125.426 28.9634 125.615 29.9626 126.042 30.8221L127.833 29.9336C127.578 29.4181 127.426 28.7411 127.426 27.8636H125.426ZM126.046 30.831C126.473 31.6704 127.082 32.3391 127.874 32.8013L128.882 31.0737C128.447 30.82 128.095 30.449 127.829 29.9247L126.046 30.831ZM127.88 32.8048C128.666 33.2562 129.556 33.4659 130.517 33.4659V31.4659C129.853 31.4659 129.317 31.3233 128.876 31.0702L127.88 32.8048ZM130.517 33.4659C131.138 33.4659 131.729 33.3791 132.276 33.1892L131.621 31.2995C131.317 31.405 130.953 31.4659 130.517 31.4659V33.4659ZM132.284 33.1866C132.842 32.9883 133.339 32.688 133.759 32.2826L132.371 30.8424C132.167 31.0393 131.919 31.1936 131.614 31.302L132.284 33.1866ZM133.766 32.2761C134.193 31.8564 134.51 31.3477 134.726 30.7716L132.853 30.0693C132.729 30.4023 132.562 30.6549 132.365 30.8489L133.766 32.2761ZM133.52 31.3832L135.463 31.9287L136.003 30.0031L134.06 29.4577L133.52 31.3832ZM134.778 30.6695C134.62 31.1781 134.358 31.6215 133.982 32.0098L135.421 33.3993C136.012 32.7876 136.437 32.0719 136.688 31.2623L134.778 30.6695ZM133.986 32.0057C133.612 32.3886 133.139 32.7005 132.547 32.9326L133.277 34.7947C134.105 34.47 134.825 34.0091 135.417 33.4034L133.986 32.0057ZM132.553 32.9301C131.975 33.1523 131.301 33.2727 130.517 33.2727V35.2727C131.506 35.2727 132.429 35.1204 133.27 34.7972L132.553 32.9301ZM146.736 34V35H147.442L147.678 34.3345L146.736 34ZM144.52 34L143.581 33.6553L143.087 35H144.52V34ZM150.929 16.5455V15.5455H150.231L149.99 16.2008L150.929 16.5455ZM153.111 16.5455L154.05 16.2008L153.809 15.5455H153.111V16.5455ZM159.52 34V35H160.952L160.459 33.6553L159.52 34ZM157.304 34L156.362 34.3345L156.598 35H157.304V34ZM152.088 19.3068L153.03 18.9723L152.794 18.3068H152.088V19.3068ZM151.952 19.3068V18.3068H151.246L151.009 18.9723L151.952 19.3068ZM147.554 27.1818V26.1818H146.554V27.1818H147.554ZM156.486 27.1818H157.486V26.1818H156.486V27.1818ZM156.486 29.0568V30.0568H157.486V29.0568H156.486ZM147.554 29.0568H146.554V30.0568H147.554V29.0568ZM146.736 33H144.52V35H146.736V33ZM145.459 34.3447L151.868 16.8901L149.99 16.2008L143.581 33.6553L145.459 34.3447ZM150.929 17.5455H153.111V15.5455H150.929V17.5455ZM152.172 16.8901L158.581 34.3447L160.459 33.6553L154.05 16.2008L152.172 16.8901ZM159.52 33H157.304V35H159.52V33ZM158.246 33.6655L153.03 18.9723L151.146 19.6414L156.362 34.3345L158.246 33.6655ZM152.088 18.3068H151.952V20.3068H152.088V18.3068ZM151.009 18.9723L145.793 33.6655L147.678 34.3345L152.894 19.6414L151.009 18.9723ZM147.554 28.1818H156.486V26.1818H147.554V28.1818ZM155.486 27.1818V29.0568H157.486V27.1818H155.486ZM156.486 28.0568H147.554V30.0568H156.486V28.0568ZM148.554 29.0568V27.1818H146.554V29.0568H148.554ZM161.966 34H160.966V35H161.966V34ZM161.966 20.9091V19.9091H160.966V20.9091H161.966ZM163.909 20.9091H164.909V19.9091H163.909V20.9091ZM163.909 22.8864H162.909V23.8864H163.909V22.8864ZM164.045 22.8864V23.8864H164.743L164.984 23.2321L164.045 22.8864ZM165.341 21.3097L164.799 20.4695L164.799 20.4695L165.341 21.3097ZM168.511 20.7386H169.511V19.8337L168.611 19.7436L168.511 20.7386ZM168.511 22.7841L168.269 23.7542L169.511 24.0649V22.7841H168.511ZM168.043 22.7074L167.878 23.6938L167.891 23.696L167.904 23.6978L168.043 22.7074ZM165.58 23.0483L166.047 23.9323L166.051 23.9304L165.58 23.0483ZM164.403 24.1392L163.554 23.6111L163.552 23.6139L164.403 24.1392ZM163.977 34V35H164.977V34H163.977ZM162.966 34V20.9091H160.966V34H162.966ZM161.966 21.9091H163.909V19.9091H161.966V21.9091ZM162.909 20.9091V22.8864H164.909V20.9091H162.909ZM163.909 23.8864H164.045V21.8864H163.909V23.8864ZM164.984 23.2321C165.142 22.8039 165.425 22.4454 165.883 22.1498L164.799 20.4695C164.007 20.9807 163.427 21.6734 163.107 22.5407L164.984 23.2321ZM165.883 22.1498C166.338 21.8565 166.852 21.7045 167.455 21.7045V19.7045C166.489 19.7045 165.594 19.956 164.799 20.4695L165.883 22.1498ZM167.455 21.7045C167.591 21.7045 167.766 21.7072 167.983 21.7127L168.034 19.7134C167.808 19.7076 167.614 19.7045 167.455 19.7045V21.7045ZM167.983 21.7127C168.198 21.7183 168.336 21.7261 168.412 21.7337L168.611 19.7436C168.459 19.7285 168.262 19.7192 168.034 19.7134L167.983 21.7127ZM167.511 20.7386V22.7841H169.511V20.7386H167.511ZM168.754 21.8139C168.624 21.7814 168.41 21.749 168.181 21.717L167.904 23.6978C168.023 23.7143 168.114 23.728 168.182 23.739C168.257 23.7514 168.278 23.7566 168.269 23.7542L168.754 21.8139ZM168.207 21.721C167.909 21.6713 167.601 21.6477 167.284 21.6477V23.6477C167.502 23.6477 167.699 23.6639 167.878 23.6938L168.207 21.721ZM167.284 21.6477C166.504 21.6477 165.77 21.8127 165.108 22.1662L166.051 23.9304C166.389 23.7498 166.792 23.6477 167.284 23.6477V21.6477ZM165.112 22.1643C164.464 22.5067 163.939 22.9918 163.554 23.6111L165.253 24.6673C165.447 24.3548 165.706 24.1126 166.047 23.9323L165.112 22.1643ZM163.552 23.6139C163.162 24.2465 162.977 24.9573 162.977 25.7159H164.977C164.977 25.2927 165.077 24.9524 165.254 24.6645L163.552 23.6139ZM162.977 25.7159V34H164.977V25.7159H162.977ZM163.977 33H161.966V35H163.977V33ZM170.896 34H169.896V35H170.896V34ZM170.896 20.9091V19.9091H169.896V20.9091H170.896ZM172.839 20.9091H173.839V19.9091H172.839V20.9091ZM172.839 22.8864H171.839V23.8864H172.839V22.8864ZM172.975 22.8864V23.8864H173.672L173.913 23.2321L172.975 22.8864ZM174.271 21.3097L173.728 20.4695L173.728 20.4695L174.271 21.3097ZM177.441 20.7386H178.441V19.8337L177.541 19.7436L177.441 20.7386ZM177.441 22.7841L177.199 23.7542L178.441 24.0649V22.7841H177.441ZM176.972 22.7074L176.808 23.6938L176.821 23.696L176.834 23.6978L176.972 22.7074ZM174.509 23.0483L174.977 23.9323L174.98 23.9304L174.509 23.0483ZM173.333 24.1392L172.484 23.6111L172.482 23.6139L173.333 24.1392ZM172.907 34V35H173.907V34H172.907ZM171.896 34V20.9091H169.896V34H171.896ZM170.896 21.9091H172.839V19.9091H170.896V21.9091ZM171.839 20.9091V22.8864H173.839V20.9091H171.839ZM172.839 23.8864H172.975V21.8864H172.839V23.8864ZM173.913 23.2321C174.071 22.8039 174.355 22.4454 174.813 22.1498L173.728 20.4695C172.936 20.9807 172.356 21.6734 172.037 22.5407L173.913 23.2321ZM174.813 22.1498C175.267 21.8565 175.782 21.7045 176.384 21.7045V19.7045C175.419 19.7045 174.524 19.956 173.728 20.4695L174.813 22.1498ZM176.384 21.7045C176.52 21.7045 176.696 21.7072 176.913 21.7127L176.964 19.7134C176.737 19.7076 176.544 19.7045 176.384 19.7045V21.7045ZM176.913 21.7127C177.128 21.7183 177.266 21.7261 177.342 21.7337L177.541 19.7436C177.389 19.7285 177.192 19.7192 176.964 19.7134L176.913 21.7127ZM176.441 20.7386V22.7841H178.441V20.7386H176.441ZM177.684 21.8139C177.553 21.7814 177.34 21.749 177.11 21.717L176.834 23.6978C176.952 23.7143 177.044 23.728 177.111 23.739C177.187 23.7514 177.208 23.7566 177.199 23.7542L177.684 21.8139ZM177.137 21.721C176.838 21.6713 176.53 21.6477 176.214 21.6477V23.6477C176.431 23.6477 176.629 23.6639 176.808 23.6938L177.137 21.721ZM176.214 21.6477C175.434 21.6477 174.7 21.8127 174.038 22.1662L174.98 23.9304C175.318 23.7498 175.721 23.6477 176.214 23.6477V21.6477ZM174.042 22.1643C173.394 22.5067 172.869 22.9918 172.484 23.6111L174.182 24.6673C174.377 24.3548 174.636 24.1126 174.977 23.9323L174.042 22.1643ZM172.482 23.6139C172.092 24.2465 171.907 24.9573 171.907 25.7159H173.907C173.907 25.2927 174.006 24.9524 174.184 24.6645L172.482 23.6139ZM171.907 25.7159V34H173.907V25.7159H171.907ZM172.907 33H170.896V35H172.907V33ZM181.419 33.8381L180.993 34.7429L180.999 34.7458L181.419 33.8381ZM179.808 32.4659L178.974 33.017L178.976 33.0206L179.808 32.4659ZM179.655 28.4602L180.499 28.9958L180.502 28.9911L179.655 28.4602ZM182.476 26.7557L182.69 27.7325L182.697 27.731L182.476 26.7557ZM184.291 26.4318L184.164 25.44L184.161 25.4403L184.291 26.4318ZM186.226 26.2017L186.329 27.1964L186.339 27.1953L186.226 26.2017ZM187.317 25.9205L186.827 25.0483L186.818 25.0535L187.317 25.9205ZM186.976 23.2102L186.26 23.9086L186.264 23.913L186.976 23.2102ZM182.646 23.142L183.257 23.9341L183.257 23.9341L182.646 23.142ZM181.496 24.4886L181.159 25.4304L182.019 25.7372L182.403 24.9097L181.496 24.4886ZM179.587 23.8068L178.668 23.4129L178.248 24.3907L179.25 24.7486L179.587 23.8068ZM180.95 21.9489L181.565 22.7374L181.566 22.7365L180.95 21.9489ZM182.825 21.0114L183.077 21.9791L183.083 21.9776L182.825 21.0114ZM186.286 20.892L186.101 21.875L186.113 21.877L186.286 20.892ZM187.879 21.4972L187.365 22.3547L187.369 22.3571L187.879 21.4972ZM189.166 22.8864L188.29 23.3686L188.29 23.3686L189.166 22.8864ZM189.678 34V35H190.678V34H189.678ZM187.666 34H186.666V35H187.666V34ZM187.666 32.2273H188.666V31.2273H187.666V32.2273ZM187.564 32.2273V31.2273H186.935L186.662 31.7945L187.564 32.2273ZM186.882 33.1392L187.595 33.84L187.595 33.84L186.882 33.1392ZM185.612 33.9659L185.217 33.0473L185.612 33.9659ZM185.996 32.0312L185.502 31.1613L185.499 31.1636L185.996 32.0312ZM187.24 30.821L186.373 30.3227L186.369 30.3303L187.24 30.821ZM187.666 27.4205H188.666V24.6584L186.898 26.7803L187.666 27.4205ZM187.104 27.7017L187.373 28.6647L187.386 28.6611L187.104 27.7017ZM186.115 27.9148L186.267 28.9032L186.279 28.9012L186.115 27.9148ZM185.033 28.0682L185.147 29.0618L185.161 29.06L185.033 28.0682ZM184.189 28.1705L184.318 29.1621L184.319 29.1619L184.189 28.1705ZM182.723 28.5028L183.036 29.4527L183.043 29.4503L182.723 28.5028ZM181.632 29.1761L180.898 28.4973L180.897 28.4979L181.632 29.1761ZM181.999 31.9716L181.429 32.7938L181.44 32.8009L181.999 31.9716ZM183.678 33.3068C182.976 33.3068 182.369 33.1755 181.839 32.9303L180.999 34.7458C181.821 35.1257 182.72 35.3068 183.678 35.3068V33.3068ZM181.845 32.9332C181.326 32.6892 180.933 32.3497 180.64 31.9112L178.976 33.0206C179.479 33.7753 180.16 34.3506 180.993 34.7429L181.845 32.9332ZM180.643 31.9148C180.371 31.5038 180.212 30.9765 180.212 30.2841H178.212C178.212 31.2962 178.45 32.2235 178.974 33.017L180.643 31.9148ZM180.212 30.2841C180.212 29.6577 180.336 29.2537 180.499 28.9958L178.81 27.9247C178.383 28.5986 178.212 29.4105 178.212 30.2841H180.212ZM180.502 28.9911C180.705 28.6675 180.971 28.4178 181.315 28.2321L180.364 26.4725C179.719 26.8208 179.196 27.3097 178.807 27.9293L180.502 28.9911ZM181.315 28.2321C181.72 28.0131 182.177 27.8449 182.69 27.7325L182.262 25.7788C181.582 25.9278 180.947 26.1573 180.364 26.4725L181.315 28.2321ZM182.697 27.731C183.269 27.6014 183.844 27.4989 184.421 27.4234L184.161 25.4403C183.523 25.5238 182.887 25.6372 182.255 25.7804L182.697 27.731ZM184.419 27.4237C185.21 27.3219 185.846 27.2463 186.329 27.1964L186.123 25.207C185.617 25.2594 184.963 25.3372 184.164 25.44L184.419 27.4237ZM186.339 27.1953C186.873 27.1346 187.405 27.0234 187.815 26.7874L186.818 25.0535C186.774 25.0788 186.579 25.1551 186.113 25.2081L186.339 27.1953ZM187.806 26.7926C188.426 26.4445 188.666 25.8333 188.666 25.2386H186.666C186.666 25.2834 186.658 25.2562 186.689 25.1959C186.704 25.1655 186.726 25.1342 186.754 25.1058C186.782 25.0777 186.808 25.0592 186.828 25.0483L187.806 26.7926ZM188.666 25.2386V25.1705H186.666V25.2386H188.666ZM188.666 25.1705C188.666 24.1445 188.381 23.2096 187.687 22.5075L186.264 23.913C186.491 24.1427 186.666 24.5146 186.666 25.1705H188.666ZM187.692 22.5119C186.981 21.7837 185.985 21.5114 184.905 21.5114V23.5114C185.677 23.5114 186.061 23.7049 186.26 23.9086L187.692 22.5119ZM184.905 21.5114C183.809 21.5114 182.814 21.7505 182.036 22.35L183.257 23.9341C183.57 23.6927 184.08 23.5114 184.905 23.5114V21.5114ZM182.036 22.35C181.401 22.8393 180.896 23.4067 180.589 24.0675L182.403 24.9097C182.539 24.6161 182.801 24.2857 183.257 23.9341L182.036 22.35ZM181.832 23.5469L179.923 22.8651L179.25 24.7486L181.159 25.4304L181.832 23.5469ZM180.506 24.2007C180.794 23.5293 181.154 23.0578 181.565 22.7374L180.335 21.1604C179.61 21.7263 179.062 22.4934 178.668 23.4129L180.506 24.2007ZM181.566 22.7365C182.037 22.3683 182.539 22.1192 183.077 21.9791L182.573 20.0437C181.759 20.2558 181.011 20.6317 180.334 21.1612L181.566 22.7365ZM183.083 21.9776C183.687 21.8166 184.27 21.7386 184.837 21.7386V19.7386C184.085 19.7386 183.328 19.8425 182.568 20.0451L183.083 21.9776ZM184.837 21.7386C185.179 21.7386 185.599 21.7807 186.101 21.8749L186.47 19.9092C185.882 19.7989 185.335 19.7386 184.837 19.7386V21.7386ZM186.113 21.877C186.535 21.9511 186.952 22.1067 187.365 22.3547L188.394 20.6397C187.784 20.2739 187.138 20.0262 186.458 19.9071L186.113 21.877ZM187.369 22.3571C187.707 22.558 188.02 22.8778 188.29 23.3686L190.042 22.4041C189.631 21.6563 189.085 21.0499 188.39 20.6372L187.369 22.3571ZM188.29 23.3686C188.52 23.7868 188.678 24.4301 188.678 25.375H190.678C190.678 24.2404 190.494 23.2246 190.042 22.4041L188.29 23.3686ZM188.678 25.375V34H190.678V25.375H188.678ZM189.678 33H187.666V35H189.678V33ZM188.666 34V32.2273H186.666V34H188.666ZM187.666 31.2273H187.564V33.2273H187.666V31.2273ZM186.662 31.7945C186.59 31.9463 186.441 32.1614 186.169 32.4384L187.595 33.84C187.96 33.4692 188.266 33.0764 188.465 32.66L186.662 31.7945ZM186.169 32.4384C185.962 32.6486 185.657 32.8581 185.217 33.0473L186.007 34.8845C186.624 34.6192 187.166 34.2776 187.595 33.84L186.169 32.4384ZM185.217 33.0473C184.847 33.2065 184.345 33.3068 183.678 33.3068V35.3068C184.533 35.3068 185.321 35.1798 186.007 34.8845L185.217 33.0473ZM183.984 33.5C184.909 33.5 185.761 33.3183 186.493 32.8989L185.499 31.1636C185.14 31.3692 184.651 31.5 183.984 31.5V33.5ZM186.489 32.9011C187.179 32.5097 187.734 31.9824 188.111 31.3118L186.369 30.3303C186.19 30.6482 185.914 30.9278 185.503 31.1614L186.489 32.9011ZM188.107 31.3193C188.474 30.6805 188.666 29.9897 188.666 29.2614H186.666C186.666 29.6239 186.574 29.9729 186.373 30.3227L188.107 31.3193ZM188.666 29.2614V27.4205H186.666V29.2614H188.666ZM186.898 26.7803C186.943 26.7267 186.982 26.6961 186.999 26.6835C187.018 26.6705 187.025 26.6678 187.014 26.673C187.005 26.6779 186.984 26.6872 186.951 26.6999C186.917 26.7123 186.875 26.7267 186.822 26.7423L187.386 28.6611C187.565 28.6084 187.745 28.544 187.909 28.4619C188.063 28.3849 188.267 28.2611 188.434 28.0606L186.898 26.7803ZM186.834 26.7387C186.593 26.8063 186.3 26.8702 185.951 26.9284L186.279 28.9012C186.68 28.8343 187.046 28.7562 187.373 28.6647L186.834 26.7387ZM185.963 26.9264C185.601 26.982 185.249 27.032 184.905 27.0764L185.161 29.06C185.521 29.0134 185.89 28.9611 186.267 28.9031L185.963 26.9264ZM184.919 27.0747C184.569 27.1148 184.282 27.1496 184.058 27.179L184.319 29.1619C184.528 29.1345 184.803 29.1011 185.147 29.0617L184.919 27.0747ZM184.06 27.1789C183.478 27.2547 182.925 27.3791 182.403 27.5553L183.043 29.4503C183.43 29.3197 183.854 29.2226 184.318 29.1621L184.06 27.1789ZM182.41 27.553C181.825 27.7456 181.308 28.0536 180.898 28.4973L182.366 29.855C182.513 29.6964 182.723 29.5555 183.036 29.4527L182.41 27.553ZM180.897 28.4979C180.411 29.0242 180.223 29.6945 180.223 30.3864H182.223C182.223 30.0555 182.307 29.9189 182.367 29.8544L180.897 28.4979ZM180.223 30.3864C180.223 31.3707 180.609 32.226 181.429 32.7938L182.568 31.1494C182.354 31.0013 182.223 30.7997 182.223 30.3864H180.223ZM181.44 32.8009C182.167 33.2911 183.038 33.5 183.984 33.5V31.5C183.329 31.5 182.875 31.3566 182.557 31.1423L181.44 32.8009ZM193.263 38.8239L193.472 37.8458L193.462 37.8436L193.452 37.8417L193.263 38.8239ZM192.71 38.6705L191.749 38.3933L191.518 39.1928L192.262 39.5649L192.71 38.6705ZM193.221 36.8977L193.469 35.9289L192.529 35.6885L192.26 36.6206L193.221 36.8977ZM194.516 37.0341L194.426 36.0382L194.426 36.0382L194.516 37.0341ZM195.513 36.5312L194.806 35.8241L194.8 35.8309L194.793 35.8379L195.513 36.5312ZM196.323 35.0909L197.262 35.4359L197.262 35.4352L196.323 35.0909ZM196.698 34.0682L197.637 34.4124L197.763 34.0676L197.637 33.7229L196.698 34.0682ZM191.857 20.9091V19.9091H190.424L190.919 21.2543L191.857 20.9091ZM194.039 20.9091L194.984 20.5818L194.751 19.9091H194.039V20.9091ZM197.653 31.3409L196.708 31.6682L196.941 32.3409H197.653V31.3409ZM197.789 31.3409V32.3409H198.501L198.734 31.6682L197.789 31.3409ZM201.403 20.9091V19.9091H200.691L200.458 20.5818L201.403 20.9091ZM203.585 20.9091L204.522 21.2565L205.021 19.9091H203.585V20.9091ZM198.028 35.9091L197.09 35.5617L197.09 35.5623L198.028 35.9091ZM197.099 37.5881L196.33 36.9479L196.327 36.9527L197.099 37.5881ZM195.812 38.5852L195.408 37.6705L195.404 37.6723L195.812 38.5852ZM194.175 37.9091C193.888 37.9091 193.656 37.885 193.472 37.8458L193.055 39.802C193.405 39.8764 193.781 39.9091 194.175 39.9091V37.9091ZM193.452 37.8417C193.335 37.8193 193.25 37.7995 193.192 37.7834C193.163 37.7755 193.146 37.7698 193.137 37.7669C193.128 37.7635 193.137 37.7659 193.157 37.776L192.262 39.5649C192.5 39.6839 192.808 39.7548 193.075 39.806L193.452 37.8417ZM193.67 38.9476L194.182 37.1749L192.26 36.6206L191.749 38.3933L193.67 38.9476ZM192.973 37.8665C193.537 38.0108 194.087 38.0772 194.607 38.03L194.426 36.0382C194.196 36.0591 193.882 36.0347 193.469 35.9289L192.973 37.8665ZM194.607 38.03C195.248 37.9717 195.797 37.6787 196.234 37.2246L194.793 35.8379C194.65 35.9861 194.534 36.0283 194.426 36.0382L194.607 38.03ZM196.221 37.2384C196.666 36.7927 196.998 36.1548 197.262 35.4359L195.385 34.7459C195.16 35.3566 194.952 35.6788 194.806 35.8241L196.221 37.2384ZM197.262 35.4352L197.637 34.4124L195.759 33.7239L195.384 34.7467L197.262 35.4352ZM197.637 33.7229L192.796 20.5638L190.919 21.2543L195.76 34.4134L197.637 33.7229ZM191.857 21.9091H194.039V19.9091H191.857V21.9091ZM193.094 21.2364L196.708 31.6682L198.598 31.0136L194.984 20.5818L193.094 21.2364ZM197.653 32.3409H197.789V30.3409H197.653V32.3409ZM198.734 31.6682L202.348 21.2364L200.458 20.5818L196.844 31.0136L198.734 31.6682ZM201.403 21.9091H203.585V19.9091H201.403V21.9091ZM202.647 20.5617L197.09 35.5617L198.965 36.2565L204.522 21.2565L202.647 20.5617ZM197.09 35.5623C196.87 36.1572 196.611 36.6109 196.331 36.9479L197.867 38.2283C198.325 37.6789 198.686 37.0132 198.966 36.2559L197.09 35.5623ZM196.327 36.9527C196.047 37.2918 195.741 37.5232 195.408 37.6705L196.216 39.4999C196.86 39.2155 197.411 38.782 197.871 38.2234L196.327 36.9527ZM195.404 37.6723C195.067 37.8229 194.664 37.9091 194.175 37.9091V39.9091C194.903 39.9091 195.591 39.7794 196.22 39.4982L195.404 37.6723ZM215.512 23.8409L215.784 24.8031L216.794 24.5175L216.46 23.5229L215.512 23.8409ZM213.705 24.3523L212.77 24.7053L213.094 25.5646L213.978 25.3145L213.705 24.3523ZM213.202 23.4744L212.401 24.0719L212.407 24.0808L212.414 24.0895L213.202 23.4744ZM212.316 22.7585L212.763 21.8641L212.763 21.8641L212.316 22.7585ZM208.873 23.0312L209.44 23.855L209.442 23.8538L208.873 23.0312ZM208.626 25.6051L208.003 26.3872L208.003 26.3872L208.626 25.6051ZM210.33 26.3295L210.088 27.2997L210.092 27.3007L210.33 26.3295ZM212.273 26.8068L212.035 27.778L212.038 27.7786L212.273 26.8068ZM214.89 28.1108L214.176 28.8109L214.179 28.8144L214.89 28.1108ZM215.103 32.3636L214.296 31.7736L214.292 31.7787L215.103 32.3636ZM207.322 33.4034L207.874 32.5697L207.874 32.5697L207.322 33.4034ZM205.66 30.8636L205.417 29.8935L204.484 30.1268L204.681 31.0684L205.66 30.8636ZM207.569 30.3864L208.537 30.1365L208.289 29.1755L207.326 29.4162L207.569 30.3864ZM208.6 31.9716L208.029 32.7921L208.033 32.7951L208.6 31.9716ZM212.836 31.9034L213.421 32.7143L213.423 32.7132L212.836 31.9034ZM213.194 29.3125L212.493 30.026L212.5 30.0323L213.194 29.3125ZM211.728 28.6136L211.5 29.5873L211.501 29.5876L211.728 28.6136ZM209.546 28.1023L209.316 29.0753L209.318 29.0759L209.546 28.1023ZM206.904 26.7812L206.17 27.4601L206.177 27.4673L206.904 26.7812ZM206.691 22.5625L205.887 21.9676L205.883 21.9729L206.691 22.5625ZM208.404 21.2244L207.997 20.3109L207.995 20.3121L208.404 21.2244ZM213.927 21.5909L213.317 22.3835L213.32 22.3858L213.927 21.5909ZM215.24 22.8787L213.433 23.3901L213.978 25.3145L215.784 24.8031L215.24 22.8787ZM214.641 23.9992C214.488 23.5933 214.267 23.2136 213.991 22.8594L212.414 24.0895C212.581 24.3035 212.696 24.5089 212.77 24.7053L214.641 23.9992ZM214.004 22.877C213.681 22.4432 213.256 22.1103 212.763 21.8641L211.869 23.6529C212.126 23.7818 212.292 23.9261 212.401 24.0719L214.004 22.877ZM212.763 21.8641C212.206 21.5853 211.558 21.4773 210.876 21.4773V23.4773C211.363 23.4773 211.677 23.5568 211.869 23.6529L212.763 21.8641ZM210.876 21.4773C209.919 21.4773 209.041 21.6993 208.304 22.2087L209.442 23.8538C209.773 23.6246 210.23 23.4773 210.876 23.4773V21.4773ZM208.306 22.2075C207.551 22.7273 207.08 23.4786 207.08 24.4205H209.08C209.08 24.2373 209.138 24.0625 209.44 23.855L208.306 22.2075ZM207.08 24.4205C207.08 25.1986 207.381 25.8918 208.003 26.3872L209.249 24.8231C209.143 24.7389 209.08 24.6424 209.08 24.4205H207.08ZM208.003 26.3872C208.531 26.8083 209.261 27.0931 210.088 27.2997L210.573 25.3594C209.854 25.1796 209.448 24.9815 209.249 24.8231L208.003 26.3872ZM210.092 27.3007L212.035 27.778L212.512 25.8357L210.569 25.3584L210.092 27.3007ZM212.038 27.7786C213.106 28.0381 213.781 28.4078 214.176 28.8109L215.604 27.4107C214.851 26.6433 213.781 26.1438 212.509 25.835L212.038 27.7786ZM214.179 28.8144C214.545 29.1833 214.751 29.6661 214.751 30.3523H216.751C216.751 29.2089 216.383 28.1974 215.6 27.4072L214.179 28.8144ZM214.751 30.3523C214.751 30.8958 214.599 31.3585 214.296 31.7736L215.91 32.9537C216.471 32.187 216.751 31.3088 216.751 30.3523H214.751ZM214.292 31.7787C213.984 32.2055 213.537 32.5674 212.907 32.8476L213.719 34.6752C214.623 34.2735 215.37 33.7036 215.914 32.9486L214.292 31.7787ZM212.907 32.8476C212.292 33.1209 211.543 33.2727 210.637 33.2727V35.2727C211.765 35.2727 212.8 35.0836 213.719 34.6752L212.907 32.8476ZM210.637 33.2727C209.445 33.2727 208.546 33.0147 207.874 32.5697L206.77 34.2371C207.848 34.9512 209.159 35.2727 210.637 35.2727V33.2727ZM207.874 32.5697C207.238 32.1484 206.823 31.5387 206.639 30.6589L204.681 31.0684C204.963 32.4158 205.656 33.4993 206.77 34.2371L207.874 32.5697ZM205.902 31.8338L207.811 31.3565L207.326 29.4162L205.417 29.8935L205.902 31.8338ZM206.601 30.6362C206.831 31.5283 207.292 32.2793 208.029 32.7921L209.172 31.1511C208.897 30.9594 208.671 30.6535 208.537 30.1365L206.601 30.6362ZM208.033 32.7951C208.758 33.2945 209.642 33.5 210.603 33.5V31.5C209.917 31.5 209.465 31.3533 209.167 31.1481L208.033 32.7951ZM210.603 33.5C211.673 33.5 212.646 33.2738 213.421 32.7143L212.251 31.0925C211.924 31.3285 211.408 31.5 210.603 31.5V33.5ZM213.423 32.7132C214.174 32.1688 214.671 31.4102 214.671 30.4545H212.671C212.671 30.6239 212.611 30.8312 212.249 31.0936L213.423 32.7132ZM214.671 30.4545C214.671 29.7371 214.408 29.0939 213.888 28.5927L212.5 30.0323C212.616 30.1448 212.671 30.2629 212.671 30.4545H214.671ZM213.895 28.5991C213.394 28.1076 212.707 27.8148 211.955 27.6397L211.501 29.5876C212.067 29.7193 212.357 29.8924 212.493 30.0259L213.895 28.5991ZM211.956 27.64L209.774 27.1287L209.318 29.0759L211.5 29.5873L211.956 27.64ZM209.777 27.1292C208.679 26.869 208.009 26.4949 207.632 26.0952L206.177 27.4673C206.925 28.2608 208.016 28.7674 209.316 29.0753L209.777 27.1292ZM207.638 26.1024C207.27 25.7043 207.069 25.2022 207.069 24.5227H205.069C205.069 25.6501 205.424 26.6537 206.17 27.4601L207.638 26.1024ZM207.069 24.5227C207.069 23.9848 207.215 23.5402 207.499 23.1521L205.883 21.9729C205.337 22.7212 205.069 23.5834 205.069 24.5227H207.069ZM207.495 23.1573C207.802 22.7429 208.23 22.3989 208.814 22.1368L207.995 20.3121C207.136 20.6977 206.421 21.2458 205.887 21.9677L207.495 23.1573ZM208.811 22.1379C209.392 21.8793 210.074 21.7386 210.876 21.7386V19.7386C209.837 19.7386 208.871 19.9218 207.997 20.3109L208.811 22.1379ZM210.876 21.7386C212.035 21.7386 212.81 21.9935 213.317 22.3835L214.537 20.7983C213.566 20.0519 212.307 19.7386 210.876 19.7386V21.7386ZM213.32 22.3858C213.897 22.8265 214.312 23.4066 214.564 24.1589L216.46 23.5229C216.087 22.4115 215.445 21.4917 214.534 20.796L213.32 22.3858Z" fill="#F5F5F5" mask="url(#path-2-outside-1_8_23)"/>
</g>
</g>
<defs>
<filter id="filter0_d_8_23" x="0" y="0" width="245" height="59" filterUnits="userSpaceOnUse" color-interpolation-filters="sRGB">
<feFlood flood-opacity="0" result="BackgroundImageFix"/>
<feColorMatrix in="SourceAlpha" type="matrix" values="0 0 0 0 0 0 0 0 0 0 0 0 0 0 0 0 0 0 127 0" result="hardAlpha"/>
<feOffset dy="4"/>
<feGaussianBlur stdDeviation="2"/>
<feComposite in2="hardAlpha" operator="out"/>
<feColorMatrix type="matrix" values="0 0 0 0 0 0 0 0 0 0 0 0 0 0 0 0 0 0 0.25 0"/>
<feBlend mode="normal" in2="BackgroundImageFix" result="effect1_dropShadow_8_23"/>
<feBlend mode="normal" in="SourceGraphic" in2="effect1_dropShadow_8_23" result="shape"/>
</filter>
<filter id="filter1_d_8_23" x="20.4318" y="15.3068" width="200.362" height="32.875" filterUnits="userSpaceOnUse" color-interpolation-filters="sRGB">
<feFlood flood-opacity="0" result="BackgroundImageFix"/>
<feColorMatrix in="SourceAlpha" type="matrix" values="0 0 0 0 0 0 0 0 0 0 0 0 0 0 0 0 0 0 127 0" result="hardAlpha"/>
<feOffset dy="4"/>
<feGaussianBlur stdDeviation="2"/>
<feComposite in2="hardAlpha" operator="out"/>
<feColorMatrix type="matrix" values="0 0 0 0 0 0 0 0 0 0 0 0 0 0 0 0 0 0 0.25 0"/>
<feBlend mode="normal" in2="BackgroundImageFix" result="effect1_dropShadow_8_23"/>
<feBlend mode="normal" in="SourceGraphic" in2="effect1_dropShadow_8_23" result="shape"/>
</filter>
<linearGradient id="paint0_linear_8_23" x1="4" y1="25.5" x2="241" y2="25.5" gradientUnits="userSpaceOnUse">
<stop stop-color="#FE080D"/>
<stop offset="1" stop-color="#8D2F24"/>
</linearGradient>
<linearGradient id="paint1_linear_8_23" x1="123" y1="11" x2="123" y2="40" gradientUnits="userSpaceOnUse">
<stop offset="0.14" stop-color="#FF0000"/>
<stop offset="0.575" stop-color="#FF8C00"/>
</linearGradient>
</defs>
</svg>
