<svg width="340" height="70" viewBox="0 0 340 70" fill="none" xmlns="http://www.w3.org/2000/svg">
<rect x="2.5" y="2.5" width="335" height="65" rx="32.5" fill="#2711ED" stroke="black" stroke-width="5"/>
<mask id="path-2-outside-1_14_1383" maskUnits="userSpaceOnUse" x="137" y="22" width="66" height="26" fill="black">
<rect fill="white" x="137" y="22" width="66" height="26"/>
<path d="M142.761 42V27.4545H151.54V29.017H144.523V33.9318H151.085V35.4943H144.523V40.4375H151.653V42H142.761ZM156.163 35.4375V42H154.487V31.0909H156.107V32.7955H156.249C156.504 32.2415 156.893 31.7964 157.413 31.4602C157.934 31.1193 158.607 30.9489 159.43 30.9489C160.169 30.9489 160.815 31.1004 161.369 31.4034C161.923 31.7017 162.354 32.1562 162.662 32.767C162.97 33.3731 163.124 34.1402 163.124 35.0682V42H161.447V35.1818C161.447 34.3248 161.225 33.6572 160.78 33.179C160.335 32.696 159.724 32.4545 158.947 32.4545C158.412 32.4545 157.934 32.5705 157.513 32.8026C157.096 33.0346 156.767 33.3731 156.526 33.8182C156.284 34.2633 156.163 34.803 156.163 35.4375ZM170.931 31.0909V32.5114H165.277V31.0909H170.931ZM166.925 28.4773H168.601V38.875C168.601 39.3485 168.67 39.7036 168.807 39.9403C168.949 40.1723 169.129 40.3286 169.347 40.4091C169.569 40.4848 169.804 40.5227 170.05 40.5227C170.235 40.5227 170.386 40.5133 170.505 40.4943C170.623 40.4706 170.718 40.4517 170.789 40.4375L171.13 41.9432C171.016 41.9858 170.857 42.0284 170.654 42.071C170.45 42.1184 170.192 42.142 169.88 42.142C169.406 42.142 168.942 42.0402 168.488 41.8366C168.038 41.633 167.664 41.3229 167.365 40.9062C167.072 40.4896 166.925 39.964 166.925 39.3295V28.4773ZM173.452 42V31.0909H175.071V32.7386H175.185C175.384 32.1989 175.744 31.7609 176.265 31.4247C176.785 31.0885 177.373 30.9205 178.026 30.9205C178.149 30.9205 178.303 30.9228 178.488 30.9276C178.672 30.9323 178.812 30.9394 178.907 30.9489V32.6534C178.85 32.6392 178.72 32.6179 178.516 32.5895C178.317 32.5563 178.106 32.5398 177.884 32.5398C177.354 32.5398 176.88 32.651 176.463 32.8736C176.051 33.0914 175.725 33.3944 175.483 33.7827C175.247 34.1662 175.128 34.6042 175.128 35.0966V42H173.452ZM184.104 42.2557C183.412 42.2557 182.785 42.1255 182.222 41.8651C181.658 41.5999 181.211 41.2188 180.879 40.7216C180.548 40.2197 180.382 39.6136 180.382 38.9034C180.382 38.2784 180.505 37.7718 180.751 37.3835C180.998 36.9905 181.327 36.6828 181.739 36.4602C182.151 36.2377 182.605 36.072 183.102 35.9631C183.604 35.8494 184.108 35.7595 184.615 35.6932C185.278 35.608 185.815 35.544 186.227 35.5014C186.644 35.4541 186.947 35.3759 187.136 35.267C187.33 35.1581 187.428 34.9687 187.428 34.6989V34.642C187.428 33.9413 187.236 33.3968 186.852 33.0085C186.473 32.6203 185.898 32.4261 185.126 32.4261C184.326 32.4261 183.699 32.6013 183.244 32.9517C182.79 33.3021 182.47 33.6761 182.286 34.0739L180.695 33.5057C180.979 32.8428 181.357 32.3267 181.831 31.9574C182.309 31.5833 182.83 31.3229 183.393 31.1761C183.962 31.0246 184.52 30.9489 185.07 30.9489C185.42 30.9489 185.822 30.9915 186.277 31.0767C186.736 31.1572 187.179 31.3253 187.605 31.581C188.036 31.8366 188.393 32.2225 188.678 32.7386C188.962 33.2547 189.104 33.946 189.104 34.8125V42H187.428V40.5227H187.342C187.229 40.7595 187.039 41.0128 186.774 41.2827C186.509 41.5526 186.156 41.7822 185.716 41.9716C185.276 42.161 184.738 42.2557 184.104 42.2557ZM184.359 40.75C185.022 40.75 185.581 40.6198 186.036 40.3594C186.495 40.099 186.84 39.7628 187.072 39.3509C187.309 38.9389 187.428 38.5057 187.428 38.0511V36.517C187.357 36.6023 187.2 36.6804 186.959 36.7514C186.722 36.8177 186.447 36.8769 186.135 36.929C185.827 36.9763 185.527 37.0189 185.233 37.0568C184.944 37.09 184.71 37.1184 184.53 37.142C184.094 37.1989 183.687 37.2912 183.308 37.419C182.934 37.5421 182.631 37.7292 182.399 37.9801C182.172 38.2263 182.058 38.5625 182.058 38.9886C182.058 39.571 182.274 40.0114 182.705 40.3097C183.14 40.6032 183.692 40.75 184.359 40.75ZM192.163 42V31.0909H193.782V32.7386H193.896C194.095 32.1989 194.455 31.7609 194.975 31.4247C195.496 31.0885 196.083 30.9205 196.737 30.9205C196.86 30.9205 197.014 30.9228 197.199 30.9276C197.383 30.9323 197.523 30.9394 197.618 30.9489V32.6534C197.561 32.6392 197.431 32.6179 197.227 32.5895C197.028 32.5563 196.817 32.5398 196.595 32.5398C196.065 32.5398 195.591 32.651 195.174 32.8736C194.762 33.0914 194.436 33.3944 194.194 33.7827C193.958 34.1662 193.839 34.6042 193.839 35.0966V42H192.163Z"/>
</mask>
<path d="M142.761 42V27.4545H151.54V29.017H144.523V33.9318H151.085V35.4943H144.523V40.4375H151.653V42H142.761ZM156.163 35.4375V42H154.487V31.0909H156.107V32.7955H156.249C156.504 32.2415 156.893 31.7964 157.413 31.4602C157.934 31.1193 158.607 30.9489 159.43 30.9489C160.169 30.9489 160.815 31.1004 161.369 31.4034C161.923 31.7017 162.354 32.1562 162.662 32.767C162.97 33.3731 163.124 34.1402 163.124 35.0682V42H161.447V35.1818C161.447 34.3248 161.225 33.6572 160.78 33.179C160.335 32.696 159.724 32.4545 158.947 32.4545C158.412 32.4545 157.934 32.5705 157.513 32.8026C157.096 33.0346 156.767 33.3731 156.526 33.8182C156.284 34.2633 156.163 34.803 156.163 35.4375ZM170.931 31.0909V32.5114H165.277V31.0909H170.931ZM166.925 28.4773H168.601V38.875C168.601 39.3485 168.67 39.7036 168.807 39.9403C168.949 40.1723 169.129 40.3286 169.347 40.4091C169.569 40.4848 169.804 40.5227 170.05 40.5227C170.235 40.5227 170.386 40.5133 170.505 40.4943C170.623 40.4706 170.718 40.4517 170.789 40.4375L171.13 41.9432C171.016 41.9858 170.857 42.0284 170.654 42.071C170.45 42.1184 170.192 42.142 169.88 42.142C169.406 42.142 168.942 42.0402 168.488 41.8366C168.038 41.633 167.664 41.3229 167.365 40.9062C167.072 40.4896 166.925 39.964 166.925 39.3295V28.4773ZM173.452 42V31.0909H175.071V32.7386H175.185C175.384 32.1989 175.744 31.7609 176.265 31.4247C176.785 31.0885 177.373 30.9205 178.026 30.9205C178.149 30.9205 178.303 30.9228 178.488 30.9276C178.672 30.9323 178.812 30.9394 178.907 30.9489V32.6534C178.85 32.6392 178.72 32.6179 178.516 32.5895C178.317 32.5563 178.106 32.5398 177.884 32.5398C177.354 32.5398 176.88 32.651 176.463 32.8736C176.051 33.0914 175.725 33.3944 175.483 33.7827C175.247 34.1662 175.128 34.6042 175.128 35.0966V42H173.452ZM184.104 42.2557C183.412 42.2557 182.785 42.1255 182.222 41.8651C181.658 41.5999 181.211 41.2188 180.879 40.7216C180.548 40.2197 180.382 39.6136 180.382 38.9034C180.382 38.2784 180.505 37.7718 180.751 37.3835C180.998 36.9905 181.327 36.6828 181.739 36.4602C182.151 36.2377 182.605 36.072 183.102 35.9631C183.604 35.8494 184.108 35.7595 184.615 35.6932C185.278 35.608 185.815 35.544 186.227 35.5014C186.644 35.4541 186.947 35.3759 187.136 35.267C187.33 35.1581 187.428 34.9687 187.428 34.6989V34.642C187.428 33.9413 187.236 33.3968 186.852 33.0085C186.473 32.6203 185.898 32.4261 185.126 32.4261C184.326 32.4261 183.699 32.6013 183.244 32.9517C182.79 33.3021 182.47 33.6761 182.286 34.0739L180.695 33.5057C180.979 32.8428 181.357 32.3267 181.831 31.9574C182.309 31.5833 182.83 31.3229 183.393 31.1761C183.962 31.0246 184.52 30.9489 185.07 30.9489C185.42 30.9489 185.822 30.9915 186.277 31.0767C186.736 31.1572 187.179 31.3253 187.605 31.581C188.036 31.8366 188.393 32.2225 188.678 32.7386C188.962 33.2547 189.104 33.946 189.104 34.8125V42H187.428V40.5227H187.342C187.229 40.7595 187.039 41.0128 186.774 41.2827C186.509 41.5526 186.156 41.7822 185.716 41.9716C185.276 42.161 184.738 42.2557 184.104 42.2557ZM184.359 40.75C185.022 40.75 185.581 40.6198 186.036 40.3594C186.495 40.099 186.84 39.7628 187.072 39.3509C187.309 38.9389 187.428 38.5057 187.428 38.0511V36.517C187.357 36.6023 187.2 36.6804 186.959 36.7514C186.722 36.8177 186.447 36.8769 186.135 36.929C185.827 36.9763 185.527 37.0189 185.233 37.0568C184.944 37.09 184.71 37.1184 184.53 37.142C184.094 37.1989 183.687 37.2912 183.308 37.419C182.934 37.5421 182.631 37.7292 182.399 37.9801C182.172 38.2263 182.058 38.5625 182.058 38.9886C182.058 39.571 182.274 40.0114 182.705 40.3097C183.14 40.6032 183.692 40.75 184.359 40.75ZM192.163 42V31.0909H193.782V32.7386H193.896C194.095 32.1989 194.455 31.7609 194.975 31.4247C195.496 31.0885 196.083 30.9205 196.737 30.9205C196.86 30.9205 197.014 30.9228 197.199 30.9276C197.383 30.9323 197.523 30.9394 197.618 30.9489V32.6534C197.561 32.6392 197.431 32.6179 197.227 32.5895C197.028 32.5563 196.817 32.5398 196.595 32.5398C196.065 32.5398 195.591 32.651 195.174 32.8736C194.762 33.0914 194.436 33.3944 194.194 33.7827C193.958 34.1662 193.839 34.6042 193.839 35.0966V42H192.163Z" fill="white"/>
<path d="M142.761 42H137.761V47H142.761V42ZM142.761 27.4545V22.4545H137.761V27.4545H142.761ZM151.54 27.4545H156.54V22.4545H151.54V27.4545ZM151.54 29.017V34.017H156.54V29.017H151.54ZM144.523 29.017V24.017H139.523V29.017H144.523ZM144.523 33.9318H139.523V38.9318H144.523V33.9318ZM151.085 33.9318H156.085V28.9318H151.085V33.9318ZM151.085 35.4943V40.4943H156.085V35.4943H151.085ZM144.523 35.4943V30.4943H139.523V35.4943H144.523ZM144.523 40.4375H139.523V45.4375H144.523V40.4375ZM151.653 40.4375H156.653V35.4375H151.653V40.4375ZM151.653 42V47H156.653V42H151.653ZM147.761 42V27.4545H137.761V42H147.761ZM142.761 32.4545H151.54V22.4545H142.761V32.4545ZM146.54 27.4545V29.017H156.54V27.4545H146.54ZM151.54 24.017H144.523V34.017H151.54V24.017ZM139.523 29.017V33.9318H149.523V29.017H139.523ZM144.523 38.9318H151.085V28.9318H144.523V38.9318ZM146.085 33.9318V35.4943H156.085V33.9318H146.085ZM151.085 30.4943H144.523V40.4943H151.085V30.4943ZM139.523 35.4943V40.4375H149.523V35.4943H139.523ZM144.523 45.4375H151.653V35.4375H144.523V45.4375ZM146.653 40.4375V42H156.653V40.4375H146.653ZM151.653 37H142.761V47H151.653V37ZM156.163 42V47H161.163V42H156.163ZM154.487 42H149.487V47H154.487V42ZM154.487 31.0909V26.0909H149.487V31.0909H154.487ZM156.107 31.0909H161.107V26.0909H156.107V31.0909ZM156.107 32.7955H151.107V37.7955H156.107V32.7955ZM156.249 32.7955V37.7955H159.448L160.788 34.8907L156.249 32.7955ZM157.413 31.4602L160.125 35.6611L160.138 35.6525L160.152 35.6437L157.413 31.4602ZM161.369 31.4034L158.97 35.79L158.984 35.7979L158.999 35.8058L161.369 31.4034ZM162.662 32.767L158.197 35.0169L158.2 35.0239L158.204 35.0309L162.662 32.767ZM163.124 42V47H168.124V42H163.124ZM161.447 42H156.447V47H161.447V42ZM160.78 33.179L157.103 36.5674L157.111 36.5764L157.12 36.5854L160.78 33.179ZM157.513 32.8026L155.101 28.4225L155.091 28.4283L155.08 28.4341L157.513 32.8026ZM156.526 33.8182L152.131 31.4338L156.526 33.8182ZM151.163 35.4375V42H161.163V35.4375H151.163ZM156.163 37H154.487V47H156.163V37ZM159.487 42V31.0909H149.487V42H159.487ZM154.487 36.0909H156.107V26.0909H154.487V36.0909ZM151.107 31.0909V32.7955H161.107V31.0909H151.107ZM156.107 37.7955H156.249V27.7955H156.107V37.7955ZM160.788 34.8907C160.724 35.0313 160.628 35.1854 160.499 35.333C160.371 35.4802 160.238 35.5881 160.125 35.6611L154.702 27.2593C153.398 28.1011 152.369 29.2706 151.709 30.7002L160.788 34.8907ZM160.152 35.6437C159.634 35.9826 159.271 35.9489 159.43 35.9489V25.9489C157.942 25.9489 156.234 26.256 154.675 27.2767L160.152 35.6437ZM159.43 35.9489C159.458 35.9489 159.418 35.9517 159.328 35.9305C159.234 35.9086 159.108 35.8658 158.97 35.79L163.769 27.0168C162.363 26.2479 160.865 25.9489 159.43 25.9489V35.9489ZM158.999 35.8058C158.81 35.7041 158.631 35.568 158.479 35.4078C158.33 35.2504 158.242 35.107 158.197 35.0169L167.127 30.5171C166.4 29.0748 165.275 27.8278 163.74 27.0011L158.999 35.8058ZM158.204 35.0309C158.124 34.8737 158.105 34.7763 158.106 34.7804C158.106 34.782 158.111 34.8056 158.115 34.8544C158.12 34.9032 158.124 34.9737 158.124 35.0682H168.124C168.124 33.6262 167.89 32.0191 167.12 30.5032L158.204 35.0309ZM158.124 35.0682V42H168.124V35.0682H158.124ZM163.124 37H161.447V47H163.124V37ZM166.447 42V35.1818H156.447V42H166.447ZM166.447 35.1818C166.447 33.4659 165.987 31.4352 164.44 29.7726L157.12 36.5854C156.818 36.2611 156.634 35.9114 156.537 35.6195C156.491 35.4818 156.469 35.3708 156.458 35.2967C156.447 35.2233 156.447 35.1827 156.447 35.1818H166.447ZM164.457 29.7906C162.892 28.0927 160.843 27.4545 158.947 27.4545V37.4545C158.819 37.4545 158.526 37.4341 158.15 37.2855C157.755 37.1295 157.391 36.8794 157.103 36.5674L164.457 29.7906ZM158.947 27.4545C157.666 27.4545 156.342 27.7397 155.101 28.4225L159.924 37.1826C159.527 37.4014 159.159 37.4545 158.947 37.4545V27.4545ZM155.08 28.4341C153.783 29.1568 152.796 30.2084 152.131 31.4338L160.92 36.2026C160.839 36.3532 160.715 36.5338 160.539 36.7155C160.361 36.8988 160.158 37.0526 159.945 37.171L155.08 28.4341ZM152.131 31.4338C151.404 32.7734 151.163 34.1772 151.163 35.4375H161.163C161.163 35.4289 161.164 35.7531 160.92 36.2026L152.131 31.4338ZM170.931 31.0909H175.931V26.0909H170.931V31.0909ZM170.931 32.5114V37.5114H175.931V32.5114H170.931ZM165.277 32.5114H160.277V37.5114H165.277V32.5114ZM165.277 31.0909V26.0909H160.277V31.0909H165.277ZM166.925 28.4773V23.4773H161.925V28.4773H166.925ZM168.601 28.4773H173.601V23.4773H168.601V28.4773ZM168.807 39.9403L164.482 42.4489L164.512 42.5004L164.543 42.5511L168.807 39.9403ZM169.347 40.4091L167.614 45.0991L167.674 45.1215L167.736 45.1423L169.347 40.4091ZM170.505 40.4943L171.295 45.4315L171.39 45.4162L171.485 45.3972L170.505 40.4943ZM170.789 40.4375L175.665 39.3334L174.589 34.5785L169.808 35.5346L170.789 40.4375ZM171.13 41.9432L172.885 46.6248L176.969 45.0933L176.006 40.8391L171.13 41.9432ZM170.654 42.071L169.629 37.1771L169.575 37.1884L169.521 37.201L170.654 42.071ZM168.488 41.8366L166.426 46.3918L166.435 46.3958L166.444 46.3998L168.488 41.8366ZM167.365 40.9062L163.278 43.786L163.289 43.8015L163.3 43.8168L167.365 40.9062ZM165.931 31.0909V32.5114H175.931V31.0909H165.931ZM170.931 27.5114H165.277V37.5114H170.931V27.5114ZM170.277 32.5114V31.0909H160.277V32.5114H170.277ZM165.277 36.0909H170.931V26.0909H165.277V36.0909ZM166.925 33.4773H168.601V23.4773H166.925V33.4773ZM163.601 28.4773V38.875H173.601V28.4773H163.601ZM163.601 38.875C163.601 39.668 163.687 41.0788 164.482 42.4489L173.132 37.4318C173.418 37.9242 173.522 38.3421 173.562 38.5474C173.584 38.6597 173.593 38.7446 173.597 38.795C173.601 38.8461 173.601 38.8741 173.601 38.875H163.601ZM164.543 42.5511C165.166 43.5694 166.169 44.565 167.614 45.0991L171.08 35.7191C172.09 36.0922 172.732 36.7752 173.071 37.3296L164.543 42.5511ZM167.736 45.1423C168.501 45.403 169.282 45.5227 170.05 45.5227V35.5227C170.326 35.5227 170.638 35.5667 170.958 35.6758L167.736 45.1423ZM170.05 45.5227C170.374 45.5227 170.815 45.5082 171.295 45.4315L169.715 35.5571C169.849 35.5356 169.946 35.5281 169.99 35.5254C170.038 35.5224 170.06 35.5227 170.05 35.5227V45.5227ZM171.485 45.3972C171.604 45.3735 171.698 45.3546 171.769 45.3404L169.808 35.5346C169.737 35.5488 169.642 35.5677 169.524 35.5914L171.485 45.3972ZM165.912 41.5416L166.253 43.0473L176.006 40.8391L175.665 39.3334L165.912 41.5416ZM169.374 37.2615C169.445 37.2348 169.503 37.2158 169.542 37.2035C169.582 37.191 169.612 37.1828 169.628 37.1783C169.659 37.17 169.662 37.1702 169.629 37.1771L171.678 46.965C171.982 46.9014 172.424 46.7977 172.885 46.6248L169.374 37.2615ZM169.521 37.201C169.687 37.1624 169.804 37.1495 169.851 37.1452C169.901 37.1406 169.913 37.142 169.88 37.142V47.142C170.405 47.142 171.077 47.1059 171.786 46.9411L169.521 37.201ZM169.88 37.142C170.147 37.142 170.377 37.2044 170.531 37.2735L166.444 46.3998C167.507 46.8761 168.665 47.142 169.88 47.142V37.142ZM170.549 37.2815C170.724 37.3607 170.899 37.4681 171.061 37.6023C171.222 37.7358 171.344 37.874 171.431 37.9957L163.3 43.8168C164.09 44.92 165.144 45.8116 166.426 46.3918L170.549 37.2815ZM171.453 38.0265C171.885 38.6394 171.925 39.1877 171.925 39.3295H161.925C161.925 40.7404 162.259 42.3398 163.278 43.786L171.453 38.0265ZM171.925 39.3295V28.4773H161.925V39.3295H171.925ZM173.452 42H168.452V47H173.452V42ZM173.452 31.0909V26.0909H168.452V31.0909H173.452ZM175.071 31.0909H180.071V26.0909H175.071V31.0909ZM175.071 32.7386H170.071V37.7386H175.071V32.7386ZM175.185 32.7386V37.7386H178.671L179.877 34.4672L175.185 32.7386ZM176.265 31.4247L173.553 27.2238L173.553 27.2238L176.265 31.4247ZM178.907 30.9489H183.907V26.4239L179.404 25.9737L178.907 30.9489ZM178.907 32.6534L177.694 37.5041L183.907 39.0573V32.6534H178.907ZM178.516 32.5895L177.694 37.5215L177.759 37.5324L177.825 37.5415L178.516 32.5895ZM176.463 32.8736L178.801 37.2938L178.81 37.2889L178.819 37.284L176.463 32.8736ZM175.483 33.7827L171.238 31.142L171.233 31.1491L171.229 31.1563L175.483 33.7827ZM175.128 42V47H180.128V42H175.128ZM178.452 42V31.0909H168.452V42H178.452ZM173.452 36.0909H175.071V26.0909H173.452V36.0909ZM170.071 31.0909V32.7386H180.071V31.0909H170.071ZM175.071 37.7386H175.185V27.7386H175.071V37.7386ZM179.877 34.4672C179.786 34.7142 179.648 34.9598 179.467 35.1795C179.29 35.3959 179.11 35.5392 178.976 35.6256L173.553 27.2238C172.197 28.0993 171.097 29.3726 170.493 31.0101L179.877 34.4672ZM178.976 35.6256C178.83 35.72 178.658 35.8001 178.472 35.8534C178.288 35.9061 178.132 35.9205 178.026 35.9205V25.9205C176.465 25.9205 174.927 26.3371 173.553 27.2238L178.976 35.6256ZM178.026 35.9205C178.091 35.9205 178.199 35.9218 178.359 35.9259L178.616 25.9292C178.407 25.9239 178.207 25.9205 178.026 25.9205V35.9205ZM178.359 35.9259C178.39 35.9267 178.415 35.9275 178.435 35.9282C178.456 35.929 178.469 35.9296 178.477 35.93C178.485 35.9304 178.484 35.9304 178.474 35.9298C178.466 35.9292 178.443 35.9275 178.409 35.924L179.404 25.9737C179.121 25.9453 178.832 25.9347 178.616 25.9292L178.359 35.9259ZM173.907 30.9489V32.6534H183.907V30.9489H173.907ZM180.119 27.8027C179.752 27.7109 179.336 27.6555 179.207 27.6375L177.825 37.5415C177.864 37.5469 177.895 37.5514 177.918 37.5549C177.943 37.5585 177.955 37.5606 177.959 37.5611C177.964 37.562 177.948 37.5595 177.918 37.5537C177.901 37.5506 177.875 37.5455 177.842 37.5384C177.81 37.5317 177.759 37.5203 177.694 37.5041L180.119 27.8027ZM179.338 27.6575C178.841 27.5747 178.354 27.5398 177.884 27.5398V37.5398C177.859 37.5398 177.793 37.538 177.694 37.5215L179.338 27.6575ZM177.884 27.5398C176.634 27.5398 175.334 27.8081 174.108 28.4632L178.819 37.284C178.426 37.494 178.073 37.5398 177.884 37.5398V27.5398ZM174.126 28.4534C172.948 29.0767 171.956 29.9871 171.238 31.142L179.729 36.4234C179.494 36.8017 179.155 37.1061 178.801 37.2938L174.126 28.4534ZM171.229 31.1563C170.46 32.4016 170.128 33.7654 170.128 35.0966H180.128C180.128 35.4429 180.033 35.9308 179.738 36.409L171.229 31.1563ZM170.128 35.0966V42H180.128V35.0966H170.128ZM175.128 37H173.452V47H175.128V37ZM182.222 41.8651L180.093 46.3892L180.108 46.3965L180.124 46.4037L182.222 41.8651ZM180.879 40.7216L176.707 43.4769L176.713 43.486L176.719 43.4951L180.879 40.7216ZM180.751 37.3835L184.974 40.0612L184.981 40.0497L184.989 40.0381L180.751 37.3835ZM183.102 35.9631L184.172 40.8473L184.189 40.8435L184.206 40.8396L183.102 35.9631ZM184.615 35.6932L183.977 30.734L183.966 30.7354L184.615 35.6932ZM186.227 35.5014L186.742 40.4749L186.767 40.4723L186.792 40.4694L186.227 35.5014ZM187.136 35.267L184.69 30.9063L184.667 30.9193L184.644 30.9325L187.136 35.267ZM186.852 33.0085L183.273 36.5001L183.284 36.5113L183.295 36.5223L186.852 33.0085ZM183.244 32.9517L186.297 36.9118V36.9118L183.244 32.9517ZM182.286 34.0739L180.604 38.7826L184.9 40.3168L186.821 36.1794L182.286 34.0739ZM180.695 33.5057L176.099 31.5361L174.003 36.4253L179.013 38.2144L180.695 33.5057ZM181.831 31.9574L184.906 35.8999L184.911 35.8957L181.831 31.9574ZM183.393 31.1761L184.654 36.0147L184.668 36.011L184.682 36.0073L183.393 31.1761ZM186.277 31.0767L185.356 35.9911L185.385 35.9965L185.414 36.0016L186.277 31.0767ZM187.605 31.581L185.033 35.8684L185.043 35.8747L185.054 35.8809L187.605 31.581ZM188.678 32.7386L184.297 35.1498L184.297 35.1498L188.678 32.7386ZM189.104 42V47H194.104V42H189.104ZM187.428 42H182.428V47H187.428V42ZM187.428 40.5227H192.428V35.5227H187.428V40.5227ZM187.342 40.5227V35.5227H184.196L182.835 38.3591L187.342 40.5227ZM186.774 41.2827L190.341 44.7868L190.341 44.7868L186.774 41.2827ZM185.716 41.9716L183.74 37.3784L185.716 41.9716ZM186.036 40.3594L183.569 36.0099L183.56 36.0154L183.55 36.0209L186.036 40.3594ZM187.072 39.3509L182.737 36.8594L182.727 36.8783L182.716 36.8972L187.072 39.3509ZM187.428 36.517H192.428V22.7067L183.586 33.3161L187.428 36.517ZM186.959 36.7514L188.307 41.5662L188.338 41.5574L188.37 41.5482L186.959 36.7514ZM186.135 36.929L186.895 41.8708L186.926 41.8661L186.957 41.8609L186.135 36.929ZM185.233 37.0568L185.803 42.0242L185.838 42.0202L185.873 42.0157L185.233 37.0568ZM184.53 37.142L185.177 42.1L185.182 42.0993L184.53 37.142ZM183.308 37.419L184.871 42.1684L184.889 42.1625L184.907 42.1565L183.308 37.419ZM182.399 37.9801L178.728 34.5858L178.725 34.5887L182.399 37.9801ZM182.705 40.3097L179.858 44.4206L179.884 44.4385L179.91 44.456L182.705 40.3097ZM184.104 37.2557C184.073 37.2557 184.085 37.2529 184.131 37.2624C184.178 37.2722 184.244 37.2917 184.319 37.3264L180.124 46.4037C181.416 47.001 182.771 47.2557 184.104 47.2557V37.2557ZM184.351 37.341C184.446 37.386 184.572 37.4605 184.706 37.5741C184.84 37.6886 184.953 37.8181 185.04 37.9481L176.719 43.4951C177.577 44.7826 178.742 45.7534 180.093 46.3892L184.351 37.341ZM185.052 37.9663C185.19 38.1762 185.279 38.3876 185.329 38.5718C185.378 38.7502 185.382 38.87 185.382 38.9034H175.382C175.382 40.4128 175.744 42.0188 176.707 43.4769L185.052 37.9663ZM185.382 38.9034C185.382 38.9127 185.382 39.0347 185.333 39.2353C185.283 39.4423 185.179 39.7372 184.974 40.0612L176.529 34.7058C175.623 36.1342 175.382 37.6603 175.382 38.9034H185.382ZM184.989 40.0381C184.771 40.385 184.456 40.6751 184.115 40.8593L179.362 32.0611C178.197 32.6904 177.224 33.596 176.514 34.7289L184.989 40.0381ZM184.115 40.8593C184.1 40.8673 184.095 40.869 184.101 40.8666C184.108 40.8641 184.131 40.8564 184.172 40.8473L182.032 31.0789C181.119 31.279 180.219 31.5983 179.362 32.0611L184.115 40.8593ZM184.206 40.8396C184.559 40.7598 184.911 40.6971 185.264 40.6509L183.966 30.7354C183.306 30.8219 182.649 30.939 181.998 31.0865L184.206 40.8396ZM185.253 40.6524C185.896 40.5696 186.388 40.5115 186.742 40.4749L185.713 30.528C185.243 30.5766 184.66 30.6463 183.977 30.734L185.253 40.6524ZM186.792 40.4694C187.378 40.4029 188.523 40.2375 189.629 39.6016L184.644 30.9325C185.067 30.6891 185.406 30.5948 185.519 30.5656C185.653 30.5311 185.713 30.5277 185.663 30.5334L186.792 40.4694ZM189.583 39.6278C191.714 38.432 192.428 36.3225 192.428 34.6989H182.428C182.428 34.2479 182.508 33.5377 182.905 32.7629C183.326 31.9407 183.971 31.3098 184.69 30.9063L189.583 39.6278ZM192.428 34.6989V34.642H182.428V34.6989H192.428ZM192.428 34.642C192.428 33.0162 191.96 31.0641 190.409 29.4947L183.295 36.5223C182.939 36.1617 182.702 35.7512 182.568 35.369C182.44 35.0074 182.428 34.7403 182.428 34.642H192.428ZM190.431 29.5169C188.773 27.8174 186.669 27.4261 185.126 27.4261V37.4261C185.109 37.4261 184.883 37.4258 184.538 37.3093C184.167 37.184 183.699 36.9367 183.273 36.5001L190.431 29.5169ZM185.126 27.4261C183.649 27.4261 181.808 27.746 180.192 28.9917L186.297 36.9118C185.59 37.4567 185.004 37.4261 185.126 37.4261V27.4261ZM180.192 28.9917C179.291 29.6862 178.361 30.6526 177.75 31.9683L186.821 36.1794C186.7 36.4397 186.565 36.6258 186.465 36.743C186.367 36.8577 186.299 36.91 186.297 36.9118L180.192 28.9917ZM183.967 29.3652L182.376 28.797L179.013 38.2144L180.604 38.7826L183.967 29.3652ZM185.29 35.4753C185.309 35.4324 185.219 35.6555 184.906 35.8999L178.756 28.0149C177.496 28.9979 176.649 30.2532 176.099 31.5361L185.29 35.4753ZM184.911 35.8957C184.899 35.9056 184.867 35.9284 184.816 35.9537C184.765 35.9792 184.709 36.0002 184.654 36.0147L182.133 26.3376C180.879 26.6642 179.744 27.242 178.75 28.019L184.911 35.8957ZM184.682 36.0073C184.859 35.96 184.985 35.9489 185.07 35.9489V25.9489C184.056 25.9489 183.064 26.0893 182.105 26.345L184.682 36.0073ZM185.07 35.9489C185.044 35.9489 185.055 35.9475 185.108 35.953C185.16 35.9585 185.241 35.9696 185.356 35.9911L187.198 26.1623C186.53 26.037 185.809 25.9489 185.07 25.9489V35.9489ZM185.414 36.0016C185.23 35.9695 185.097 35.9073 185.033 35.8684L190.178 27.2935C189.26 26.7432 188.242 26.3449 187.14 26.1518L185.414 36.0016ZM185.054 35.8809C184.592 35.6069 184.367 35.2765 184.297 35.1498L193.058 30.3275C192.42 29.1686 191.48 28.0664 190.157 27.281L185.054 35.8809ZM184.297 35.1498C184.155 34.8913 184.11 34.7024 184.099 34.6505C184.089 34.6003 184.104 34.6441 184.104 34.8125H194.104C194.104 33.4717 193.895 31.8491 193.058 30.3275L184.297 35.1498ZM184.104 34.8125V42H194.104V34.8125H184.104ZM189.104 37H187.428V47H189.104V37ZM192.428 42V40.5227H182.428V42H192.428ZM187.428 35.5227H187.342V45.5227H187.428V35.5227ZM182.835 38.3591C182.943 38.1329 183.049 37.9786 183.111 37.8963C183.173 37.8125 183.212 37.7737 183.207 37.7786L190.341 44.7868C190.836 44.2823 191.419 43.5847 191.85 42.6864L182.835 38.3591ZM183.207 37.7786C183.501 37.4801 183.738 37.3796 183.74 37.3784L187.691 46.5648C188.575 46.1848 189.517 45.625 190.341 44.7868L183.207 37.7786ZM183.74 37.3784C183.92 37.301 184.054 37.2712 184.115 37.2605C184.174 37.25 184.176 37.2557 184.104 37.2557V47.2557C185.209 47.2557 186.46 47.0943 187.691 46.5648L183.74 37.3784ZM184.359 45.75C185.667 45.75 187.134 45.4923 188.521 44.6978L183.55 36.0209C184.028 35.7472 184.378 35.75 184.359 35.75V45.75ZM188.502 44.7088C189.657 44.0538 190.7 43.0983 191.429 41.8045L182.716 36.8972C182.981 36.4273 183.333 36.1441 183.569 36.0099L188.502 44.7088ZM191.408 41.8423C192.059 40.708 192.428 39.4203 192.428 38.0511H182.428C182.428 37.5911 182.559 37.1698 182.737 36.8594L191.408 41.8423ZM192.428 38.0511V36.517H182.428V38.0511H192.428ZM183.586 33.3161C184.173 32.612 184.798 32.279 185.021 32.1674C185.295 32.0302 185.497 31.9695 185.548 31.9546L188.37 41.5482C188.662 41.4623 189.063 41.327 189.493 41.1117C189.872 40.922 190.611 40.5073 191.269 39.718L183.586 33.3161ZM185.611 31.9366C185.588 31.9429 185.496 31.9665 185.313 31.997L186.957 41.8609C187.399 41.7872 187.856 41.6925 188.307 41.5662L185.611 31.9366ZM185.375 31.9871C185.105 32.0286 184.844 32.0655 184.593 32.0979L185.873 42.0157C186.209 41.9724 186.549 41.924 186.895 41.8708L185.375 31.9871ZM184.663 32.0894C184.361 32.1241 184.096 32.156 183.878 32.1848L185.182 42.0993C185.323 42.0807 185.527 42.0558 185.803 42.0242L184.663 32.0894ZM183.883 32.184C183.155 32.279 182.426 32.4396 181.709 32.6816L184.907 42.1565C184.948 42.1428 185.033 42.1187 185.177 42.1L183.883 32.184ZM181.745 32.6696C180.689 33.0173 179.619 33.6222 178.728 34.5858L186.071 41.3744C185.644 41.8361 185.18 42.0669 184.871 42.1684L181.745 32.6696ZM178.725 34.5887C177.432 35.9896 177.058 37.66 177.058 38.9886H187.058C187.058 39.465 186.912 40.4631 186.073 41.3715L178.725 34.5887ZM177.058 38.9886C177.058 40.9984 177.912 43.0732 179.858 44.4206L185.551 36.1987C185.988 36.5016 186.417 36.9575 186.711 37.5583C186.995 38.1393 187.058 38.6601 187.058 38.9886H177.058ZM179.91 44.456C181.37 45.4394 182.965 45.75 184.359 45.75V35.75C184.418 35.75 184.911 35.767 185.499 36.1633L179.91 44.456ZM192.163 42H187.163V47H192.163V42ZM192.163 31.0909V26.0909H187.163V31.0909H192.163ZM193.782 31.0909H198.782V26.0909H193.782V31.0909ZM193.782 32.7386H188.782V37.7386H193.782V32.7386ZM193.896 32.7386V37.7386H197.382L198.588 34.4672L193.896 32.7386ZM194.975 31.4247L192.264 27.2238L192.264 27.2238L194.975 31.4247ZM197.618 30.9489H202.618V26.4239L198.115 25.9737L197.618 30.9489ZM197.618 32.6534L196.405 37.5041L202.618 39.0573V32.6534H197.618ZM197.227 32.5895L196.405 37.5215L196.47 37.5324L196.536 37.5415L197.227 32.5895ZM195.174 32.8736L197.511 37.2938L197.521 37.2889L197.53 37.284L195.174 32.8736ZM194.194 33.7827L189.948 31.142L189.944 31.1491L189.94 31.1563L194.194 33.7827ZM193.839 42V47H198.839V42H193.839ZM197.163 42V31.0909H187.163V42H197.163ZM192.163 36.0909H193.782V26.0909H192.163V36.0909ZM188.782 31.0909V32.7386H198.782V31.0909H188.782ZM193.782 37.7386H193.896V27.7386H193.782V37.7386ZM198.588 34.4672C198.497 34.7142 198.359 34.9598 198.178 35.1795C198 35.3959 197.821 35.5392 197.687 35.6256L192.264 27.2238C190.908 28.0993 189.808 29.3726 189.204 31.0101L198.588 34.4672ZM197.687 35.6256C197.541 35.72 197.369 35.8001 197.183 35.8534C196.999 35.9061 196.843 35.9205 196.737 35.9205V25.9205C195.176 25.9205 193.638 26.3371 192.264 27.2238L197.687 35.6256ZM196.737 35.9205C196.802 35.9205 196.91 35.9218 197.07 35.9259L197.327 25.9292C197.118 25.9239 196.918 25.9205 196.737 25.9205V35.9205ZM197.07 35.9259C197.101 35.9267 197.126 35.9275 197.146 35.9282C197.167 35.929 197.18 35.9296 197.188 35.93C197.196 35.9304 197.194 35.9304 197.185 35.9298C197.177 35.9292 197.154 35.9275 197.12 35.924L198.115 25.9737C197.832 25.9453 197.543 25.9347 197.327 25.9292L197.07 35.9259ZM192.618 30.9489V32.6534H202.618V30.9489H192.618ZM198.83 27.8027C198.463 27.7109 198.047 27.6555 197.918 27.6375L196.536 37.5415C196.575 37.5469 196.606 37.5514 196.629 37.5549C196.654 37.5585 196.666 37.5606 196.67 37.5611C196.675 37.562 196.659 37.5595 196.628 37.5537C196.612 37.5506 196.586 37.5455 196.553 37.5384C196.521 37.5317 196.47 37.5203 196.405 37.5041L198.83 27.8027ZM198.049 27.6575C197.552 27.5747 197.065 27.5398 196.595 27.5398V37.5398C196.57 37.5398 196.504 37.538 196.405 37.5215L198.049 27.6575ZM196.595 27.5398C195.345 27.5398 194.045 27.8081 192.819 28.4632L197.53 37.284C197.137 37.494 196.784 37.5398 196.595 37.5398V27.5398ZM192.837 28.4534C191.658 29.0767 190.667 29.9871 189.948 31.142L198.44 36.4234C198.205 36.8017 197.866 37.1061 197.511 37.2938L192.837 28.4534ZM189.94 31.1563C189.171 32.4016 188.839 33.7654 188.839 35.0966H198.839C198.839 35.4429 198.744 35.9308 198.449 36.409L189.94 31.1563ZM188.839 35.0966V42H198.839V35.0966H188.839ZM193.839 37H192.163V47H193.839V37Z" fill="black" mask="url(#path-2-outside-1_14_1383)"/>
</svg>
