<svg width="42" height="42" viewBox="0 0 42 42" fill="none" xmlns="http://www.w3.org/2000/svg">
<path fill-rule="evenodd" clip-rule="evenodd" d="M1.73624 20.835C1.73624 10.2873 10.2873 1.73625 20.835 1.73625C31.3827 1.73625 39.9337 10.2873 39.9337 20.835C39.9337 31.3827 31.3827 39.9338 20.835 39.9338C10.2873 39.9338 1.73624 31.3827 1.73624 20.835ZM13.0184 12.3881C13.2815 12.2356 13.58 12.1548 13.8841 12.1539C14.1882 12.153 14.4872 12.232 14.7512 12.3829L26.0437 18.8348V13.89C26.0437 13.4295 26.2267 12.9879 26.5523 12.6623C26.8779 12.3367 27.3195 12.1538 27.78 12.1538C28.2405 12.1538 28.6821 12.3367 29.0077 12.6623C29.3333 12.9879 29.5162 13.4295 29.5162 13.89V27.78C29.5162 28.2405 29.3333 28.6821 29.0077 29.0077C28.6821 29.3333 28.2405 29.5163 27.78 29.5163C27.3195 29.5163 26.8779 29.3333 26.5523 29.0077C26.2267 28.6821 26.0437 28.2405 26.0437 27.78V22.8352L14.7512 29.2871C14.4872 29.4379 14.1882 29.5167 13.8841 29.5157C13.5801 29.5147 13.2816 29.4338 13.0186 29.2812C12.7556 29.1286 12.5373 28.9096 12.3856 28.6462C12.2338 28.3827 12.1538 28.084 12.1537 27.78V13.89C12.1537 13.5859 12.2335 13.2871 12.3853 13.0235C12.537 12.7599 12.7554 12.5408 13.0184 12.3881Z" fill="#BC731A"/>
</svg>
