<svg width="42" height="42" viewBox="0 0 42 42" fill="none" xmlns="http://www.w3.org/2000/svg">
<path d="M15.6263 27.78H19.0988V13.89H15.6263V27.78ZM22.5713 27.78H26.0438V13.89H22.5713V27.78ZM20.835 38.1975C18.4332 38.1975 16.1761 37.7414 14.0636 36.8293C11.9512 35.9172 10.1137 34.6804 8.55104 33.119C6.98841 31.5575 5.75162 29.72 4.84067 27.6064C3.92972 25.4928 3.47366 23.2357 3.47251 20.835C3.47135 18.4343 3.9274 16.1772 4.84067 14.0636C5.75394 11.95 6.99073 10.1125 8.55104 8.55104C10.1113 6.98957 11.9489 5.75278 14.0636 4.84067C16.1784 3.92856 18.4355 3.4725 20.835 3.4725C23.2345 3.4725 25.4916 3.92856 27.6064 4.84067C29.7211 5.75278 31.5587 6.98957 33.119 8.55104C34.6793 10.1125 35.9166 11.95 36.8311 14.0636C37.7455 16.1772 38.201 18.4343 38.1975 20.835C38.194 23.2357 37.738 25.4928 36.8293 27.6064C35.9207 29.72 34.6839 31.5575 33.119 33.119C31.554 34.6804 29.7165 35.9178 27.6064 36.8311C25.4963 37.7443 23.2391 38.1998 20.835 38.1975Z" fill="#BC731A"/>
</svg>
