<svg width="92" height="92" viewBox="0 0 92 92" fill="none" xmlns="http://www.w3.org/2000/svg">
<path d="M36.286 63.0231L63.0231 45.835L36.286 28.6469V63.0231ZM45.835 84.0308C40.5512 84.0308 35.5858 83.0275 30.9386 81.021C26.2915 79.0144 22.2491 76.2936 18.8114 72.8585C15.3738 69.4235 12.653 65.3811 10.649 60.7314C8.64499 56.0817 7.64171 51.1162 7.63916 45.835C7.63662 40.5538 8.6399 35.5883 10.649 30.9386C12.6581 26.2889 15.3789 22.2465 18.8114 18.8114C22.244 15.3764 26.2864 12.6555 30.9386 10.649C35.5909 8.64244 40.5563 7.63916 45.835 7.63916C51.1137 7.63916 56.0791 8.64244 60.7314 10.649C65.3836 12.6555 69.426 15.3764 72.8586 18.8114C76.2911 22.2465 79.0132 26.2889 81.0248 30.9386C83.0365 35.5883 84.0385 40.5538 84.0308 45.835C84.0232 51.1162 83.0199 56.0817 81.021 60.7314C79.0221 65.3811 76.3013 69.4235 72.8586 72.8585C69.4158 76.2936 65.3734 79.0157 60.7314 81.0248C56.0893 83.0339 51.1238 84.0359 45.835 84.0308Z" fill="#BC731A"/>
</svg>
