<svg width="42" height="42" viewBox="0 0 42 42" fill="none" xmlns="http://www.w3.org/2000/svg">
<path fill-rule="evenodd" clip-rule="evenodd" d="M40.2638 21.165C40.2638 31.7127 31.7127 40.2637 21.165 40.2637C10.6173 40.2637 2.06627 31.7127 2.06627 21.165C2.06627 10.6173 10.6173 2.06625 21.165 2.06625C31.7127 2.06625 40.2638 10.6173 40.2638 21.165ZM28.9816 29.6119C28.7185 29.7644 28.42 29.8452 28.1159 29.8461C27.8118 29.847 27.5128 29.768 27.2488 29.6171L15.9563 23.1652V28.11C15.9563 28.5705 15.7733 29.0121 15.4477 29.3377C15.1221 29.6633 14.6805 29.8462 14.22 29.8462C13.7595 29.8462 13.3179 29.6633 12.9923 29.3377C12.6667 29.0121 12.4838 28.5705 12.4838 28.11L12.4838 14.22C12.4838 13.7595 12.6667 13.3179 12.9923 12.9923C13.3179 12.6667 13.7595 12.4837 14.22 12.4837C14.6805 12.4837 15.1221 12.6667 15.4477 12.9923C15.7733 13.3179 15.9563 13.7595 15.9563 14.22L15.9563 19.1648L27.2488 12.7129C27.5128 12.5621 27.8118 12.4833 28.1159 12.4843C28.4199 12.4853 28.7184 12.5662 28.9814 12.7188C29.2444 12.8714 29.4627 13.0904 29.6144 13.3538C29.7662 13.6173 29.8462 13.916 29.8463 14.22L29.8463 28.11C29.8463 28.4141 29.7665 28.7129 29.6147 28.9765C29.463 29.2401 29.2446 29.4592 28.9816 29.6119Z" fill="#BC731A"/>
</svg>
