<svg width="301" height="112" viewBox="0 0 301 112" fill="none" xmlns="http://www.w3.org/2000/svg">
<rect x="0.5" y="0.5" width="299.97" height="110.79" rx="55.3948" fill="#EE450D" stroke="black"/>
<path d="M94.5312 66V59.2188L97 58.8281V49.1719L94.5312 48.7812V42H108.609C110.286 42 111.87 42.0781 113.359 42.2344C114.859 42.3906 116.182 42.7135 117.328 43.2031C118.474 43.6927 119.37 44.4271 120.016 45.4062C120.672 46.3854 121 47.7031 121 49.3594C121 50.7448 120.745 51.8958 120.234 52.8125C119.724 53.7188 119.016 54.4427 118.109 54.9844C117.214 55.5156 116.172 55.9115 114.984 56.1719C113.807 56.4219 112.536 56.5885 111.172 56.6719C109.807 56.7448 108.417 56.7812 107 56.7812V58.8281L109.469 59.2188V66H94.5312ZM107 52.4844C108.24 52.4844 109.214 52.3073 109.922 51.9531C110.641 51.599 111 50.7969 111 49.5469C111 48.724 110.833 48.1094 110.5 47.7031C110.177 47.2865 109.719 47.0104 109.125 46.875C108.531 46.7396 107.823 46.6719 107 46.6719V52.4844ZM122.594 66V59.2188L125.062 58.8281V49.1719L122.594 48.7812V42H137.375V48.7812L135.062 49.1719V60C136.073 60 136.943 59.7969 137.672 59.3906C138.401 58.974 139.016 58.5104 139.516 58H142.125V66H122.594ZM144.516 66V58.125L146.438 57.7344L151.047 42H163.953L168.578 57.7344L170.5 58.125V66H161.609L160.766 61.9688H154.234L153.406 66H144.516ZM155.578 56.6094H159.422L157.5 47.5625L155.578 56.6094ZM178.219 66V59.25L180.219 58.75L173.359 49.1562L170.516 48.7812V42H184.172V48.7812L182.609 49.1562L185.781 54.0625L188.953 49.1562L187.391 48.7812V42H201.188V48.7812L198.203 49.1562L191.344 58.75L193.344 59.25V66H178.219Z" fill="black"/>
</svg>
