<svg width="1000" height="1996" viewBox="0 0 1000 1996" fill="none" xmlns="http://www.w3.org/2000/svg">
<path d="M0 0H1000V249.5H0V0Z" fill="url(#paint0_linear_60_300)"/>
<path d="M0 249.5H1000V499H0V249.5Z" fill="url(#paint1_linear_60_300)"/>
<path d="M0 499H1000V748.5H0V499Z" fill="url(#paint2_linear_60_300)"/>
<path d="M0 748.5H1000V998H0V748.5Z" fill="url(#paint3_linear_60_300)"/>
<rect x="131" width="738.001" height="499" fill="#403A3A"/>
<rect x="145.166" width="14.1676" height="499" fill="#F5F5F5"/>
<rect x="840.665" width="14.1676" height="499" fill="#F5F5F5"/>
<rect x="492.914" width="14.1676" height="499" fill="#F8E50D"/>
<rect x="131" y="499" width="738.001" height="499" fill="#403A3A"/>
<rect x="145.166" y="499" width="14.1676" height="499" fill="#F5F5F5"/>
<rect x="840.665" y="499" width="14.1676" height="499" fill="#F5F5F5"/>
<rect x="492.914" y="499" width="14.1676" height="499" fill="#F8E50D"/>
<rect x="319.041" width="14.1676" height="62.375" fill="#F8E50D"/>
<rect x="319.041" y="124.75" width="14.1676" height="62.375" fill="#F8E50D"/>
<rect x="319.041" y="249.5" width="14.1676" height="62.375" fill="#F8E50D"/>
<rect x="319.041" y="374.25" width="14.1676" height="62.375" fill="#F8E50D"/>
<rect x="319.041" y="499" width="14.1676" height="62.375" fill="#F8E50D"/>
<rect x="319.041" y="623.75" width="14.1676" height="62.375" fill="#F8E50D"/>
<rect x="319.041" y="748.5" width="14.1676" height="62.375" fill="#F8E50D"/>
<rect x="319.041" y="873.25" width="14.1676" height="62.375" fill="#F8E50D"/>
<rect x="666.79" width="14.1676" height="62.375" fill="#F8E50D"/>
<rect x="666.79" y="124.75" width="14.1676" height="62.375" fill="#F8E50D"/>
<rect x="666.79" y="249.5" width="14.1676" height="62.375" fill="#F8E50D"/>
<rect x="666.79" y="374.25" width="14.1676" height="62.375" fill="#F8E50D"/>
<rect x="666.79" y="499" width="14.1676" height="62.375" fill="#F8E50D"/>
<rect x="666.79" y="623.75" width="14.1676" height="62.375" fill="#F8E50D"/>
<rect x="666.79" y="748.5" width="14.1676" height="62.375" fill="#F8E50D"/>
<rect x="666.79" y="873.25" width="14.1676" height="62.375" fill="#F8E50D"/>
<path d="M0 998H1000V1247.5H0V998Z" fill="url(#paint4_linear_60_300)"/>
<path d="M0 1247.5H1000V1497H0V1247.5Z" fill="url(#paint5_linear_60_300)"/>
<path d="M0 1497H1000V1746.5H0V1497Z" fill="url(#paint6_linear_60_300)"/>
<path d="M0 1746.5H1000V1996H0V1746.5Z" fill="url(#paint7_linear_60_300)"/>
<rect x="131" y="998" width="738.001" height="499" fill="#403A3A"/>
<rect x="145.166" y="998" width="14.1676" height="499" fill="#F5F5F5"/>
<rect x="840.665" y="998" width="14.1676" height="499" fill="#F5F5F5"/>
<rect x="492.914" y="998" width="14.1676" height="499" fill="#F8E50D"/>
<rect x="131" y="1497" width="738.001" height="499" fill="#403A3A"/>
<rect x="145.166" y="1497" width="14.1676" height="499" fill="#F5F5F5"/>
<rect x="840.665" y="1497" width="14.1676" height="499" fill="#F5F5F5"/>
<rect x="492.914" y="1497" width="14.1676" height="499" fill="#F8E50D"/>
<rect x="319.041" y="998" width="14.1676" height="62.375" fill="#F8E50D"/>
<rect x="319.041" y="1122.75" width="14.1676" height="62.375" fill="#F8E50D"/>
<rect x="319.041" y="1247.5" width="14.1676" height="62.375" fill="#F8E50D"/>
<rect x="319.041" y="1372.25" width="14.1676" height="62.375" fill="#F8E50D"/>
<rect x="319.041" y="1497" width="14.1676" height="62.375" fill="#F8E50D"/>
<rect x="319.041" y="1621.75" width="14.1676" height="62.375" fill="#F8E50D"/>
<rect x="319.041" y="1746.5" width="14.1676" height="62.375" fill="#F8E50D"/>
<rect x="319.041" y="1871.25" width="14.1676" height="62.375" fill="#F8E50D"/>
<rect x="666.79" y="998" width="14.1676" height="62.375" fill="#F8E50D"/>
<rect x="666.79" y="1122.75" width="14.1676" height="62.375" fill="#F8E50D"/>
<rect x="666.79" y="1247.5" width="14.1676" height="62.375" fill="#F8E50D"/>
<rect x="666.79" y="1372.25" width="14.1676" height="62.375" fill="#F8E50D"/>
<rect x="666.79" y="1497" width="14.1676" height="62.375" fill="#F8E50D"/>
<rect x="666.79" y="1621.75" width="14.1676" height="62.375" fill="#F8E50D"/>
<rect x="666.79" y="1746.5" width="14.1676" height="62.375" fill="#F8E50D"/>
<rect x="666.79" y="1871.25" width="14.1676" height="62.375" fill="#F8E50D"/>
<defs>
<linearGradient id="paint0_linear_60_300" x1="500" y1="0" x2="500" y2="249.5" gradientUnits="userSpaceOnUse">
<stop stop-color="#F4E860"/>
</linearGradient>
<linearGradient id="paint1_linear_60_300" x1="500" y1="249.5" x2="500" y2="499" gradientUnits="userSpaceOnUse">
<stop offset="1" stop-color="#F4E860"/>
</linearGradient>
<linearGradient id="paint2_linear_60_300" x1="500" y1="499" x2="500" y2="748.5" gradientUnits="userSpaceOnUse">
<stop offset="1" stop-color="#F4E860"/>
</linearGradient>
<linearGradient id="paint3_linear_60_300" x1="500" y1="748.5" x2="500" y2="998" gradientUnits="userSpaceOnUse">
<stop offset="1" stop-color="#F4E860"/>
</linearGradient>
<linearGradient id="paint4_linear_60_300" x1="500" y1="998" x2="500" y2="1247.5" gradientUnits="userSpaceOnUse">
<stop stop-color="#F4E860"/>
</linearGradient>
<linearGradient id="paint5_linear_60_300" x1="500" y1="1247.5" x2="500" y2="1497" gradientUnits="userSpaceOnUse">
<stop offset="1" stop-color="#F4E860"/>
</linearGradient>
<linearGradient id="paint6_linear_60_300" x1="500" y1="1497" x2="500" y2="1746.5" gradientUnits="userSpaceOnUse">
<stop offset="1" stop-color="#F4E860"/>
</linearGradient>
<linearGradient id="paint7_linear_60_300" x1="500" y1="1746.5" x2="500" y2="1996" gradientUnits="userSpaceOnUse">
<stop offset="1" stop-color="#F4E860"/>
</linearGradient>
</defs>
</svg>
