<svg width="1000" height="1086" viewBox="0 0 1000 1086" fill="none" xmlns="http://www.w3.org/2000/svg">
<path d="M999.5 124.361V1066C999.5 1076.77 990.77 1085.5 980 1085.5H20C9.23045 1085.5 0.5 1076.77 0.5 1066V124.361H999.5Z" fill="url(#paint0_linear_44_433)" stroke="black"/>
<path d="M20 0.5H980C990.77 0.5 999.5 9.23045 999.5 20V126.177H0.5V20C0.5 9.23045 9.23045 0.5 20 0.5Z" fill="#B648CC" stroke="black"/>
<path d="M326.044 82.9941V74.5176L329.13 74.0293V61.959L326.044 61.4707V52.9941H343.642C345.79 52.9941 347.802 53.0918 349.677 53.2871C351.552 53.4694 353.192 53.873 354.599 54.498C356.018 55.11 357.125 56.0475 357.919 57.3105C358.713 58.5605 359.11 60.2533 359.11 62.3887C359.11 63.9642 358.856 65.2533 358.349 66.2559C357.854 67.2454 357.157 68.0462 356.259 68.6582C355.373 69.2702 354.345 69.8105 353.173 70.2793C354.175 71.8939 355.204 73.3783 356.259 74.7324C357.313 76.0736 358.264 77.1934 359.11 78.0918V82.9941H346.688C344.683 79.4655 343.225 75.8913 342.313 72.2715H341.63V82.9941H326.044ZM341.63 66.5098C342.632 66.5098 343.505 66.4382 344.247 66.2949C345.002 66.1387 345.588 65.8197 346.005 65.3379C346.422 64.8431 346.63 64.0944 346.63 63.0918C346.63 62.0892 346.422 61.347 346.005 60.8652C345.588 60.3704 345.002 60.0449 344.247 59.8887C343.505 59.7194 342.632 59.6348 341.63 59.6348V66.5098ZM380.673 83.3457C377.183 83.3457 374.221 82.8509 371.786 81.8613C369.351 80.8587 367.496 79.2832 366.22 77.1348C364.944 74.9733 364.306 72.1478 364.306 68.6582V61.959L361.22 61.4707V52.9941H378.622V61.4707L375.536 61.959V68.2676C375.536 70.1556 375.888 71.5684 376.591 72.5059C377.294 73.4434 378.609 73.9121 380.536 73.9121C382.463 73.9121 383.778 73.4434 384.481 72.5059C385.185 71.5684 385.536 70.1556 385.536 68.2676V61.959L382.45 61.4707V52.9941H398.036V61.4707L394.95 61.959V68.6582C394.95 73.4889 393.759 77.1478 391.376 79.6348C388.993 82.1087 385.425 83.3457 380.673 83.3457ZM412.411 83.3457C409.989 83.3457 407.75 83.1895 405.692 82.877C403.648 82.5514 401.773 81.946 400.067 81.0605V73.3457H405.946C406.493 74.1009 407.164 74.7454 407.958 75.2793C408.765 75.8132 409.735 76.0801 410.868 76.0801C411.78 76.0801 412.424 75.8392 412.802 75.3574C413.179 74.8626 413.368 74.14 413.368 73.1895C411.61 73.0332 409.918 72.7598 408.29 72.3691C406.675 71.9785 405.23 71.4056 403.954 70.6504C402.678 69.8822 401.669 68.8665 400.927 67.6035C400.185 66.3275 399.813 64.7324 399.813 62.8184C399.813 60.2533 400.38 58.235 401.513 56.7637C402.659 55.2923 404.228 54.2441 406.22 53.6191C408.225 52.9941 410.51 52.6816 413.075 52.6816C415.614 52.6816 417.86 52.877 419.813 53.2676C421.767 53.6582 423.57 54.2376 425.224 55.0059V62.623H419.345C418.824 61.8809 418.179 61.2428 417.411 60.709C416.643 60.1621 415.712 59.8887 414.618 59.8887C413.707 59.8887 413.049 60.1686 412.646 60.7285C412.242 61.2754 412.04 62.0306 412.04 62.9941C414.032 63.0592 415.868 63.2676 417.548 63.6191C419.241 63.9707 420.705 64.5436 421.942 65.3379C423.192 66.1191 424.156 67.1803 424.833 68.5215C425.523 69.8496 425.868 71.5358 425.868 73.5801C425.868 75.4421 425.523 77.0046 424.833 78.2676C424.143 79.5176 423.186 80.5137 421.962 81.2559C420.738 81.998 419.312 82.5319 417.685 82.8574C416.057 83.1829 414.299 83.3457 412.411 83.3457ZM428.524 82.9941V74.5176L431.571 74.0293V61.998L428.524 61.5098V52.9941H446.962V61.5098L444.071 61.998V65.6895H454.071V61.998L451.181 61.5098V52.9941H469.618V61.5098L466.571 61.998V74.0293L469.618 74.5176V82.9941H451.181V74.5176L454.071 74.0293V70.1035H444.071V74.0293L446.962 74.5176V82.9941H428.524ZM484.247 82.9941V74.5176L487.333 74.0293V61.959L484.247 61.4707V52.9941H501.845C503.993 52.9941 506.005 53.0918 507.88 53.2871C509.755 53.4694 511.396 53.873 512.802 54.498C514.221 55.11 515.328 56.0475 516.122 57.3105C516.916 58.5605 517.313 60.2533 517.313 62.3887C517.313 63.9642 517.06 65.2533 516.552 66.2559C516.057 67.2454 515.36 68.0462 514.462 68.6582C513.576 69.2702 512.548 69.8105 511.376 70.2793C512.379 71.8939 513.407 73.3783 514.462 74.7324C515.517 76.0736 516.467 77.1934 517.313 78.0918V82.9941H504.892C502.886 79.4655 501.428 75.8913 500.517 72.2715H499.833V82.9941H484.247ZM499.833 66.5098C500.836 66.5098 501.708 66.4382 502.45 66.2949C503.205 66.1387 503.791 65.8197 504.208 65.3379C504.625 64.8431 504.833 64.0944 504.833 63.0918C504.833 62.0892 504.625 61.347 504.208 60.8652C503.791 60.3704 503.205 60.0449 502.45 59.8887C501.708 59.7194 500.836 59.6348 499.833 59.6348V66.5098ZM519.716 82.9941V74.5176L522.802 74.0293V61.959L519.716 61.4707V52.9941H538.388V61.4707L535.302 61.959V74.0293L538.388 74.5176V82.9941H519.716ZM539.579 82.9941V74.5176L542.704 74.0293V61.2363L539.579 60.748V52.9941H562.958C565.419 53.515 567.567 54.3613 569.403 55.5332C571.239 56.6921 572.665 58.2611 573.681 60.2402C574.696 62.2064 575.204 64.6738 575.204 67.6426C575.204 70.5723 574.716 73.0267 573.739 75.0059C572.763 76.972 571.382 78.541 569.599 79.7129C567.815 80.8848 565.699 81.7246 563.251 82.2324C560.816 82.7402 558.134 82.9941 555.204 82.9941H539.579ZM555.204 74.0293H557.118C558.785 74.0293 560.087 73.7689 561.024 73.248C561.962 72.7142 562.489 71.7181 562.606 70.2598C562.632 69.8691 562.652 69.459 562.665 69.0293C562.678 68.5866 562.685 68.1243 562.685 67.6426C562.685 66.1061 562.548 64.8691 562.274 63.9316C562.001 62.9941 561.467 62.3105 560.673 61.8809C559.879 61.4512 558.694 61.2363 557.118 61.2363H555.204V74.0293ZM576.903 82.9941V74.5176L579.989 74.0293V61.998L576.903 61.5098V52.9941H603.603V62.9941H600.458C599.468 62.304 598.316 61.7181 597.001 61.2363C595.699 60.7415 594.195 60.4941 592.489 60.4941V65.8262L598.349 64.5566V71.4707L592.489 70.2012V75.4941C594.169 75.4941 595.66 75.2598 596.962 74.791C598.264 74.3092 599.39 73.7103 600.341 72.9941H603.603V82.9941H576.903ZM605.966 82.9941V74.5176L609.052 74.0293V61.959L605.966 61.4707V52.9941H623.563C625.712 52.9941 627.724 53.0918 629.599 53.2871C631.474 53.4694 633.114 53.873 634.521 54.498C635.94 55.11 637.047 56.0475 637.841 57.3105C638.635 58.5605 639.032 60.2533 639.032 62.3887C639.032 63.9642 638.778 65.2533 638.271 66.2559C637.776 67.2454 637.079 68.0462 636.181 68.6582C635.295 69.2702 634.267 69.8105 633.095 70.2793C634.097 71.8939 635.126 73.3783 636.181 74.7324C637.235 76.0736 638.186 77.1934 639.032 78.0918V82.9941H626.61C624.605 79.4655 623.147 75.8913 622.235 72.2715H621.552V82.9941H605.966ZM621.552 66.5098C622.554 66.5098 623.427 66.4382 624.169 66.2949C624.924 66.1387 625.51 65.8197 625.927 65.3379C626.343 64.8431 626.552 64.0944 626.552 63.0918C626.552 62.0892 626.343 61.347 625.927 60.8652C625.51 60.3704 624.924 60.0449 624.169 59.8887C623.427 59.7194 622.554 59.6348 621.552 59.6348V66.5098Z" fill="#101010"/>
<defs>
<linearGradient id="paint0_linear_44_433" x1="500" y1="123.861" x2="500" y2="1086" gradientUnits="userSpaceOnUse">
<stop stop-color="#C73535"/>
<stop offset="1" stop-color="#771717"/>
</linearGradient>
</defs>
</svg>
