<svg width="688" height="627" viewBox="0 0 688 627" fill="none" xmlns="http://www.w3.org/2000/svg">
<path d="M686.814 112.17V606.672C686.814 617.441 678.084 626.172 667.314 626.172H20C9.23057 626.172 0.500198 617.441 0.5 606.672V112.17H686.814Z" fill="url(#paint0_linear_59_259)" stroke="black"/>
<path d="M20 0.633789H667.314C678.084 0.633912 686.814 9.36431 686.814 20.1338V111.973H0.5V20.1338C0.5 9.36424 9.23045 0.633789 20 0.633789Z" fill="#DFBB2C" stroke="black"/>
<path d="M120.442 72.2012C118.505 72.2012 116.713 72.0762 115.067 71.8262C113.432 71.5658 111.932 71.0814 110.567 70.373V64.2012H115.271C115.708 64.8053 116.244 65.321 116.88 65.748C117.526 66.1751 118.302 66.3887 119.208 66.3887C119.937 66.3887 120.453 66.196 120.755 65.8105C121.057 65.4147 121.208 64.8366 121.208 64.0762C119.802 63.9512 118.448 63.7324 117.146 63.4199C115.854 63.1074 114.698 62.6491 113.677 62.0449C112.656 61.4303 111.849 60.6178 111.255 59.6074C110.661 58.5866 110.364 57.3105 110.364 55.7793C110.364 53.7272 110.817 52.1126 111.724 50.9355C112.64 49.7585 113.896 48.9199 115.489 48.4199C117.093 47.9199 118.922 47.6699 120.974 47.6699C123.005 47.6699 124.802 47.8262 126.364 48.1387C127.927 48.4512 129.369 48.9147 130.692 49.5293V55.623H125.989C125.573 55.0293 125.057 54.5189 124.442 54.0918C123.828 53.6543 123.083 53.4355 122.208 53.4355C121.479 53.4355 120.953 53.6595 120.63 54.1074C120.307 54.5449 120.146 55.1491 120.146 55.9199C121.739 55.972 123.208 56.1387 124.552 56.4199C125.906 56.7012 127.078 57.1595 128.067 57.7949C129.067 58.4199 129.838 59.2689 130.38 60.3418C130.932 61.4043 131.208 62.7533 131.208 64.3887C131.208 65.8783 130.932 67.1283 130.38 68.1387C129.828 69.1387 129.062 69.9355 128.083 70.5293C127.104 71.123 125.963 71.5501 124.661 71.8105C123.359 72.071 121.953 72.2012 120.442 72.2012ZM132.786 71.9199V65.1387L135.255 64.748V55.123L132.786 54.7324V47.9199H154.146V55.9199H151.63C150.838 55.3678 149.916 54.8991 148.864 54.5137C147.823 54.1178 146.619 53.9199 145.255 53.9199V58.1855L149.942 57.1699V62.7012L145.255 61.6855V65.9199C146.599 65.9199 147.791 65.7324 148.833 65.3574C149.875 64.972 150.776 64.4928 151.536 63.9199H154.146V71.9199H132.786ZM156.13 71.9199V65.1387L158.599 64.748V55.0918L156.13 54.7012V47.9199H170.911V54.7012L168.599 55.0918V65.9199C169.609 65.9199 170.479 65.7168 171.208 65.3105C171.937 64.8939 172.552 64.4303 173.052 63.9199H175.661V71.9199H156.13ZM177.599 71.9199V65.1387L180.067 64.748V55.123L177.599 54.7324V47.9199H198.958V55.9199H196.442C195.651 55.3678 194.729 54.8991 193.677 54.5137C192.635 54.1178 191.432 53.9199 190.067 53.9199V58.1855L194.755 57.1699V62.7012L190.067 61.6855V65.9199C191.411 65.9199 192.604 65.7324 193.646 65.3574C194.687 64.972 195.588 64.4928 196.349 63.9199H198.958V71.9199H177.599ZM214.771 72.2012C212.01 72.2012 209.619 71.7324 207.599 70.7949C205.588 69.8574 204.031 68.4564 202.927 66.5918C201.833 64.7272 201.286 62.4095 201.286 59.6387C201.286 56.8783 201.823 54.6074 202.896 52.8262C203.979 51.0449 205.521 49.722 207.521 48.8574C209.521 47.9928 211.896 47.5605 214.646 47.5605C216.635 47.5605 218.422 47.7376 220.005 48.0918C221.588 48.446 223.041 48.9251 224.364 49.5293V57.3105H219.661C219.244 56.5501 218.729 55.8991 218.114 55.3574C217.5 54.8053 216.755 54.5293 215.88 54.5293C214.797 54.5293 213.896 54.7585 213.177 55.2168C212.468 55.6751 211.937 56.2689 211.583 56.998C211.239 57.7272 211.067 58.498 211.067 59.3105C211.067 60.623 211.333 61.6595 211.864 62.4199C212.406 63.1803 213.119 63.722 214.005 64.0449C214.901 64.3574 215.885 64.5137 216.958 64.5137C218.198 64.5137 219.474 64.3626 220.786 64.0605C222.099 63.748 223.291 63.3887 224.364 62.9824V70.6074C222.885 71.1074 221.369 71.498 219.817 71.7793C218.265 72.0605 216.583 72.2012 214.771 72.2012ZM240.114 72.2012C237.354 72.2012 234.963 71.7324 232.942 70.7949C230.932 69.8574 229.375 68.4564 228.271 66.5918C227.177 64.7272 226.63 62.4095 226.63 59.6387C226.63 56.8783 227.166 54.6074 228.239 52.8262C229.323 51.0449 230.864 49.722 232.864 48.8574C234.864 47.9928 237.239 47.5605 239.989 47.5605C241.979 47.5605 243.765 47.7376 245.349 48.0918C246.932 48.446 248.385 48.9251 249.708 49.5293V57.3105H245.005C244.588 56.5501 244.073 55.8991 243.458 55.3574C242.843 54.8053 242.099 54.5293 241.224 54.5293C240.14 54.5293 239.239 54.7585 238.521 55.2168C237.812 55.6751 237.281 56.2689 236.927 56.998C236.583 57.7272 236.411 58.498 236.411 59.3105C236.411 60.623 236.677 61.6595 237.208 62.4199C237.75 63.1803 238.463 63.722 239.349 64.0449C240.244 64.3574 241.229 64.5137 242.302 64.5137C243.541 64.5137 244.817 64.3626 246.13 64.0605C247.442 63.748 248.635 63.3887 249.708 62.9824V70.6074C248.229 71.1074 246.713 71.498 245.161 71.7793C243.609 72.0605 241.927 72.2012 240.114 72.2012ZM251.661 71.9199V65.1387L254.13 64.748V55.0918L251.661 54.7012V47.9199H266.599V54.7012L264.13 55.0918V64.748L266.599 65.1387V71.9199H251.661ZM282.396 72.2012C279.51 72.2012 277.021 71.7585 274.927 70.873C272.833 69.9772 271.224 68.6022 270.099 66.748C268.974 64.8939 268.411 62.5241 268.411 59.6387C268.411 56.8574 268.994 54.5762 270.161 52.7949C271.338 51.0137 272.979 49.696 275.083 48.8418C277.187 47.9876 279.625 47.5605 282.396 47.5605C285.177 47.5605 287.619 47.9876 289.724 48.8418C291.828 49.696 293.468 51.0137 294.646 52.7949C295.823 54.5762 296.411 56.8574 296.411 59.6387C296.411 62.5033 295.838 64.8678 294.692 66.7324C293.547 68.5866 291.922 69.9616 289.817 70.8574C287.724 71.7533 285.25 72.2012 282.396 72.2012ZM282.396 64.6543C283.937 64.6543 284.989 64.196 285.552 63.2793C286.125 62.3626 286.411 61.1491 286.411 59.6387C286.411 58.1178 286.125 56.9147 285.552 56.0293C284.979 55.1439 283.927 54.7012 282.396 54.7012C280.864 54.7012 279.817 55.1439 279.255 56.0293C278.692 56.9147 278.411 58.1178 278.411 59.6387C278.411 61.1491 278.687 62.3626 279.239 63.2793C279.802 64.196 280.854 64.6543 282.396 64.6543ZM298.739 71.9199V65.1387L301.177 64.748V55.0918L298.739 54.7012V47.9199H311.177L319.177 60.2168V55.123L317.177 54.7012V47.9199H327.614V54.7012L325.177 55.0918V71.9199H315.161L307.177 60.2168V64.748L309.177 65.123V71.9199H298.739ZM329.567 71.9199V65.1387L332.036 64.748V55.123L329.567 54.7324V47.9199H350.927V55.9199H348.411C347.619 55.3678 346.698 54.8991 345.646 54.5137C344.604 54.1178 343.401 53.9199 342.036 53.9199V58.1855L346.724 57.1699V62.7012L342.036 61.6855V65.9199C343.38 65.9199 344.573 65.7324 345.614 65.3574C346.656 64.972 347.557 64.4928 348.317 63.9199H350.927V71.9199H329.567ZM378.239 72.2012C375.448 72.2012 373.078 71.8053 371.13 71.0137C369.182 70.2116 367.698 68.9512 366.677 67.2324C365.656 65.5033 365.146 63.2428 365.146 60.4512V55.0918L362.677 54.7012V47.9199H376.599V54.7012L374.13 55.0918V60.1387C374.13 61.6491 374.411 62.7793 374.974 63.5293C375.536 64.2793 376.588 64.6543 378.13 64.6543C379.672 64.6543 380.724 64.2793 381.286 63.5293C381.849 62.7793 382.13 61.6491 382.13 60.1387V55.0918L379.661 54.7012V47.9199H392.13V54.7012L389.661 55.0918V60.4512C389.661 64.3158 388.708 67.2428 386.802 69.2324C384.896 71.2116 382.041 72.2012 378.239 72.2012ZM394.114 71.9199V65.1387L396.552 64.748V55.0918L394.114 54.7012V47.9199H406.552L414.552 60.2168V55.123L412.552 54.7012V47.9199H422.989V54.7012L420.552 55.0918V71.9199H410.536L402.552 60.2168V64.748L404.552 65.123V71.9199H394.114ZM435.177 71.9199V64.0449L437.099 63.6543L441.708 47.9199H454.614L459.239 63.6543L461.161 64.0449V71.9199H452.271L451.427 67.8887H444.896L444.067 71.9199H435.177ZM446.239 62.5293H450.083L448.161 53.4824L446.239 62.5293ZM477.396 72.2012C474.604 72.2012 472.234 71.8053 470.286 71.0137C468.338 70.2116 466.854 68.9512 465.833 67.2324C464.812 65.5033 464.302 63.2428 464.302 60.4512V55.0918L461.833 54.7012V47.9199H475.755V54.7012L473.286 55.0918V60.1387C473.286 61.6491 473.567 62.7793 474.13 63.5293C474.692 64.2793 475.744 64.6543 477.286 64.6543C478.828 64.6543 479.88 64.2793 480.442 63.5293C481.005 62.7793 481.286 61.6491 481.286 60.1387V55.0918L478.817 54.7012V47.9199H491.286V54.7012L488.817 55.0918V60.4512C488.817 64.3158 487.864 67.2428 485.958 69.2324C484.052 71.2116 481.198 72.2012 477.396 72.2012ZM496.755 71.9199V65.1387L499.224 64.748V53.9199C498.401 53.9199 497.724 54.1387 497.192 54.5762C496.661 55.0033 496.213 55.4512 495.849 55.9199H493.224V47.9199H515.224V55.9199H512.599C512.244 55.4512 511.797 55.0033 511.255 54.5762C510.724 54.1387 510.047 53.9199 509.224 53.9199V64.748L511.692 65.1387V71.9199H496.755ZM531.489 72.2012C528.604 72.2012 526.114 71.7585 524.021 70.873C521.927 69.9772 520.317 68.6022 519.192 66.748C518.067 64.8939 517.505 62.5241 517.505 59.6387C517.505 56.8574 518.088 54.5762 519.255 52.7949C520.432 51.0137 522.073 49.696 524.177 48.8418C526.281 47.9876 528.718 47.5605 531.489 47.5605C534.271 47.5605 536.713 47.9876 538.817 48.8418C540.922 49.696 542.562 51.0137 543.739 52.7949C544.916 54.5762 545.505 56.8574 545.505 59.6387C545.505 62.5033 544.932 64.8678 543.786 66.7324C542.64 68.5866 541.015 69.9616 538.911 70.8574C536.817 71.7533 534.343 72.2012 531.489 72.2012ZM531.489 64.6543C533.031 64.6543 534.083 64.196 534.646 63.2793C535.218 62.3626 535.505 61.1491 535.505 59.6387C535.505 58.1178 535.218 56.9147 534.646 56.0293C534.073 55.1439 533.021 54.7012 531.489 54.7012C529.958 54.7012 528.911 55.1439 528.349 56.0293C527.786 56.9147 527.505 58.1178 527.505 59.6387C527.505 61.1491 527.781 62.3626 528.333 63.2793C528.896 64.196 529.948 64.6543 531.489 64.6543Z" fill="black"/>
<defs>
<linearGradient id="paint0_linear_59_259" x1="343.657" y1="111.67" x2="343.657" y2="626.672" gradientUnits="userSpaceOnUse">
<stop stop-color="#116130"/>
<stop offset="1" stop-color="#23C762"/>
</linearGradient>
</defs>
</svg>
