<svg width="455" height="198" viewBox="0 0 455 198" fill="none" xmlns="http://www.w3.org/2000/svg">
<rect x="0.435059" y="0.0227051" width="454.417" height="197.223" fill="#EC812A"/>
<rect x="239.295" y="129.504" width="192.363" height="49.2258" fill="#E5DE28"/>
<path d="M297.049 159.759C296.398 159.759 295.841 159.63 295.377 159.373C294.913 159.112 294.558 158.75 294.311 158.287C294.063 157.82 293.94 157.28 293.94 156.666C293.94 156.051 294.063 155.512 294.311 155.048C294.558 154.582 294.913 154.22 295.377 153.962C295.841 153.702 296.398 153.572 297.049 153.572C297.637 153.572 298.147 153.679 298.576 153.892C299.009 154.103 299.343 154.403 299.58 154.791C299.817 155.176 299.937 155.629 299.94 156.15H297.94C297.911 155.835 297.82 155.595 297.666 155.431C297.515 155.264 297.32 155.181 297.08 155.181C296.893 155.181 296.729 155.236 296.588 155.345C296.447 155.452 296.338 155.615 296.26 155.833C296.182 156.05 296.143 156.322 296.143 156.65C296.143 156.978 296.182 157.251 296.26 157.47C296.338 157.686 296.447 157.849 296.588 157.958C296.729 158.065 296.893 158.119 297.08 158.119C297.239 158.119 297.38 158.082 297.502 158.009C297.624 157.934 297.723 157.824 297.799 157.681C297.877 157.535 297.924 157.358 297.94 157.15H299.94C299.932 157.679 299.811 158.139 299.576 158.533C299.342 158.923 299.01 159.225 298.58 159.439C298.153 159.653 297.643 159.759 297.049 159.759ZM303.72 159.759C303.069 159.759 302.511 159.63 302.048 159.373C301.584 159.112 301.229 158.75 300.982 158.287C300.734 157.82 300.61 157.28 300.61 156.666C300.61 156.051 300.734 155.512 300.982 155.048C301.229 154.582 301.584 154.22 302.048 153.962C302.511 153.702 303.069 153.572 303.72 153.572C304.371 153.572 304.928 153.702 305.392 153.962C305.855 154.22 306.211 154.582 306.458 155.048C306.705 155.512 306.829 156.051 306.829 156.666C306.829 157.28 306.705 157.82 306.458 158.287C306.211 158.75 305.855 159.112 305.392 159.373C304.928 159.63 304.371 159.759 303.72 159.759ZM303.735 158.166C303.918 158.166 304.075 158.104 304.208 157.982C304.341 157.86 304.444 157.685 304.517 157.458C304.59 157.232 304.626 156.962 304.626 156.65C304.626 156.335 304.59 156.065 304.517 155.841C304.444 155.615 304.341 155.44 304.208 155.318C304.075 155.195 303.918 155.134 303.735 155.134C303.543 155.134 303.377 155.195 303.239 155.318C303.101 155.44 302.996 155.615 302.923 155.841C302.85 156.065 302.814 156.335 302.814 156.65C302.814 156.962 302.85 157.232 302.923 157.458C302.996 157.685 303.101 157.86 303.239 157.982C303.377 158.104 303.543 158.166 303.735 158.166ZM309.86 151.65V159.65H307.704V151.65H309.86ZM313.85 159.759C313.199 159.759 312.641 159.63 312.178 159.373C311.714 159.112 311.359 158.75 311.111 158.287C310.864 157.82 310.74 157.28 310.74 156.666C310.74 156.051 310.864 155.512 311.111 155.048C311.359 154.582 311.714 154.22 312.178 153.962C312.641 153.702 313.199 153.572 313.85 153.572C314.501 153.572 315.058 153.702 315.522 153.962C315.985 154.22 316.341 154.582 316.588 155.048C316.835 155.512 316.959 156.051 316.959 156.666C316.959 157.28 316.835 157.82 316.588 158.287C316.341 158.75 315.985 159.112 315.522 159.373C315.058 159.63 314.501 159.759 313.85 159.759ZM313.865 158.166C314.048 158.166 314.205 158.104 314.338 157.982C314.471 157.86 314.574 157.685 314.647 157.458C314.719 157.232 314.756 156.962 314.756 156.65C314.756 156.335 314.719 156.065 314.647 155.841C314.574 155.615 314.471 155.44 314.338 155.318C314.205 155.195 314.048 155.134 313.865 155.134C313.673 155.134 313.507 155.195 313.369 155.318C313.231 155.44 313.126 155.615 313.053 155.841C312.98 156.065 312.943 156.335 312.943 156.65C312.943 156.962 312.98 157.232 313.053 157.458C313.126 157.685 313.231 157.86 313.369 157.982C313.507 158.104 313.673 158.166 313.865 158.166ZM317.834 159.65V153.65H319.928V154.791H319.99C320.1 154.369 320.273 154.06 320.51 153.865C320.749 153.669 321.029 153.572 321.35 153.572C321.443 153.572 321.536 153.58 321.627 153.595C321.721 153.608 321.811 153.628 321.897 153.654V155.494C321.79 155.457 321.658 155.43 321.502 155.412C321.346 155.393 321.212 155.384 321.1 155.384C320.889 155.384 320.699 155.432 320.529 155.529C320.363 155.623 320.231 155.755 320.135 155.927C320.038 156.097 319.99 156.296 319.99 156.525V159.65H317.834ZM324.088 159.798C323.731 159.798 323.425 159.673 323.169 159.424C322.917 159.171 322.792 158.865 322.795 158.505C322.792 158.154 322.917 157.854 323.169 157.605C323.425 157.356 323.731 157.231 324.088 157.231C324.427 157.231 324.725 157.356 324.984 157.605C325.245 157.854 325.377 158.154 325.381 158.505C325.377 158.745 325.314 158.964 325.191 159.161C325.071 159.354 324.914 159.51 324.72 159.627C324.527 159.741 324.316 159.798 324.088 159.798ZM324.088 155.033C323.731 155.033 323.425 154.909 323.169 154.659C322.917 154.407 322.792 154.101 322.795 153.741C322.792 153.39 322.917 153.09 323.169 152.841C323.425 152.591 323.731 152.467 324.088 152.467C324.427 152.467 324.725 152.591 324.984 152.841C325.245 153.09 325.377 153.39 325.381 153.741C325.377 153.981 325.314 154.199 325.191 154.396C325.071 154.59 324.914 154.746 324.72 154.863C324.527 154.976 324.316 155.033 324.088 155.033Z" fill="black"/>
<rect x="239.295" y="61.731" width="192.363" height="49.2258" fill="#E5DE28"/>
<path d="M294.3 79.8756H297.003L298.863 84.4069H298.956L300.816 79.8756H303.519V87.8756H301.394V83.2506H301.331L299.55 87.8131H298.269L296.488 83.2194H296.425V87.8756H294.3V79.8756ZM307.47 87.985C306.819 87.985 306.262 87.8561 305.798 87.5983C305.335 87.3378 304.979 86.9759 304.732 86.5123C304.484 86.0462 304.361 85.5058 304.361 84.8912C304.361 84.2767 304.484 83.7376 304.732 83.274C304.979 82.8079 305.335 82.4459 305.798 82.1881C306.262 81.9277 306.819 81.7975 307.47 81.7975C308.121 81.7975 308.678 81.9277 309.142 82.1881C309.606 82.4459 309.961 82.8079 310.208 83.274C310.456 83.7376 310.58 84.2767 310.58 84.8912C310.58 85.5058 310.456 86.0462 310.208 86.5123C309.961 86.9759 309.606 87.3378 309.142 87.5983C308.678 87.8561 308.121 87.985 307.47 87.985ZM307.486 86.3912C307.668 86.3912 307.826 86.33 307.958 86.2076C308.091 86.0852 308.194 85.9108 308.267 85.6842C308.34 85.4576 308.376 85.1881 308.376 84.8756C308.376 84.5605 308.34 84.291 308.267 84.067C308.194 83.8405 308.091 83.666 307.958 83.5436C307.826 83.4212 307.668 83.36 307.486 83.36C307.293 83.36 307.128 83.4212 306.99 83.5436C306.852 83.666 306.746 83.8405 306.673 84.067C306.6 84.291 306.564 84.5605 306.564 84.8756C306.564 85.1881 306.6 85.4576 306.673 85.6842C306.746 85.9108 306.852 86.0852 306.99 86.2076C307.128 86.33 307.293 86.3912 307.486 86.3912ZM313.626 87.9537C313.199 87.9537 312.806 87.8418 312.447 87.6178C312.09 87.3938 311.803 87.054 311.587 86.5983C311.374 86.1425 311.267 85.5683 311.267 84.8756C311.267 84.1517 311.379 83.5631 311.603 83.11C311.83 82.6569 312.121 82.3248 312.478 82.1139C312.837 81.903 313.215 81.7975 313.611 81.7975C313.908 81.7975 314.168 81.8496 314.392 81.9537C314.616 82.0553 314.803 82.192 314.955 82.3639C315.106 82.5332 315.22 82.7194 315.298 82.9225H315.33V79.8756H317.486V87.8756H315.345V86.8912H315.298C315.215 87.0944 315.095 87.2767 314.939 87.4381C314.785 87.597 314.598 87.7233 314.376 87.817C314.158 87.9082 313.908 87.9537 313.626 87.9537ZM314.423 86.2975C314.621 86.2975 314.79 86.2402 314.931 86.1256C315.074 86.0084 315.184 85.8444 315.259 85.6334C315.337 85.4199 315.376 85.1673 315.376 84.8756C315.376 84.5787 315.337 84.3248 315.259 84.1139C315.184 83.9003 315.074 83.7376 314.931 83.6256C314.79 83.511 314.621 83.4537 314.423 83.4537C314.225 83.4537 314.056 83.511 313.915 83.6256C313.777 83.7376 313.671 83.9003 313.595 84.1139C313.522 84.3248 313.486 84.5787 313.486 84.8756C313.486 85.1725 313.522 85.4277 313.595 85.6412C313.671 85.8522 313.777 86.0149 313.915 86.1295C314.056 86.2415 314.225 86.2975 314.423 86.2975ZM321.419 87.985C320.779 87.985 320.227 87.8626 319.763 87.6178C319.302 87.3704 318.947 87.0162 318.697 86.5553C318.449 86.0918 318.326 85.5371 318.326 84.8912C318.326 84.2714 318.451 83.7298 318.701 83.2662C318.951 82.8027 319.303 82.442 319.759 82.1842C320.215 81.9264 320.753 81.7975 321.372 81.7975C321.826 81.7975 322.236 81.8678 322.603 82.0084C322.97 82.149 323.284 82.3535 323.544 82.6217C323.805 82.8873 324.005 83.2102 324.146 83.5905C324.287 83.9707 324.357 84.399 324.357 84.8756V85.3756H318.997V84.1881H322.372C322.37 84.0162 322.326 83.8652 322.24 83.735C322.156 83.6022 322.043 83.4993 321.9 83.4264C321.759 83.3509 321.599 83.3131 321.419 83.3131C321.245 83.3131 321.085 83.3509 320.939 83.4264C320.793 83.4993 320.676 83.6009 320.587 83.7311C320.501 83.8613 320.456 84.0136 320.451 84.1881V85.4694C320.451 85.6621 320.491 85.8339 320.572 85.985C320.652 86.136 320.768 86.2545 320.919 86.3405C321.07 86.4264 321.253 86.4694 321.466 86.4694C321.615 86.4694 321.75 86.4485 321.872 86.4069C321.997 86.3652 322.104 86.3053 322.193 86.2272C322.281 86.1464 322.346 86.0501 322.388 85.9381H324.357C324.289 86.3548 324.129 86.7168 323.876 87.024C323.624 87.3287 323.289 87.5657 322.872 87.735C322.458 87.9017 321.974 87.985 321.419 87.985ZM327.393 79.8756V87.8756H325.237V79.8756H327.393ZM331.382 87.985C330.731 87.985 330.174 87.8561 329.71 87.5983C329.247 87.3378 328.891 86.9759 328.644 86.5123C328.397 86.0462 328.273 85.5058 328.273 84.8912C328.273 84.2767 328.397 83.7376 328.644 83.274C328.891 82.8079 329.247 82.4459 329.71 82.1881C330.174 81.9277 330.731 81.7975 331.382 81.7975C332.033 81.7975 332.591 81.9277 333.054 82.1881C333.518 82.4459 333.873 82.8079 334.121 83.274C334.368 83.7376 334.492 84.2767 334.492 84.8912C334.492 85.5058 334.368 86.0462 334.121 86.5123C333.873 86.9759 333.518 87.3378 333.054 87.5983C332.591 87.8561 332.033 87.985 331.382 87.985ZM331.398 86.3912C331.58 86.3912 331.738 86.33 331.871 86.2076C332.003 86.0852 332.106 85.9108 332.179 85.6842C332.252 85.4576 332.289 85.1881 332.289 84.8756C332.289 84.5605 332.252 84.291 332.179 84.067C332.106 83.8405 332.003 83.666 331.871 83.5436C331.738 83.4212 331.58 83.36 331.398 83.36C331.205 83.36 331.04 83.4212 330.902 83.5436C330.764 83.666 330.658 83.8405 330.585 84.067C330.512 84.291 330.476 84.5605 330.476 84.8756C330.476 85.1881 330.512 85.4576 330.585 85.6842C330.658 85.9108 330.764 86.0852 330.902 86.2076C331.04 86.33 331.205 86.3912 331.398 86.3912ZM336.539 88.0006C336.236 88.0006 335.977 87.8951 335.761 87.6842C335.548 87.4707 335.442 87.2115 335.445 86.9069C335.442 86.61 335.548 86.3561 335.761 86.1451C335.977 85.9342 336.236 85.8287 336.539 85.8287C336.825 85.8287 337.078 85.9342 337.296 86.1451C337.518 86.3561 337.63 86.61 337.632 86.9069C337.63 87.11 337.576 87.2949 337.472 87.4615C337.371 87.6256 337.238 87.7571 337.074 87.8561C336.91 87.9524 336.731 88.0006 336.539 88.0006ZM336.539 83.9694C336.236 83.9694 335.977 83.8639 335.761 83.653C335.548 83.4394 335.442 83.1803 335.445 82.8756C335.442 82.5787 335.548 82.3248 335.761 82.1139C335.977 81.903 336.236 81.7975 336.539 81.7975C336.825 81.7975 337.078 81.903 337.296 82.1139C337.518 82.3248 337.63 82.5787 337.632 82.8756C337.63 83.0787 337.576 83.2636 337.472 83.4303C337.371 83.5944 337.238 83.7259 337.074 83.8248C336.91 83.9212 336.731 83.9694 336.539 83.9694Z" fill="black"/>
<rect x="23.7383" y="61.731" width="192.363" height="49.2258" fill="#E5DE28"/>
<path d="M99.2497 81.604H101.644L103.676 86.5571H103.769L105.801 81.604H108.195V89.604H106.312V84.6899H106.246L104.324 89.5532H103.121L101.199 84.6626H101.133V89.604H99.2497V81.604ZM111.093 89.7056C110.71 89.7056 110.37 89.6418 110.073 89.5142C109.779 89.384 109.546 89.1886 109.374 88.9282C109.204 88.6652 109.12 88.3358 109.12 87.9399C109.12 87.6066 109.178 87.3254 109.296 87.0962C109.413 86.867 109.574 86.6808 109.78 86.5376C109.986 86.3944 110.223 86.2863 110.491 86.2134C110.759 86.1379 111.046 86.0871 111.35 86.061C111.691 86.0298 111.966 85.9972 112.175 85.9634C112.383 85.9269 112.534 85.8761 112.628 85.811C112.724 85.7433 112.772 85.6483 112.772 85.5259V85.5063C112.772 85.3058 112.703 85.1509 112.565 85.0415C112.427 84.9321 112.241 84.8774 112.007 84.8774C111.754 84.8774 111.551 84.9321 111.397 85.0415C111.244 85.1509 111.146 85.3019 111.104 85.4946L109.343 85.4321C109.395 85.0675 109.529 84.742 109.745 84.4556C109.964 84.1665 110.263 83.9399 110.643 83.7759C111.026 83.6092 111.486 83.5259 112.022 83.5259C112.405 83.5259 112.758 83.5715 113.081 83.6626C113.404 83.7511 113.685 83.8813 113.925 84.0532C114.164 84.2225 114.349 84.4308 114.479 84.6782C114.612 84.9256 114.678 85.2082 114.678 85.5259V89.604H112.882V88.7681H112.835C112.728 88.9712 112.591 89.1431 112.425 89.2837C112.26 89.4243 112.066 89.5298 111.843 89.6001C111.621 89.6704 111.371 89.7056 111.093 89.7056ZM111.682 88.4556C111.888 88.4556 112.073 88.4139 112.237 88.3306C112.404 88.2472 112.537 88.1326 112.635 87.9868C112.734 87.8384 112.784 87.6665 112.784 87.4712V86.9009C112.729 86.9295 112.663 86.9556 112.585 86.979C112.509 87.0024 112.426 87.0246 112.335 87.0454C112.244 87.0662 112.15 87.0845 112.053 87.1001C111.957 87.1157 111.865 87.13 111.776 87.1431C111.596 87.1717 111.443 87.216 111.315 87.2759C111.19 87.3358 111.094 87.4139 111.026 87.5103C110.961 87.604 110.928 87.716 110.928 87.8462C110.928 88.0441 110.999 88.1951 111.139 88.2993C111.283 88.4035 111.464 88.4556 111.682 88.4556ZM115.846 89.604V83.604H117.702V84.6978H117.764C117.874 84.3019 118.052 84.0076 118.3 83.8149C118.547 83.6196 118.835 83.522 119.163 83.522C119.251 83.522 119.343 83.5285 119.436 83.5415C119.53 83.5519 119.617 83.5688 119.698 83.5923V85.2524C119.607 85.2212 119.487 85.1965 119.339 85.1782C119.193 85.16 119.063 85.1509 118.948 85.1509C118.721 85.1509 118.517 85.2017 118.335 85.3032C118.155 85.4022 118.013 85.5415 117.909 85.7212C117.807 85.8983 117.757 86.1066 117.757 86.3462V89.604H115.846ZM122.966 89.7173C122.333 89.7173 121.79 89.5871 121.337 89.3267C120.886 89.0662 120.54 88.7043 120.298 88.2407C120.055 87.7746 119.934 87.2355 119.934 86.6235C119.934 86.009 120.055 85.4699 120.298 85.0063C120.542 84.5402 120.89 84.1769 121.341 83.9165C121.794 83.6561 122.334 83.5259 122.962 83.5259C123.516 83.5259 123.999 83.6261 124.411 83.8267C124.825 84.0272 125.148 84.311 125.38 84.6782C125.614 85.0428 125.738 85.4712 125.751 85.9634H123.966C123.929 85.6561 123.825 85.4152 123.653 85.2407C123.484 85.0662 123.262 84.979 122.989 84.979C122.768 84.979 122.574 85.0415 122.407 85.1665C122.24 85.2889 122.11 85.4712 122.016 85.7134C121.925 85.953 121.88 86.2498 121.88 86.604C121.88 86.9582 121.925 87.2576 122.016 87.5024C122.11 87.7446 122.24 87.9282 122.407 88.0532C122.574 88.1756 122.768 88.2368 122.989 88.2368C123.166 88.2368 123.322 88.1991 123.458 88.1235C123.596 88.048 123.709 87.9373 123.798 87.7915C123.886 87.6431 123.942 87.4634 123.966 87.2524H125.751C125.732 87.7472 125.609 88.1795 125.38 88.5493C125.153 88.9191 124.834 89.2069 124.423 89.4126C124.014 89.6157 123.528 89.7173 122.966 89.7173ZM128.42 89.7056C128.037 89.7056 127.697 89.6418 127.4 89.5142C127.106 89.384 126.873 89.1886 126.701 88.9282C126.532 88.6652 126.447 88.3358 126.447 87.9399C126.447 87.6066 126.506 87.3254 126.623 87.0962C126.74 86.867 126.901 86.6808 127.107 86.5376C127.313 86.3944 127.55 86.2863 127.818 86.2134C128.086 86.1379 128.373 86.0871 128.677 86.061C129.019 86.0298 129.293 85.9972 129.502 85.9634C129.71 85.9269 129.861 85.8761 129.955 85.811C130.051 85.7433 130.099 85.6483 130.099 85.5259V85.5063C130.099 85.3058 130.03 85.1509 129.892 85.0415C129.754 84.9321 129.568 84.8774 129.334 84.8774C129.081 84.8774 128.878 84.9321 128.724 85.0415C128.571 85.1509 128.473 85.3019 128.431 85.4946L126.67 85.4321C126.722 85.0675 126.856 84.742 127.072 84.4556C127.291 84.1665 127.59 83.9399 127.97 83.7759C128.353 83.6092 128.813 83.5259 129.349 83.5259C129.732 83.5259 130.085 83.5715 130.408 83.6626C130.731 83.7511 131.012 83.8813 131.252 84.0532C131.491 84.2225 131.676 84.4308 131.806 84.6782C131.939 84.9256 132.006 85.2082 132.006 85.5259V89.604H130.209V88.7681H130.162C130.055 88.9712 129.918 89.1431 129.752 89.2837C129.588 89.4243 129.394 89.5298 129.17 89.6001C128.948 89.6704 128.698 89.7056 128.42 89.7056ZM129.01 88.4556C129.215 88.4556 129.4 88.4139 129.564 88.3306C129.731 88.2472 129.864 88.1326 129.963 87.9868C130.062 87.8384 130.111 87.6665 130.111 87.4712V86.9009C130.056 86.9295 129.99 86.9556 129.912 86.979C129.836 87.0024 129.753 87.0246 129.662 87.0454C129.571 87.0662 129.477 87.0845 129.381 87.1001C129.284 87.1157 129.192 87.13 129.103 87.1431C128.924 87.1717 128.77 87.216 128.642 87.2759C128.517 87.3358 128.421 87.4139 128.353 87.5103C128.288 87.604 128.256 87.716 128.256 87.8462C128.256 88.0441 128.326 88.1951 128.467 88.2993C128.61 88.4035 128.791 88.4556 129.01 88.4556ZM134.248 89.7173C133.967 89.7173 133.726 89.6183 133.525 89.4204C133.327 89.2225 133.23 88.9829 133.232 88.7017C133.23 88.4256 133.327 88.1899 133.525 87.9946C133.726 87.7967 133.967 87.6978 134.248 87.6978C134.513 87.6978 134.748 87.7967 134.951 87.9946C135.157 88.1899 135.261 88.4256 135.263 88.7017C135.261 88.8892 135.211 89.0597 135.115 89.2134C135.021 89.367 134.898 89.4894 134.744 89.5806C134.593 89.6717 134.427 89.7173 134.248 89.7173ZM134.248 85.6001C133.967 85.6001 133.726 85.5024 133.525 85.3071C133.327 85.1092 133.23 84.8683 133.232 84.5845C133.23 84.3084 133.327 84.0728 133.525 83.8774C133.726 83.6795 133.967 83.5806 134.248 83.5806C134.513 83.5806 134.748 83.6795 134.951 83.8774C135.157 84.0728 135.261 84.3084 135.263 84.5845C135.261 84.772 135.211 84.9425 135.115 85.0962C135.021 85.2498 134.898 85.3722 134.744 85.4634C134.593 85.5545 134.427 85.6001 134.248 85.6001Z" fill="black"/>
<rect x="23.7383" y="129.504" width="192.363" height="49.2258" fill="#E5DE28"/>
<path d="M88.8565 160.015V152.015H92.3096C92.9034 152.015 93.4229 152.123 93.8682 152.339C94.3135 152.555 94.6599 152.867 94.9073 153.273C95.1547 153.679 95.2784 154.166 95.2784 154.734C95.2784 155.307 95.1507 155.79 94.8955 156.183C94.6429 156.576 94.2875 156.873 93.8291 157.074C93.3734 157.274 92.8409 157.374 92.2315 157.374H90.169V155.687H91.794C92.0492 155.687 92.2666 155.656 92.4463 155.593C92.6286 155.528 92.7679 155.425 92.8643 155.285C92.9632 155.144 93.0127 154.96 93.0127 154.734C93.0127 154.505 92.9632 154.318 92.8643 154.175C92.7679 154.029 92.6286 153.923 92.4463 153.855C92.2666 153.785 92.0492 153.749 91.794 153.749H91.0284V160.015H88.8565ZM93.544 156.343L95.544 160.015H93.1846L91.2315 156.343H93.544ZM98.9815 160.124C98.3409 160.124 97.7888 160.002 97.3252 159.757C96.8643 159.51 96.5088 159.156 96.2588 158.695C96.0114 158.231 95.8877 157.676 95.8877 157.031C95.8877 156.411 96.0127 155.869 96.2627 155.406C96.5127 154.942 96.8656 154.581 97.3213 154.324C97.777 154.066 98.3148 153.937 98.9346 153.937C99.3877 153.937 99.7979 154.007 100.165 154.148C100.532 154.288 100.846 154.493 101.106 154.761C101.367 155.027 101.567 155.35 101.708 155.73C101.849 156.11 101.919 156.538 101.919 157.015V157.515H96.5596V156.328H99.9346C99.932 156.156 99.8877 156.005 99.8018 155.874C99.7185 155.742 99.6052 155.639 99.4619 155.566C99.3213 155.49 99.1612 155.453 98.9815 155.453C98.807 155.453 98.6468 155.49 98.501 155.566C98.3552 155.639 98.238 155.74 98.1494 155.87C98.0635 156.001 98.0179 156.153 98.0127 156.328V157.609C98.0127 157.801 98.0531 157.973 98.1338 158.124C98.2145 158.275 98.3304 158.394 98.4815 158.48C98.6325 158.566 98.8148 158.609 99.0284 158.609C99.1768 158.609 99.3122 158.588 99.4346 158.546C99.5596 158.505 99.6664 158.445 99.7549 158.367C99.8435 158.286 99.9086 158.189 99.9502 158.078H101.919C101.851 158.494 101.691 158.856 101.439 159.163C101.186 159.468 100.851 159.705 100.435 159.874C100.021 160.041 99.5362 160.124 98.9815 160.124ZM106.393 154.015V155.578H102.377V154.015H106.393ZM103.143 160.015V153.843C103.143 153.348 103.231 152.938 103.408 152.613C103.585 152.287 103.835 152.044 104.158 151.882C104.481 151.721 104.861 151.64 105.299 151.64C105.572 151.64 105.838 151.661 106.096 151.703C106.356 151.744 106.549 151.781 106.674 151.812L106.361 153.359C106.283 153.335 106.192 153.317 106.088 153.304C105.984 153.288 105.893 153.281 105.814 153.281C105.611 153.281 105.475 153.324 105.404 153.41C105.334 153.495 105.299 153.609 105.299 153.749V160.015H103.143ZM109.917 160.124C109.276 160.124 108.724 160.002 108.261 159.757C107.8 159.51 107.444 159.156 107.194 158.695C106.947 158.231 106.823 157.676 106.823 157.031C106.823 156.411 106.948 155.869 107.198 155.406C107.448 154.942 107.801 154.581 108.257 154.324C108.713 154.066 109.25 153.937 109.87 153.937C110.323 153.937 110.733 154.007 111.101 154.148C111.468 154.288 111.782 154.493 112.042 154.761C112.302 155.027 112.503 155.35 112.644 155.73C112.784 156.11 112.855 156.538 112.855 157.015V157.515H107.495V156.328H110.87C110.868 156.156 110.823 156.005 110.737 155.874C110.654 155.742 110.541 155.639 110.397 155.566C110.257 155.49 110.097 155.453 109.917 155.453C109.743 155.453 109.582 155.49 109.437 155.566C109.291 155.639 109.174 155.74 109.085 155.87C108.999 156.001 108.953 156.153 108.948 156.328V157.609C108.948 157.801 108.989 157.973 109.069 158.124C109.15 158.275 109.266 158.394 109.417 158.48C109.568 158.566 109.75 158.609 109.964 158.609C110.112 158.609 110.248 158.588 110.37 158.546C110.495 158.505 110.602 158.445 110.69 158.367C110.779 158.286 110.844 158.189 110.886 158.078H112.855C112.787 158.494 112.627 158.856 112.374 159.163C112.121 159.468 111.787 159.705 111.37 159.874C110.956 160.041 110.472 160.124 109.917 160.124ZM113.734 160.015V154.015H115.828V155.156H115.891C116 154.734 116.173 154.425 116.41 154.23C116.65 154.035 116.93 153.937 117.25 153.937C117.344 153.937 117.436 153.945 117.527 153.96C117.621 153.973 117.711 153.993 117.797 154.019V155.859C117.69 155.822 117.559 155.795 117.402 155.777C117.246 155.759 117.112 155.749 117 155.749C116.789 155.749 116.599 155.798 116.43 155.894C116.263 155.988 116.132 156.12 116.035 156.292C115.939 156.462 115.891 156.661 115.891 156.89V160.015H113.734ZM121.035 160.124C120.395 160.124 119.842 160.002 119.379 159.757C118.918 159.51 118.563 159.156 118.313 158.695C118.065 158.231 117.941 157.676 117.941 157.031C117.941 156.411 118.066 155.869 118.316 155.406C118.566 154.942 118.919 154.581 119.375 154.324C119.831 154.066 120.369 153.937 120.988 153.937C121.441 153.937 121.852 154.007 122.219 154.148C122.586 154.288 122.9 154.493 123.16 154.761C123.421 155.027 123.621 155.35 123.762 155.73C123.902 156.11 123.973 156.538 123.973 157.015V157.515H118.613V156.328H121.988C121.986 156.156 121.941 156.005 121.855 155.874C121.772 155.742 121.659 155.639 121.516 155.566C121.375 155.49 121.215 155.453 121.035 155.453C120.861 155.453 120.701 155.49 120.555 155.566C120.409 155.639 120.292 155.74 120.203 155.87C120.117 156.001 120.072 156.153 120.066 156.328V157.609C120.066 157.801 120.107 157.973 120.188 158.124C120.268 158.275 120.384 158.394 120.535 158.48C120.686 158.566 120.869 158.609 121.082 158.609C121.23 158.609 121.366 158.588 121.488 158.546C121.613 158.505 121.72 158.445 121.809 158.367C121.897 158.286 121.962 158.189 122.004 158.078H123.973C123.905 158.494 123.745 158.856 123.492 159.163C123.24 159.468 122.905 159.705 122.488 159.874C122.074 160.041 121.59 160.124 121.035 160.124ZM127.009 156.64V160.015H124.853V154.015H126.899V155.156H126.962C127.092 154.775 127.321 154.477 127.649 154.261C127.98 154.045 128.366 153.937 128.806 153.937C129.23 153.937 129.599 154.035 129.911 154.23C130.226 154.423 130.47 154.688 130.642 155.027C130.816 155.365 130.902 155.752 130.899 156.187V160.015H128.743V156.64C128.746 156.343 128.67 156.11 128.517 155.941C128.366 155.772 128.155 155.687 127.884 155.687C127.707 155.687 127.552 155.726 127.419 155.804C127.289 155.88 127.189 155.989 127.118 156.132C127.048 156.273 127.011 156.442 127.009 156.64ZM134.855 160.124C134.203 160.124 133.646 159.995 133.183 159.738C132.719 159.477 132.364 159.115 132.116 158.652C131.869 158.186 131.745 157.645 131.745 157.031C131.745 156.416 131.869 155.877 132.116 155.413C132.364 154.947 132.719 154.585 133.183 154.328C133.646 154.067 134.203 153.937 134.855 153.937C135.443 153.937 135.952 154.044 136.382 154.257C136.814 154.468 137.149 154.768 137.386 155.156C137.623 155.541 137.743 155.994 137.745 156.515H135.745C135.717 156.2 135.625 155.96 135.472 155.796C135.321 155.63 135.125 155.546 134.886 155.546C134.698 155.546 134.534 155.601 134.394 155.71C134.253 155.817 134.144 155.98 134.065 156.199C133.987 156.415 133.948 156.687 133.948 157.015C133.948 157.343 133.987 157.617 134.065 157.835C134.144 158.051 134.253 158.214 134.394 158.324C134.534 158.43 134.698 158.484 134.886 158.484C135.045 158.484 135.185 158.447 135.308 158.374C135.43 158.299 135.529 158.189 135.605 158.046C135.683 157.9 135.73 157.723 135.745 157.515H137.745C137.737 158.044 137.616 158.505 137.382 158.898C137.147 159.288 136.815 159.591 136.386 159.804C135.959 160.018 135.448 160.124 134.855 160.124ZM138.635 160.015V154.015H140.791V160.015H138.635ZM139.713 153.39C139.421 153.39 139.171 153.294 138.963 153.101C138.755 152.908 138.65 152.676 138.65 152.406C138.65 152.135 138.755 151.903 138.963 151.71C139.171 151.518 139.421 151.421 139.713 151.421C140.007 151.421 140.257 151.518 140.463 151.71C140.671 151.903 140.775 152.135 140.775 152.406C140.775 152.676 140.671 152.908 140.463 153.101C140.257 153.294 140.007 153.39 139.713 153.39ZM143.562 160.109C143.179 160.109 142.84 160.046 142.546 159.921C142.254 159.794 142.025 159.601 141.858 159.343C141.692 159.085 141.608 158.757 141.608 158.359C141.608 158.031 141.664 157.751 141.776 157.519C141.888 157.285 142.045 157.093 142.245 156.945C142.446 156.796 142.679 156.683 142.944 156.605C143.213 156.527 143.502 156.476 143.812 156.453C144.147 156.426 144.417 156.395 144.62 156.359C144.826 156.32 144.974 156.266 145.065 156.199C145.157 156.128 145.202 156.036 145.202 155.921V155.906C145.202 155.749 145.142 155.63 145.022 155.546C144.903 155.463 144.749 155.421 144.562 155.421C144.356 155.421 144.188 155.467 144.058 155.558C143.93 155.647 143.853 155.783 143.827 155.968H141.843C141.869 155.604 141.985 155.268 142.19 154.96C142.399 154.65 142.702 154.403 143.101 154.218C143.499 154.031 143.996 153.937 144.593 153.937C145.022 153.937 145.408 153.988 145.749 154.089C146.09 154.188 146.381 154.328 146.62 154.507C146.86 154.684 147.042 154.893 147.167 155.132C147.295 155.369 147.358 155.627 147.358 155.906V160.015H145.343V159.171H145.296C145.176 159.395 145.03 159.576 144.858 159.714C144.689 159.852 144.495 159.953 144.276 160.015C144.06 160.078 143.822 160.109 143.562 160.109ZM144.265 158.749C144.429 158.749 144.582 158.716 144.726 158.648C144.871 158.58 144.99 158.482 145.081 158.355C145.172 158.227 145.218 158.072 145.218 157.89V157.39C145.161 157.413 145.099 157.436 145.034 157.456C144.972 157.477 144.904 157.497 144.831 157.515C144.761 157.533 144.685 157.55 144.605 157.566C144.526 157.581 144.444 157.596 144.358 157.609C144.192 157.635 144.055 157.678 143.948 157.738C143.844 157.795 143.766 157.867 143.714 157.953C143.664 158.036 143.64 158.13 143.64 158.234C143.64 158.4 143.698 158.528 143.815 158.617C143.933 158.705 144.082 158.749 144.265 158.749ZM149.561 160.14C149.258 160.14 148.999 160.035 148.783 159.824C148.57 159.61 148.464 159.351 148.467 159.046C148.464 158.749 148.57 158.495 148.783 158.285C148.999 158.074 149.258 157.968 149.561 157.968C149.847 157.968 150.1 158.074 150.318 158.285C150.54 158.495 150.652 158.749 150.654 159.046C150.652 159.249 150.598 159.434 150.494 159.601C150.393 159.765 150.26 159.897 150.096 159.995C149.932 160.092 149.753 160.14 149.561 160.14ZM149.561 156.109C149.258 156.109 148.999 156.003 148.783 155.792C148.57 155.579 148.464 155.32 148.467 155.015C148.464 154.718 148.57 154.464 148.783 154.253C148.999 154.042 149.258 153.937 149.561 153.937C149.847 153.937 150.1 154.042 150.318 154.253C150.54 154.464 150.652 154.718 150.654 155.015C150.652 155.218 150.598 155.403 150.494 155.57C150.393 155.734 150.26 155.865 150.096 155.964C149.932 156.061 149.753 156.109 149.561 156.109Z" fill="black"/>
<rect x="23.7271" y="18.5704" width="407.261" height="24.6129" fill="#DBB839"/>
<path d="M202.087 33.4012C201.669 33.4012 201.3 33.333 200.979 33.1967C200.661 33.0575 200.411 32.8472 200.229 32.566C200.047 32.2847 199.956 31.9268 199.956 31.4921C199.956 31.1342 200.017 30.8288 200.139 30.5759C200.261 30.3203 200.432 30.1115 200.651 29.9495C200.869 29.7876 201.124 29.664 201.413 29.5788C201.706 29.4936 202.021 29.4382 202.359 29.4126C202.726 29.3842 203.02 29.3501 203.242 29.3103C203.466 29.2677 203.628 29.2095 203.727 29.1356C203.827 29.0589 203.877 28.958 203.877 28.833V28.816C203.877 28.6455 203.811 28.5149 203.68 28.424C203.55 28.333 203.382 28.2876 203.178 28.2876C202.953 28.2876 202.77 28.3373 202.628 28.4367C202.489 28.5333 202.405 28.6825 202.377 28.8842H200.212C200.24 28.4864 200.367 28.12 200.591 27.7847C200.818 27.4467 201.149 27.1768 201.584 26.9751C202.019 26.7705 202.561 26.6683 203.212 26.6683C203.68 26.6683 204.101 26.7237 204.473 26.8345C204.845 26.9424 205.162 27.0944 205.423 27.2904C205.685 27.4836 205.884 27.7109 206.02 27.9722C206.159 28.2308 206.229 28.512 206.229 28.816V33.299H204.03V32.3785H203.979C203.848 32.6228 203.689 32.8203 203.502 32.9708C203.317 33.1214 203.105 33.2308 202.867 33.299C202.631 33.3671 202.371 33.4012 202.087 33.4012ZM202.854 31.9183C203.033 31.9183 203.2 31.8813 203.357 31.8075C203.516 31.7336 203.645 31.6271 203.744 31.4879C203.844 31.3487 203.894 31.1796 203.894 30.9808V30.4353C203.831 30.4609 203.764 30.485 203.693 30.5078C203.625 30.5305 203.551 30.5518 203.472 30.5717C203.395 30.5916 203.313 30.61 203.225 30.6271C203.139 30.6441 203.05 30.6597 202.956 30.674C202.774 30.7024 202.625 30.7492 202.509 30.8146C202.395 30.8771 202.31 30.9552 202.253 31.049C202.199 31.1399 202.172 31.2421 202.172 31.3558C202.172 31.5376 202.236 31.6768 202.364 31.7734C202.492 31.87 202.655 31.9183 202.854 31.9183ZM211.256 26.7535V28.458H206.944V26.7535H211.256ZM207.779 25.1853H210.131V31.1938C210.131 31.2847 210.147 31.3615 210.178 31.424C210.209 31.4836 210.258 31.5291 210.323 31.5603C210.388 31.5887 210.472 31.6029 210.574 31.6029C210.645 31.6029 210.728 31.5944 210.821 31.5774C210.918 31.5603 210.989 31.5461 211.035 31.5347L211.375 33.1882C211.27 33.2194 211.12 33.2578 210.924 33.3032C210.731 33.3487 210.5 33.3785 210.233 33.3927C209.694 33.4211 209.24 33.3657 208.874 33.2265C208.508 33.0845 208.232 32.8615 208.047 32.5575C207.863 32.2535 207.773 31.8728 207.779 31.4154V25.1853ZM212.216 33.299V26.7535H214.5V27.9978H214.568C214.688 27.5376 214.877 27.2009 215.135 26.9879C215.396 26.7748 215.702 26.6683 216.051 26.6683C216.153 26.6683 216.254 26.6768 216.354 26.6938C216.456 26.708 216.554 26.7293 216.648 26.7578V28.7649C216.531 28.7251 216.388 28.6953 216.217 28.6754C216.047 28.6555 215.901 28.6455 215.778 28.6455C215.548 28.6455 215.341 28.6981 215.156 28.8032C214.975 28.9055 214.831 29.0504 214.726 29.2379C214.621 29.4225 214.568 29.6399 214.568 29.8899V33.299H212.216ZM217.419 33.299V26.7535H219.771V33.299H217.419ZM218.595 26.0717C218.277 26.0717 218.004 25.9666 217.777 25.7563C217.55 25.5461 217.436 25.2933 217.436 24.9978C217.436 24.7024 217.55 24.4495 217.777 24.2393C218.004 24.0291 218.277 23.924 218.595 23.924C218.916 23.924 219.189 24.0291 219.413 24.2393C219.641 24.4495 219.754 24.7024 219.754 24.9978C219.754 25.2933 219.641 25.5461 219.413 25.7563C219.189 25.9666 218.916 26.0717 218.595 26.0717ZM220.936 33.299V24.5717H223.288V27.8955H223.322C223.407 27.674 223.532 27.4708 223.697 27.2862C223.862 27.0987 224.066 26.9495 224.311 26.8387C224.555 26.7251 224.839 26.6683 225.163 26.6683C225.595 26.6683 226.005 26.7833 226.395 27.0134C226.787 27.2436 227.105 27.6058 227.349 28.1001C227.596 28.5944 227.72 29.2365 227.72 30.0262C227.72 30.7819 227.602 31.4083 227.366 31.9055C227.133 32.4026 226.821 32.7734 226.429 33.0177C226.039 33.262 225.612 33.3842 225.146 33.3842C224.839 33.3842 224.565 33.3345 224.324 33.235C224.085 33.1328 223.88 32.995 223.71 32.8217C223.542 32.6455 223.413 32.4467 223.322 32.2251H223.271V33.299H220.936ZM223.237 30.0262C223.237 30.3444 223.278 30.62 223.361 30.8529C223.446 31.083 223.565 31.262 223.718 31.3899C223.875 31.5149 224.061 31.5774 224.277 31.5774C224.493 31.5774 224.676 31.5163 224.826 31.3941C224.98 31.2691 225.096 31.0916 225.176 30.8615C225.258 30.6285 225.299 30.3501 225.299 30.0262C225.299 29.7024 225.258 29.4254 225.176 29.1953C225.096 28.9623 224.98 28.7847 224.826 28.6626C224.676 28.5376 224.493 28.4751 224.277 28.4751C224.061 28.4751 223.875 28.5376 223.718 28.6626C223.565 28.7847 223.446 28.9623 223.361 29.1953C223.278 29.4254 223.237 29.7024 223.237 30.0262ZM232.949 30.4353V26.7535H235.301V33.299H233.068V32.0546H233C232.858 32.4722 232.609 32.799 232.254 33.0347C231.899 33.2677 231.477 33.3842 230.988 33.3842C230.531 33.3842 230.13 33.2791 229.787 33.0688C229.446 32.8586 229.18 32.5688 228.99 32.1995C228.802 31.8302 228.707 31.4069 228.704 30.9296V26.7535H231.057V30.4353C231.059 30.7592 231.142 31.0134 231.304 31.1981C231.468 31.3828 231.699 31.4751 231.994 31.4751C232.19 31.4751 232.359 31.4339 232.501 31.3515C232.646 31.2663 232.757 31.147 232.834 30.9936C232.913 30.8373 232.951 30.6512 232.949 30.4353ZM240.401 26.7535V28.458H236.088V26.7535H240.401ZM236.923 25.1853H239.276V31.1938C239.276 31.2847 239.291 31.3615 239.323 31.424C239.354 31.4836 239.402 31.5291 239.467 31.5603C239.533 31.5887 239.617 31.6029 239.719 31.6029C239.79 31.6029 239.872 31.5944 239.966 31.5774C240.063 31.5603 240.134 31.5461 240.179 31.5347L240.52 33.1882C240.415 33.2194 240.264 33.2578 240.068 33.3032C239.875 33.3487 239.645 33.3785 239.378 33.3927C238.838 33.4211 238.385 33.3657 238.019 33.2265C237.652 33.0845 237.377 32.8615 237.192 32.5575C237.007 32.2535 236.918 31.8728 236.923 31.4154V25.1853ZM244.427 33.4183C243.728 33.4183 243.125 33.2847 242.62 33.0177C242.117 32.7478 241.729 32.3615 241.456 31.8586C241.187 31.3529 241.052 30.7478 241.052 30.0433C241.052 29.3671 241.188 28.7762 241.461 28.2705C241.733 27.7649 242.118 27.3714 242.615 27.0901C243.113 26.8089 243.699 26.6683 244.375 26.6683C244.87 26.6683 245.317 26.745 245.718 26.8984C246.118 27.0518 246.461 27.2748 246.745 27.5674C247.029 27.8572 247.248 28.2095 247.401 28.6242C247.554 29.039 247.631 29.5063 247.631 30.0262V30.5717H241.785V29.2762H245.466C245.464 29.0887 245.415 28.924 245.321 28.7819C245.231 28.637 245.107 28.5248 244.951 28.4453C244.797 28.3629 244.623 28.3217 244.427 28.3217C244.236 28.3217 244.062 28.3629 243.902 28.4453C243.743 28.5248 243.615 28.6356 243.519 28.7776C243.425 28.9197 243.375 29.0859 243.37 29.2762V30.674C243.37 30.8842 243.414 31.0717 243.502 31.2365C243.59 31.4012 243.716 31.5305 243.881 31.6242C244.046 31.718 244.245 31.7649 244.478 31.7649C244.64 31.7649 244.787 31.7421 244.921 31.6967C245.057 31.6512 245.174 31.5859 245.27 31.5007C245.367 31.4126 245.438 31.3075 245.483 31.1853H247.631C247.557 31.6399 247.383 32.0347 247.107 32.37C246.831 32.7024 246.466 32.9609 246.012 33.1455C245.56 33.3274 245.032 33.4183 244.427 33.4183ZM254.574 28.8842H252.409C252.398 28.7507 252.351 28.6356 252.269 28.539C252.186 28.4424 252.08 28.3686 251.949 28.3174C251.821 28.2634 251.679 28.2365 251.523 28.2365C251.321 28.2365 251.148 28.2734 251.003 28.3472C250.858 28.4211 250.787 28.5262 250.79 28.6626C250.787 28.7592 250.828 28.8487 250.913 28.9311C251.002 29.0134 251.171 29.0774 251.421 29.1228L252.75 29.3615C253.421 29.4836 253.919 29.6896 254.246 29.9793C254.575 30.2663 254.742 30.6512 254.744 31.1342C254.742 31.6001 254.602 32.0049 254.327 32.3487C254.054 32.6896 253.68 32.9538 253.206 33.1413C252.734 33.3259 252.196 33.4183 251.591 33.4183C250.591 33.4183 249.808 33.2137 249.243 32.8046C248.68 32.3955 248.367 31.8558 248.301 31.1853H250.636C250.668 31.3927 250.77 31.5532 250.943 31.6668C251.119 31.7776 251.341 31.833 251.608 31.833C251.824 31.833 252.002 31.7961 252.141 31.7222C252.283 31.6484 252.355 31.5433 252.358 31.4069C252.355 31.2819 252.293 31.1825 252.171 31.1086C252.051 31.0347 251.864 30.9751 251.608 30.9296L250.449 30.7251C249.781 30.6086 249.281 30.387 248.949 30.0603C248.617 29.7336 248.452 29.3132 248.455 28.799C248.452 28.3444 248.571 27.9595 248.813 27.6441C249.057 27.3259 249.405 27.0845 249.857 26.9197C250.311 26.7521 250.85 26.6683 251.472 26.6683C252.418 26.6683 253.163 26.8643 253.709 27.2563C254.257 27.6484 254.546 28.191 254.574 28.8842Z" fill="black"/>
</svg>
