<svg width="4095" height="1578" viewBox="0 0 4095 1578" fill="none" xmlns="http://www.w3.org/2000/svg">
<rect width="4095" height="1578" fill="#EC812A"/>
<rect x="195" y="293.763" width="3705" height="259.967" fill="#C42B2B"/>
<path d="M1760.55 476.255V406.437H1784.37V419.71H1785.1C1786.55 415.346 1789.04 411.892 1792.55 409.346C1796.07 406.801 1800.25 405.528 1805.1 405.528C1810.01 405.528 1814.23 406.831 1817.78 409.437C1821.32 412.013 1823.46 415.437 1824.19 419.71H1824.91C1826.1 415.437 1828.61 412.013 1832.46 409.437C1836.31 406.831 1840.82 405.528 1846.01 405.528C1852.7 405.528 1858.13 407.68 1862.28 411.983C1866.46 416.286 1868.55 422.013 1868.55 429.164V476.255H1843.46V435.528C1843.46 432.467 1842.69 430.074 1841.14 428.346C1839.6 426.589 1837.52 425.71 1834.91 425.71C1832.34 425.71 1830.29 426.589 1828.78 428.346C1827.29 430.074 1826.55 432.467 1826.55 435.528V476.255H1802.55V435.528C1802.55 432.467 1801.78 430.074 1800.23 428.346C1798.69 426.589 1796.61 425.71 1794.01 425.71C1792.28 425.71 1790.79 426.104 1789.55 426.892C1788.31 427.68 1787.34 428.816 1786.64 430.301C1785.97 431.755 1785.64 433.498 1785.64 435.528V476.255H1760.55ZM1914.38 477.528C1906.93 477.528 1900.5 476.104 1895.11 473.255C1889.74 470.377 1885.61 466.255 1882.7 460.892C1879.82 455.498 1878.38 449.043 1878.38 441.528C1878.38 434.316 1879.83 428.013 1882.74 422.619C1885.65 417.225 1889.76 413.028 1895.06 410.028C1900.37 407.028 1906.62 405.528 1913.83 405.528C1919.11 405.528 1923.88 406.346 1928.15 407.983C1932.43 409.619 1936.08 411.998 1939.11 415.119C1942.14 418.21 1944.47 421.967 1946.11 426.392C1947.74 430.816 1948.56 435.801 1948.56 441.346V447.164H1886.2V433.346H1925.47C1925.44 431.346 1924.93 429.589 1923.93 428.074C1922.96 426.528 1921.64 425.331 1919.97 424.483C1918.33 423.604 1916.47 423.164 1914.38 423.164C1912.35 423.164 1910.49 423.604 1908.79 424.483C1907.09 425.331 1905.73 426.513 1904.7 428.028C1903.7 429.543 1903.17 431.316 1903.11 433.346V448.255C1903.11 450.498 1903.58 452.498 1904.52 454.255C1905.46 456.013 1906.8 457.392 1908.56 458.392C1910.32 459.392 1912.44 459.892 1914.93 459.892C1916.65 459.892 1918.23 459.649 1919.65 459.164C1921.11 458.68 1922.35 457.983 1923.38 457.074C1924.41 456.134 1925.17 455.013 1925.65 453.71H1948.56C1947.77 458.558 1945.91 462.771 1942.97 466.346C1940.03 469.892 1936.14 472.649 1931.29 474.619C1926.47 476.558 1920.83 477.528 1914.38 477.528ZM2000.44 406.437V424.619H1954.44V406.437H2000.44ZM1963.35 389.71H1988.44V453.801C1988.44 454.771 1988.6 455.589 1988.94 456.255C1989.27 456.892 1989.79 457.377 1990.48 457.71C1991.18 458.013 1992.07 458.164 1993.16 458.164C1993.92 458.164 1994.8 458.074 1995.8 457.892C1996.83 457.71 1997.59 457.558 1998.07 457.437L2001.71 475.074C2000.59 475.407 1998.98 475.816 1996.89 476.301C1994.83 476.786 1992.38 477.104 1989.53 477.255C1983.77 477.558 1978.94 476.967 1975.03 475.483C1971.12 473.967 1968.18 471.589 1966.21 468.346C1964.24 465.104 1963.29 461.043 1963.35 456.164V389.71ZM2043.56 477.528C2035.99 477.528 2029.5 476.028 2024.11 473.028C2018.71 469.998 2014.58 465.786 2011.7 460.392C2008.82 454.967 2007.38 448.68 2007.38 441.528C2007.38 434.377 2008.82 428.104 2011.7 422.71C2014.58 417.286 2018.71 413.074 2024.11 410.074C2029.5 407.043 2035.99 405.528 2043.56 405.528C2051.14 405.528 2057.62 407.043 2063.02 410.074C2068.41 413.074 2072.55 417.286 2075.43 422.71C2078.3 428.104 2079.74 434.377 2079.74 441.528C2079.74 448.68 2078.3 454.967 2075.43 460.392C2072.55 465.786 2068.41 469.998 2063.02 473.028C2057.62 476.028 2051.14 477.528 2043.56 477.528ZM2043.74 458.983C2045.87 458.983 2047.7 458.271 2049.24 456.846C2050.79 455.422 2051.99 453.392 2052.83 450.755C2053.68 448.119 2054.11 444.983 2054.11 441.346C2054.11 437.68 2053.68 434.543 2052.83 431.937C2051.99 429.301 2050.79 427.271 2049.24 425.846C2047.7 424.422 2045.87 423.71 2043.74 423.71C2041.5 423.71 2039.58 424.422 2037.97 425.846C2036.37 427.271 2035.14 429.301 2034.29 431.937C2033.44 434.543 2033.02 437.68 2033.02 441.346C2033.02 444.983 2033.44 448.119 2034.29 450.755C2035.14 453.392 2036.37 455.422 2037.97 456.846C2039.58 458.271 2041.5 458.983 2043.74 458.983ZM2115.2 477.164C2110.23 477.164 2105.65 475.861 2101.47 473.255C2097.32 470.649 2093.99 466.695 2091.47 461.392C2088.99 456.089 2087.74 449.407 2087.74 441.346C2087.74 432.922 2089.05 426.074 2091.65 420.801C2094.29 415.528 2097.68 411.664 2101.83 409.21C2106.02 406.755 2110.41 405.528 2115.02 405.528C2118.47 405.528 2121.5 406.134 2124.11 407.346C2126.71 408.528 2128.9 410.119 2130.65 412.119C2132.41 414.089 2133.74 416.255 2134.65 418.619H2135.02V383.164H2160.11V476.255H2135.2V464.801H2134.65C2133.68 467.164 2132.29 469.286 2130.47 471.164C2128.68 473.013 2126.5 474.483 2123.93 475.574C2121.38 476.634 2118.47 477.164 2115.2 477.164ZM2124.47 457.892C2126.77 457.892 2128.74 457.225 2130.38 455.892C2132.05 454.528 2133.32 452.619 2134.2 450.164C2135.11 447.68 2135.56 444.74 2135.56 441.346C2135.56 437.892 2135.11 434.937 2134.2 432.483C2133.32 429.998 2132.05 428.104 2130.38 426.801C2128.74 425.467 2126.77 424.801 2124.47 424.801C2122.17 424.801 2120.2 425.467 2118.56 426.801C2116.96 428.104 2115.71 429.998 2114.83 432.483C2113.99 434.937 2113.56 437.892 2113.56 441.346C2113.56 444.801 2113.99 447.771 2114.83 450.255C2115.71 452.71 2116.96 454.604 2118.56 455.937C2120.2 457.24 2122.17 457.892 2124.47 457.892ZM2206.06 477.528C2198.49 477.528 2192 476.028 2186.61 473.028C2181.21 469.998 2177.08 465.786 2174.2 460.392C2171.32 454.967 2169.88 448.68 2169.88 441.528C2169.88 434.377 2171.32 428.104 2174.2 422.71C2177.08 417.286 2181.21 413.074 2186.61 410.074C2192 407.043 2198.49 405.528 2206.06 405.528C2213.64 405.528 2220.12 407.043 2225.52 410.074C2230.91 413.074 2235.05 417.286 2237.93 422.71C2240.8 428.104 2242.24 434.377 2242.24 441.528C2242.24 448.68 2240.8 454.967 2237.93 460.392C2235.05 465.786 2230.91 469.998 2225.52 473.028C2220.12 476.028 2213.64 477.528 2206.06 477.528ZM2206.24 458.983C2208.37 458.983 2210.2 458.271 2211.74 456.846C2213.29 455.422 2214.49 453.392 2215.33 450.755C2216.18 448.119 2216.61 444.983 2216.61 441.346C2216.61 437.68 2216.18 434.543 2215.33 431.937C2214.49 429.301 2213.29 427.271 2211.74 425.846C2210.2 424.422 2208.37 423.71 2206.24 423.71C2204 423.71 2202.08 424.422 2200.47 425.846C2198.87 427.271 2197.64 429.301 2196.79 431.937C2195.94 434.543 2195.52 437.68 2195.52 441.346C2195.52 444.983 2195.94 448.119 2196.79 450.755C2197.64 453.392 2198.87 455.422 2200.47 456.846C2202.08 458.271 2204 458.983 2206.24 458.983ZM2316.24 429.164H2293.15C2293.03 427.74 2292.53 426.513 2291.65 425.483C2290.77 424.452 2289.64 423.664 2288.24 423.119C2286.88 422.543 2285.37 422.255 2283.7 422.255C2281.55 422.255 2279.7 422.649 2278.15 423.437C2276.61 424.225 2275.85 425.346 2275.88 426.801C2275.85 427.831 2276.29 428.786 2277.2 429.664C2278.14 430.543 2279.94 431.225 2282.61 431.71L2296.79 434.255C2303.94 435.558 2309.26 437.755 2312.74 440.846C2316.26 443.907 2318.03 448.013 2318.06 453.164C2318.03 458.134 2316.55 462.452 2313.61 466.119C2310.7 469.755 2306.71 472.574 2301.65 474.574C2296.62 476.543 2290.88 477.528 2284.43 477.528C2273.76 477.528 2265.41 475.346 2259.38 470.983C2253.38 466.619 2250.03 460.861 2249.33 453.71H2274.24C2274.58 455.922 2275.67 457.634 2277.52 458.846C2279.4 460.028 2281.76 460.619 2284.61 460.619C2286.91 460.619 2288.8 460.225 2290.29 459.437C2291.8 458.649 2292.58 457.528 2292.61 456.074C2292.58 454.74 2291.91 453.68 2290.61 452.892C2289.33 452.104 2287.33 451.467 2284.61 450.983L2272.24 448.801C2265.12 447.558 2259.79 445.195 2256.24 441.71C2252.7 438.225 2250.94 433.74 2250.97 428.255C2250.94 423.407 2252.21 419.301 2254.79 415.937C2257.4 412.543 2261.11 409.967 2265.93 408.21C2270.77 406.422 2276.52 405.528 2283.15 405.528C2293.24 405.528 2301.2 407.619 2307.02 411.801C2312.87 415.983 2315.94 421.771 2316.24 429.164Z" fill="black"/>
</svg>
