<svg width="55" height="55" viewBox="0 0 55 55" fill="none" xmlns="http://www.w3.org/2000/svg">
<rect width="55" height="55" rx="10" fill="#D9D9D9"/>
<path d="M21.8068 36V34.4659L27.5682 28.1591C28.2443 27.4205 28.8011 26.7784 29.2386 26.233C29.6761 25.6818 30 25.1648 30.2102 24.6818C30.4261 24.1932 30.5341 23.6818 30.5341 23.1477C30.5341 22.5341 30.3864 22.0028 30.0909 21.554C29.8011 21.1051 29.4034 20.7585 28.8977 20.5142C28.392 20.2699 27.8239 20.1477 27.1932 20.1477C26.5227 20.1477 25.9375 20.2869 25.4375 20.5653C24.9432 20.8381 24.5597 21.2216 24.2869 21.7159C24.0199 22.2102 23.8864 22.7898 23.8864 23.4545H21.875C21.875 22.4318 22.1108 21.5341 22.5824 20.7614C23.054 19.9886 23.696 19.3864 24.5085 18.9545C25.3267 18.5227 26.2443 18.3068 27.2614 18.3068C28.2841 18.3068 29.1903 18.5227 29.9801 18.9545C30.7699 19.3864 31.3892 19.9687 31.8381 20.7017C32.2869 21.4347 32.5114 22.25 32.5114 23.1477C32.5114 23.7898 32.3949 24.4176 32.1619 25.0312C31.9347 25.6392 31.5369 26.3182 30.9688 27.0682C30.4062 27.8125 29.625 28.7216 28.625 29.7955L24.7045 33.9886V34.125H32.8182V36H21.8068Z" fill="black"/>
</svg>
