<svg width="55" height="55" viewBox="0 0 55 55" fill="none" xmlns="http://www.w3.org/2000/svg">
<rect width="55" height="55" rx="10" fill="#252020"/>
<path d="M13.8295 36H11.6136L18.0227 18.5455H20.2045L26.6136 36H24.3977L19.1818 21.3068H19.0455L13.8295 36ZM14.6477 29.1818H23.5795V31.0568H14.6477V29.1818ZM42.5575 24H40.4439C40.3189 23.392 40.1001 22.858 39.7876 22.3977C39.4808 21.9375 39.1058 21.5511 38.6626 21.2386C38.2251 20.9205 37.7393 20.6818 37.2053 20.5227C36.6712 20.3636 36.1143 20.2841 35.5348 20.2841C34.478 20.2841 33.5206 20.5511 32.6626 21.0852C31.8104 21.6193 31.1314 22.4062 30.6257 23.446C30.1257 24.4858 29.8757 25.7614 29.8757 27.2727C29.8757 28.7841 30.1257 30.0597 30.6257 31.0994C31.1314 32.1392 31.8104 32.9261 32.6626 33.4602C33.5206 33.9943 34.478 34.2614 35.5348 34.2614C36.1143 34.2614 36.6712 34.1818 37.2053 34.0227C37.7393 33.8636 38.2251 33.6278 38.6626 33.3153C39.1058 32.9972 39.4808 32.608 39.7876 32.1477C40.1001 31.6818 40.3189 31.1477 40.4439 30.5455H42.5575C42.3984 31.4375 42.1087 32.2358 41.6882 32.9403C41.2678 33.6449 40.745 34.2443 40.12 34.7386C39.495 35.2273 38.7933 35.5994 38.0149 35.8551C37.2422 36.1108 36.4155 36.2386 35.5348 36.2386C34.0462 36.2386 32.7223 35.875 31.5632 35.1477C30.4041 34.4205 29.4922 33.3864 28.8274 32.0455C28.1626 30.7045 27.8303 29.1136 27.8303 27.2727C27.8303 25.4318 28.1626 23.8409 28.8274 22.5C29.4922 21.1591 30.4041 20.125 31.5632 19.3977C32.7223 18.6705 34.0462 18.3068 35.5348 18.3068C36.4155 18.3068 37.2422 18.4347 38.0149 18.6903C38.7933 18.946 39.495 19.321 40.12 19.8153C40.745 20.304 41.2678 20.9006 41.6882 21.6051C42.1087 22.304 42.3984 23.1023 42.5575 24Z" fill="#1F6B31"/>
</svg>
