<svg width="55" height="55" viewBox="0 0 55 55" fill="none" xmlns="http://www.w3.org/2000/svg">
<rect width="55" height="55" rx="10" fill="#D9D9D9"/>
<path d="M27.6023 36.2386C26.8864 36.2273 26.1705 36.0909 25.4545 35.8295C24.7386 35.5682 24.0852 35.1278 23.4943 34.5085C22.9034 33.8835 22.429 33.0398 22.071 31.9773C21.7131 30.9091 21.5341 29.5682 21.5341 27.9545C21.5341 26.4091 21.679 25.0398 21.9688 23.8466C22.2585 22.6477 22.679 21.6392 23.2301 20.821C23.7813 19.9972 24.446 19.3722 25.2244 18.946C26.0085 18.5199 26.892 18.3068 27.875 18.3068C28.8523 18.3068 29.7216 18.5028 30.483 18.8949C31.25 19.2812 31.875 19.821 32.358 20.5142C32.8409 21.2074 33.1534 22.0057 33.2955 22.9091H31.2159C31.0227 22.125 30.6477 21.4744 30.0909 20.9574C29.5341 20.4403 28.7955 20.1818 27.875 20.1818C26.5227 20.1818 25.4574 20.7699 24.679 21.946C23.9063 23.1222 23.517 24.7727 23.5114 26.8977H23.6477C23.9659 26.4148 24.3438 26.0028 24.7812 25.6619C25.2244 25.3153 25.7131 25.0483 26.2472 24.8608C26.7813 24.6733 27.3466 24.5795 27.9432 24.5795C28.9432 24.5795 29.858 24.8295 30.6875 25.3295C31.517 25.8239 32.1818 26.5085 32.6818 27.3835C33.1818 28.2528 33.4318 29.25 33.4318 30.375C33.4318 31.4545 33.1903 32.4432 32.7074 33.3409C32.2244 34.233 31.5455 34.9432 30.6705 35.4716C29.8011 35.9943 28.7784 36.25 27.6023 36.2386ZM27.6023 34.3636C28.3182 34.3636 28.9602 34.1847 29.5284 33.8267C30.1023 33.4687 30.554 32.9886 30.8835 32.3864C31.2188 31.7841 31.3864 31.1136 31.3864 30.375C31.3864 29.6534 31.2244 28.9972 30.9006 28.4062C30.5824 27.8097 30.142 27.3352 29.5795 26.983C29.0227 26.6307 28.3864 26.4545 27.6705 26.4545C27.1307 26.4545 26.6278 26.5625 26.1619 26.7784C25.696 26.9886 25.2869 27.2784 24.9347 27.6477C24.5881 28.017 24.3153 28.4403 24.1165 28.9176C23.9176 29.3892 23.8182 29.8864 23.8182 30.4091C23.8182 31.1023 23.9801 31.75 24.304 32.3523C24.6335 32.9545 25.0824 33.4403 25.6506 33.8097C26.2244 34.179 26.875 34.3636 27.6023 34.3636Z" fill="black"/>
</svg>
