<svg width="55" height="55" viewBox="0 0 55 55" fill="none" xmlns="http://www.w3.org/2000/svg">
<rect width="55" height="55" rx="10" fill="#D9D9D9"/>
<path d="M27.3977 36.2386C26.2273 36.2386 25.1932 36.0312 24.2955 35.6165C23.4034 35.196 22.7074 34.6193 22.2074 33.8864C21.7074 33.1477 21.4602 32.3068 21.4659 31.3636C21.4602 30.625 21.6051 29.9432 21.9006 29.3182C22.196 28.6875 22.5994 28.1619 23.1108 27.7415C23.6278 27.3153 24.2045 27.0455 24.8409 26.9318V26.8295C24.0057 26.6136 23.3409 26.1449 22.8466 25.4233C22.3523 24.696 22.108 23.8693 22.1136 22.9432C22.108 22.0568 22.3324 21.2642 22.7869 20.5653C23.2415 19.8665 23.8665 19.3153 24.6619 18.9119C25.4631 18.5085 26.375 18.3068 27.3977 18.3068C28.4091 18.3068 29.3125 18.5085 30.108 18.9119C30.9034 19.3153 31.5284 19.8665 31.983 20.5653C32.4432 21.2642 32.6761 22.0568 32.6818 22.9432C32.6761 23.8693 32.4233 24.696 31.9233 25.4233C31.429 26.1449 30.7727 26.6136 29.9545 26.8295V26.9318C30.5852 27.0455 31.1534 27.3153 31.6591 27.7415C32.1648 28.1619 32.5682 28.6875 32.8693 29.3182C33.1705 29.9432 33.3239 30.625 33.3295 31.3636C33.3239 32.3068 33.0682 33.1477 32.5625 33.8864C32.0625 34.6193 31.3665 35.196 30.4744 35.6165C29.5881 36.0312 28.5625 36.2386 27.3977 36.2386ZM27.3977 34.3636C28.1875 34.3636 28.8693 34.2358 29.4432 33.9801C30.017 33.7244 30.4602 33.3636 30.7727 32.8977C31.0852 32.4318 31.2443 31.8864 31.25 31.2614C31.2443 30.6023 31.0739 30.0199 30.7386 29.5142C30.4034 29.0085 29.946 28.6108 29.3665 28.321C28.7926 28.0312 28.1364 27.8864 27.3977 27.8864C26.6534 27.8864 25.9886 28.0312 25.4034 28.321C24.8239 28.6108 24.3665 29.0085 24.0312 29.5142C23.7017 30.0199 23.5398 30.6023 23.5455 31.2614C23.5398 31.8864 23.6903 32.4318 23.9972 32.8977C24.3097 33.3636 24.7557 33.7244 25.3352 33.9801C25.9148 34.2358 26.6023 34.3636 27.3977 34.3636ZM27.3977 26.0795C28.0227 26.0795 28.5767 25.9545 29.0597 25.7045C29.5483 25.4545 29.9318 25.1051 30.2102 24.6562C30.4886 24.2074 30.6307 23.6818 30.6364 23.0795C30.6307 22.4886 30.4915 21.9744 30.2188 21.5369C29.946 21.0937 29.5682 20.7528 29.0852 20.5142C28.6023 20.2699 28.0398 20.1477 27.3977 20.1477C26.7443 20.1477 26.1733 20.2699 25.6847 20.5142C25.196 20.7528 24.8182 21.0937 24.5511 21.5369C24.2841 21.9744 24.1534 22.4886 24.1591 23.0795C24.1534 23.6818 24.2869 24.2074 24.5597 24.6562C24.8381 25.1051 25.2216 25.4545 25.7102 25.7045C26.1989 25.9545 26.7614 26.0795 27.3977 26.0795Z" fill="black"/>
</svg>
