<svg width="55" height="55" viewBox="0 0 55 55" fill="none" xmlns="http://www.w3.org/2000/svg">
<rect width="55" height="55" rx="10" fill="#D9D9D9"/>
<path d="M26.7045 36.2386C25.5795 36.2386 24.5767 36.0455 23.696 35.6591C22.821 35.2727 22.125 34.7358 21.608 34.0483C21.0966 33.3551 20.8182 32.5511 20.7727 31.6364H22.9205C22.9659 32.1989 23.1591 32.6847 23.5 33.0938C23.8409 33.4972 24.2869 33.8097 24.8381 34.0312C25.3892 34.2528 26 34.3636 26.6705 34.3636C27.4205 34.3636 28.0852 34.233 28.6648 33.9716C29.2443 33.7102 29.6989 33.3466 30.0284 32.8807C30.358 32.4148 30.5227 31.875 30.5227 31.2614C30.5227 30.6193 30.3636 30.054 30.0455 29.5653C29.7273 29.071 29.2614 28.6847 28.6477 28.4062C28.0341 28.1278 27.2841 27.9886 26.3977 27.9886H25V26.1136H26.3977C27.0909 26.1136 27.6989 25.9886 28.2216 25.7386C28.75 25.4886 29.1619 25.1364 29.4574 24.6818C29.7585 24.2273 29.9091 23.6932 29.9091 23.0795C29.9091 22.4886 29.7784 21.9744 29.517 21.5369C29.2557 21.0994 28.8864 20.7585 28.4091 20.5142C27.9375 20.2699 27.3807 20.1477 26.7386 20.1477C26.1364 20.1477 25.5682 20.2585 25.0341 20.4801C24.5057 20.696 24.0739 21.0114 23.7386 21.4261C23.4034 21.8352 23.2216 22.3295 23.1932 22.9091H21.1477C21.1818 21.9943 21.4574 21.1932 21.9744 20.5057C22.4915 19.8125 23.1676 19.2727 24.0028 18.8864C24.8438 18.5 25.767 18.3068 26.7727 18.3068C27.8523 18.3068 28.7784 18.5256 29.5511 18.9631C30.3239 19.3949 30.9176 19.9659 31.3324 20.6761C31.7472 21.3864 31.9545 22.1534 31.9545 22.9773C31.9545 23.9602 31.696 24.7983 31.179 25.4915C30.6676 26.1847 29.9716 26.6648 29.0909 26.9318V27.0682C30.1932 27.25 31.054 27.7187 31.6733 28.4744C32.2926 29.2244 32.6023 30.1534 32.6023 31.2614C32.6023 32.2102 32.3438 33.0625 31.8267 33.8182C31.3153 34.5682 30.6165 35.1591 29.7301 35.5909C28.8438 36.0227 27.8352 36.2386 26.7045 36.2386Z" fill="black"/>
</svg>
