<svg width="55" height="55" viewBox="0 0 55 55" fill="none" xmlns="http://www.w3.org/2000/svg">
<rect width="55" height="55" rx="10" fill="#D9D9D9"/>
<path d="M27.5 36.2386C26.2159 36.2386 25.1222 35.8892 24.2188 35.1903C23.3153 34.4858 22.625 33.4659 22.1477 32.1307C21.6705 30.7898 21.4318 29.1705 21.4318 27.2727C21.4318 25.3864 21.6705 23.7756 22.1477 22.4403C22.6307 21.0994 23.3239 20.0767 24.2273 19.3722C25.1364 18.6619 26.2273 18.3068 27.5 18.3068C28.7727 18.3068 29.8608 18.6619 30.7642 19.3722C31.6733 20.0767 32.3665 21.0994 32.8438 22.4403C33.3267 23.7756 33.5682 25.3864 33.5682 27.2727C33.5682 29.1705 33.3295 30.7898 32.8523 32.1307C32.375 33.4659 31.6847 34.4858 30.7812 35.1903C29.8778 35.8892 28.7841 36.2386 27.5 36.2386ZM27.5 34.3636C28.7727 34.3636 29.7614 33.75 30.4659 32.5227C31.1705 31.2955 31.5227 29.5455 31.5227 27.2727C31.5227 25.7614 31.3608 24.4744 31.0369 23.4119C30.7188 22.3494 30.2585 21.5398 29.6562 20.983C29.0597 20.4261 28.3409 20.1477 27.5 20.1477C26.2386 20.1477 25.2528 20.7699 24.5426 22.0142C23.8324 23.2528 23.4773 25.0057 23.4773 27.2727C23.4773 28.7841 23.6364 30.0682 23.9545 31.125C24.2727 32.1818 24.7301 32.9858 25.3267 33.5369C25.929 34.0881 26.6534 34.3636 27.5 34.3636Z" fill="black"/>
</svg>
