<svg width="55" height="55" viewBox="0 0 55 55" fill="none" xmlns="http://www.w3.org/2000/svg">
<rect width="55" height="55" rx="10" fill="#D9D9D9"/>
<path d="M27.2614 36.2386C26.2614 36.2386 25.3608 36.0398 24.5597 35.642C23.7585 35.2443 23.1165 34.6989 22.6335 34.0057C22.1506 33.3125 21.8864 32.5227 21.8409 31.6364H23.8864C23.9659 32.4261 24.3239 33.0795 24.9602 33.5966C25.6023 34.108 26.3693 34.3636 27.2614 34.3636C27.9773 34.3636 28.6136 34.196 29.1705 33.8608C29.733 33.5256 30.1733 33.0653 30.4915 32.4801C30.8153 31.8892 30.9773 31.2216 30.9773 30.4773C30.9773 29.7159 30.8097 29.0369 30.4744 28.4403C30.1449 27.8381 29.6903 27.3636 29.1108 27.017C28.5313 26.6705 27.8693 26.4943 27.125 26.4886C26.5909 26.483 26.0426 26.5653 25.4801 26.7358C24.9176 26.9006 24.4545 27.1136 24.0909 27.375L22.1136 27.1364L23.1705 18.5455H32.2386V20.4205H24.9432L24.3295 25.5682H24.4318C24.7898 25.2841 25.2386 25.0483 25.7784 24.8608C26.3182 24.6733 26.8807 24.5795 27.4659 24.5795C28.5341 24.5795 29.4858 24.8352 30.321 25.3466C31.1619 25.8523 31.821 26.5455 32.2983 27.4261C32.7812 28.3068 33.0227 29.3125 33.0227 30.4432C33.0227 31.5568 32.7727 32.5511 32.2727 33.4261C31.7784 34.2955 31.0966 34.983 30.2273 35.4886C29.358 35.9886 28.3693 36.2386 27.2614 36.2386Z" fill="black"/>
</svg>
